<?xml version="1.0" encoding="UTF-8"?>
<svg version="1.1" xmlns="http://www.w3.org/2000/svg" width="1668" height="1667">
<path d="M0 0 C4.39880646 2.57148272 7.34314522 5.44796267 9.578125 10.08984375 C11.32430457 17.44402469 12.08268755 24.95878519 12.76171875 32.47265625 C12.86184769 33.54530228 12.96197662 34.6179483 13.06513977 35.72309875 C13.38849 39.21978652 13.70297108 42.71718427 14.015625 46.21484375 C14.1245105 47.4185965 14.233396 48.62234924 14.34558105 49.86257935 C15.92474228 67.40275532 17.26946438 84.94810186 18.328125 102.52734375 C18.38692841 103.50036438 18.44573181 104.47338501 18.50631714 105.47589111 C19.74626163 126.26778613 20.62610267 147.07982114 21.140625 167.90234375 C21.16147156 168.74458496 21.18231812 169.58682617 21.20379639 170.45458984 C21.94543339 201.47032126 21.89928363 232.51249925 21.140625 263.52734375 C21.11128876 264.74019043 21.11128876 264.74019043 21.08135986 265.97753906 C20.22392493 300.19738816 20.22392493 300.19738816 18.328125 312.52734375 C18.13416138 313.81535889 18.13416138 313.81535889 17.9362793 315.12939453 C11.20911124 357.64323978 -6.94751429 398.31230459 -36.4296875 429.9453125 C-38.22881289 431.88201807 -39.91896696 433.87133111 -41.609375 435.90234375 C-50.12912116 445.66743563 -60.33300106 454.02142069 -70.421875 462.08984375 C-71.61345609 463.07112597 -72.80346096 464.0543242 -73.9921875 465.0390625 C-99.36934025 486.00769061 -126.84779199 504.74214119 -155.421875 521.08984375 C-156.15164551 521.5084668 -156.88141602 521.92708984 -157.63330078 522.35839844 C-162.85801148 525.34030083 -168.12613329 528.2362352 -173.421875 531.08984375 C-174.28087402 531.55358398 -175.13987305 532.01732422 -176.02490234 532.49511719 C-195.98816031 543.22003991 -216.42170222 552.82686004 -237.421875 561.33984375 C-238.57260498 561.8181665 -239.72333496 562.29648926 -240.90893555 562.78930664 C-248.68700724 565.86775789 -255.63544701 567.80573303 -263.734375 564.90234375 C-269.50730083 561.00897517 -273.07082827 556.96463908 -274.421875 550.08984375 C-274.6679319 543.72189106 -273.65565962 539.02925914 -269.421875 534.08984375 C-265.88439539 530.95693267 -262.55022596 529.09653252 -258.171875 527.34765625 C-256.9258609 526.84135033 -255.67993377 526.33483032 -254.43408203 525.828125 C-253.78103088 525.56596191 -253.12797974 525.30379883 -252.45513916 525.03369141 C-236.07593465 518.43736542 -220.20036909 511.00706288 -204.421875 503.08984375 C-203.31021973 502.53264648 -202.19856445 501.97544922 -201.05322266 501.40136719 C-167.59604764 484.53661388 -135.8046966 464.26219421 -106.33984375 441.1015625 C-103.92523911 439.20979837 -101.49377599 437.44935374 -98.91015625 435.796875 C-95.87021147 433.72223919 -93.70558074 431.97180534 -91.421875 429.08984375 C-90.83552748 426.02474374 -90.83552748 426.02474374 -91.06640625 422.609375 C-91.09350677 421.63864296 -91.09350677 421.63864296 -91.12115479 420.64830017 C-91.19309913 418.46000361 -91.30409914 416.27613298 -91.421875 414.08984375 C-91.45948944 413.31193481 -91.49710388 412.53402588 -91.53585815 411.73254395 C-91.84150138 405.53397202 -92.24508231 399.34360994 -92.671875 393.15234375 C-92.73812073 392.17685577 -92.80436646 391.2013678 -92.87261963 390.19631958 C-96.62444476 281.9540922 -96.62444476 281.9540922 -142.359375 189.21484375 C-148.54743304 184.07399554 -155.439261 182.18827403 -163.421875 182.08984375 C-170.70026197 182.97532655 -177.10081315 185.93075966 -183.671875 189.02734375 C-184.71819092 189.51533447 -185.76450684 190.0033252 -186.8425293 190.50610352 C-215.13278604 203.82306278 -241.56638939 219.77107257 -265.421875 240.08984375 C-266.50500153 240.99894437 -267.58834737 241.90778373 -268.671875 242.81640625 C-283.42849642 255.25969249 -298.15342369 268.37448025 -310.6953125 283.0859375 C-312.63928546 285.34217761 -314.65511018 287.52348268 -316.671875 289.71484375 C-321.70527724 295.29996799 -326.30172219 301.17889698 -330.89453125 307.12548828 C-332.47270831 309.15522175 -334.07012954 311.16851242 -335.671875 313.1796875 C-350.27035296 331.58619039 -363.36455086 350.93673019 -375.421875 371.08984375 C-375.9595752 371.98123047 -376.49727539 372.87261719 -377.05126953 373.79101562 C-413.40434336 434.21151816 -440.11442402 499.08516835 -461.76165771 566.04925537 C-462.3849982 567.97586556 -463.0119656 569.90130119 -463.63916016 571.82666016 C-484.85551815 637.22945098 -499.35489109 705.13224305 -509.421875 773.08984375 C-509.55315796 773.9725293 -509.68444092 774.85521484 -509.81970215 775.76464844 C-513.26255737 799.01685429 -515.98121796 822.31184452 -518.171875 845.71484375 C-518.27292542 846.78110992 -518.37397583 847.8473761 -518.47808838 848.94595337 C-521.50340162 881.20857536 -522.76064124 913.28443977 -522.68261719 945.67993164 C-522.67118278 950.46043217 -522.67803266 955.24071087 -522.68950176 960.02120399 C-525.0104148 1058.08763676 -525.0104148 1058.08763676 -487.5546875 1144.44140625 C-472.63473495 1155.97294467 -447.93855544 1154.62926487 -430.28491211 1152.36962891 C-365.5022884 1142.46178136 -302.8436446 1104.9311314 -253.421875 1063.08984375 C-252.37936363 1062.2208052 -251.33636972 1061.35234527 -250.29296875 1060.484375 C-243.78302889 1055.04766152 -237.45206121 1049.45161166 -231.234375 1043.68359375 C-228.76459164 1041.40590465 -226.2583611 1039.18185857 -223.734375 1036.96484375 C-218.9150558 1032.63840947 -214.32082657 1028.09753305 -209.734375 1023.52734375 C-209.02128174 1022.81884277 -208.30818848 1022.1103418 -207.57348633 1021.38037109 C-203.53899763 1017.33416104 -199.68232841 1013.18860945 -195.9519043 1008.8605957 C-194.07186085 1006.68476116 -192.12283365 1004.57710213 -190.171875 1002.46484375 C-185.61545475 997.41500404 -181.43935902 992.12260219 -177.28125 986.74609375 C-175.45866033 984.39532504 -173.60085945 982.08601157 -171.6875 979.80859375 C-157.95478065 963.35379329 -145.89814434 944.77653379 -135.421875 926.08984375 C-134.93412598 925.22359375 -134.44637695 924.35734375 -133.94384766 923.46484375 C-101.67741014 865.84413085 -88.00008282 806.73636306 -87.91576409 741.10636473 C-87.90624339 736.13097286 -87.88003169 731.15566618 -87.85575867 726.18032837 C-87.81246025 716.80306342 -87.78369012 707.42581534 -87.76043528 698.04848158 C-87.7331844 687.35395703 -87.68928714 676.65951975 -87.64414656 665.96505809 C-87.55182676 644.00670058 -87.47990786 622.04831694 -87.421875 600.08984375 C-90.84534879 602.0026742 -94.26830983 603.91641882 -97.69082546 605.83096313 C-99.41883247 606.79736442 -101.14722899 607.76306912 -102.87563324 608.72875977 C-110.6458031 613.07613431 -118.35006345 617.50763436 -125.984375 622.08984375 C-127.68493417 623.10164818 -129.3854994 624.11344265 -131.08648682 625.12452698 C-134.88697649 627.38417839 -138.6844934 629.64878097 -142.47900391 631.91845703 C-158.79838344 641.66381916 -175.46831469 650.51293377 -192.421875 659.08984375 C-193.38899414 659.58726074 -194.35611328 660.08467773 -195.35253906 660.59716797 C-196.67463379 661.27223389 -196.67463379 661.27223389 -198.0234375 661.9609375 C-198.78221191 662.35079834 -199.54098633 662.74065918 -200.32275391 663.14233398 C-205.47612953 665.46848551 -211.11194888 666.15657869 -216.54296875 664.40625 C-222.33699632 661.76662685 -225.64349169 658.30787069 -228.734375 652.71484375 C-230.38389627 646.41667161 -229.81794876 641.09404103 -226.89916992 635.31689453 C-222.38472629 628.5112831 -212.90746685 625.24513461 -205.734375 621.96484375 C-187.86948367 613.57825781 -170.9191619 603.89039805 -154.1003418 593.59057617 C-135.69431347 582.32514644 -116.95520546 571.6434528 -97.93896484 561.44238281 C-95.56005521 560.16409383 -93.18794608 558.87392463 -90.81640625 557.58203125 C-23.11769256 520.9897156 45.44752129 506.58704671 120.34130859 528.91357422 C139.69016027 534.93772575 158.37063766 543.59691295 176.33203125 552.92773438 C178.96964831 554.29241451 181.61781002 555.63568493 184.265625 556.98046875 C198.00064038 563.99533395 211.39508535 571.4665617 224.64941406 579.34912109 C227.57702678 581.08919101 230.5102201 582.81945594 233.4453125 584.546875 C248.03318246 593.13840504 248.03318246 593.13840504 253.51171875 596.48046875 C266.82619214 604.60208137 280.4657925 612.14253812 294.484375 618.98046875 C295.497631 619.47702469 295.497631 619.47702469 296.53135681 619.98361206 C299.87489448 621.6210159 303.22449327 623.24267525 306.58813477 624.83837891 C307.82595158 625.43987852 309.06351239 626.04190531 310.30078125 626.64453125 C311.39140869 627.16515137 312.48203613 627.68577148 313.60571289 628.22216797 C318.08182848 631.03467592 321.74032107 635.04093186 323.578125 640.08984375 C324.40247371 646.26287361 324.06249017 651.91742973 320.91796875 657.3671875 C317.69625762 661.50938753 313.71223228 664.07706087 308.578125 665.08984375 C300.93552001 665.90869428 295.37635813 663.35132737 288.578125 660.08984375 C287.81193848 659.72455566 287.04575195 659.35926758 286.25634766 658.98291016 C266.29958362 649.3948946 247.23365693 638.35368197 228.29711914 626.9074707 C220.16112618 622.00288369 211.95378074 617.23536841 203.703125 612.52734375 C202.55690674 611.8727417 201.41068848 611.21813965 200.22973633 610.54370117 C195.1305273 607.64262681 190.01576241 604.77753211 184.86422729 601.97035217 C183.87417128 601.43072877 182.88411526 600.89110537 181.86405754 600.33512974 C181.1096998 599.92418536 180.35534206 599.51324099 179.578125 599.08984375 C179.50770687 622.38790649 179.45497743 645.68595141 179.42268848 668.98409939 C179.40729048 679.8044588 179.38633801 690.62475168 179.35180664 701.44506836 C179.32168587 710.88792393 179.30249882 720.33073126 179.29585952 729.77363354 C179.29198522 734.76279467 179.28303202 739.75181792 179.26093483 744.74093437 C179.17302725 765.39213364 179.17260629 785.65456181 182.578125 806.08984375 C182.7001359 806.83765987 182.8221468 807.585476 182.947855 808.35595322 C183.62237442 812.43738133 184.39728083 816.48276795 185.265625 820.52734375 C185.51908691 821.72488281 185.77254883 822.92242188 186.03369141 824.15625 C197.7027563 877.35654586 223.05320937 926.71615692 255.578125 970.08984375 C256.03703125 970.70182617 256.4959375 971.31380859 256.96875 971.94433594 C264.72571221 982.23942181 272.7922662 992.23753667 281.47265625 1001.76953125 C283.30730185 1003.79138559 285.10581286 1005.83662897 286.890625 1007.90234375 C297.39039305 1019.92627167 308.29165303 1031.89925891 320.46484375 1042.2578125 C322.63454249 1044.13875282 324.7427819 1046.07899114 326.84692383 1048.03271484 C332.89530705 1053.64394622 339.13452681 1058.93326054 345.578125 1064.08984375 C346.70896457 1065.0122475 347.83914015 1065.93546571 348.96875 1066.859375 C372.00151929 1085.61436313 396.77529516 1101.43656259 422.578125 1116.08984375 C423.26648437 1116.48510254 423.95484375 1116.88036133 424.6640625 1117.28759766 C463.92664873 1139.73088394 518.43425774 1162.08056276 564.41015625 1151.05859375 C575.80627459 1147.57371416 581.96997247 1142.20509785 587.60546875 1131.73193359 C610.91573872 1086.30989337 613.66276378 1026.7961163 613.78125 976.6484375 C613.78826915 974.80806961 613.79535599 972.96770198 613.80250549 971.12733459 C613.82195779 965.26066754 613.82694108 959.39403978 613.828125 953.52734375 C613.82856686 952.52776642 613.82900871 951.52818909 613.82946396 950.49832153 C613.83633971 920.85307372 613.58905335 891.35941407 610.83135986 861.81921387 C610.56498555 858.94822653 610.31076414 856.07632677 610.05810547 853.20410156 C601.58545446 757.83739547 583.96502709 662.30319593 554.578125 571.08984375 C554.20460907 569.92956665 554.20460907 569.92956665 553.82354736 568.74584961 C550.40681177 558.15819757 546.88024268 547.60997715 543.2644043 537.08874512 C542.60914533 535.18019557 541.95779532 533.2703053 541.30664062 531.36035156 C525.02762967 483.79470683 504.46904883 436.79321557 479.578125 393.08984375 C478.76093994 391.6510083 478.76093994 391.6510083 477.92724609 390.18310547 C466.13530446 369.50097459 453.6349232 349.31534119 439.578125 330.08984375 C439.09134277 329.42291504 438.60456055 328.75598633 438.10302734 328.06884766 C430.58502601 317.81117269 422.71078302 307.86607036 414.578125 298.08984375 C414.08344727 297.49461914 413.58876953 296.89939453 413.07910156 296.28613281 C400.1208611 280.76567513 386.32361183 265.20795144 370.90625 252.078125 C369.02254355 250.46938912 367.16414286 248.8404583 365.3125 247.1953125 C339.05199944 223.96162466 288.42946675 180.66103567 251.578125 182.08984375 C243.54154306 183.19686961 237.4693484 185.49628217 231.578125 191.08984375 C230.93488281 191.68152344 230.29164063 192.27320313 229.62890625 192.8828125 C187.13332972 236.04629593 187.97300364 333.45799096 184.17959595 389.85784912 C183.83607752 394.86644905 183.41846094 399.8503498 182.8497467 404.83840942 C181.04915983 416.21112257 181.04915983 416.21112257 183.68066406 427.03515625 C186.73464678 430.60609457 190.44185436 432.75101394 194.55224609 434.9296875 C197.9840909 436.89499559 200.87783236 439.48391503 203.890625 442.02734375 C211.83968428 448.45202487 220.1461356 454.32068159 228.578125 460.08984375 C229.36928711 460.63366699 230.16044922 461.17749023 230.97558594 461.73779297 C252.68044481 476.60677992 275.27210089 489.89589099 298.578125 502.08984375 C299.48062988 502.56373535 300.38313477 503.03762695 301.31298828 503.52587891 C314.55185452 510.43405897 328.10202576 516.47321527 341.859375 522.265625 C342.95088867 522.72606201 344.04240234 523.18649902 345.16699219 523.66088867 C347.5751448 524.66968607 349.9863525 525.6664848 352.40332031 526.65356445 C353.66477436 527.17644836 354.92616918 527.69947517 356.1875 528.22265625 C357.32155273 528.68687988 358.45560547 529.15110352 359.62402344 529.62939453 C364.75374344 532.16542636 367.16695298 535.6523648 369.953125 540.46484375 C371.48519732 546.8995475 371.17924612 552.46850739 367.921875 558.296875 C364.6475169 562.66585863 360.02914367 565.58022851 354.60742188 566.38085938 C346.34878658 566.79274398 339.51400907 563.76452691 332.078125 560.58984375 C330.67809287 560.0054716 329.27786049 559.42157901 327.87744141 558.83813477 C304.18159047 548.88330774 280.85857139 537.92017542 258.578125 525.08984375 C257.25095459 524.3313916 257.25095459 524.3313916 255.89697266 523.55761719 C207.33267302 495.71004198 154.23122516 460.73145713 120.578125 415.08984375 C120.15192871 414.52442871 119.72573242 413.95901367 119.28662109 413.37646484 C92.7777596 378.20182342 78.71095641 335.60112796 76.46875 291.8125 C76.42687813 291.01731524 76.38500626 290.22213047 76.34186554 289.4028492 C75.17829502 266.61464072 75.27527648 243.80049571 75.31738281 220.98901367 C75.32873241 214.79365209 75.32201961 208.59846324 75.31050682 202.40310764 C75.26242499 171.91288596 75.81255395 141.53106317 77.578125 111.08984375 C77.61912323 110.37787968 77.66012146 109.6659156 77.70236206 108.93237686 C78.2085273 100.2080421 78.80397898 91.49208424 79.453125 82.77734375 C79.53705505 81.62597931 79.62098511 80.47461487 79.7074585 79.2883606 C80.85977507 63.51769604 82.15703953 47.76443094 83.703125 32.02734375 C83.783349 31.19568695 83.863573 30.36403015 83.94622803 29.50717163 C84.17238163 27.18879124 84.40827164 24.87165365 84.6484375 22.5546875 C84.78008301 21.27198975 84.91172852 19.98929199 85.04736328 18.66772461 C86.07487864 11.74121237 87.56008724 7.10788151 92.578125 2.08984375 C97.98582333 -1.86700869 104.14209276 -1.68005796 110.578125 -0.91015625 C115.99532227 0.82687983 119.33842542 4.6114355 122.578125 9.08984375 C125.31116134 17.28895277 123.43238422 27.28032235 122.58984375 35.75390625 C122.37696671 38.0089224 122.16441558 40.26396933 121.95214844 42.51904297 C121.78386536 44.27809967 121.78386536 44.27809967 121.61218262 46.07269287 C119.68263332 66.35131131 118.019056 86.62917638 116.828125 106.96484375 C116.76950287 107.95156067 116.71088074 108.93827759 116.65048218 109.95489502 C115.20637938 134.50335579 114.42177833 159.00625005 114.4453125 183.59765625 C114.44463579 186.14859018 114.44366275 188.69952405 114.44241333 191.25045776 C114.4409541 196.5496267 114.44293305 201.84878282 114.44775391 207.14794922 C114.45319739 213.19989437 114.45142319 219.25180581 114.4459275 225.30375016 C114.44077396 231.22507544 114.44140619 237.14638833 114.44430923 243.06771469 C114.44496625 245.54310994 114.44419413 248.01850609 114.44182968 250.4939003 C114.43272119 262.69974005 114.52248594 274.88807277 115.00830078 287.08544922 C115.04492765 288.03061464 115.08155453 288.97578007 115.11929131 289.94958687 C116.54544258 321.83915946 124.94266089 356.88711424 145.578125 382.08984375 C145.67311279 380.90583984 145.76810059 379.72183594 145.8659668 378.50195312 C159.47549457 210.1971392 159.47549457 210.1971392 203.578125 164.08984375 C204.16335938 163.44144531 204.74859375 162.79304687 205.3515625 162.125 C215.5887259 151.1428787 231.64917882 144.35572221 246.59375 143.7890625 C248.33848672 143.77467562 250.083341 143.77086238 251.828125 143.77734375 C252.68019531 143.76123047 253.53226563 143.74511719 254.41015625 143.72851562 C266.33116673 143.71963261 276.90547402 147.23292641 287.640625 152.15234375 C288.71699219 152.63695068 289.79335938 153.12155762 290.90234375 153.62084961 C325.19570061 169.1891621 356.74510762 188.79649294 385.578125 213.08984375 C386.35373779 213.73808105 386.35373779 213.73808105 387.14501953 214.39941406 C402.82891798 227.52560215 418.49822334 241.42868835 431.78515625 257.01953125 C433.90959324 259.47258485 436.12001137 261.83687522 438.328125 264.21484375 C443.07487142 269.42049012 447.42658718 274.86278961 451.734375 280.43359375 C454.09988115 283.49176192 456.52147749 286.49951803 458.96069336 289.49902344 C482.3623729 318.36351939 502.04161302 350.38121585 519.578125 383.08984375 C520.0215625 383.91500488 520.465 384.74016602 520.921875 385.59033203 C566.97133359 471.66124717 597.69395316 564.8448601 649.35809326 858.42700195 C649.57786124 861.08665173 649.80635609 863.74545279 650.03564453 866.40429688 C652.33725733 893.57245054 652.86647275 920.68590986 652.88819885 947.93555069 C652.89057842 950.47758004 652.89588791 953.01959097 652.90148926 955.56161499 C652.94805049 984.41521256 652.03960556 1013.21213335 648.765625 1041.90234375 C648.68197693 1042.6550354 648.59832886 1043.40772705 648.512146 1044.18322754 C643.61743982 1087.96144319 636.72620776 1146.72545423 600.578125 1177.08984375 C589.94358515 1185.33112962 574.78909666 1189.50535026 561.578125 1191.08984375 C560.21300781 1191.25419922 560.21300781 1191.25419922 558.8203125 1191.421875 C507.29828535 1196.80370235 451.65095531 1176.21606949 406.578125 1153.08984375 C405.74200684 1152.66799805 404.90588867 1152.24615234 404.04443359 1151.81152344 C373.42652383 1136.25850791 344.85395794 1114.2894472 318.41015625 1092.58544922 C316.82977775 1091.29528415 315.23638509 1090.02109081 313.640625 1088.75 C307.50735565 1083.84886065 301.74990958 1078.62195333 296.05444336 1073.22485352 C292.99718355 1070.32926575 289.91179047 1067.49570438 286.71875 1064.75 C281.93860909 1060.59607084 277.48121937 1056.13932165 273.015625 1051.65234375 C272.20416016 1050.84474609 271.39269531 1050.03714844 270.55664062 1049.20507812 C266.24460207 1044.88607905 262.08785299 1040.4929905 258.10864258 1035.86547852 C256.02818547 1033.45182968 253.86524791 1031.1178236 251.703125 1028.77734375 C246.78299057 1023.3748432 242.13554754 1017.79998121 237.578125 1012.08984375 C236.9581665 1011.31930664 236.9581665 1011.31930664 236.32568359 1010.53320312 C192.84333585 956.43782654 160.0710063 894.21454824 146.328125 825.83984375 C146.09383789 824.70119873 145.85955078 823.56255371 145.61816406 822.3894043 C140.23469607 794.19184938 140.10473786 765.95035212 140.07201409 737.35974288 C140.06249452 731.77578271 140.03628285 726.19189846 140.01200867 720.60798645 C139.96870728 710.08334219 139.93993892 699.55871296 139.91668528 689.03400737 C139.88943605 677.03110017 139.84553864 665.02827075 139.80039656 653.02541959 C139.70807247 628.3802701 139.63615546 603.73509622 139.578125 579.08984375 C136.87392049 577.8028279 134.1682563 576.51904993 131.46166992 575.23706055 C130.7022686 574.8752343 129.94286728 574.51340805 129.1604538 574.14061737 C123.19162782 571.31805261 117.17973047 568.92376301 110.890625 566.90234375 C109.87935547 566.57339111 108.86808594 566.24443848 107.82617188 565.90551758 C55.96292217 549.43772404 4.99951575 554.55637269 -44.1328125 577.62109375 C-47.421875 579.08984375 -47.421875 579.08984375 -49.421875 579.08984375 C-49.41910962 580.57047381 -49.41910962 580.57047381 -49.41628838 582.08101559 C-49.37169646 606.20740777 -49.3389326 630.33379455 -49.31825066 654.46021938 C-49.3079807 666.12803559 -49.29400323 677.79582442 -49.27099609 689.46362305 C-49.25093008 699.64480629 -49.23812755 709.82596969 -49.23369801 720.00717217 C-49.23111277 725.38753696 -49.22512799 730.76784502 -49.21041489 736.14819145 C-49.14026251 762.84719383 -49.20444089 789.24203086 -53.671875 815.65234375 C-53.77924988 816.29617004 -53.88662476 816.93999634 -53.99725342 817.60333252 C-59.28099543 849.10341221 -68.9228858 880.12798362 -82.421875 909.08984375 C-82.87143555 910.06824219 -83.32099609 911.04664063 -83.78417969 912.0546875 C-96.71097427 940.096292 -112.12023311 966.9346479 -131.08300781 991.35400391 C-133.13043964 994.00849703 -135.11512056 996.70768507 -137.109375 999.40234375 C-141.38755414 1005.1014621 -145.85510758 1010.62025575 -150.421875 1016.08984375 C-150.84194824 1016.59628418 -151.26202148 1017.10272461 -151.69482422 1017.62451172 C-160.55884646 1028.30274986 -169.78779865 1038.60408363 -179.6953125 1048.328125 C-181.37064982 1050.03757552 -182.89858475 1051.80728899 -184.421875 1053.65234375 C-187.09111648 1056.83821261 -190.05583286 1059.45455987 -193.21875 1062.140625 C-195.72781631 1064.36052587 -198.06938307 1066.70487877 -200.421875 1069.08984375 C-204.60073624 1073.30669464 -208.90512264 1077.24252487 -213.421875 1081.08984375 C-214.42660549 1081.96911112 -215.4304373 1082.84940598 -216.43359375 1083.73046875 C-224.80283524 1091.0440862 -233.47861211 1097.86494789 -242.36621094 1104.53564453 C-244.22501407 1105.94100567 -246.06475723 1107.36680738 -247.8984375 1108.8046875 C-257.27589428 1116.09210748 -267.113603 1122.68451306 -276.984375 1129.27734375 C-277.68280518 1129.74502167 -278.38123535 1130.21269958 -279.10083008 1130.69454956 C-333.31442181 1166.93951288 -409.40396094 1202.62765182 -476.421875 1190.08984375 C-492.04990649 1186.79938892 -505.01539095 1181.63591764 -516.421875 1170.08984375 C-517.03546875 1169.49816406 -517.6490625 1168.90648437 -518.28125 1168.296875 C-554.50261877 1130.66320515 -557.62333624 1058.25434101 -560.421875 1009.08984375 C-560.50800049 1007.80754883 -560.59412598 1006.52525391 -560.68286133 1005.20410156 C-561.78997457 987.56465447 -561.6231798 969.88106438 -561.609375 952.21484375 C-561.60896084 951.36424881 -561.60854668 950.51365387 -561.60811996 949.63728333 C-561.57861593 901.28051865 -561.57861593 901.28051865 -559.63409424 877.67962646 C-559.39391716 874.7486648 -559.16353969 871.8169973 -558.93310547 868.88525391 C-550.87808286 767.42032916 -533.71709131 666.33151148 -417.421875 363.08984375 C-416.95813477 362.28562988 -416.49439453 361.48141602 -416.01660156 360.65283203 C-402.69198726 337.55588283 -387.64101477 315.24818831 -371.421875 294.08984375 C-370.69846924 293.14117432 -370.69846924 293.14117432 -369.96044922 292.17333984 C-360.37301645 279.6399925 -350.04933213 267.7487352 -339.421875 256.08984375 C-338.60589844 255.18105469 -337.78992188 254.27226563 -336.94921875 253.3359375 C-327.69624847 243.10179806 -318.1663357 232.83651814 -307.60546875 223.93359375 C-305.78227494 222.39415283 -303.99162227 220.82966893 -302.20703125 219.24609375 C-271.59972369 192.18686299 -236.58831701 169.59273515 -199.234375 153.02734375 C-198.24429443 152.58648438 -197.25421387 152.145625 -196.23413086 151.69140625 C-186.72572749 147.57966425 -176.83039538 143.77236968 -166.421875 143.08984375 C-165.71417969 143.03828125 -165.00648438 142.98671875 -164.27734375 142.93359375 C-147.51718593 142.26652279 -131.48832704 147.73767885 -118.421875 158.08984375 C-117.61105469 158.7240625 -116.80023437 159.35828125 -115.96484375 160.01171875 C-65.93180031 201.92916617 -62.16438286 293.17511154 -56.80810547 353.59472656 C-56.14426832 361.23468411 -55.53876542 368.87977334 -55.01660156 376.53076172 C-54.95053711 377.48354004 -54.88447266 378.43631836 -54.81640625 379.41796875 C-54.73676636 380.6385498 -54.73676636 380.6385498 -54.65551758 381.88378906 C-54.42795497 384.03243666 -54.00047491 386.0108068 -53.421875 388.08984375 C-33.31658146 359.69820363 -20.766255 328.63014372 -18.91015625 293.68359375 C-18.86770279 292.89568451 -18.82524933 292.10777527 -18.7815094 291.29598999 C-14.39765505 207.63241626 -17.77315205 123.32546666 -25.79614258 39.99267578 C-25.95731064 38.3007888 -25.95731064 38.3007888 -26.12173462 36.57472229 C-26.32267856 34.4727354 -26.52721521 32.37108732 -26.73617554 30.2698822 C-28.45556662 12.27385024 -28.45556662 12.27385024 -23.421875 5.08984375 C-16.86760031 -1.13671721 -8.71941105 -3.27681093 0 0 Z " fill="#264472" transform="translate(692.421875,384.91015625)"/>
<path d="M0 0 C2.21696318 3.0746684 3.32655122 6.22782718 4.42626953 9.81079102 C4.79753464 10.97131737 4.79753464 10.97131737 5.17630005 12.1552887 C6.04547797 14.89855433 6.89040807 17.64846356 7.73095703 20.40063477 C8.05785522 21.46707214 8.38475342 22.53350952 8.72155762 23.63226318 C11.18791921 31.70376994 13.60965108 39.78839211 16.02075195 47.87652588 C17.17765357 51.75446299 18.33921492 55.63100737 19.50012589 59.50774574 C20.45461249 62.69682446 21.40564334 65.88685197 22.35247803 69.07821655 C24.04651087 74.78749098 25.75034531 80.49219375 27.52515221 86.17686749 C28.10900726 88.0498692 28.68616821 89.92495338 29.26321411 91.80006409 C29.97685273 94.11706938 30.70136474 96.43076443 31.43869019 98.74034119 C34.51823604 108.82118039 34.51823604 108.82118039 32.73095703 114.40063477 C30.08219491 117.96204937 27.40445777 119.15410479 23.22314453 120.43579102 C21.61826172 120.93755859 21.61826172 120.93755859 19.98095703 121.44946289 C18.86720703 121.78397461 17.75345703 122.11848633 16.60595703 122.46313477 C15.51541016 122.80151367 14.42486328 123.13989258 13.30126953 123.48852539 C11.14198975 124.15619743 8.98046192 124.81664645 6.81665039 125.46948242 C4.83016704 126.06893234 2.84633878 126.67728998 0.8659668 127.29663086 C-0.00487549 127.56685059 -0.87571777 127.83707031 -1.77294922 128.11547852 C-2.52906494 128.35258545 -3.28518066 128.58969238 -4.06420898 128.83398438 C-7.84752246 129.80630976 -11.42289528 130.15612806 -15.26904297 129.40063477 C-20.83189821 126.06292162 -21.85938327 120.27036828 -23.56982422 114.36157227 C-24.26904297 111.40063477 -24.26904297 111.40063477 -24.26904297 108.40063477 C-25.00018311 108.6377417 -25.73132324 108.87484863 -26.48461914 109.11914062 C-29.80767101 110.19501327 -33.132085 111.26661526 -36.45654297 112.33813477 C-37.60703125 112.71131836 -38.75751953 113.08450195 -39.94287109 113.46899414 C-41.0546875 113.82670898 -42.16650391 114.18442383 -43.31201172 114.55297852 C-44.33319092 114.88289795 -45.35437012 115.21281738 -46.40649414 115.55273438 C-49.0182248 116.32634125 -51.59037105 116.91653743 -54.26904297 117.40063477 C-54.05175537 118.08053467 -53.83446777 118.76043457 -53.6105957 119.4609375 C-52.62456231 122.5812997 -51.66545645 125.70933707 -50.70654297 128.83813477 C-50.36429688 129.90741211 -50.02205078 130.97668945 -49.66943359 132.07836914 C-47.29580032 139.91855176 -46.14267668 146.2266565 -49.95654297 153.71313477 C-55.69989137 160.38783696 -63.32832046 162.26183424 -71.47192383 164.60253906 C-73.57150113 165.21022831 -75.66102491 165.84630374 -77.75146484 166.48461914 C-86.19083977 168.98742865 -93.42132434 171.00403921 -101.64404297 166.58813477 C-103.99844692 164.62613147 -105.73516673 163.0423105 -107.26904297 160.40063477 C-107.26904297 159.41063477 -107.26904297 158.42063477 -107.26904297 157.40063477 C-107.81067581 157.57817291 -108.35230865 157.75571106 -108.91035461 157.93862915 C-123.00877315 162.54211689 -137.16827823 166.91714937 -151.37451172 171.17407227 C-152.23883631 171.43308256 -153.1031609 171.69209286 -153.99367714 171.95895195 C-161.45240474 174.19281498 -168.91317171 176.41983801 -176.3741188 178.64627457 C-183.40213855 180.7435629 -190.42967074 182.8424735 -197.45654297 184.94360352 C-198.47298071 185.24743013 -199.48941845 185.55125675 -200.53665733 185.86429024 C-214.96609771 190.18009203 -229.37090194 194.57054496 -243.75923729 199.02137756 C-249.65566405 200.84339008 -255.55529792 202.6550027 -261.45473194 204.46725082 C-267.05771883 206.19013935 -272.65463163 207.93122828 -278.24780083 209.68570805 C-281.7292448 210.77293593 -285.2159164 211.84257749 -288.70417786 212.90770531 C-290.30372276 213.4000783 -291.90107322 213.89965465 -293.49580383 214.40740395 C-304.95909185 218.05228539 -317.24316852 221.38992642 -328.83154297 216.33813477 C-334.97959043 212.69219964 -338.77840354 208.5136909 -340.92919922 201.66625977 C-341.18451416 200.86478516 -341.4398291 200.06331055 -341.70288086 199.23754883 C-341.9831311 198.32827637 -341.9831311 198.32827637 -342.26904297 197.40063477 C-343.03047607 197.6377417 -343.79190918 197.87484863 -344.57641602 198.11914062 C-348.0356575 199.19473411 -351.49608166 200.26647258 -354.95654297 201.33813477 C-356.15472656 201.71131836 -357.35291016 202.08450195 -358.58740234 202.46899414 C-359.74433594 202.82670898 -360.90126953 203.18442383 -362.09326172 203.55297852 C-363.15633545 203.88289795 -364.21940918 204.21281738 -365.31469727 204.55273438 C-374.49912367 207.18867462 -382.41509523 207.10567136 -391.26904297 203.40063477 C-394.76101759 201.387244 -398.40076949 199.26890824 -401.26904297 196.40063477 C-408.63181014 196.53986289 -415.86635526 198.23462373 -423.01904297 199.83813477 C-424.02064453 200.0553418 -425.02224609 200.27254883 -426.05419922 200.49633789 C-431.58759917 201.70117154 -431.58759917 201.70117154 -436.98640442 203.38745117 C-440.5081209 204.47442597 -443.76040212 204.90560641 -447.42504883 205.28173828 C-456.99987958 206.3686062 -466.35078254 208.31684005 -475.77294922 210.30297852 C-477.6646115 210.69697357 -479.55637366 211.09048931 -481.44822693 211.48356628 C-486.52326123 212.54009735 -491.59643367 213.6053108 -496.66912842 214.67301178 C-499.85028141 215.34207586 -503.03187945 216.00898254 -506.21362305 216.67523193 C-536.34825154 222.98682735 -566.46204816 229.39562333 -596.54810715 235.93489456 C-599.21371788 236.51362318 -601.87976202 237.09031318 -604.54592896 237.66647339 C-623.40732022 241.74651202 -642.20375236 246.02999719 -660.92919922 250.69750977 C-661.76190842 250.90426456 -662.59461761 251.11101936 -663.45256042 251.32403946 C-698.97083249 260.11595253 -698.97083249 260.11595253 -730.26904297 278.40063477 C-731.09662109 279.06579102 -731.92419922 279.73094727 -732.77685547 280.41625977 C-749.96351091 295.02754482 -756.10986873 312.51287642 -758.04811478 334.47560692 C-758.37423874 338.7933976 -758.49678792 343.09839799 -758.55566406 347.42724609 C-758.56920048 348.41646498 -758.58273689 349.40568386 -758.5966835 350.42487907 C-759.14534005 401.68903334 -756.00653241 452.90109276 -753.48292422 504.08273041 C-753.02043913 513.47551154 -752.56703544 522.86869612 -752.11962891 532.26220703 C-752.07203969 533.26131425 -752.07203969 533.26131425 -752.02348907 534.28060546 C-751.95954025 535.62332431 -751.89559344 536.96604326 -751.83164867 538.3087623 C-751.80007519 538.97174397 -751.76850171 539.63472564 -751.73597145 540.31779766 C-751.70446018 540.97956404 -751.67294892 541.64133041 -751.64048276 542.32315032 C-751.11563169 553.33965671 -750.58347719 564.35581192 -750.05069304 575.37193704 C-749.87245915 579.06148116 -749.69502852 582.75106331 -749.51765823 586.44064903 C-749.23769085 592.25363743 -748.95328758 598.0663943 -748.66567421 603.87900925 C-748.56197945 605.98578174 -748.45954062 608.09261657 -748.35858345 610.19952202 C-747.00671191 639.52428206 -747.00671191 639.52428206 -743.51904297 668.65063477 C-743.35057861 669.71652832 -743.18211426 670.78242187 -743.00854492 671.88061523 C-737.28346234 706.11890418 -722.82362194 735.29002544 -694.33886719 755.93334961 C-673.84933141 770.45825053 -652.24138691 783.35395379 -630.84936523 796.4855957 C-621.150184 802.45052316 -611.53921102 808.54727447 -601.95019531 814.68725586 C-599.24384413 816.41673798 -596.53269544 818.13843174 -593.81982422 819.85766602 C-551.81685563 846.4820076 -510.47769274 874.13097815 -470.26904297 903.40063477 C-469.49270508 903.96540527 -468.71636719 904.53017578 -467.91650391 905.11206055 C-452.59074958 916.28012875 -437.59160815 927.81379276 -422.9206543 939.8293457 C-417.16323386 944.5287443 -411.26299691 949.00733898 -405.26904297 953.40063477 C-405.01896484 952.67618164 -404.76888672 951.95172852 -404.51123047 951.20532227 C-400.32148174 941.74544934 -391.42088592 935.55008497 -382.26904297 931.40063477 C-369.31156245 926.63935583 -355.59378079 927.11267362 -342.87060547 932.39672852 C-331.03280672 938.39870016 -321.84027385 948.64162156 -317.39404297 961.15063477 C-315.14967216 968.91643314 -314.02727355 977.51885816 -316.26904297 985.40063477 C-315.25326172 985.35422852 -314.23748047 985.30782227 -313.19091797 985.26000977 C-299.97281562 984.83762377 -289.9993494 987.31402702 -279.26904297 995.40063477 C-277.96966797 996.26688477 -277.96966797 996.26688477 -276.64404297 997.15063477 C-267.27832695 1006.02341837 -261.73353079 1018.51951487 -261.21044922 1031.37719727 C-261.48455926 1045.52127552 -266.11279735 1058.12603825 -276.03857422 1068.43579102 C-286.55154097 1077.69677574 -298.30993116 1081.81491353 -312.21435547 1081.60766602 C-322.43121585 1080.91521896 -333.78797658 1077.88170116 -341.26904297 1070.40063477 C-341.42759766 1071.22305664 -341.58615234 1072.04547852 -341.74951172 1072.89282227 C-344.73221822 1087.16367213 -350.52188603 1098.1924605 -362.70654297 1106.77563477 C-374.39791238 1114.00339904 -387.26714763 1116.34328924 -400.78857422 1113.71704102 C-413.43877646 1110.10055378 -424.38114162 1103.46007516 -431.31591797 1092.02563477 C-438.47530427 1078.74356442 -440.30147801 1065.96280156 -436.26904297 1051.24829102 C-434.77323716 1046.98875025 -432.6943041 1043.19669567 -430.26904297 1039.40063477 C-430.85169922 1039.42383789 -431.43435547 1039.44704102 -432.03466797 1039.47094727 C-446.46876602 1039.78867898 -460.98563849 1036.36662211 -471.75341797 1026.11547852 C-483.12954719 1013.24403334 -486.0970346 1000.40466969 -485.44824219 983.72973633 C-484.75706937 974.74637299 -480.61342029 967.43271018 -475.26904297 960.40063477 C-474.18623047 958.85375977 -474.18623047 958.85375977 -473.08154297 957.27563477 C-465.85626528 948.96541123 -454.66596198 944.95628667 -444.26904297 942.40063477 C-444.79111328 942.00908203 -445.31318359 941.6175293 -445.85107422 941.21411133 C-447.42287109 940.03526367 -448.99464644 938.85638731 -450.56640625 937.67749023 C-452.3875395 936.31172255 -454.20883187 934.94616701 -456.03027344 933.58081055 C-460.19942654 930.45522102 -464.36769364 927.32857408 -468.52685547 924.18969727 C-496.11951974 903.38064593 -524.67366016 884.02990698 -553.45973206 864.92372131 C-557.09730976 862.50934847 -560.73315413 860.09255172 -564.36181641 857.66479492 C-572.02913989 852.53525939 -579.73887943 847.48330367 -587.51904297 842.52563477 C-588.59404053 841.83928955 -589.66903809 841.15294434 -590.77661133 840.44580078 C-607.18324016 829.97906165 -623.66663599 819.63764662 -640.17529297 809.33276367 C-643.24923232 807.41300704 -646.32186172 805.49117218 -649.39404297 803.56860352 C-650.39725586 802.94099121 -651.40046875 802.31337891 -652.43408203 801.66674805 C-654.44414206 800.40908044 -656.45390924 799.15094465 -658.46337891 797.89233398 C-663.24394052 794.90154314 -668.03281795 791.92661873 -672.84716797 788.99047852 C-689.32412672 778.93097113 -704.94625634 768.3889092 -719.26904297 755.40063477 C-720.01412109 754.7393457 -720.75919922 754.07805664 -721.52685547 753.39672852 C-754.66317994 722.33980903 -760.23062264 674.15485059 -762.59716797 631.39672852 C-762.65751598 630.33106092 -762.717864 629.26539333 -762.78004074 628.16743279 C-764.93499066 590.01698308 -766.6435961 551.84104837 -768.43702185 513.67234504 C-768.84475568 504.999233 -769.25585485 496.32628301 -769.66780722 487.65337044 C-770.12074447 478.11628074 -770.57153994 468.57909094 -771.02134323 459.04185295 C-771.20966242 455.04941702 -771.39865602 451.05701395 -771.58824539 447.06463814 C-778.23639893 306.94913391 -778.23639893 306.94913391 -753.53076172 278.84594727 C-752.78439453 278.03899414 -752.03802734 277.23204102 -751.26904297 276.40063477 C-750.59486328 275.63493164 -749.92068359 274.86922852 -749.22607422 274.08032227 C-727.73814922 250.93947995 -693.48785377 242.47024563 -663.89794922 235.16625977 C-662.75738194 234.88277396 -662.75738194 234.88277396 -661.59377289 234.59356117 C-642.77299039 229.9249311 -623.83749496 225.78975474 -604.88280106 221.70589447 C-601.97294677 221.07819106 -599.06365072 220.44795962 -596.1545105 219.81695557 C-572.49105928 214.685104 -548.80759697 209.65392815 -525.10107422 204.72485352 C-523.99197819 204.4941963 -522.88288216 204.26353909 -521.74017715 204.02589226 C-510.91964592 201.77647548 -500.09770493 199.53409653 -489.27204609 197.30947971 C-485.29021222 196.49063911 -481.30906363 195.66849853 -477.32800865 194.84588051 C-474.59362406 194.28238672 -471.85822487 193.72402405 -469.12275696 193.16581726 C-467.47818379 192.82623502 -465.83366446 192.48639195 -464.18920898 192.14624023 C-463.45383785 191.99779002 -462.71846672 191.84933981 -461.96081161 191.69639111 C-456.37020453 190.53077464 -452.26288655 189.52750579 -448.26904297 185.40063477 C-445.57970622 184.39122098 -442.95459371 183.51271158 -440.20654297 182.70141602 C-439.41884521 182.46150436 -438.63114746 182.22159271 -437.81958008 181.97441101 C-436.15663179 181.46997719 -434.4922813 180.97014614 -432.82666016 180.47460938 C-430.27549791 179.71505658 -427.7291131 178.94094222 -425.18310547 178.16430664 C-423.56617804 177.67581476 -421.9489986 177.18815609 -420.33154297 176.70141602 C-419.56898193 176.47021561 -418.8064209 176.2390152 -418.02075195 176.00080872 C-415.00485276 175.10751992 -412.43244223 174.40063477 -409.26904297 174.40063477 C-409.17107422 173.69938477 -409.07310547 172.99813477 -408.97216797 172.27563477 C-407.39715099 162.28242361 -404.49645072 154.70313957 -396.26904297 148.40063477 C-388.20191879 143.49145956 -378.64579465 141.17958487 -369.64794922 138.53735352 C-368.90101807 138.31781006 -368.15408691 138.0982666 -367.38452148 137.87207031 C-365.26904297 137.40063477 -365.26904297 137.40063477 -361.26904297 137.40063477 C-361.506875 136.3390918 -361.506875 136.3390918 -361.74951172 135.25610352 C-363.35208115 126.44799632 -362.83435097 118.21720069 -358.26904297 110.40063477 C-351.0557845 100.43217943 -338.13516552 98.30837642 -326.95654297 94.94360352 C-325.5621851 94.52038146 -324.16794146 94.0967829 -322.77380371 93.6728363 C-319.0482788 92.54118679 -315.32110371 91.41506963 -311.59353638 90.29016876 C-308.45722017 89.34295136 -305.3218803 88.39252506 -302.18654633 87.44206238 C-292.89217927 84.62452593 -283.59510947 81.81599673 -274.29663086 79.01206207 C-272.41890257 78.44582553 -270.54123572 77.87938522 -268.66357422 77.31292725 C-256.77476432 73.72689074 -244.88083607 70.15820288 -232.98254395 66.60375977 C-225.35402242 64.32448734 -217.72726916 62.03937624 -210.10121918 59.75185013 C-202.99539072 57.62046558 -195.88893356 55.49118567 -188.7820816 53.3632164 C-184.34220723 52.03373802 -179.90260069 50.70338035 -175.46362305 49.37091064 C-171.27820665 48.11463047 -167.09200988 46.86098534 -162.9052124 45.60931587 C-161.34286983 45.14174159 -159.78081397 44.67320815 -158.21905518 44.20368767 C-156.07045036 43.55790112 -153.92086482 42.91548992 -151.77099609 42.27392578 C-149.9520282 41.7289016 -149.9520282 41.7289016 -148.09631348 41.17286682 C-145.26904297 40.40063477 -145.26904297 40.40063477 -143.26904297 40.40063477 C-143.31544922 39.67618164 -143.36185547 38.95172852 -143.40966797 38.20532227 C-143.63902149 32.06192442 -143.64909668 28.12648219 -139.26904297 23.40063477 C-135.11357712 20.32240128 -131.30667642 18.53097111 -126.36669922 17.04125977 C-125.72590927 16.84715515 -125.08511932 16.65305054 -124.4249115 16.45306396 C-123.07926658 16.048319 -121.73210766 15.64857639 -120.38354492 15.25366211 C-118.33610032 14.65197405 -116.29582728 14.02946601 -114.25537109 13.40454102 C-112.93869052 13.0113502 -111.62164415 12.61938182 -110.30419922 12.22875977 C-109.12220947 11.87716797 -107.94021973 11.52557617 -106.72241211 11.16333008 C-100.10624449 9.70211356 -95.22276859 10.09300942 -89.26904297 13.40063477 C-83.84300476 18.60963145 -82.14953593 24.70978649 -79.95654297 31.77563477 C-79.59753906 32.89325195 -79.23853516 34.01086914 -78.86865234 35.16235352 C-77.98967686 37.90475703 -77.12362615 40.65055233 -76.26904297 43.40063477 C-75.46160645 43.15829102 -74.65416992 42.91594727 -73.82226562 42.66625977 C-70.82991207 41.76954526 -67.8368422 40.87527521 -64.84326172 39.98266602 C-63.54706979 39.59562674 -62.25116911 39.20761067 -60.95556641 38.81860352 C-59.09467966 38.26005252 -57.23265753 37.70528857 -55.37060547 37.15063477 C-54.24992676 36.81547852 -53.12924805 36.48032227 -51.97460938 36.13500977 C-49.26904297 35.40063477 -49.26904297 35.40063477 -47.26904297 35.40063477 C-47.55779297 34.56661133 -47.84654297 33.73258789 -48.14404297 32.87329102 C-52.87899266 18.52047477 -52.87899266 18.52047477 -51.26904297 13.40063477 C-47.32809312 8.63259553 -43.67055025 7.11287269 -37.93310547 5.47094727 C-37.13552826 5.23149384 -36.33795105 4.99204041 -35.51620483 4.74533081 C-33.83587992 4.2452808 -32.15315369 3.75323752 -30.46826172 3.26879883 C-27.90237919 2.52804139 -25.347686 1.75544786 -22.79248047 0.97875977 C-21.15242539 0.49505236 -19.51181639 0.01321828 -17.87060547 -0.46655273 C-17.1130899 -0.69664032 -16.35557434 -0.92672791 -15.57510376 -1.16378784 C-10.01794804 -2.73066755 -5.01541542 -3.53518253 0 0 Z M-21.83154297 21.15063477 C-23.59691406 21.63790039 -23.59691406 21.63790039 -25.39794922 22.13500977 C-28.30423674 23.05463832 -28.30423674 23.05463832 -29.0790863 24.99237061 C-29.36489178 28.61580272 -28.24234587 31.77838238 -27.17944336 35.19848633 C-26.94550369 35.97935608 -26.71156403 36.76022583 -26.47053528 37.5647583 C-25.69545751 40.14324487 -24.90617321 42.71714814 -24.11669922 45.29125977 C-23.57630461 47.07889699 -23.03680104 48.86680379 -22.49815369 50.65496826 C-21.07840736 55.35946345 -19.64657611 60.06019604 -18.21221924 64.76025391 C-16.75055355 69.55744293 -15.30031646 74.3580827 -13.84912109 79.15844727 C-11.00028606 88.5759273 -8.13867546 97.98947291 -5.26904297 107.40063477 C-4.00576172 107.25118408 -2.74248047 107.1017334 -1.44091797 106.94775391 C-0.73032227 106.8636879 -0.01972656 106.77962189 0.71240234 106.69300842 C3.16728769 106.33743529 5.39893173 105.67620636 7.73095703 104.83813477 C9.06429036 104.3589681 10.3976237 103.87980143 11.73095703 103.40063477 C9.4864749 93.89532697 6.74028002 84.57284513 3.87939453 75.24047852 C3.4150013 73.71789587 2.95086418 72.19523508 2.48696899 70.67250061 C1.27680977 66.70276039 0.06300511 62.7341441 -1.15155029 58.76574707 C-2.14551264 55.51594366 -3.13690594 52.26535927 -4.12816811 49.01473141 C-6.17460932 42.30393923 -8.22268407 35.5936442 -10.27539062 28.88476562 C-10.63718414 27.70184433 -10.99897766 26.51892303 -11.37173462 25.30015564 C-11.98242825 23.32678838 -12.61581062 21.36033182 -13.26904297 19.40063477 C-16.28702194 19.40063477 -18.93573877 20.32417034 -21.83154297 21.15063477 Z M-102.26904297 30.40063477 C-105.5895986 31.28967957 -108.89845073 32.21637382 -112.20654297 33.15063477 C-113.15207031 33.40329102 -114.09759766 33.65594727 -115.07177734 33.91625977 C-115.97089844 34.17407227 -116.87001953 34.43188477 -117.79638672 34.69750977 C-118.62904053 34.92792969 -119.46169434 35.15834961 -120.31958008 35.39575195 C-122.39435723 36.20448906 -122.39435723 36.20448906 -122.99336243 38.07588196 C-123.37121092 41.26219441 -122.57767623 43.53779189 -121.62939453 46.6015625 C-121.44219219 47.21635877 -121.25498985 47.83115503 -121.06211472 48.46458149 C-120.43747966 50.50752283 -119.79857565 52.5457101 -119.15966797 54.58422852 C-118.71595119 56.02610257 -118.27317953 57.46826777 -117.83129883 58.91070557 C-116.89171568 61.97128789 -115.94600942 65.02988017 -114.99523926 68.08700562 C-113.52067188 72.82836357 -112.05892367 77.57360261 -110.60009766 82.31982422 C-110.11629651 83.8934249 -109.6324709 85.46701806 -109.14862061 87.04060364 C-108.91045372 87.81519236 -108.67228683 88.58978107 -108.42690277 89.38784218 C-107.70763463 91.72521223 -106.9869863 94.06215252 -106.26593018 96.39897156 C-102.36964327 109.03104327 -98.57175367 121.69051553 -94.84777832 134.3744812 C-94.43176751 135.79131847 -94.0151825 137.20798732 -93.59790039 138.62445068 C-93.08303325 140.3730908 -92.57091486 142.12253964 -92.05908203 143.87207031 C-91.35535327 146.36144749 -91.35535327 146.36144749 -90.26904297 148.40063477 C-85.00282691 147.80484699 -80.32496278 146.58754681 -75.33154297 144.83813477 C-74.30577148 144.4871875 -74.30577148 144.4871875 -73.25927734 144.12915039 C-71.59395796 143.55851648 -69.93121804 142.98036378 -68.26904297 142.40063477 C-68.9303983 136.43156632 -70.45825764 130.92181084 -72.1965332 125.18261719 C-72.49582733 124.18018982 -72.79512146 123.17776245 -73.10348511 122.1449585 C-74.08971073 118.84710242 -75.08335917 115.55154018 -76.07763672 112.25610352 C-76.76670234 109.96169158 -77.45550577 107.66720088 -78.14405823 105.37263489 C-79.58573983 100.57275632 -81.03121298 95.77403972 -82.47924805 90.97607422 C-84.33773259 84.81668279 -86.18577277 78.65421402 -88.03089809 72.49080944 C-89.44956072 67.75668293 -90.87418071 63.02436543 -92.30058479 58.2925663 C-92.98473705 56.02008143 -93.66690401 53.74699791 -94.34707451 51.4733181 C-95.29597856 48.30421998 -96.25297001 45.13767776 -97.2121582 41.97167969 C-97.4932695 41.02674149 -97.7743808 40.08180328 -98.06401062 39.10823059 C-98.32615356 38.24893951 -98.58829651 37.38964844 -98.85838318 36.50431824 C-99.08384543 35.75569613 -99.30930769 35.00707403 -99.54160213 34.23576641 C-100.21011207 32.19504849 -100.21011207 32.19504849 -102.26904297 30.40063477 Z M-51.44482422 56.05297852 C-52.60175781 56.41713867 -53.75869141 56.78129883 -54.95068359 57.15649414 C-56.74795898 57.74140625 -56.74795898 57.74140625 -58.58154297 58.33813477 C-59.7990625 58.72420898 -61.01658203 59.1102832 -62.27099609 59.50805664 C-65.27382304 60.46189579 -68.27278392 61.4263988 -71.26904297 62.40063477 C-69.29137572 70.51421079 -67.18012058 78.57380896 -64.83154297 86.58813477 C-64.54472656 87.62260742 -64.25791016 88.65708008 -63.96240234 89.72290039 C-63.67300781 90.70323242 -63.38361328 91.68356445 -63.08544922 92.69360352 C-62.832229 93.57556396 -62.57900879 94.45752441 -62.31811523 95.36621094 C-61.45907449 97.51153488 -61.45907449 97.51153488 -59.54907227 98.2980957 C-56.41940835 98.43884512 -53.96628618 97.66629896 -50.97216797 96.74829102 C-49.76689453 96.38413086 -48.56162109 96.0199707 -47.31982422 95.64477539 C-46.06556641 95.25483398 -44.81130859 94.86489258 -43.51904297 94.46313477 C-42.23677186 94.07223793 -40.95422224 93.68225347 -39.67138672 93.29321289 C-36.53441365 92.33796921 -33.40059711 91.37346795 -30.26904297 90.40063477 C-32.23079105 82.22622968 -34.46887937 74.17971187 -36.95654297 66.15063477 C-37.276875 65.1077832 -37.59720703 64.06493164 -37.92724609 62.99047852 C-38.70506647 60.45965996 -39.48568758 57.9297444 -40.26904297 55.40063477 C-44.55025101 54.17891574 -47.23937205 54.70640516 -51.44482422 56.05297852 Z M-138.26904297 58.40063477 C-138.85275665 58.57950729 -139.43647034 58.75837982 -140.03787231 58.94267273 C-169.08303008 67.84116185 -198.14269446 76.68917698 -227.24118042 85.4118042 C-230.86525801 86.49818284 -234.48893934 87.58587672 -238.11251926 88.67391396 C-252.7702325 93.07451877 -267.43341374 97.4554247 -282.11152649 101.78755188 C-287.8262386 103.47445882 -293.53871427 105.16888196 -299.25066662 106.86510754 C-303.9177961 108.25030239 -308.58777234 109.62529624 -313.26013756 110.99271965 C-316.14298876 111.8390185 -319.02293591 112.69487709 -321.90216827 113.55339813 C-323.2358423 113.94891683 -324.57070757 114.34044433 -325.9068222 114.72763824 C-327.73650611 115.25842569 -329.56162168 115.8048851 -331.38647461 116.35205078 C-332.40777969 116.65289078 -333.42908478 116.95373077 -334.4813385 117.26368713 C-337.71657471 118.58315776 -339.82252724 119.89601809 -342.26904297 122.40063477 C-343.77545554 127.06496811 -343.00881629 130.44098891 -341.62597656 135.06103516 C-341.43908264 135.69761551 -341.25218872 136.33419586 -341.05963135 136.99006653 C-340.44195359 139.08028529 -339.80558392 141.16422493 -339.16748047 143.24829102 C-338.72895918 144.70727397 -338.29111363 146.16646018 -337.85391235 147.62583923 C-336.93590899 150.6788465 -336.00835389 153.72874701 -335.07421875 156.77685547 C-333.88103389 160.67371834 -332.7141113 164.57787904 -331.55454063 168.48485661 C-330.65647696 171.49870673 -329.7434417 174.50786302 -328.82600784 177.51586723 C-328.38979531 178.95323793 -327.95844933 180.39209526 -327.53217697 181.83244514 C-326.93289849 183.84987802 -326.31339226 185.86001262 -325.68847656 187.86962891 C-325.34126556 189.01291153 -324.99405457 190.15619415 -324.63632202 191.3341217 C-323.05572999 194.87904994 -321.21094403 196.89623766 -318.26904297 199.40063477 C-316.09938981 199.90065409 -316.09938981 199.90065409 -313.95654297 199.40063477 C-313.18826172 199.26786133 -312.41998047 199.13508789 -311.62841797 198.99829102 C-308.02676758 198.08595243 -304.6970748 196.83417535 -301.26904297 195.40063477 C-301.88373486 190.01678163 -303.18308771 185.1754646 -304.83154297 180.02563477 C-308.3130652 168.56036593 -308.3130652 168.56036593 -307.26904297 162.40063477 C-305.33154297 159.77563477 -305.33154297 159.77563477 -302.26904297 158.40063477 C-299.08437342 158.13849909 -296.24465177 158.19144542 -293.26904297 159.40063477 C-290.86789443 162.88512846 -289.48463845 166.33438692 -288.22607422 170.35766602 C-287.87480469 171.46948242 -287.52353516 172.58129883 -287.16162109 173.72680664 C-286.80519531 174.87729492 -286.44876953 176.0277832 -286.08154297 177.21313477 C-285.71351563 178.38295898 -285.34548828 179.5527832 -284.96630859 180.75805664 C-284.06144685 183.63716219 -283.16258074 186.51799871 -282.26904297 189.40063477 C-271.72382607 186.92022238 -261.49542638 183.98574619 -251.26904297 180.40063477 C-252.61766988 174.42814414 -254.19374031 168.5692844 -256.02685547 162.72875977 C-256.34259521 161.72014893 -256.65833496 160.71153809 -256.98364258 159.67236328 C-257.62427593 157.64146712 -258.27332251 155.61320269 -258.93139648 153.58789062 C-262.58818042 141.98115071 -262.58818042 141.98115071 -260.39404297 136.02563477 C-259.26904297 134.40063477 -259.26904297 134.40063477 -257.26904297 133.40063477 C-255.24560547 133.16235352 -255.24560547 133.16235352 -252.89404297 133.08813477 C-251.73775391 133.03206055 -251.73775391 133.03206055 -250.55810547 132.97485352 C-247.28971923 133.58279567 -246.3684973 134.82155826 -244.26904297 137.40063477 C-243.1135042 140.07362386 -242.35076551 142.82700246 -241.57763672 145.63110352 C-241.34625504 146.42212967 -241.11487335 147.21315582 -240.8764801 148.02815247 C-240.14079474 150.54476151 -239.42178937 153.06564619 -238.70654297 155.58813477 C-237.76098015 158.91923103 -236.79931136 162.24504348 -235.82763672 165.56860352 C-235.61505722 166.33835007 -235.40247772 167.10809662 -235.18345642 167.90116882 C-234.6383597 169.76410947 -233.96423083 171.58834557 -233.26904297 173.40063477 C-229.33267183 174.71275848 -227.56543553 173.78332759 -223.63232422 172.52954102 C-222.99288376 172.32836166 -222.3534433 172.12718231 -221.69462585 171.91990662 C-219.65421727 171.275873 -217.61795201 170.61969244 -215.58154297 169.96313477 C-214.19833494 169.52417777 -212.81487398 169.08601692 -211.43115234 168.64868164 C-208.04079971 167.57521995 -204.65405665 166.49083107 -201.26904297 165.40063477 C-201.48109375 164.71549805 -201.69314453 164.03036133 -201.91162109 163.32446289 C-202.87564922 160.18660431 -203.82244094 157.04379209 -204.76904297 153.90063477 C-205.26984375 152.28415039 -205.26984375 152.28415039 -205.78076172 150.63500977 C-209.80873426 137.15363228 -209.80873426 137.15363228 -207.26904297 130.96313477 C-204.2812378 128.62891198 -200.9756644 128.02725715 -197.26904297 128.40063477 C-193.85759353 129.93086649 -192.50994507 130.89752113 -190.87524414 134.31152344 C-190.52437744 135.46885986 -190.17351074 136.62619629 -189.81201172 137.81860352 C-189.42207031 139.0722168 -189.03212891 140.32583008 -188.63037109 141.61743164 C-188.23869314 142.94088047 -187.8474222 144.26444982 -187.45654297 145.58813477 C-187.04743088 146.92394158 -186.63664111 148.25923581 -186.22412109 149.59399414 C-185.22246756 152.85820625 -184.2382714 156.12667682 -183.26904297 159.40063477 C-176.29462834 158.11713246 -169.50615781 156.47314749 -162.70654297 154.46313477 C-161.80613281 154.21112305 -160.90572266 153.95911133 -159.97802734 153.69946289 C-158.69702148 153.32144531 -158.69702148 153.32144531 -157.39013672 152.93579102 C-156.2366272 152.60140015 -156.2366272 152.60140015 -155.05981445 152.26025391 C-154.46885986 151.97657959 -153.87790527 151.69290527 -153.26904297 151.40063477 C-151.95840516 147.46872134 -153.12161078 144.91698653 -154.35888672 141.13500977 C-154.81787691 139.67277201 -155.27686109 138.21053236 -155.73583984 136.74829102 C-156.46841991 134.45233463 -157.20434341 132.15747961 -157.94165039 129.86303711 C-158.65149673 127.64371989 -159.34925074 125.42084636 -160.04638672 123.19750977 C-160.26826157 122.52121521 -160.49013641 121.84492065 -160.71873474 121.14813232 C-162.08508592 116.77929876 -162.64625213 112.969018 -162.26904297 108.40063477 C-160.27379374 105.47011246 -158.84067812 103.75541973 -155.29638672 102.95532227 C-152.06416096 102.77407596 -149.82437444 102.9946301 -147.18896484 104.92138672 C-144.63909327 108.21410618 -143.68657435 111.67764755 -142.61279297 115.63110352 C-142.14289195 117.25419413 -141.67283527 118.87723969 -141.20263672 120.50024414 C-140.48019695 123.05343996 -139.76346829 125.60812745 -139.05078125 128.1640625 C-138.35641329 130.63653381 -137.64185746 133.10249042 -136.92529297 135.56860352 C-136.71787476 136.33835007 -136.51045654 137.10809662 -136.29675293 137.90116882 C-135.64281208 140.2837267 -135.64281208 140.2837267 -134.26904297 143.40063477 C-130.00409111 145.17338666 -126.25126036 143.45580207 -122.08154297 142.08813477 C-121.34484375 141.8619043 -120.60814453 141.63567383 -119.84912109 141.40258789 C-117.96660462 140.80163737 -116.11440196 140.10750109 -114.26904297 139.40063477 C-112.6934166 136.24938202 -114.24591107 133.45176891 -115.23510742 130.24462891 C-115.45608093 129.50788437 -115.67705444 128.77113983 -115.90472412 128.0120697 C-116.63999854 125.5677194 -117.38591254 123.12676143 -118.13232422 120.68579102 C-118.64512597 118.9920483 -119.15742319 117.29815276 -119.66923523 115.60411072 C-120.74499292 112.04926449 -121.82582474 108.4960132 -122.91040039 104.94384766 C-124.30091901 100.38874602 -125.68049501 95.83042169 -127.05648518 91.27091312 C-128.11386521 87.77051077 -129.17621633 84.27163316 -130.2401638 80.77322197 C-130.75064524 79.09309047 -131.25976657 77.4125451 -131.76751137 75.73158455 C-132.47835333 73.38153526 -133.19565717 71.03355703 -133.91479492 68.68603516 C-134.22896614 67.64094284 -134.22896614 67.64094284 -134.54948425 66.57473755 C-135.5089838 63.46549081 -136.44686804 61.13389716 -138.26904297 58.40063477 Z M-370.08154297 158.96313477 C-371.2578125 159.28604492 -372.43408203 159.60895508 -373.64599609 159.94165039 C-379.89621243 161.7965761 -384.35764545 163.39741323 -388.36523438 168.67749023 C-389.97228558 171.74139283 -389.81738632 174.04964762 -389.26904297 177.40063477 C-387.99779228 180.87984716 -386.89338092 182.86548795 -384.08154297 185.27563477 C-376.34699506 188.36945393 -368.43463146 185.38818033 -360.83154297 183.15063477 C-359.73132812 182.8502832 -358.63111328 182.54993164 -357.49755859 182.24047852 C-356.4540625 181.93754883 -355.41056641 181.63461914 -354.33544922 181.32250977 C-353.38613525 181.05019531 -352.43682129 180.77788086 -351.45874023 180.49731445 C-349.146204 179.61574289 -349.146204 179.61574289 -348.37646484 177.57836914 C-348.24851779 174.98453338 -348.70554128 173.1130075 -349.48388672 170.63500977 C-349.7578125 169.74555664 -350.03173828 168.85610352 -350.31396484 167.93969727 C-350.60851563 167.01930664 -350.90306641 166.09891602 -351.20654297 165.15063477 C-351.49722656 164.21477539 -351.78791016 163.27891602 -352.08740234 162.31469727 C-352.80560794 160.00702027 -353.53308035 157.70269794 -354.26904297 155.40063477 C-359.72013034 155.40063477 -364.88472213 157.43200415 -370.08154297 158.96313477 Z M-395.26904297 1013.40063477 C-395.92904297 1015.05063477 -396.58904297 1016.70063477 -397.26904297 1018.40063477 C-394.29904297 1018.40063477 -391.32904297 1018.40063477 -388.26904297 1018.40063477 C-391.58991068 1015.63062652 -391.58991068 1015.63062652 -395.26904297 1013.40063477 Z M-365.26904297 1024.40063477 C-361.78120783 1027.64779538 -361.78120783 1027.64779538 -357.26904297 1028.40063477 C-357.26904297 1027.08063477 -357.26904297 1025.76063477 -357.26904297 1024.40063477 C-359.90904297 1024.40063477 -362.54904297 1024.40063477 -365.26904297 1024.40063477 Z " fill="#264472" transform="translate(1504.26904296875,92.599365234375)"/>
</svg>
