<svg xmlns="http://www.w3.org/2000/svg" width="1668" height="1667" version="1.1"><path fill="#264472" d="M0 0 C0.81404297 -0.02247803 1.62808594 -0.04495605 2.46679688 -0.06811523 C13.33124906 -0.02611349 23.02093321 4.71410864 32.87695312 8.85229492 C98.81292816 36.53572629 167.79805066 48.83853602 239.125 49.4375 C240.60091314 49.45263633 242.07682464 49.46793403 243.55273438 49.48339844 C324.76947834 50.27299778 400.74593255 37.03644249 475.734375 5.3347168 C476.90097656 4.84269775 478.06757812 4.35067871 479.26953125 3.84375 C480.82184448 3.18342773 480.82184448 3.18342773 482.40551758 2.50976562 C493.35712784 -1.80834841 508.8342941 -1.18580793 519.62109375 3.171875 C523.74590457 5.25680278 527.46159145 7.62439905 531.125 10.4375 C532.04732422 11.09685547 532.04732422 11.09685547 532.98828125 11.76953125 C541.6884511 18.46345351 547.80564246 29.67889878 549.43164062 40.47314453 C549.94399014 44.7184579 550.28322138 48.97300236 550.58911133 53.23754883 C551.23741948 62.07123934 551.96391005 70.8984638 552.68359375 79.7265625 C552.82389286 81.4515755 552.96415193 83.17659175 553.10437012 84.90161133 C553.44411925 89.08027852 553.78440737 93.25890148 554.125 97.4375 C555.20446899 97.19360031 556.28393799 96.94970062 557.39611816 96.69841003 C567.63288926 94.38587297 577.87035364 92.07642729 588.10848236 89.76990795 C593.37035527 88.58437378 598.63198895 87.39779987 603.89306641 86.20874023 C608.9823949 85.0585398 614.07236396 83.91121364 619.1627655 82.76577187 C621.09236624 82.33106422 623.0217448 81.89536896 624.95088196 81.45860863 C658.52313187 73.86010065 658.52313187 73.86010065 668.25 74.0625 C668.99588379 74.07192627 669.74176758 74.08135254 670.51025391 74.09106445 C690.52246975 74.62737303 708.06061749 83.02345403 722.48828125 96.6484375 C741.96668789 117.25226319 747.79894698 148.4007859 747.3984375 175.96484375 C746.81965597 192.46584779 740.14689067 208.16362987 729.125 220.4375 C728.39667969 221.25863281 727.66835937 222.07976562 726.91796875 222.92578125 C715.72940799 234.83735078 701.59851265 242.16928624 685.52856445 244.91918945 C684.79735791 245.04579862 684.06615137 245.17240778 683.31278706 245.30285358 C673.89393457 246.8786339 664.40863285 247.88641453 654.91796875 248.91796875 C652.93397971 249.13746474 650.95003786 249.35738772 648.96614075 249.57771301 C644.84782669 250.0339458 640.72914092 250.48658905 636.61010742 250.9362793 C631.33158678 251.51263469 626.05385268 252.09585196 620.77634716 252.68142223 C616.69741551 253.13365414 612.61822385 253.58350068 608.53893471 254.0324955 C606.59121916 254.24693808 604.64355499 254.46184793 602.69594383 254.67723656 C599.98788542 254.97612519 597.27952328 255.2720829 594.57104492 255.56713867 C593.77056732 255.65593292 592.97008972 255.74472717 592.14535522 255.83621216 C588.77427676 256.20065369 585.52092054 256.4375 582.125 256.4375 C582.28786499 257.05343018 582.45072998 257.66936035 582.61853027 258.30395508 C584.32901096 264.78844613 586.01165372 271.27972934 587.67919922 277.77539062 C588.3028 280.18995225 588.9331834 282.60277373 589.57080078 285.01367188 C594.93313853 305.31815954 599.15371761 323.16380561 588.5 342.625 C579.2910328 356.71063702 564.52758708 365.38731225 550.125 373.4375 C550.0152818 383.97741355 550.29215591 394.41492223 551 404.9375 C551.07863281 406.19046875 551.15726563 407.4434375 551.23828125 408.734375 C552.03121751 420.98219051 553.08096206 433.20893413 554.125 445.4375 C555.27821243 445.17885162 556.43142487 444.92020325 557.61958313 444.65371704 C568.5203058 442.20915117 579.42154981 439.76692233 590.32330036 437.32694435 C595.92713949 436.07264189 601.53079571 434.81753446 607.1340332 433.56054688 C612.54767129 432.34612438 617.96179066 431.13386933 623.37624168 429.92307663 C625.43551891 429.46218413 627.49462548 429.00052838 629.55355263 428.53807449 C658.37947414 422.06490972 658.37947414 422.06490972 667.6875 422.1875 C668.41420898 422.19064209 669.14091797 422.19378418 669.88964844 422.19702148 C674.76975704 422.27147303 679.32263553 422.79764071 684.046875 424.09765625 C686.86912392 424.55918944 688.39778988 424.40263603 691.125 423.4375 C693.58121619 421.5837591 695.74492395 419.46705278 697.9375 417.3125 C699.18935147 416.11509799 700.44194953 414.91847602 701.6953125 413.72265625 C702.29118164 413.14918457 702.88705078 412.57571289 703.50097656 411.98486328 C705.39160718 410.18347771 707.33364607 408.45378502 709.3125 406.75 C712.46453227 404.02993789 715.54941528 401.24381328 718.625 398.4375 C721.74407011 395.59225772 724.87255391 392.7655042 728.0625 390 C731.54842231 386.96876321 734.96765775 383.86888999 738.375 380.75 C738.88281006 380.28601807 739.39062012 379.82203613 739.91381836 379.34399414 C742.7171806 376.77049926 745.45644298 374.15053297 748.125 371.4375 C747.84785156 370.50808594 747.57070312 369.57867187 747.28515625 368.62109375 C746.92292969 367.38488281 746.56070313 366.14867187 746.1875 364.875 C745.64802734 363.04775391 745.64802734 363.04775391 745.09765625 361.18359375 C740.00601635 341.57362321 744.11407424 321.72534263 753.875 304.3125 C757.34207122 298.77937356 761.56084698 294.08574964 766.125 289.4375 C766.80175781 288.73625 767.47851562 288.035 768.17578125 287.3125 C782.16454865 273.8242723 801.60657745 268.00570201 820.72265625 268.22265625 C841.54287786 269.537366 860.49939596 277.76968808 874.78125 293.23046875 C875.91213771 294.52405493 877.0328383 295.82660006 878.14453125 297.13671875 C880.57600852 299.96145269 883.097453 302.69914627 885.625 305.4375 C889.26969828 309.39560177 892.86414968 313.38928201 896.390625 317.453125 C899.91999465 321.49123262 903.53070631 325.45724189 907.125 329.4375 C912.50628528 335.39664142 917.8591869 341.37588878 923.125 347.4375 C927.93927507 344.8968883 931.54252807 341.41830854 935.4375 337.6875 C936.78170955 336.41577551 938.12675214 335.14493094 939.47265625 333.875 C940.10961426 333.27300781 940.74657227 332.67101562 941.40283203 332.05078125 C943.93490325 329.67880413 946.54294404 327.40379166 949.171875 325.140625 C951.69112276 322.94384095 954.15602996 320.69060381 956.625 318.4375 C959.74407011 315.59225772 962.87255391 312.7655042 966.0625 310 C969.47188893 307.03866218 972.80283969 303.99586595 976.125 300.9375 C982.30614522 295.2508464 988.50280314 289.6110913 995.125 284.4375 C993.63301627 281.01837061 991.66268838 278.65645184 989.125 275.9375 C972.0286058 257.13969899 960.61143061 239.16089176 960.91015625 212.83984375 C962.26300398 191.41565523 970.94742479 171.80702265 987.125 157.4375 C1005.4686352 143.0546034 1025.23524337 138.71193252 1048.125 140.4375 C1066.92241779 142.75398248 1084.37593198 153.85794107 1096.28515625 168.2421875 C1098.64345506 171.05612366 1101.1330073 173.74268527 1103.625 176.4375 C1107.27010568 180.39521879 1110.86415914 184.38929291 1114.390625 188.453125 C1117.92000714 192.49124691 1121.53134226 196.45664681 1125.125 200.4375 C1126.62528679 202.10390851 1128.12528872 203.77057353 1129.625 205.4375 C1130.3675 206.2625 1131.11 207.0875 1131.875 207.9375 C1138.625 215.4375 1138.625 215.4375 1140.8671875 217.9296875 C1142.39208244 219.62342894 1143.91815402 221.31611169 1145.4453125 223.0078125 C1148.82412708 226.75314256 1152.19395965 230.50268207 1155.5 234.3125 C1158.95283819 238.279249 1162.51377381 242.14432669 1166.07543945 246.01293945 C1169.21017052 249.42348806 1172.28226302 252.87909116 1175.31640625 256.37890625 C1177.5551125 258.9270665 1179.83910212 261.43160593 1182.125 263.9375 C1184.97024228 267.05657011 1187.7969958 270.18505391 1190.5625 273.375 C1193.5238351 276.7843858 1196.56652486 280.1154431 1199.625 283.4375 C1203.27106373 287.39820802 1206.86966951 291.3918572 1210.39453125 295.4609375 C1212.38062246 297.72947508 1214.40880483 299.95699746 1216.4375 302.1875 C1235.38674134 323.29960193 1245.54922731 342.18344399 1244.31152344 370.85009766 C1242.90649081 390.3403277 1232.6781376 408.27685978 1218.17578125 421.03125 C1202.20794547 433.55504277 1183.39455513 439.71596965 1163.125 438.4375 C1153.15471853 437.17127425 1144.18586054 434.92430852 1135.125 430.4375 C1134.19816406 430.0146875 1133.27132813 429.591875 1132.31640625 429.15625 C1119.57139461 422.65404596 1109.76290827 410.88299382 1100.66137695 400.08178711 C1099.02680314 398.20646431 1099.02680314 398.20646431 1096.125 396.4375 C1095.7125 396.86160156 1095.3 397.28570312 1094.875 397.72265625 C1091.19144337 401.46376845 1087.40117052 404.9945491 1083.42578125 408.421875 C1080.6172698 410.88230269 1077.87038121 413.40724992 1075.125 415.9375 C1071.21536721 419.53782448 1067.26633061 423.08168014 1063.25 426.5625 C1060.50676582 428.98300075 1057.81615432 431.45950642 1055.125 433.9375 C1051.82471077 436.97638018 1048.51550717 439.99906045 1045.125 442.9375 C1041.65783878 445.94577223 1038.26057728 449.02564302 1034.875 452.125 C1034.36710937 452.5890625 1033.85921875 453.053125 1033.3359375 453.53125 C1030.53264069 456.10464681 1027.79347632 458.72454907 1025.125 461.4375 C1025.51244385 461.85 1025.8998877 462.2625 1026.29907227 462.6875 C1039.42319617 476.67199831 1039.42319617 476.67199831 1044.49609375 482.55859375 C1047.9765855 486.57326169 1051.56410854 490.49423094 1055.125 494.4375 C1065.87080597 506.33721802 1065.87080597 506.33721802 1069.31640625 510.33984375 C1070.6174656 511.84884779 1071.94058391 513.33893484 1073.27734375 514.81640625 C1088.34247899 532.09624513 1093.57321468 552.1864827 1092.34375 574.78173828 C1090.76616762 593.93457436 1080.14710493 611.98988427 1065.6875 624.25 C1050.06418842 636.37265255 1031.13896329 643.14081602 1011.125 641.4375 C1002.15584394 640.17867108 994.09486403 637.94094838 985.83203125 634.23046875 C983.25448263 633.22485976 983.25448263 633.22485976 981.15234375 633.9453125 C978.19066007 636.125203 975.53466471 638.59498093 972.875 641.125 C971.70774649 642.21951327 970.53978071 643.31326745 969.37109375 644.40625 C968.81019043 644.9321875 968.24928711 645.458125 967.67138672 646 C965.19049177 648.3062061 962.63461693 650.52141658 960.07421875 652.73828125 C956.04404339 656.25156038 952.09353388 659.85496334 948.125 663.4375 C946.45859149 664.93778679 944.79192647 666.43778872 943.125 667.9375 C942.3 668.68 941.475 669.4225 940.625 670.1875 C933.125 676.9375 933.125 676.9375 930.6328125 679.1796875 C928.93907106 680.70458244 927.24638831 682.23065402 925.5546875 683.7578125 C921.80935744 687.13662708 918.05981793 690.50645965 914.25 693.8125 C910.82167808 696.79666686 907.46879199 699.85938484 904.125 702.9375 C900.16635351 706.58161716 896.17323312 710.17663655 892.109375 713.703125 C888.07125309 717.23250714 884.10585319 720.84384226 880.125 724.4375 C878.45859149 725.93778679 876.79192647 727.43778872 875.125 728.9375 C874.3 729.68 873.475 730.4225 872.625 731.1875 C865.125 737.9375 865.125 737.9375 862.6328125 740.1796875 C860.93907106 741.70458244 859.24638831 743.23065402 857.5546875 744.7578125 C853.80935744 748.13662708 850.05981793 751.50645965 846.25 754.8125 C842.82167808 757.79666686 839.46879199 760.85938484 836.125 763.9375 C832.16635351 767.58161716 828.17323312 771.17663655 824.109375 774.703125 C820.07125309 778.23250714 816.10585319 781.84384226 812.125 785.4375 C810.45859149 786.93778679 808.79192647 788.43778872 807.125 789.9375 C806.3 790.68 805.475 791.4225 804.625 792.1875 C797.125 798.9375 797.125 798.9375 794.6328125 801.1796875 C792.93907106 802.70458244 791.24638831 804.23065402 789.5546875 805.7578125 C785.80935744 809.13662708 782.05981793 812.50645965 778.25 815.8125 C774.82167808 818.79666686 771.46879199 821.85938484 768.125 824.9375 C764.17582459 828.57289859 760.19479885 832.1621815 756.13671875 835.67578125 C752.82386757 838.5769383 749.57767967 841.55208887 746.32421875 844.51953125 C744.125 846.4375 744.125 846.4375 741.125 848.4375 C741.97901839 853.96614537 742.87796097 859.46420418 744.1484375 864.9140625 C749.57476441 888.64339971 748.91827044 911.17617886 736.125 932.4375 C733.66624443 935.98520343 731.0144174 939.23389352 728.125 942.4375 C727.53332031 943.12199219 726.94164062 943.80648437 726.33203125 944.51171875 C715.35373825 956.42632672 700.40497636 963.52089857 684.55932617 965.9152832 C683.32382538 966.10561992 683.32382538 966.10561992 682.06336498 966.29980183 C672.19516426 967.78134007 662.28336803 968.85303941 652.36328125 969.91796875 C650.3501508 970.13748502 648.33706463 970.35740767 646.32402039 970.57771301 C641.09518848 971.14887262 635.86578478 971.71461214 630.63623047 972.27911377 C625.27209522 972.8591503 619.90853597 973.44446436 614.54492188 974.02929688 C604.07216283 975.17044747 593.59879032 976.3058566 583.125 977.4375 C584.30771041 984.36438109 585.72193791 991.15808576 587.5078125 997.953125 C587.95788813 999.71722952 588.40707931 1001.48155989 588.85546875 1003.24609375 C589.54927526 1005.96411374 590.24811755 1008.6803508 590.96240234 1011.39306641 C595.61148873 1029.11107244 598.17277881 1045.76922083 589 1062.625 C580.1449946 1076.70171992 565.56533541 1085.70291831 551.125 1093.4375 C550.465 1093.4375 549.805 1093.4375 549.125 1093.4375 C551.29726977 1129.96084697 551.29726977 1129.96084697 554.125 1166.4375 C555.51761047 1166.08350128 555.51761047 1166.08350128 556.93835449 1165.72235107 C572.51122734 1161.78457748 588.16559092 1158.20975832 603.83463287 1154.67709732 C608.70992958 1153.57759425 613.58255211 1152.46839813 618.45019531 1151.33544922 C679.9093313 1137.0497505 679.9093313 1137.0497505 709.125 1154.4375 C712.67426713 1156.8939276 715.92466041 1159.54434832 719.125 1162.4375 C719.83269531 1163.06398438 720.54039062 1163.69046875 721.26953125 1164.3359375 C733.60988679 1175.89764728 739.43485499 1191.30075097 743.125 1207.4375 C743.402229 1208.60998291 743.402229 1208.60998291 743.68505859 1209.80615234 C749.41480935 1234.51539924 749.51295292 1258.18786745 736.125 1280.4375 C733.66635667 1283.98504147 731.01809904 1287.23721863 728.125 1290.4375 C727.49851562 1291.14519531 726.87203125 1291.85289063 726.2265625 1292.58203125 C709.02650487 1310.94046011 684.71694756 1314.51803662 660.97265625 1317.015625 C658.97675139 1317.23327895 656.98093885 1317.45178102 654.98521423 1317.67108154 C650.83516812 1318.12480152 646.68442898 1318.57122099 642.53295898 1319.01171875 C637.23072338 1319.57450761 631.93014612 1320.15142282 626.62996769 1320.73323441 C622.52189619 1321.18337407 618.41327348 1321.62829475 614.30444145 1322.07143402 C612.34962739 1322.28246018 610.39492937 1322.49456432 608.4403553 1322.70780182 C605.70951824 1323.00448426 602.97806714 1323.29467065 600.24633789 1323.58300781 C599.45291489 1323.67023102 598.65949188 1323.75745422 597.84202576 1323.84732056 C592.57692338 1324.39382699 587.41876713 1324.50943987 582.125 1324.4375 C582.28786499 1325.06817886 582.45072998 1325.69885773 582.61853027 1326.34864807 C584.3270819 1332.97956733 586.01011573 1339.61660745 587.67919922 1346.25756836 C588.3033556 1348.72728782 588.93376217 1351.19543721 589.57080078 1353.66186523 C594.75396179 1373.75576807 598.99886971 1391.71975472 588.671875 1410.9765625 C565.24113849 1448.25273422 503.85086234 1464.27621429 464.10302734 1473.3671875 C432.47973828 1480.45155605 400.32359256 1484.83223639 368.0625 1487.6875 C367.20860687 1487.76463226 366.35471375 1487.84176453 365.47494507 1487.92123413 C358.69755698 1488.52255643 351.91501824 1489.00316653 345.125 1489.4375 C344.46266609 1489.48024551 343.80033218 1489.52299103 343.11792755 1489.56703186 C314.31786016 1491.40763884 285.56721522 1491.75435498 256.71435547 1491.69824219 C250.80922076 1491.68684879 244.90426645 1491.69363179 238.99913788 1491.70512581 C160.09791084 1491.83515614 77.64496503 1488.52206456 -39.875 1447.4375 C-40.62217285 1447.0652832 -41.3693457 1446.69306641 -42.13916016 1446.30957031 C-55.36241914 1439.6852343 -67.58752567 1432.05348423 -78.875 1422.4375 C-79.51179687 1421.92058594 -80.14859375 1421.40367188 -80.8046875 1420.87109375 C-89.01378304 1413.59236237 -94.05943486 1401.49476933 -95.29882812 1390.77001953 C-95.90941437 1376.40631236 -92.04288179 1363.08078523 -88.375 1349.3125 C-87.74671012 1346.88983756 -87.12039336 1344.46666252 -86.49609375 1342.04296875 C-84.97839351 1336.16836908 -83.43479154 1330.30104504 -81.875 1324.4375 C-82.79710423 1324.45237017 -82.79710423 1324.45237017 -83.73783684 1324.46754074 C-89.59273084 1324.52097846 -95.29328789 1324.22535086 -101.10986328 1323.58300781 C-101.97319778 1323.49189728 -102.83653229 1323.40078674 -103.72602844 1323.30691528 C-106.54976689 1323.00718228 -109.37255342 1322.69943618 -112.1953125 1322.390625 C-114.18291657 1322.17585724 -116.17053691 1321.96123998 -118.15817261 1321.74676514 C-122.31584108 1321.29663469 -126.4729943 1320.84203986 -130.62988281 1320.38476562 C-135.91348376 1319.80428373 -141.19858158 1319.2389383 -146.48423958 1318.67753983 C-150.58961413 1318.23905251 -154.69382185 1317.79030224 -158.79778671 1317.33882904 C-160.74351176 1317.12637609 -162.68962619 1316.91745407 -164.63614273 1316.71237946 C-191.56198429 1313.86434312 -213.30540711 1307.41311987 -231.875 1286.4375 C-244.41177313 1269.9860823 -249.50384089 1250.45466922 -247.25 1230 C-243.83662117 1205.2179345 -238.86036246 1182.77494134 -220.875 1164.4375 C-220.13636719 1163.66277344 -219.39773437 1162.88804688 -218.63671875 1162.08984375 C-205.05304105 1148.78012258 -185.93449011 1142.60760237 -167.16699219 1142.62817383 C-151.64955171 1143.2310392 -136.42204492 1147.44535028 -121.36035156 1150.94287109 C-114.03938108 1152.6387285 -106.70353078 1154.26683926 -99.3671875 1155.89453125 C-96.7028127 1156.48642856 -94.03852578 1157.07872068 -91.37426758 1157.67114258 C-90.71678559 1157.81733504 -90.05930361 1157.96352751 -89.38189793 1158.11415005 C-82.37901909 1159.67190695 -75.3781138 1161.23831848 -68.37890625 1162.8125 C-67.25898285 1163.06316727 -66.13905945 1163.31383453 -64.98519897 1163.57209778 C-63.95826935 1163.80353989 -62.93133972 1164.03498199 -61.87329102 1164.2734375 C-60.97626968 1164.47501465 -60.07924835 1164.6765918 -59.15504456 1164.88427734 C-56.875 1165.4375 -56.875 1165.4375 -53.875 1166.4375 C-53.82601562 1165.46296875 -53.77703125 1164.4884375 -53.7265625 1163.484375 C-53.29111767 1155.13834918 -52.7645904 1146.80483475 -52.13964844 1138.47070312 C-51.04076104 1123.79994816 -50.32965909 1109.14184039 -49.875 1094.4375 C-50.59079224 1094.01621826 -50.59079224 1094.01621826 -51.32104492 1093.58642578 C-87.95229024 1071.91451417 -87.95229024 1071.91451417 -93.90917969 1050.76586914 C-97.83665408 1034.56269941 -93.02634926 1018.6077697 -88.9375 1002.9375 C-88.36594376 1000.67625933 -87.7962696 998.41454208 -87.22851562 996.15234375 C-86.19348743 992.05762613 -85.15392084 987.96429134 -84.09008789 983.87695312 C-83.87912979 983.0652063 -83.66817169 982.25345947 -83.45082092 981.41711426 C-82.875 979.4375 -82.875 979.4375 -81.875 977.4375 C-82.75679932 977.35298584 -83.63859863 977.26847168 -84.54711914 977.18139648 C-105.9134128 975.11944044 -127.26743607 972.9249989 -148.60874081 970.61872387 C-152.10349565 970.24111591 -155.59854173 969.86724819 -159.09475708 969.50338745 C-187.03982536 966.58808306 -211.18334351 962.59687927 -230.5625 940.3125 C-244.77270059 922.02768993 -248.94107167 902.30515693 -246.875 879.4375 C-243.37233203 853.18426545 -236.77211097 829.25503673 -215.875 811.4375 C-198.00561019 798.18458535 -176.85829801 792.7023261 -154.85742188 795.95239258 C-150.83466922 796.70264734 -146.85992368 797.57398438 -142.875 798.5 C-141.33355246 798.84221946 -139.79170294 799.18263203 -138.24951172 799.52148438 C-134.65406591 800.31613144 -131.06210135 801.12485225 -127.47167969 801.94189453 C-120.25718788 803.58198619 -113.03529069 805.1883547 -105.81339264 806.79543877 C-88.49472091 810.65007065 -71.18331916 814.53666952 -53.875 818.4375 C-53.81441406 817.28677002 -53.75382813 816.13604004 -53.69140625 814.95043945 C-53.20314313 805.83014464 -52.62401951 796.72813223 -51.875 787.625 C-50.14414615 765.52209266 -49.73997557 743.59604821 -49.875 721.4375 C-50.80610596 720.92614502 -51.73721191 720.41479004 -52.6965332 719.88793945 C-70.33633789 710.14048401 -87.2029779 699.48240312 -93.8125 679.3125 C-97.44229611 662.26824 -93.24022467 646.42743439 -88.9375 629.9375 C-88.36594376 627.67625933 -87.7962696 625.41454208 -87.22851562 623.15234375 C-86.19348743 619.05762613 -85.15392084 614.96429134 -84.09008789 610.87695312 C-83.87912979 610.0652063 -83.66817169 609.25345947 -83.45082092 608.41711426 C-82.875 606.4375 -82.875 606.4375 -81.875 604.4375 C-82.73924088 604.38806244 -83.60348175 604.33862488 -84.49391174 604.28768921 C-94.93760955 603.64579845 -105.31492239 602.61601486 -115.71484375 601.4765625 C-117.49352506 601.2833016 -119.2722169 601.09013753 -121.05091858 600.89706421 C-124.75481567 600.49416005 -128.4584229 600.08870255 -132.16186523 599.68164062 C-136.86178063 599.1654579 -141.5625783 598.6578492 -146.26366329 598.15244484 C-149.93029138 597.75689248 -153.59627778 597.35561942 -157.26211739 596.95283127 C-158.99310389 596.76350855 -160.72430384 596.5761251 -162.45573235 596.39088821 C-185.0823789 593.96415435 -205.08813833 590.69100056 -222.875 575.4375 C-223.60074219 574.82390625 -224.32648438 574.2103125 -225.07421875 573.578125 C-239.21432803 560.57700291 -246.90243981 541.35280336 -247.875 522.4375 C-248.17605086 511.82846775 -246.12612544 501.55551454 -244.125 491.1875 C-243.88523437 489.920271 -243.64546875 488.65304199 -243.3984375 487.34741211 C-239.27049166 466.98562772 -229.53352174 449.2074994 -212.875 436.4375 C-195.11386282 424.70097391 -175.40074438 419.81093129 -154.28344727 423.6652832 C-153.55280595 423.79675153 -152.82216463 423.92821985 -152.06938267 424.06367207 C-142.50179402 425.82466633 -133.01808701 427.97573958 -123.52734375 430.10546875 C-121.53389145 430.549913 -119.54036483 430.99402406 -117.54676819 431.43782043 C-112.35947745 432.59348804 -107.1731927 433.75360727 -101.98712158 434.91473389 C-96.67106421 436.10410884 -91.35404414 437.28916407 -86.03710938 438.47460938 C-75.64880586 440.79140386 -65.26156252 443.11291376 -54.875 445.4375 C-53.031653 428.19666827 -51.43531018 411.01943343 -50.75 393.6875 C-50.64121238 391.0562901 -50.52991609 388.42525016 -50.4133606 385.79437256 C-50.34285014 384.19419504 -50.27688309 382.59380839 -50.21627808 380.9932251 C-49.9868708 375.6612416 -49.9868708 375.6612416 -48.875 373.4375 C-49.55304688 373.19128906 -50.23109375 372.94507813 -50.9296875 372.69140625 C-68.14486661 365.36239764 -85.22100433 352.49207457 -92.6796875 335.02734375 C-99.00985182 316.01616399 -92.91335351 297.82692937 -88.25 279.125 C-87.72864665 277.01640455 -87.20780911 274.90768149 -86.6875 272.79882812 C-85.42260979 267.67689905 -84.15136104 262.55658194 -82.875 257.4375 C-99.19962245 255.24998125 -115.53086582 253.20707601 -131.90625 251.4375 C-133.43506856 251.27125051 -134.96387713 251.10490902 -136.49267578 250.93847656 C-142.69827919 250.26408666 -148.90403411 249.5915727 -155.11181641 248.9375 C-158.99369559 248.5280654 -162.8741691 248.10698393 -166.75401306 247.67871094 C-168.19810252 247.52143259 -169.64264456 247.36823976 -171.08766174 247.21972656 C-195.32837999 244.72359993 -215.45188522 237.1576916 -231.74609375 218.2109375 C-243.86475576 202.42332278 -249.82815769 182.57312255 -247.56054688 162.67871094 C-247.13277848 159.87832018 -246.64557313 157.09709996 -246.125 154.3125 C-245.94380615 153.31694092 -245.7626123 152.32138184 -245.57592773 151.2956543 C-241.08726736 127.09651123 -234.76169265 104.1116221 -213.6171875 89.0625 C-195.15332994 76.4669604 -174.30325609 71.54312866 -152.21533203 75.67211914 C-149.55761652 76.23487059 -146.90772103 76.81365754 -144.2578125 77.41015625 C-142.79237555 77.72718704 -141.32663725 78.04282754 -139.86062622 78.35719299 C-135.98587424 79.19269258 -132.11599056 80.04883549 -128.24702454 80.91068268 C-125.08745521 81.6124106 -121.9255744 82.30338332 -118.7636528 82.99442101 C-109.22412309 85.07996465 -99.69303906 87.20252465 -90.16394043 89.33514404 C-86.04595241 90.25609484 -81.92723577 91.17377618 -77.80859375 92.09179688 C-69.83004434 93.87064004 -61.85225686 95.65286932 -53.875 97.4375 C-53.81803955 96.28491699 -53.7610791 95.13233398 -53.70239258 93.94482422 C-53.16388829 83.25786847 -52.55136563 72.57995132 -51.73754883 61.91015625 C-51.62008187 60.3347556 -51.5088319 58.75888 -51.40356445 57.18261719 C-50.2612246 40.14373477 -47.0066478 24.24527014 -33.9453125 12.0625 C-23.34254923 3.74033109 -13.26910647 0.23518925 0 0 Z M1.125 51.4375 C0.00694694 61.2835051 -1.05935877 71.13337929 -2.05859375 80.9921875 C-2.2662525 83.02995032 -2.47393509 85.0677107 -2.68164062 87.10546875 C-2.99752365 90.20664366 -3.31204249 93.30792631 -3.62231445 96.40966797 C-4.32536677 103.42465404 -5.07098561 110.43334597 -5.875 117.4375 C-5.9820929 118.38516235 -6.08918579 119.33282471 -6.19952393 120.3092041 C-6.51692456 123.0248412 -6.8642364 125.73481705 -7.22265625 128.4453125 C-7.31389267 129.2392038 -7.40512909 130.03309509 -7.49913025 130.8510437 C-8.51082384 138.02218145 -11.59285332 143.10348635 -16.625 148.25 C-23.81711679 153.09084784 -31.03880623 154.40504651 -39.58457375 152.98829651 C-42.79225873 152.3235761 -45.98343938 151.60527859 -49.17504883 150.8671875 C-50.38749771 150.59408752 -51.59994659 150.32098755 -52.84913635 150.03961182 C-55.47344972 149.44745586 -58.09686672 148.85230988 -60.71930885 148.25201416 C-64.87515355 147.3011084 -69.0340539 146.36408541 -73.19352722 145.42919922 C-83.52439718 143.10504541 -93.85145564 140.76411591 -104.17718506 138.41723633 C-112.20521161 136.59270868 -120.23435311 134.7734626 -128.26723689 132.97042274 C-132.39277781 132.04380296 -136.51566313 131.10639482 -140.6368233 130.16049194 C-143.81801732 129.43350654 -147.00266331 128.72192487 -150.18676758 128.0078125 C-151.31284424 127.74599182 -152.4389209 127.48417114 -153.59912109 127.2144165 C-163.53283717 125.01431185 -172.54468679 123.73573918 -181.6484375 128.89453125 C-191.17689825 135.49758738 -192.93172314 145.65925131 -195.0625 156.4375 C-195.23974609 157.27539062 -195.41699219 158.11328125 -195.59960938 158.9765625 C-197.51319047 168.52230294 -197.74765166 175.81794724 -192.875 184.4375 C-188.66579382 190.75130927 -183.18575697 193.86241796 -175.875 195.4375 C-171.8145977 196.05009114 -167.73980198 196.48568131 -163.65673828 196.91796875 C-162.44122284 197.05159821 -161.2257074 197.18522766 -159.97335815 197.32290649 C-157.34092256 197.61150032 -154.70835847 197.8979042 -152.07529068 198.18057251 C-147.90452543 198.62844527 -143.73478887 199.08543143 -139.56515503 199.54370117 C-131.46264017 200.43299983 -123.35918331 201.31351456 -115.25556946 202.19273376 C-104.94821608 203.31125045 -94.64117491 204.43253288 -84.33525646 205.56420231 C-80.19777857 206.01820863 -76.05980103 206.46723883 -71.92135262 206.91230774 C-68.73115629 207.25662416 -65.5416666 207.60738432 -62.35205078 207.95703125 C-61.21721252 208.07760895 -60.08237427 208.19818665 -58.91314697 208.32241821 C-47.01819203 209.63969509 -38.01224453 210.87024568 -30.1328125 220.66796875 C-25.67132867 226.94452831 -26.06134612 235.13407658 -27.1897583 242.48910522 C-28.23453997 248.09567773 -29.5612276 253.63915232 -30.875 259.1875 C-31.2820552 260.9507233 -31.68821259 262.71415408 -32.09350586 264.4777832 C-35.04559493 277.24487615 -38.17578622 289.9704604 -41.48632812 302.64941406 C-41.80150391 303.87241211 -42.11667969 305.09541016 -42.44140625 306.35546875 C-42.71927979 307.41531982 -42.99715332 308.4751709 -43.28344727 309.56713867 C-43.84958837 312.31419644 -44.10947654 314.6452369 -43.875 317.4375 C-41.09001821 320.4254076 -37.35376253 322.33634378 -33.875 324.4375 C-33.26865723 324.81036133 -32.66231445 325.18322266 -32.03759766 325.56738281 C27.17853264 361.61455526 105.10768276 368.03011486 172.98474121 371.33035278 C174.45999795 371.40420818 175.93501227 371.4830164 177.40979004 371.56588745 C199.08171415 372.76973425 220.78583924 372.62490517 242.48339844 372.62280273 C246.88252925 372.62272197 251.28155482 372.62959772 255.68066406 372.64331055 C341.00454926 372.90499151 438.8027618 371.91824179 544.125 316.4375 C541.99483566 306.6485414 539.77933716 296.88423558 537.43359375 287.14453125 C537.20008209 286.17482391 536.96657043 285.20511658 536.72598267 284.20602417 C535.76336859 280.21467652 534.798576 276.22386275 533.83129883 272.23364258 C529.10271255 252.70859445 529.10271255 252.70859445 527.28515625 243.94921875 C527.05578369 242.84408936 526.82641113 241.73895996 526.59008789 240.6003418 C525.44694857 232.82639437 526.21833318 226.17946607 530.34375 219.44921875 C535.4942474 212.76787906 542.0285522 210.58188361 550.22373962 209.42319012 C554.39376249 208.89712621 558.57046882 208.44690064 562.75 208.00390625 C564.61089424 207.79568926 566.47165036 207.58623463 568.33227539 207.37562561 C573.2614526 206.82197527 578.19248157 206.2872776 583.12445068 205.75913239 C586.08144468 205.44216875 589.03808677 205.12211329 591.99462891 204.80096436 C601.76907875 203.73965068 611.54458336 202.68812948 621.3203125 201.63867188 C622.28891708 201.53455679 623.25752167 201.4304417 624.25547791 201.32317162 C629.24482707 200.78772246 634.23468458 200.25785458 639.22558594 199.73706055 C644.19020912 199.21858996 649.15314699 198.68603934 654.11526489 198.14413643 C655.97089116 197.94406327 657.82707158 197.74905327 659.68380737 197.55955315 C677.38929483 196.01237542 677.38929483 196.01237542 691.72265625 186.29296875 C695.95705012 180.69035847 697.55588249 174.35607952 696.79882812 167.47119141 C696.24371653 163.96589722 695.60596082 160.48541121 694.9375 157 C694.72802734 155.81083984 694.51855469 154.62167969 694.30273438 153.39648438 C692.10433231 141.64775405 688.89414217 134.61412817 679.125 127.4375 C670.45481961 123.01017384 659.86647984 125.84246599 650.86987305 127.90014648 C649.68650864 128.1618866 648.50314423 128.42362671 647.28392029 128.69329834 C644.06763707 129.40681552 640.85361243 130.12959405 637.64036918 130.85665393 C634.26520022 131.61795103 630.88732208 132.36703397 627.50971985 133.1174469 C621.12152271 134.53863157 614.73576186 135.97045859 608.3508423 137.40628821 C600.38373146 139.19736916 592.41355807 140.97467343 584.44335938 142.75195312 C576.30666737 144.56675992 568.17027648 146.38285596 560.03581238 148.20762634 C558.80053802 148.48461868 557.56526367 148.76161102 556.29255676 149.04699707 C553.98769003 149.56403562 551.6829294 150.0815475 549.3782959 150.59962463 C548.35934738 150.82818146 547.34039886 151.05673828 546.29057312 151.29222107 C544.96746392 151.58949931 544.96746392 151.58949931 543.61762524 151.89278316 C533.22196168 154.16456188 525.07264747 154.21196858 515.875 148.375 C507.16959405 140.13170888 506.74413094 128.17098825 505.5625 117 C505.35964538 115.21218833 505.15560295 113.42451107 504.95043945 111.63696289 C502.68826176 91.6042814 500.87849536 71.52015298 499.125 51.4375 C495.53214635 52.04404928 492.49686324 53.0225086 489.1796875 54.51953125 C424.29568753 83.19443592 351.76003098 99.57195884 280.72265625 99.60546875 C279.07197545 99.60869961 277.4212949 99.61206488 275.77061462 99.61555481 C272.32241151 99.62149925 268.87423325 99.62340002 265.42602539 99.62280273 C261.96405734 99.6227222 258.50222366 99.62955602 255.0402832 99.64331055 C232.65119735 99.73081288 210.44692074 99.24997713 188.125 97.4375 C187.21688568 97.36415436 186.30877136 97.29080872 185.37313843 97.21524048 C180.46806801 96.80574532 175.57832833 96.30742295 170.6875 95.75 C169.97614899 95.67057159 169.26479797 95.59114319 168.53189087 95.50930786 C144.22363867 92.76592105 120.07944715 88.35761826 96.125 83.4375 C96.07568329 84.02075043 96.02636658 84.60400085 95.97555542 85.20492554 C92.69946004 123.77216709 88.46731568 161.91770683 81.5 200 C81.35983459 200.76675049 81.21966919 201.53350098 81.07525635 202.32348633 C79.56898273 210.49324127 77.92323586 218.62843191 76.0859375 226.73046875 C75.93128021 227.43434219 75.77662292 228.13821564 75.61727905 228.86341858 C73.80897436 236.61893811 70.51050611 241.06937948 63.9375 245.375 C57.84421203 248.92040424 52.05679134 249.17205036 45.125 248.4375 C38.29385665 246.31289056 32.9425115 242.5248832 29.125 236.4375 C24.06299921 225.69354155 27.75867991 212.725862 30.1444397 201.66082764 C37.5596854 167.0352347 42.3747318 131.73617565 45.125 96.4375 C45.22071289 95.29071777 45.31642578 94.14393555 45.41503906 92.96240234 C46.03645713 85.10373722 46.24283583 77.31940741 46.125 69.4375 C45.18817383 69.06987549 44.25134766 68.70225098 43.28613281 68.32348633 C39.75194716 66.93623348 36.21841415 65.5473246 32.68505859 64.15795898 C31.16667661 63.56116522 29.64812679 62.96479828 28.12939453 62.36889648 C19.08624041 58.82027924 10.07191157 55.22381393 1.125 51.4375 Z M1015.8125 201.375 C1012.15320282 208.01594673 1010.7292207 214.39270274 1012.77954102 221.80322266 C1015.23814996 228.33713226 1018.50366736 232.68245543 1023.4375 237.5625 C1024.72658788 238.87630299 1026.01435225 240.19140592 1027.30078125 241.5078125 C1028.25210937 242.47291748 1028.25210937 242.47291748 1029.22265625 243.45751953 C1032.31477409 246.67583006 1035.20948171 250.06000454 1038.125 253.4375 C1039.57890807 255.06646054 1041.03657732 256.69208179 1042.5 258.3125 C1043.26054688 259.15554688 1044.02109375 259.99859375 1044.8046875 260.8671875 C1045.57039063 261.71539062 1046.33609375 262.56359375 1047.125 263.4375 C1049.37296977 265.93437992 1051.62008007 268.43203151 1053.8671875 270.9296875 C1055.39208244 272.62342894 1056.91815402 274.31611169 1058.4453125 276.0078125 C1061.82412708 279.75314256 1065.19395965 283.50268207 1068.5 287.3125 C1071.95283819 291.279249 1075.51377381 295.14432669 1079.07543945 299.01293945 C1082.21017052 302.42348806 1085.28226302 305.87909116 1088.31640625 309.37890625 C1090.5551125 311.9270665 1092.83910212 314.43160593 1095.125 316.9375 C1097.97024228 320.05657011 1100.7969958 323.18505391 1103.5625 326.375 C1106.99336233 330.32495261 1110.53630271 334.169371 1114.08007812 338.01757812 C1116.61225408 340.7720576 1119.11527735 343.54483787 1121.5625 346.375 C1124.67464209 349.9670869 1127.8937396 353.45300137 1131.125 356.9375 C1134.37598338 360.4435797 1137.61476459 363.95177865 1140.75 367.5625 C1141.27851562 368.16835938 1141.80703125 368.77421875 1142.3515625 369.3984375 C1143.74737551 371.00331501 1145.13663306 372.61389414 1146.5234375 374.2265625 C1153.22716473 381.85633013 1158.45806181 386.99303745 1168.875 387.6875 C1176.44944334 387.53320578 1181.91330235 384.52770978 1187.359375 379.37109375 C1192.86554631 373.34110526 1193.57657527 367.82839809 1193.65625 359.78125 C1192.38891424 351.80448962 1187.82847849 346.54723034 1182.3125 340.9375 C1181.05125388 339.62188843 1179.79082682 338.30549112 1178.53125 336.98828125 C1177.93570312 336.37033691 1177.34015625 335.75239258 1176.7265625 335.11572266 C1174.31537047 332.58911686 1172.03316102 329.96125577 1169.75390625 327.31640625 C1166.27339824 323.30171955 1162.68526523 319.38136283 1159.125 315.4375 C1156.87703023 312.94062008 1154.62991993 310.44296849 1152.3828125 307.9453125 C1150.85791756 306.25157106 1149.33184598 304.55888831 1147.8046875 302.8671875 C1144.42587292 299.12185744 1141.05604035 295.37231793 1137.75 291.5625 C1134.29716181 287.595751 1130.73622619 283.73067331 1127.17456055 279.86206055 C1124.03982948 276.45151194 1120.96773698 272.99590884 1117.93359375 269.49609375 C1115.6948875 266.9479335 1113.41089788 264.44339407 1111.125 261.9375 C1108.27975772 258.81842989 1105.4530042 255.68994609 1102.6875 252.5 C1099.72616544 249.09061482 1096.68349695 245.75953624 1093.625 242.4375 C1090.00412455 238.5046272 1086.43541136 234.53536058 1082.93359375 230.49609375 C1080.6948875 227.9479335 1078.41089788 225.44339407 1076.125 222.9375 C1073.27975772 219.81842989 1070.4530042 216.68994609 1067.6875 213.5 C1064.66183932 210.02875509 1061.59330961 206.59844234 1058.5 203.1875 C1057.81659546 202.42578491 1057.81659546 202.42578491 1057.11938477 201.64868164 C1051.08889209 195.03187587 1045.49712013 191.39331802 1036.625 190.0625 C1028.1693239 191.33085141 1021.13828887 194.60980873 1015.8125 201.375 Z M798.6015625 330.296875 C794.78062999 335.83621631 793.10053684 341.69103528 794.125 348.4375 C796.03961397 358.04415956 803.03383232 364.18502715 809.63037109 370.8984375 C811.40776573 372.72867202 813.09083852 374.62479316 814.75 376.5625 C817.64244949 379.91543896 820.62539093 383.18063802 823.625 386.4375 C827.2251789 390.34726768 830.76917723 394.29616603 834.25 398.3125 C836.67050142 401.05573494 839.14704178 403.74631243 841.625 406.4375 C845.2691694 410.39609723 848.86413779 414.38926832 852.390625 418.453125 C855.92000714 422.49124691 859.53134226 426.45664681 863.125 430.4375 C864.62528679 432.10390851 866.12528872 433.77057353 867.625 435.4375 C868.3675 436.2625 869.11 437.0875 869.875 437.9375 C885.625 455.4375 885.625 455.4375 887.8671875 457.9296875 C889.39208244 459.62342894 890.91815402 461.31611169 892.4453125 463.0078125 C895.82412708 466.75314256 899.19395965 470.50268207 902.5 474.3125 C905.95351561 478.28002724 909.5150394 482.1459764 913.07763672 486.01513672 C916.19085044 489.4019456 919.23744538 492.83647544 922.25 496.3125 C924.67050108 499.05573456 927.1470241 501.74632906 929.625 504.4375 C933.24590134 508.37034841 936.81458925 512.33964012 940.31640625 516.37890625 C942.5551125 518.9270665 944.83910212 521.43160593 947.125 523.9375 C949.97024228 527.05657011 952.7969958 530.18505391 955.5625 533.375 C958.99268576 537.32417367 962.53503518 541.16772305 966.07788086 545.01538086 C969.19099299 548.40212619 972.23752082 551.83656249 975.25 555.3125 C977.67050208 558.05573569 980.14707715 560.74627915 982.625 563.4375 C985.74244525 566.82474443 988.845347 570.22114026 991.875 573.6875 C992.68904297 574.615625 992.68904297 574.615625 993.51953125 575.5625 C994.64440753 576.87622412 995.74410293 578.21173447 996.82421875 579.5625 C1001.61663554 585.4210949 1007.31405178 589.72571719 1015.0703125 590.67578125 C1022.46640133 590.9276194 1027.65813036 588.56489728 1033.875 584.75 C1038.98832138 579.49464191 1041.98668508 573.39693329 1042.29296875 566.0234375 C1041.54214934 554.46431074 1034.35302666 547.74324792 1026.62402344 539.96484375 C1024.81700185 538.12368299 1023.11550484 536.20901044 1021.4375 534.25 C1018.71743789 531.09796773 1015.93131328 528.01308472 1013.125 524.9375 C1010.27975772 521.81842989 1007.4530042 518.68994609 1004.6875 515.5 C1001.72616544 512.09061482 998.68349695 508.75953624 995.625 505.4375 C992.00412455 501.5046272 988.43541136 497.53536058 984.93359375 493.49609375 C982.6948875 490.9479335 980.41089788 488.44339407 978.125 485.9375 C975.27975772 482.81842989 972.4530042 479.68994609 969.6875 476.5 C966.7261649 473.0906142 963.68347514 469.7595569 960.625 466.4375 C956.98085671 462.47887814 953.38586283 458.4857324 949.859375 454.421875 C946.32999286 450.38375309 942.71865774 446.41835319 939.125 442.4375 C937.62471321 440.77109149 936.12471128 439.10442647 934.625 437.4375 C933.8825 436.6125 933.14 435.7875 932.375 434.9375 C925.625 427.4375 925.625 427.4375 923.3828125 424.9453125 C921.85791756 423.25157106 920.33184598 421.55888831 918.8046875 419.8671875 C915.42587292 416.12185744 912.05604035 412.37231793 908.75 408.5625 C905.29716181 404.595751 901.73622619 400.73067331 898.17456055 396.86206055 C895.03982948 393.45151194 891.96773698 389.99590884 888.93359375 386.49609375 C886.6948875 383.9479335 884.41089788 381.44339407 882.125 378.9375 C879.27975772 375.81842989 876.4530042 372.68994609 873.6875 369.5 C870.7261649 366.0906142 867.68347514 362.7595569 864.625 359.4375 C860.98085671 355.47887814 857.38586283 351.4857324 853.859375 347.421875 C851.0918895 344.25547267 848.27281421 341.13662254 845.44140625 338.02734375 C843.89521607 336.29863534 842.38174403 334.54010659 840.90234375 332.75390625 C835.27889965 326.07916572 829.98450882 321.27890424 821.10546875 320.00390625 C811.06870195 319.58728574 804.88990474 322.54412429 798.6015625 330.296875 Z M1030.125 321.4375 C1029.68220703 321.85523682 1029.23941406 322.27297363 1028.78320312 322.70336914 C1026.73185083 324.63705151 1024.67843683 326.56853149 1022.625 328.5 C1021.92890625 329.15677734 1021.2328125 329.81355469 1020.515625 330.49023438 C1016.4080272 334.35061564 1012.23903089 338.11897429 1007.98242188 341.81420898 C1005.31874881 344.142122 1002.72336964 346.5368324 1000.125 348.9375 C996.16730863 352.58264414 992.17320826 356.17665812 988.109375 359.703125 C984.07126738 363.23249465 980.10525811 366.84320631 976.125 370.4375 C970.16577458 375.81886114 964.18291759 381.16737907 958.125 386.4375 C962.22891113 392.1724894 966.68208315 397.35352558 971.5625 402.4375 C984.0046037 415.47814912 984.0046037 415.47814912 989.125 422.4375 C992.57605456 420.93258808 994.99224097 418.92166021 997.75 416.375 C998.6265625 415.57191406 999.503125 414.76882813 1000.40625 413.94140625 C1001.3034375 413.11511719 1002.200625 412.28882813 1003.125 411.4375 C1004.83105611 409.89331367 1006.53933079 408.35157431 1008.25 406.8125 C1009.08015625 406.06484375 1009.9103125 405.3171875 1010.765625 404.546875 C1012.82966549 402.70154078 1014.90894121 400.87705515 1017 399.0625 C1020.42832192 396.07833314 1023.78120801 393.01561516 1027.125 389.9375 C1031.08364649 386.29338284 1035.07676688 382.69836345 1039.140625 379.171875 C1044.12493831 374.81550668 1049.01906917 370.35466392 1053.9140625 365.8984375 C1055.25597656 364.68027344 1055.25597656 364.68027344 1056.625 363.4375 C1057.4396875 362.695 1058.254375 361.9525 1059.09375 361.1875 C1061.125 359.4375 1061.125 359.4375 1063.125 358.4375 C1061.83604283 355.62398214 1060.46231495 353.5049293 1058.33203125 351.265625 C1057.78772461 350.68780273 1057.24341797 350.10998047 1056.68261719 349.51464844 C1056.10672852 348.91168945 1055.53083984 348.30873047 1054.9375 347.6875 C1053.75047304 346.42786407 1052.56426755 345.1674535 1051.37890625 343.90625 C1050.81187988 343.30425781 1050.24485352 342.70226562 1049.66064453 342.08203125 C1047.31574811 339.57086714 1045.06450378 336.98414472 1042.81640625 334.38671875 C1040.66602129 331.90856149 1038.4938283 329.45096951 1036.3125 327 C1035.56355469 326.15566406 1034.81460937 325.31132812 1034.04296875 324.44140625 C1032.28081429 322.37501766 1032.28081429 322.37501766 1030.125 321.4375 Z M1.125 394.4375 C0.16966374 398.61081104 -0.18070776 402.75490491 -0.453125 407.015625 C-0.55987366 408.56555758 -0.66732882 410.11544162 -0.77539062 411.6652832 C-0.83186768 412.48292145 -0.88834473 413.30055969 -0.9465332 414.14297485 C-2.03951386 429.7263596 -3.50964265 445.24019987 -5.375 460.75 C-5.47655396 461.61927124 -5.57810791 462.48854248 -5.68273926 463.38415527 C-8.75543399 489.49896177 -8.75543399 489.49896177 -16.875 496.4375 C-23.04474684 500.87538808 -30.3309174 502.13223621 -37.82491684 501.19315338 C-43.38412293 500.26216912 -48.8659122 498.96473056 -54.35546875 497.6953125 C-56.17174313 497.28802928 -57.98834589 496.88220806 -59.80525208 496.47775269 C-64.59523071 495.40736875 -69.3805391 494.31739313 -74.1651001 493.2230835 C-78.8828395 492.14747747 -83.60464848 491.0900967 -88.32617188 490.03125 C-117.33891155 483.51179952 -117.33891155 483.51179952 -130.34782314 480.45139503 C-133.9865663 479.59689995 -137.62769329 478.7528462 -141.2691288 477.90990829 C-142.96894869 477.51333702 -144.66758674 477.11165742 -146.36485863 476.704319 C-164.02112771 471.97666706 -164.02112771 471.97666706 -181.09765625 476.05078125 C-190.68036257 483.52739827 -192.79866656 492.98620243 -195.0625 504.4375 C-195.23974609 505.27539062 -195.41699219 506.11328125 -195.59960938 506.9765625 C-197.4866227 516.38977182 -197.90829285 523.98816906 -192.875 532.4375 C-187.40314114 539.1253275 -180.81672148 542.78602154 -172.30651283 543.80049133 C-171.37569075 543.89082138 -170.44486866 543.98115143 -169.48583984 544.07421875 C-168.48660177 544.18763107 -167.4873637 544.3010434 -166.45784569 544.41789246 C-163.26527716 544.77609586 -160.07052774 545.1068647 -156.875 545.4375 C-154.81008696 545.6666649 -152.74540642 545.89793484 -150.68096924 546.13134766 C-145.29992976 546.73519092 -139.91653032 547.31411479 -134.53194046 547.88534546 C-130.99871907 548.26093242 -127.46602357 548.64115702 -123.93344116 549.02270508 C-113.90982902 550.1052299 -103.88596063 551.18513094 -93.86035156 552.24902344 C-87.67966823 552.90523794 -81.50010085 553.57119506 -75.32114792 554.24349976 C-72.98446674 554.49588449 -70.64739269 554.74466043 -68.30992508 554.98965454 C-65.05141445 555.33154868 -61.79447171 555.68586608 -58.53759766 556.04296875 C-57.11148918 556.1880336 -57.11148918 556.1880336 -55.65657043 556.33602905 C-47.13869751 557.29359886 -38.07112835 559.05687155 -31.875 565.4375 C-26.59919276 572.58321361 -25.88574428 579.80489515 -26.875 588.4375 C-28.19513692 596.28689495 -30.14101329 604.01498683 -32 611.75 C-32.50742335 613.90898945 -33.01368607 616.068252 -33.51879883 618.2277832 C-36.31867795 630.14823678 -39.15846073 642.06564328 -42.29931641 653.90161133 C-42.86727733 656.07338977 -43.38545945 658.24702804 -43.875 660.4375 C-44.0915625 661.33726562 -44.308125 662.23703125 -44.53125 663.1640625 C-43.32427263 667.34537697 -39.26488457 668.99456498 -35.6875 671.125 C-34.83325439 671.64610352 -33.97900879 672.16720703 -33.09887695 672.70410156 C1.24300411 693.22741177 40.05874667 702.69726909 79.125 709.4375 C80.22779297 709.62795898 81.33058594 709.81841797 82.46679688 710.01464844 C113.25302232 715.20196796 144.67389312 717.88671679 175.85009766 719.33062744 C177.43377116 719.40502678 179.0172604 719.48341093 180.60058594 719.56488037 C203.42638523 720.7170447 226.27468243 720.65913143 249.12353516 720.67773438 C253.6757012 720.68209221 258.22767486 720.69590728 262.77978516 720.71875 C319.96085813 720.99943622 376.09753778 716.51861133 432.484375 706.98828125 C433.2438443 706.86135391 434.0033136 706.73442657 434.78579712 706.60365295 C439.63437024 705.76843217 444.3641388 704.68012105 449.125 703.4375 C449.34542969 701.63732422 449.34542969 701.63732422 449.5703125 699.80078125 C454.3171471 663.59928396 469.10607596 626.70765153 495.6875 600.875 C496.491875 600.070625 497.29625 599.26625 498.125 598.4375 C498.125 597.7775 498.125 597.1175 498.125 596.4375 C498.70765625 596.18355469 499.2903125 595.92960938 499.890625 595.66796875 C502.36688033 594.30429667 503.93020626 592.79524797 505.875 590.75 C509.07900529 587.46353869 512.38171374 584.40957893 515.859375 581.41796875 C518.6581631 578.97144191 521.39188136 576.45671501 524.125 573.9375 C528.05763943 570.31637487 532.02714575 566.74790587 536.06640625 563.24609375 C538.6145665 561.0073875 541.11910593 558.72339788 543.625 556.4375 C546.74407011 553.59225772 549.87255391 550.7655042 553.0625 548 C556.4718858 545.0386649 559.8029431 541.99597514 563.125 538.9375 C567.08362186 535.29335671 571.0767676 531.69836283 575.140625 528.171875 C579.17874691 524.64249286 583.14414681 521.03115774 587.125 517.4375 C588.79140851 515.93721321 590.45807353 514.43721128 592.125 512.9375 C592.95 512.195 593.775 511.4525 594.625 510.6875 C602.125 503.9375 602.125 503.9375 604.6171875 501.6953125 C606.31092894 500.17041756 608.00361169 498.64434598 609.6953125 497.1171875 C614.79994991 492.51208647 619.93494871 487.94617584 625.125 483.4375 C621.10871309 482.0987377 618.01875463 483.13910066 614.0168457 484.06811523 C613.1904509 484.25328705 612.36405609 484.43845886 611.51261902 484.62924194 C609.71611732 485.03282684 607.92043341 485.44006517 606.12548256 485.85049248 C603.28087238 486.50064403 600.43417973 487.14080757 597.5867157 487.77833557 C590.51050959 489.36476916 583.43809421 490.96783722 576.36578369 492.5715332 C570.39718379 493.92443331 564.42710933 495.27042439 558.45485497 496.60710335 C555.65713225 497.23623289 552.86183545 497.87543595 550.06648254 498.51499939 C548.3378116 498.90300574 546.6090319 499.29052792 544.88012695 499.67749023 C544.10943878 499.85672531 543.33875061 500.03596039 542.54470825 500.22062683 C533.58068132 502.20072438 526.30766947 501.87511459 518.20703125 497.37109375 C513.11291255 494.08001067 510.06847128 489.98322059 508.49707031 484.07763672 C507.95289099 481.22577355 507.52175628 478.37614452 507.125 475.5 C506.96402832 474.39462891 506.80305664 473.28925781 506.63720703 472.15039062 C503.04378616 446.39464217 500.90329525 420.37458684 499.125 394.4375 C496.74941328 394.9557513 494.37449151 395.47676338 492 396 C491.20505127 396.17490967 490.41010254 396.34981934 489.59106445 396.5300293 C484.56576972 397.64524714 479.55460554 398.80758058 474.55078125 400.015625 C432.37314593 410.16093831 389.92999615 416.73148866 346.7421875 420.640625 C346.02241226 420.70705704 345.30263702 420.77348907 344.56105042 420.8419342 C342.08354507 421.06002706 339.60520863 421.25248677 337.125 421.4375 C335.97194366 421.52526199 334.81888733 421.61302399 333.63088989 421.70344543 C320.70092971 422.61355651 307.7767632 422.60139448 294.8203125 422.60546875 C292.36929303 422.60869574 289.91827374 422.61206079 287.46725464 422.61555481 C282.3352616 422.62151544 277.20328531 422.62339837 272.07128906 422.62280273 C266.90360966 422.62272221 261.73602028 422.62955033 256.56835938 422.64331055 C216.61828357 422.74794609 176.85847959 422.13404365 137.0625 418.375 C133.25951098 418.02549755 129.4560542 417.68139923 125.65234375 417.33984375 C124.76356537 417.25938812 123.87478699 417.1789325 122.95907593 417.09603882 C114.35830069 416.33481219 105.74882175 415.8477782 97.125 415.4375 C97.03524902 416.70078125 96.94549805 417.9640625 96.85302734 419.265625 C93.58628881 464.69808316 88.47763679 509.64703086 80.125 554.4375 C80.00169312 555.10281738 79.87838623 555.76813477 79.75134277 556.45361328 C79.00792565 560.45401412 78.23528929 564.4476042 77.4375 568.4375 C77.25952881 569.35015625 77.08155762 570.2628125 76.89819336 571.203125 C75.17967862 579.38548271 72.88475802 586.97523854 66.0390625 592.21875 C59.30712434 596.50520858 52.60623375 597.54295891 44.80078125 595.96875 C38.37385673 594.13560345 33.63938266 591.05285495 29.8046875 585.5390625 C24.06149648 574.73543744 27.33933454 561.53826529 29.77349854 550.17440796 C30.6150075 546.22399389 31.39894323 542.26204575 32.1875 538.30078125 C32.35114044 537.48205032 32.51478088 536.6633194 32.68338013 535.81977844 C40.99880216 493.91515352 47.80146183 449.23908506 47.125 406.4375 C46.36058594 406.2516333 45.59617187 406.0657666 44.80859375 405.87426758 C18.1505836 399.36815725 18.1505836 399.36815725 5.8359375 395.28515625 C3.28025137 394.3380228 3.28025137 394.3380228 1.125 394.4375 Z M779.125 413.4375 C778.51914063 413.98277344 777.91328125 414.52804687 777.2890625 415.08984375 C764.125 426.9375 764.125 426.9375 761.6328125 429.1796875 C759.93907106 430.70458244 758.24638831 432.23065402 756.5546875 433.7578125 C752.80935744 437.13662708 749.05981793 440.50645965 745.25 443.8125 C741.82167808 446.79666686 738.46879199 449.85938484 735.125 452.9375 C731.16635351 456.58161716 727.17323312 460.17663655 723.109375 463.703125 C719.07125309 467.23250714 715.10585319 470.84384226 711.125 474.4375 C709.45859149 475.93778679 707.79192647 477.43778872 706.125 478.9375 C705.3 479.68 704.475 480.4225 703.625 481.1875 C696.125 487.9375 696.125 487.9375 693.6328125 490.1796875 C691.93907106 491.70458244 690.24638831 493.23065402 688.5546875 494.7578125 C684.80935744 498.13662708 681.05981793 501.50645965 677.25 504.8125 C673.283251 508.26533819 669.41817331 511.82627381 665.54956055 515.38793945 C662.13901194 518.52267052 658.68340884 521.59476302 655.18359375 524.62890625 C652.6354335 526.8676125 650.13089407 529.15160212 647.625 531.4375 C644.50592989 534.28274228 641.37744609 537.1094958 638.1875 539.875 C634.77811482 542.83633456 631.44703624 545.87900305 628.125 548.9375 C624.1921272 552.55837545 620.22286058 556.12708864 616.18359375 559.62890625 C613.6354335 561.8676125 611.13089407 564.15160212 608.625 566.4375 C605.50592989 569.28274228 602.37744609 572.1094958 599.1875 574.875 C595.7781142 577.8363351 592.4470569 580.87902486 589.125 583.9375 C585.16637814 587.58164329 581.1732324 591.17663717 577.109375 594.703125 C573.07125309 598.23250714 569.10585319 601.84384226 565.125 605.4375 C563.45859149 606.93778679 561.79192647 608.43778872 560.125 609.9375 C558.8875 611.05125 558.8875 611.05125 557.625 612.1875 C555.125 614.4375 552.625 616.6875 550.125 618.9375 C548.88943359 620.05125 548.88943359 620.05125 547.62890625 621.1875 C545.95386431 622.6926859 544.27412897 624.19266443 542.58984375 625.6875 C540.08365776 627.91866404 537.59864034 630.17032723 535.125 632.4375 C534.37347656 633.12199219 533.62195313 633.80648437 532.84765625 634.51171875 C513.22542409 653.16835776 502.27314851 679.04298467 498.125 705.4375 C497.98191406 706.30761719 497.83882812 707.17773438 497.69140625 708.07421875 C493.65789986 739.79450971 504.20676675 771.83621753 523.21655273 796.99926758 C539.68049253 818.19491343 561.53068242 832.64448522 587.125 840.4375 C588.13820313 840.75460937 589.15140625 841.07171875 590.1953125 841.3984375 C620.89907367 850.03654301 654.01334315 844.6374627 681.75170898 829.6081543 C691.92760997 823.86266949 700.57168831 816.32731703 709.125 808.4375 C713.36986144 804.65517179 717.64315224 800.93894356 722.125 797.4375 C720.50887587 793.51396165 717.81169953 790.72351774 714.9375 787.6875 C713.93289698 786.61002422 712.92898947 785.53189955 711.92578125 784.453125 C711.44061035 783.93298828 710.95543945 783.41285156 710.45556641 782.87695312 C708.24617188 780.4867531 706.12737074 778.02097638 704.00390625 775.5546875 C702.05780862 773.36178747 700.04258364 771.24180011 698.02490234 769.11499023 C689.98895031 760.58400209 683.69073639 752.58032856 683.8515625 740.421875 C684.44516078 733.9431738 686.58989889 728.43271633 691.4375 724 C699.03080525 718.35697525 705.7371101 717.33568777 715.125 718.4375 C725.21790119 720.88884931 731.63945744 729.92993859 738.125 737.4375 C738.80691406 738.20964844 739.48882813 738.98179687 740.19140625 739.77734375 C741.28366692 741.01659077 742.36999362 742.26110303 743.44921875 743.51171875 C745.49955675 745.86793468 747.5928888 748.18307517 749.6875 750.5 C753.23196445 754.42682963 756.70417903 758.40268552 760.125 762.4375 C767.75952263 755.91634526 775.30432012 749.32192675 782.67553711 742.50317383 C786.28658314 739.17145436 789.98493888 735.97413505 793.796875 732.875 C795.46430581 731.39643818 795.46430581 731.39643818 795.125 728.4375 C793.96711403 726.72425401 793.96711403 726.72425401 792.3125 725 C791.67699219 724.30003906 791.04148437 723.60007812 790.38671875 722.87890625 C789.64035156 722.07324219 788.89398437 721.26757812 788.125 720.4375 C786.76769543 718.95698476 785.41040347 717.47645791 784.0534668 715.99560547 C783.09588525 714.95111983 782.13770793 713.90718011 781.17895508 712.86376953 C777.42557005 708.77702253 773.73196494 704.65364124 770.125 700.4375 C768.97644531 699.14199219 768.97644531 699.14199219 767.8046875 697.8203125 C761.64532914 690.6707036 757.38068826 684.17765862 757.84375 674.47265625 C758.84752949 667.20919632 761.48184891 661.23542141 767.125 656.4375 C774.08706652 651.59556896 781.91638573 651.5135446 790.125 652.4375 C799.63040126 654.81385032 806.21620127 664.24494618 812.3203125 671.34765625 C815.09052554 674.55558693 817.93896318 677.69190105 820.78125 680.8359375 C822.39351406 682.6255506 823.99722551 684.42289401 825.59375 686.2265625 C826.3878125 687.12117188 827.181875 688.01578125 828 688.9375 C828.71929688 689.7521875 829.43859375 690.566875 830.1796875 691.40625 C832.15061325 693.61148315 832.15061325 693.61148315 835.125 695.4375 C835.73085937 694.89222656 836.33671875 694.34695313 836.9609375 693.78515625 C838.72903718 692.19386653 840.49727695 690.60273246 842.265625 689.01171875 C844.0895893 687.36965253 845.91260581 685.72653248 847.734375 684.08203125 C855.10945075 677.42843031 862.57243253 670.88865138 870.125 664.4375 C868.83604283 661.62398214 867.46231495 659.5049293 865.33203125 657.265625 C864.78788574 656.68796387 864.24374023 656.11030273 863.68310547 655.51513672 C862.81903076 654.61045654 862.81903076 654.61045654 861.9375 653.6875 C860.74785939 652.42526895 859.5590492 651.16225468 858.37109375 649.8984375 C857.80374512 649.29612305 857.23639648 648.69380859 856.65185547 648.07324219 C854.34545984 645.60236743 852.13591646 643.05493246 849.9375 640.48828125 C848.00205307 638.29838978 845.99063945 636.18804232 843.97851562 634.06884766 C836.32543081 625.94818666 830.69215116 618.42892428 830.84375 606.9453125 C831.49797623 601.11179531 833.78286107 596.10610516 837.4375 591.5625 C844.58301163 585.91256057 851.03791474 583.59915276 860.125 584.4375 C868.18442452 586.42675905 873.8694934 590.83527202 879.140625 597.09765625 C881.40727568 599.77034081 883.75880258 602.35260857 886.125 604.9375 C889.54830921 608.69076672 892.92251581 612.47780597 896.25390625 616.3125 C900.1522592 620.739857 904.14624051 625.08247955 908.125 629.4375 C912.94207119 626.02175861 917.25006834 622.4498169 921.359375 618.2109375 C923.75057849 615.80915346 926.29966375 613.62024042 928.8671875 611.41015625 C932.57654294 608.16928342 936.18353087 604.81528908 939.8046875 601.4765625 C942.125 599.4375 942.125 599.4375 944.125 598.4375 C942.5436938 594.69827871 940.19269602 592.14100263 937.4375 589.1875 C934.47959165 585.99266282 931.53380654 582.79535975 928.6875 579.5 C925.25731424 575.55082633 921.71496482 571.70727695 918.17211914 567.85961914 C915.05900701 564.47287381 912.01247918 561.03843751 909 557.5625 C906.57949858 554.81926506 904.10295822 552.12868757 901.625 549.4375 C897.9808306 545.47890277 894.38586221 541.48573168 890.859375 537.421875 C887.32999286 533.38375309 883.71865774 529.41835319 880.125 525.4375 C878.62471321 523.77109149 877.12471128 522.10442647 875.625 520.4375 C874.8825 519.6125 874.14 518.7875 873.375 517.9375 C866.625 510.4375 866.625 510.4375 864.3828125 507.9453125 C862.85791756 506.25157106 861.33184598 504.55888831 859.8046875 502.8671875 C856.42587292 499.12185744 853.05604035 495.37231793 849.75 491.5625 C846.29716181 487.595751 842.73622619 483.73067331 839.17456055 479.86206055 C836.03982948 476.45151194 832.96773698 472.99590884 829.93359375 469.49609375 C827.6948875 466.9479335 825.41089788 464.44339407 823.125 461.9375 C820.27975772 458.81842989 817.4530042 455.68994609 814.6875 452.5 C811.72616544 449.09061482 808.68349695 445.75953624 805.625 442.4375 C802.00853753 438.50942044 798.44510051 434.5440832 794.9453125 430.51171875 C789.82747288 424.68001738 784.65711107 418.88058859 779.125 413.4375 Z M1.125 743.4375 C1.08536133 744.47938477 1.04572266 745.52126953 1.00488281 746.59472656 C-0.28641556 779.72884256 -2.45004263 812.8081621 -6.875 845.6875 C-7.08745361 847.33661377 -7.08745361 847.33661377 -7.30419922 849.01904297 C-8.37484559 856.36581131 -9.99860517 863.17342803 -15.75 868.25 C-24.60700299 874.4499021 -32.47047227 874.67128087 -42.81835175 872.94706345 C-50.77139413 871.42001453 -58.65649892 869.58707538 -66.54259062 867.75055385 C-70.00262396 866.9492593 -73.46736548 866.16888978 -76.93179321 865.38685608 C-84.96428191 863.57034131 -92.99145554 861.73104144 -101.01780701 859.88762665 C-111.25541779 857.53654316 -121.49415037 855.1908204 -131.74010623 852.87633425 C-135.84775677 851.94752795 -139.9518397 851.00468359 -144.05366969 850.05051601 C-147.20816884 849.32042403 -150.36687626 848.60894249 -153.52490234 847.89428711 C-154.64717224 847.62887115 -155.76944214 847.3634552 -156.92572021 847.08999634 C-165.50834908 845.17708399 -173.06415655 844.70625852 -180.95703125 849.0859375 C-190.85760922 856.06271953 -192.84941041 866.24510469 -195.0625 877.5 C-195.23974609 878.34626953 -195.41699219 879.19253906 -195.59960938 880.06445312 C-197.45752923 889.36839925 -197.5887419 896.92503669 -192.875 905.4375 C-188.1504487 911.68232771 -182.63311514 914.74379579 -174.9786377 916.15672302 C-173.5450049 916.33097881 -172.10991588 916.49353131 -170.67382812 916.64624023 C-169.88144241 916.73913645 -169.0890567 916.83203266 -168.2726593 916.92774391 C-165.65162116 917.2320067 -163.02910686 917.52046482 -160.40625 917.80859375 C-158.53722701 918.0218271 -156.66829144 918.23582787 -154.79943848 918.45054626 C-140.94726963 920.03025001 -127.08265538 921.50019581 -113.21875 922.97265625 C-112.23900208 923.07684246 -111.25925415 923.18102867 -110.24981689 923.28837204 C-107.27465143 923.60467775 -104.29944378 923.92058329 -101.32421875 924.23632812 C-100.34382629 924.34044825 -99.36343384 924.44456837 -98.35333252 924.55184364 C-93.30344529 925.08719958 -88.25305764 925.61701564 -83.20166016 926.13793945 C-78.17869388 926.6563689 -73.15740047 927.18893785 -68.13691711 927.73086357 C-66.25895953 927.93097399 -64.3804501 928.12598299 -62.50138855 928.31544685 C-39.12787674 930.67729163 -39.12787674 930.67729163 -32.4375 937.75 C-26.77978979 945.36306615 -25.87936146 952.07989382 -26.875 961.4375 C-28.1786231 969.28850323 -30.1419772 977.01622107 -32 984.75 C-32.50674784 986.90897648 -33.01227799 989.06823914 -33.51660156 991.2277832 C-36.31459051 1003.15534698 -39.14367092 1015.08587262 -42.38720703 1026.90161133 C-44.01906379 1032.67910503 -44.01906379 1032.67910503 -42.875 1038.4375 C-39.99360665 1041.34614057 -36.35685555 1043.31199673 -32.875 1045.4375 C-32.27010742 1045.81036133 -31.66521484 1046.18322266 -31.04199219 1046.56738281 C-12.45495094 1057.8792167 8.21719905 1065.595798 29.125 1071.4375 C30.41881592 1071.80004883 30.41881592 1071.80004883 31.73876953 1072.16992188 C112.73351802 1094.44745584 199.74624838 1094.69584934 523.125 1050.4375 C524.22585938 1049.839375 525.32671875 1049.24125 526.4609375 1048.625 C531.18403026 1045.96008116 535.53778395 1043.16048531 539.80883789 1039.81665039 C540.6176088 1039.18441055 541.4263797 1038.55217072 542.25965881 1037.90077209 C542.87522141 1037.4178923 543.490784 1036.93501251 544.125 1036.4375 C543.97323807 1035.79952988 543.82147614 1035.16155975 543.66511536 1034.5042572 C542.05591124 1027.73759688 540.44985547 1020.97019437 538.84545898 1014.20239258 C538.24987805 1011.69179235 537.6535495 1009.18136934 537.05639648 1006.67114258 C534.03897647 993.98478205 531.04154013 981.29331759 528.19921875 968.56640625 C527.98699173 967.63972641 527.77476471 966.71304657 527.55610657 965.75828552 C525.34476393 955.70216028 526.16542962 948.35664076 530.75 939.1875 C539.47695783 929.08260147 553.80645693 929.36407329 566.17651367 928.04882812 C567.31473068 927.92495224 568.45294769 927.80107635 569.62565613 927.67344666 C572.07420697 927.40735144 574.52292452 927.14278656 576.97179222 926.87962341 C580.85277949 926.46231883 584.73324347 926.04042118 588.61360168 925.61730957 C598.24388157 924.56775584 607.87485312 923.52460165 617.50616455 922.48455811 C625.6649082 921.60350797 633.82320424 920.71853699 641.98089027 919.82774353 C644.54941237 919.5483285 647.11814596 919.2708504 649.68709373 918.99537659 C653.27912897 918.610187 656.87044456 918.21883022 660.46166992 917.82617188 C661.51384705 917.71494492 662.56602417 917.60371796 663.65008545 917.48912048 C678.68265659 915.89081701 678.68265659 915.89081701 690.875 907.5625 C694.81606065 902.08880466 696.52312906 898.18153011 696.375 891.375 C696.35953125 890.18777344 696.3440625 889.00054688 696.328125 887.77734375 C696.15245752 884.88896505 695.78399873 882.2488736 695.125 879.4375 C690.72894506 880.88939041 686.33914974 882.35239416 681.9765625 883.90234375 C643.63075015 897.38043895 598.96241527 899.2618338 560.96484375 883.2578125 C557.53473937 882.26699831 555.53614759 882.41647623 552.125 883.4375 C550.00292657 884.99514367 550.00292657 884.99514367 548.25 887.0625 C545.09993151 890.42059188 541.86700025 893.47322006 538.37109375 896.46484375 C536.17929969 898.3898107 534.06413823 900.383557 531.94799805 902.39086914 C514.2989863 919.00153592 494.87888907 928.04178911 470.32421875 927.65234375 C460.40577054 927.28650866 451.51929359 924.56868194 442.6484375 920.23046875 C440.21720055 919.21275502 440.21720055 919.21275502 438.1171875 920.0078125 C435.5164195 921.87424601 433.2162784 923.94092172 430.875 926.125 C427.68016282 929.08290835 424.48285975 932.02869346 421.1875 934.875 C417.7781142 937.8363351 414.4470569 940.87902486 411.125 943.9375 C407.16637814 947.58164329 403.1732324 951.17663717 399.109375 954.703125 C395.07125309 958.23250714 391.10585319 961.84384226 387.125 965.4375 C384.62812008 967.68546977 382.13046849 969.93258007 379.6328125 972.1796875 C377.93907106 973.70458244 376.24638831 975.23065402 374.5546875 976.7578125 C370.80935744 980.13662708 367.05981793 983.50645965 363.25 986.8125 C359.283251 990.26533819 355.41817331 993.82627381 351.54956055 997.38793945 C348.13901194 1000.52267052 344.68340884 1003.59476302 341.18359375 1006.62890625 C338.6354335 1008.8676125 336.13089407 1011.15160212 333.625 1013.4375 C329.8844433 1016.84966764 326.11075324 1020.21185887 322.28125 1023.5234375 C320.06607082 1025.48981032 317.90872234 1027.51239458 315.74951172 1029.53979492 C305.80946794 1038.83198027 298.79751724 1043.99468171 284.8671875 1043.7109375 C278.28603656 1043.23006008 274.35741014 1040.97875483 269.8125 1036.3125 C264.6261279 1029.65240469 263.6895966 1022.49034584 264.41015625 1014.2734375 C266.30724576 1006.74727912 270.10890362 1001.90165576 275.875 996.875 C276.5026123 996.31055176 277.13022461 995.74610352 277.77685547 995.16455078 C279.5487343 993.5760488 281.3335283 992.00383451 283.125 990.4375 C283.87523437 989.77621094 284.62546875 989.11492187 285.3984375 988.43359375 C286.61853457 987.3653653 287.84241815 986.301444 289.0703125 985.2421875 C291.79424745 982.8496819 294.45841628 980.3934232 297.125 977.9375 C301.05779967 974.31654692 305.02714153 970.74790953 309.06640625 967.24609375 C311.6145665 965.0073875 314.11910593 962.72339788 316.625 960.4375 C319.74407011 957.59225772 322.87255391 954.7655042 326.0625 952 C329.47188518 949.03866544 332.80296376 945.99599695 336.125 942.9375 C340.0578728 939.31662455 344.02713942 935.74791136 348.06640625 932.24609375 C350.6145665 930.0073875 353.11910593 927.72339788 355.625 925.4375 C358.74407011 922.59225772 361.87255391 919.7655042 365.0625 917 C369.01167367 913.56981424 372.85522305 910.02746482 376.70288086 906.48461914 C380.08287894 903.37770912 383.50902308 900.3357453 386.98046875 897.33203125 C390.37322714 894.33478568 393.68920202 891.25325255 397.00195312 888.16796875 C399.30074025 886.04136411 401.51158573 884.17977618 404.125 882.4375 C403.53060815 877.86125982 402.67464135 873.47542873 401.5625 869 C397.20884761 848.75444404 401.39905464 828.80510635 412.3125 811.3125 C417.89600135 802.7017142 425.16836259 795.99178699 432.92578125 789.3515625 C436.26407101 786.44612381 439.51254232 783.44174338 442.74438477 780.41870117 C445.52461801 777.8330084 448.35733197 775.52406064 451.4375 773.3125 C454.29090134 770.82488921 454.29090134 770.82488921 454.390625 768.2890625 C454.00479223 763.82230617 452.73244189 759.61684892 451.125 755.4375 C444.00793946 756.01598525 436.97651882 756.82807349 429.921875 757.92578125 C427.97184527 758.22166548 426.02172757 758.51697041 424.0715332 758.81176758 C423.06128082 758.9651358 422.05102844 759.11850403 421.01016235 759.27651978 C388.85284839 764.13299945 356.61207709 767.73321327 324.125 769.4375 C323.01413528 769.50105179 323.01413528 769.50105179 321.88082886 769.56588745 C300.45910443 770.76684811 279.00994972 770.63807444 257.5625 770.625 C256.58381958 770.62473312 255.60513916 770.62446625 254.59680176 770.62419128 C206.25837442 770.60763703 158.09488181 769.25362003 110.02989197 763.63406372 C106.38693377 763.25815085 102.78241647 763.37944577 99.125 763.4375 C97.92506577 768.33749584 97.77141764 773.25672881 97.51171875 778.2734375 C97.39986166 780.28770848 97.28745188 782.30194883 97.17456055 784.31616211 C97.11601898 785.37463348 97.05747742 786.43310486 96.99716187 787.52365112 C94.45114475 832.86850621 89.04247296 877.62370301 80.9375 922.3125 C80.76923706 923.24274994 80.60097412 924.17299988 80.4276123 925.13143921 C74.36574066 958.45208074 74.36574066 958.45208074 66.0859375 965.06640625 C59.55717091 969.11516433 52.53770757 970.33184223 45 968.8125 C37.66495897 966.56012377 32.85411824 962.95874331 29.03515625 956.3046875 C24.17283262 946.32962013 27.54908814 933.58550246 29.77349854 923.23098755 C30.61594607 919.28663462 31.40071928 915.33077089 32.1875 911.375 C32.35114044 910.55443619 32.51478088 909.73387238 32.68338013 908.88844299 C40.13184755 871.16346734 44.19715914 832.69984152 46.9375 794.375 C47.00093597 793.50814575 47.06437195 792.6412915 47.12973022 791.74816895 C48.02516607 779.29575825 48.26683973 766.92022562 48.125 754.4375 C46.917229 754.15084473 46.917229 754.15084473 45.68505859 753.85839844 C42.62406895 753.13027982 39.56378224 752.39928732 36.50390625 751.66650391 C34.55780057 751.20131636 32.61094211 750.73928158 30.6640625 750.27734375 C23.04585585 748.45052889 15.53457653 746.45089888 8.03759766 744.18066406 C4.9800151 743.27267734 4.9800151 743.27267734 1.125 743.4375 Z M469.5 824.5 C465.59556556 828.20796609 461.71322708 831.82808977 457.5 835.1875 C452.67256365 839.42445594 450.55326088 844.05602347 449.75 850.3984375 C449.41694637 858.66233078 451.13275805 863.9727988 456.5 870.1875 C461.87500863 874.79465025 466.17615898 877.56671567 473.3125 877.6875 C474.66408203 877.72617187 474.66408203 877.72617187 476.04296875 877.765625 C483.51436533 876.97019114 488.39395951 873.90236285 493.625 868.6875 C494.74250547 867.60965582 495.86099339 866.53282931 496.98046875 865.45703125 C497.51462402 864.93834473 498.0487793 864.4196582 498.59912109 863.88525391 C501.22326546 861.39546573 504.02284436 859.11615395 506.83203125 856.83984375 C508.46392735 855.38780911 508.46392735 855.38780911 508.125 852.4375 C506.91352922 850.95227952 506.91352922 850.95227952 505.23046875 849.57421875 C504.60954346 849.02378906 503.98861816 848.47335937 503.34887695 847.90625 C502.67687256 847.3184375 502.00486816 846.730625 501.3125 846.125 C493.00371929 838.63339561 485.95876539 830.48708203 479.94921875 821.03125 C479.34722656 820.1753125 478.74523437 819.319375 478.125 818.4375 C474.4791175 818.4375 472.03067985 822.07797541 469.5 824.5 Z M1.125 1115.4375 C0.16966381 1119.61081074 -0.18070973 1123.75490497 -0.453125 1128.015625 C-0.5598728 1129.56563902 -0.66732799 1131.11560444 -0.77539062 1132.66552734 C-0.83186768 1133.48317566 -0.88834473 1134.30082397 -0.9465332 1135.14324951 C-2.04105338 1150.74689983 -3.51240189 1166.28191574 -5.375 1181.8125 C-5.47655396 1182.68604126 -5.57810791 1183.55958252 -5.68273926 1184.45959473 C-8.40981178 1207.74916806 -8.40981178 1207.74916806 -14.875 1215.4375 C-22.57592289 1221.1898088 -29.35284457 1222.40748371 -38.875 1221.4375 C-47.03774876 1220.14017159 -55.08446183 1218.17217207 -63.13671875 1216.328125 C-65.49613208 1215.7984089 -67.85582292 1215.26992753 -70.21577454 1214.74261475 C-76.40769389 1213.35565509 -82.59576477 1211.95222968 -88.78314209 1210.54516602 C-95.03224962 1209.12702905 -101.28479677 1207.72423824 -107.53710938 1206.3203125 C-115.67831433 1204.49087374 -123.81851791 1202.65717929 -131.95623493 1200.81228256 C-134.03827755 1200.34062945 -136.12054116 1199.86995062 -138.20304394 1199.4003334 C-142.86500941 1198.34901687 -147.52420891 1197.28871736 -152.17715454 1196.19812012 C-152.99623448 1196.00890865 -153.81531443 1195.81969719 -154.65921497 1195.62475204 C-156.15086903 1195.28008974 -157.64124895 1194.92983329 -159.12987041 1194.57229996 C-167.68369654 1192.61335848 -174.22393216 1193.24967635 -181.875 1197.4375 C-190.5618513 1204.14342446 -192.55990698 1212.43047697 -194.5625 1222.8125 C-194.89991211 1224.45992187 -194.89991211 1224.45992187 -195.24414062 1226.140625 C-197.20577086 1236.08591143 -198.185719 1244.35602658 -192.875 1253.4375 C-185.73193437 1262.36255664 -176.54879609 1263.94514114 -165.67782593 1265.29611206 C-163.45718664 1265.53400599 -161.23556209 1265.7628297 -159.01318359 1265.98388672 C-157.78879074 1266.11284332 -156.56439789 1266.24179993 -155.30290222 1266.37466431 C-152.6662399 1266.65159108 -150.02946607 1266.92553977 -147.39200974 1267.19460678 C-143.21166988 1267.62178483 -139.03307074 1268.06457965 -134.85464478 1268.51004028 C-122.98189004 1269.7735851 -111.10730145 1271.01902948 -99.23046875 1272.24365234 C-92.65042402 1272.92225874 -86.07200858 1273.61492221 -79.49502623 1274.32260716 C-75.35127501 1274.7676649 -71.20624192 1275.19561161 -67.0593679 1275.61050773 C-63.86389958 1275.93539184 -60.67121841 1276.2858764 -57.47802734 1276.63232422 C-56.34528885 1276.74054504 -55.21255035 1276.84876587 -54.04548645 1276.96026611 C-44.3905141 1278.05119404 -36.36107592 1280.8598212 -30.03125 1288.49609375 C-23.89744852 1298.79507799 -26.89709787 1311.46922152 -29.578125 1322.39453125 C-29.85718689 1323.58116867 -30.13624878 1324.76780609 -30.42376709 1325.99040222 C-31.31066955 1329.74696096 -32.21752203 1333.49836506 -33.125 1337.25 C-33.71875442 1339.75294564 -34.31121254 1342.25619916 -34.90234375 1344.75976562 C-39.3290827 1363.43601609 -39.3290827 1363.43601609 -41.22460938 1370.58740234 C-41.41955994 1371.32971603 -41.6145105 1372.07202972 -41.81536865 1372.83683777 C-42.31177013 1374.70733791 -42.82260712 1376.57399188 -43.33496094 1378.44018555 C-43.89523673 1381.54981749 -43.87888894 1383.45455302 -42.875 1386.4375 C-40.88510326 1388.23151628 -39.11206155 1389.57863814 -36.875 1391 C-36.2154834 1391.42418213 -35.5559668 1391.84836426 -34.87646484 1392.28540039 C34.58987644 1435.50803146 128.46113474 1438.94323176 397.125 1433.4375 C397.81926086 1433.3487561 398.51352173 1433.26001221 399.2288208 1433.1685791 C429.32121395 1429.29673508 459.50020945 1423.67436724 488.125 1413.4375 C488.97449219 1413.14439941 489.82398438 1412.85129883 490.69921875 1412.54931641 C521.04467411 1402.9094751 521.04467411 1402.9094751 544.125 1383.4375 C543.79923245 1381.19682547 543.79923245 1381.19682547 543.12451172 1378.6184082 C542.88030487 1377.61167557 542.63609802 1376.60494293 542.38449097 1375.56770325 C542.11065582 1374.46899399 541.83682068 1373.37028473 541.5546875 1372.23828125 C541.27658234 1371.09707321 540.99847717 1369.95586517 540.71194458 1368.78007507 C539.8145376 1365.10173813 538.90781418 1361.42578103 538 1357.75 C531.1785173 1329.99368676 531.1785173 1329.99368676 528.1953125 1316.60546875 C527.98333221 1315.67640213 527.77135193 1314.74733551 527.552948 1313.79011536 C525.52048754 1304.49724432 525.6392534 1296.93656601 530.19140625 1288.44921875 C533.36906382 1283.55164092 537.54193164 1280.3788964 543.25327492 1278.87832832 C545.65325643 1278.46509896 548.04716105 1278.14770531 550.46606445 1277.86547852 C551.83171649 1277.68869867 551.83171649 1277.68869867 553.22495747 1277.50834751 C556.18962093 1277.13189984 559.15639137 1276.78137434 562.125 1276.4375 C563.60658411 1276.263165 563.60658411 1276.263165 565.11809921 1276.08530807 C571.48379378 1275.34224625 577.85367152 1274.64237618 584.22603416 1273.95908928 C587.76357508 1273.57958725 591.30057359 1273.19533255 594.83747864 1272.80995178 C603.60248513 1271.85575331 612.36822776 1270.90840401 621.13415527 1269.96270752 C628.59191549 1269.15807012 636.04927428 1268.34989723 643.50609779 1267.536623 C646.97433193 1267.15980111 650.44309935 1266.78819461 653.91191101 1266.41673279 C656.0470171 1266.18426775 658.18209455 1265.95153941 660.31713867 1265.71850586 C661.74256737 1265.5680481 661.74256737 1265.5680481 663.1967926 1265.41455078 C677.8046091 1263.87140091 677.8046091 1263.87140091 690.125 1256.4375 C696.04835074 1248.95909299 697.07333576 1241.80657609 696.125 1232.4375 C695.52293379 1228.47123817 694.75764934 1224.55147276 693.9375 1220.625 C693.74140137 1219.64692383 693.54530273 1218.66884766 693.34326172 1217.66113281 C691.32653751 1208.56962244 687.93483101 1201.94766384 680.15234375 1196.62890625 C670.27891034 1190.82659952 658.44288722 1194.59814014 647.97509766 1197.02954102 C646.23373787 1197.42477966 646.23373787 1197.42477966 644.4571991 1197.82800293 C641.3051644 1198.54434663 638.15457903 1199.26671809 635.00435686 1199.99097943 C631.68480211 1200.75178988 628.36291314 1201.50224953 625.04110718 1202.25315857 C613.75671899 1204.80600226 602.47612669 1207.37536954 591.19824219 1209.95678711 C584.95240456 1211.38629375 578.70432827 1212.80558029 572.45376432 1214.21428055 C569.15797678 1214.95758759 565.86358321 1215.70613609 562.57197952 1216.46777534 C558.89532886 1217.31628036 555.21511307 1218.14733163 551.53369141 1218.97485352 C550.46627213 1219.22575241 549.39885284 1219.47665131 548.29908752 1219.7351532 C538.69766529 1221.85987126 528.10928962 1223.48195092 519.05859375 1218.765625 C512.37498107 1214.17486074 508.94469637 1207.56316911 507.38891602 1199.73266602 C507.20778901 1198.38702996 507.0383923 1197.03977845 506.87890625 1195.69140625 C506.78288116 1194.94289902 506.68685608 1194.19439178 506.58792114 1193.42320251 C506.27564642 1190.95013629 505.98066589 1188.47539927 505.6875 1186 C505.53083359 1184.72165283 505.53083359 1184.72165283 505.3710022 1183.41748047 C502.60756185 1160.82313674 500.85690892 1138.1300606 499.125 1115.4375 C493.16909728 1116.59212578 487.26757675 1117.84554556 481.3828125 1119.3203125 C419.99797372 1134.49375975 356.74453286 1143.66070301 293.421875 1143.5703125 C291.68540432 1143.57099091 289.94893374 1143.5719653 288.21246338 1143.57321167 C284.59231655 1143.57467138 280.97219466 1143.57259587 277.35205078 1143.56787109 C272.84633592 1143.56225962 268.34068123 1143.56551282 263.83496857 1143.57130241 C230.57791751 1143.60766865 197.31984031 1143.24557071 164.125 1141.0625 C162.05925117 1140.93243449 159.99349582 1140.80247242 157.92773438 1140.67260742 C144.52764438 1139.81278535 131.15653131 1138.74185368 117.80078125 1137.35205078 C111.53065242 1136.70398669 105.42925726 1136.29605833 99.125 1136.4375 C97.65272846 1139.38204308 97.86453406 1142.11210815 97.73046875 1145.3984375 C97.66429254 1146.89398628 97.59753111 1148.38950924 97.53027344 1149.88500977 C97.49542847 1150.68464142 97.4605835 1151.48427307 97.42468262 1152.30813599 C94.90911692 1208.46560815 87.92130655 1264.45308578 76.0234375 1319.40625 C75.86648407 1320.14634811 75.70953064 1320.88644623 75.54782104 1321.64897156 C73.85380668 1329.29285651 71.56935242 1334.0676224 65 1338.375 C58.32501101 1342.20597617 51.67071428 1342.03981866 44.125 1341.4375 C37.34587052 1339.50660244 32.45706396 1334.95575086 28.8125 1329 C24.0799272 1318.33069335 27.85797986 1305.14836134 30.14416504 1294.23605347 C41.42264224 1240.03614161 49.07383243 1182.90374286 48.125 1127.4375 C47.09205811 1127.18057373 46.05911621 1126.92364746 44.99487305 1126.65893555 C41.11240228 1125.69288975 37.23033917 1124.72521421 33.34838867 1123.75708008 C31.67759866 1123.34062919 30.00670271 1122.9246031 28.33569336 1122.5090332 C19.23871269 1120.24636007 10.15075062 1117.97327613 1.125 1115.4375 Z" transform="translate(335.875,87.5625)"/></svg>