<svg xmlns="http://www.w3.org/2000/svg" width="1668" height="1667" version="1.1"><path fill="#264472" d="M0 0 C7.15261606 3.01815591 10.45360645 11.34188847 13.28369141 18.10351562 C18.74038228 32.55054176 18.37317681 48.14683968 12.3125 62.375 C11.6628125 63.674375 11.6628125 63.674375 11 65 C11.53512207 65.16218018 12.07024414 65.32436035 12.62158203 65.49145508 C62.42064977 81.25058567 114.18800238 122.0110236 154 155 C155.39412109 156.11761719 155.39412109 156.11761719 156.81640625 157.2578125 C185.688272 180.69806349 211.32043218 210.81472657 216 249 C216.15583518 250.62454732 216.30637102 252.24960717 216.453125 253.875 C216.57457886 255.19902832 216.57457886 255.19902832 216.69848633 256.54980469 C216.85427549 258.30979253 216.99794307 260.07090839 217.12768555 261.83300781 C217.58013889 267.15415066 218.4920684 271.25872786 221 276 C229.75768839 283.36441978 241.61495664 282.994261 252.49755859 283.28979492 C285.41794808 284.22402943 312.02336795 295.43184828 340.77441406 310.81542969 C349.6037708 315.51486353 358.52943181 319.92966464 367.75 323.8125 C368.39855957 324.09053467 369.04711914 324.36856934 369.71533203 324.6550293 C380.01681664 328.87768676 390.66521006 330.50023179 401.6685791 331.70623779 C424.68824157 334.26390306 446.66787116 337.98244193 462.4296875 356.75 C469.83733021 367.36393582 470.95653526 378.43809398 470 391 C469.29904707 394.48438811 468.35528518 397.7166603 467 401 C468.32 401 469.64 401 471 401 C471 399.35 471 397.7 471 396 C473.97 396 476.94 396 480 396 C480 396.66 480 397.32 480 398 C481.01408936 397.66548828 482.02817871 397.33097656 483.07299805 396.98632812 C497.80057287 392.19874122 512.72217792 388.13194368 527.66519928 384.08217621 C529.84530718 383.49110532 532.02507735 382.8988028 534.20477295 382.30621338 C562.41078091 374.64056216 590.6709361 367.19853548 619 360 C620.24225342 359.68395813 621.48450684 359.36791626 622.7644043 359.04229736 C653.27971096 351.28103739 683.83258137 343.7014654 714.5 336.5625 C715.69671326 336.2829245 716.89342651 336.003349 718.12640381 335.71530151 C721.48936045 334.93138662 724.85369971 334.15377888 728.21875 333.37890625 C729.68920273 333.03637314 729.68920273 333.03637314 731.18936157 332.68692017 C747.15933935 329.04181849 747.15933935 329.04181849 752 332 C755.79142233 336.10737419 757.15613156 339.33594497 757.375 344.875 C757.42398437 345.71804688 757.47296875 346.56109375 757.5234375 347.4296875 C756.76123544 351.17244092 754.86572426 352.53961847 752 355 C749.03564453 356.15576172 749.03564453 356.15576172 745.6328125 356.9296875 C744.99274765 357.08086533 744.3526828 357.23204315 743.69322205 357.38780212 C742.27237992 357.7207792 740.84952801 358.0452632 739.42507935 358.36245728 C737.02853615 358.89649571 734.63809334 359.45307059 732.24780273 360.0144043 C728.56450416 360.87675384 724.87906392 361.72906227 721.19189453 362.57470703 C709.46959298 365.26710512 697.76574481 368.03863821 686.0625 370.8125 C685.40903343 370.96722904 684.75556686 371.12195808 684.08229828 371.28137589 C660.07644246 376.96720999 636.14642975 382.93355763 612.25 389.0625 C611.42330685 389.27448658 610.59661369 389.48647316 609.74486923 389.70488358 C585.59926444 395.90071781 561.51085688 402.27778924 537.51660156 409.03930664 C536.54419525 409.31172684 535.57178894 409.58414703 534.56991577 409.86482239 C532.79126128 410.36383537 531.0138232 410.86721556 529.23794556 411.37602234 C528.46574677 411.59256973 527.69354797 411.80911713 526.89794922 412.03222656 C526.23608612 412.22061096 525.57422302 412.40899536 524.89230347 412.60308838 C523 413 523 413 519 413 C519 413.66 519 414.32 519 415 C519.78761719 414.86722656 520.57523438 414.73445313 521.38671875 414.59765625 C529.24797974 413.32310861 537.0525645 412.49427586 545 412 C545 411.34 545 410.68 545 410 C545.7322444 410.02170974 546.46448881 410.04341947 547.21892244 410.06578708 C556.86807941 410.22152301 566.21217915 409.25894166 575.77287292 408.12872314 C577.54582714 407.92470276 579.31885644 407.72133405 581.0919531 407.5185554 C585.93460723 406.96283866 590.77615282 406.39794982 595.61756003 405.8314867 C600.85190127 405.22070346 606.08723418 404.61853269 611.32244873 404.01528931 C620.39056817 402.96920001 629.45804596 401.91769201 638.52510643 400.8624649 C651.6714226 399.33249709 664.81867748 397.8107254 677.96616761 396.29088292 C699.34832065 393.81888818 720.72969609 391.34023271 742.1105957 388.85742188 C762.79051695 386.45602435 783.47080972 384.05786708 804.15161133 381.6640625 C805.4223413 381.51697433 806.69307127 381.36988617 808.00230821 381.21834078 C813.11238027 380.62685963 818.22245534 380.03540451 823.33253432 379.44398315 C863.71819773 374.76989124 904.10338091 370.09166223 944.4875797 365.40493202 C948.50841796 364.93834305 952.52927689 364.47193242 956.55013498 364.00551441 C959.39465085 363.67547145 962.2391391 363.3451913 965.08362257 363.01486921 C968.67742178 362.59755447 972.27133786 362.18126818 975.86534536 361.76575136 C984.19800568 360.80096335 992.52794778 359.81856514 1000.85408974 358.79897308 C1003.17812237 358.516768 1005.50221094 358.23502824 1007.82631848 357.95344076 C1009.93690667 357.69553058 1012.04652055 357.43055547 1014.15618056 357.16517949 C1029.92295144 355.25455935 1029.92295144 355.25455935 1036 356 C1038.46173406 358.46173406 1038.64341244 360.57909514 1039.2421875 363.9296875 C1039 366 1039 366 1037.52214229 368.04024202 C1034.05092967 370.73744775 1030.64607784 370.98534474 1026.40353584 371.42644024 C1025.52276373 371.53205844 1024.64199161 371.63767664 1023.73452944 371.7464954 C1020.76408791 372.09834148 1017.79141206 372.42507112 1014.81814575 372.75212097 C1012.67389983 373.00085592 1010.52983149 373.25112577 1008.38592899 373.50280362 C1002.47946099 374.19165616 996.57069364 374.85863206 990.66133714 375.52218282 C984.29440804 376.24095466 977.92981053 376.97983611 971.56491089 377.71632385 C960.53075277 378.99030306 949.49520725 380.25160886 938.45859146 381.50411034 C926.87794309 382.81841477 915.29817113 384.14006155 903.71947861 385.47149086 C902.99972399 385.55425158 902.27996937 385.63701231 901.53840401 385.72228093 C897.88306876 386.14262924 894.22774903 386.56311221 890.57243548 386.98364917 C864.66982169 389.96347215 838.76540319 392.92732462 812.85986328 395.8815918 C787.70601906 398.75018166 762.55292448 401.62520113 737.40087891 404.50952148 C736.62619432 404.59835567 735.85150973 404.68718986 735.05334985 404.77871599 C724.19315328 406.02408391 713.33300485 407.26987125 702.47286944 408.51577236 C690.4268707 409.89770277 678.38085007 411.2794424 666.33480198 412.66094263 C664.85804959 412.83030548 663.3812977 412.99967267 661.90454631 413.16904424 C641.65120077 415.49193629 621.39735114 417.81037169 601.14290394 420.12363833 C596.32251612 420.67418737 591.50215681 421.2249855 586.68181777 421.77596152 C585.68525693 421.88986821 585.68525693 421.88986821 584.66856355 422.00607605 C581.37726126 422.38227551 578.08596153 422.75849736 574.79466404 423.13473888 C567.28320407 423.99328311 559.77159009 424.85046344 552.25985444 425.70659215 C547.70962719 426.22550183 543.15954382 426.74566442 538.60950027 427.26618222 C536.52076112 427.50485683 534.43196018 427.74299147 532.34309293 427.98054244 C529.51128014 428.30263966 526.67968965 428.62662593 523.84814644 428.95108318 C522.6221152 429.08981867 522.6221152 429.08981867 521.37131566 429.23135689 C517.22326451 429.70880044 513.11320332 430.26973525 509 431 C509 432.32 509 433.64 509 435 C507.68 435 506.36 435 505 435 C505 433.68 505 432.36 505 431 C504.030625 431.165 503.06125 431.33 502.0625 431.5 C497.70512237 432.13396273 493.39369296 432.0896672 489 432 C489 433.65 489 435.3 489 437 C487.02 437.495 487.02 437.495 485 438 C485 436.68 485 435.36 485 434 C483.02 434.33 481.04 434.66 479 435 C479.33 436.32 479.66 437.64 480 439 C478.35 439 476.7 439 475 439 C475 437.68 475 436.36 475 435 C469.88997809 435.35237564 464.78814968 435.75915244 459.6862793 436.21459961 C457.95438813 436.36173059 456.22121139 436.49452165 454.48706055 436.61206055 C442.47611619 437.21058042 442.47611619 437.21058042 432.52734375 443.32421875 C430.56435011 445.67303746 430.56435011 445.67303746 429 448 C427.93265625 449.46566406 427.93265625 449.46566406 426.84375 450.9609375 C426.4003125 451.75757813 425.956875 452.55421875 425.5 453.375 C425.0359375 454.18710937 424.571875 454.99921875 424.09375 455.8359375 C420.73836878 462.47479892 421.0311416 470.72184815 422.6484375 477.86328125 C425.48931632 485.66962775 430.12778714 491.77945887 437.5625 495.625 C440.50433259 496.96791289 443.48100318 498.19748725 446.47265625 499.42578125 C457.43955708 503.96502256 467.97269706 509.38308985 472.875 520.875 C474.99531594 527.42526174 474.66753804 534.03569752 472.30859375 540.48046875 C469.64326171 545.61222744 465.8546283 550.02231681 462.21728516 554.49023438 C460.54978597 556.5583882 458.95915851 558.68012434 457.375 560.8125 C456.59125 561.864375 455.8075 562.91625 455 564 C456.6396875 563.9071875 456.6396875 563.9071875 458.3125 563.8125 C469.52133829 563.8521072 479.54184571 568.51185081 487.625 576.0625 C495.04590912 583.84730659 500.74127032 593.36137194 501.375 604.25 C501.09395298 614.56091251 495.98709509 622.95644723 488.9296875 630.09375 C484.53755087 634.195118 480.167673 637.28915726 474.75 639.89453125 C472.66350612 640.95419364 472.66350612 640.95419364 472 644 C471.07794486 657.31660411 472.85088292 669.17876918 481 680 C483.16009404 682.46671025 485.36064572 684.87377281 487.61035156 687.2578125 C510.28392474 711.35326181 522.53635367 740.73936803 522 774 C520.83726962 807.4615305 507.67502513 836.82705295 483.1875 859.6875 C467.49314416 873.17173294 449.68334481 883.7285479 431.6875 893.8125 C414.57381355 903.44349498 398.05257769 914.36469191 383 927 C382.43168457 927.47356934 381.86336914 927.94713867 381.27783203 928.43505859 C368.84958667 938.82442858 357.09963694 949.81926311 345.625 961.25 C344.35825439 962.50973633 344.35825439 962.50973633 343.06591797 963.79492188 C338.17072332 968.7027255 333.4966381 973.72601013 329 979 C328.0384505 980.10606905 327.07623919 981.2115632 326.11328125 982.31640625 C292.32539286 1021.37806558 264.3056268 1064.5048524 240 1110 C239.29157959 1111.31411865 239.29157959 1111.31411865 238.56884766 1112.65478516 C225.80465438 1136.36721689 214.41882041 1160.77213644 204.0625 1185.625 C203.7481601 1186.37923248 203.43382019 1187.13346497 203.10995483 1187.91055298 C200.02122416 1195.35054138 197.02494044 1202.80598025 194.30859375 1210.390625 C193.9108374 1211.49841309 193.51308105 1212.60620117 193.10327148 1213.74755859 C192.39750966 1215.74818019 191.71143153 1217.75592448 191.05102539 1219.77197266 C188.98107704 1225.71277353 186.48931642 1229.70233336 181 1233 C176.42867744 1234.56978513 173.10871377 1234.35078051 168.6875 1232.375 C165.2674548 1230.38613285 163.33716111 1228.8443382 162 1225 C161.33118576 1218.00882903 162.43536778 1212.43981845 165.078125 1206.00390625 C165.40054169 1205.18134338 165.72295837 1204.35878052 166.05514526 1203.5112915 C167.10263118 1200.85436224 168.17512015 1198.20845223 169.25 1195.5625 C169.98888472 1193.71148732 170.72699662 1191.86016597 171.46435547 1190.00854492 C177.27169646 1175.50068621 183.44287686 1161.1853553 190 1147 C190.83251955 1145.17571562 191.66502085 1143.35142276 192.49671936 1141.52676392 C219.09991565 1083.24018903 251.87429471 1027.29316286 293 978 C293.49129395 977.40960937 293.98258789 976.81921875 294.48876953 976.2109375 C299.77981942 969.86523464 305.16602995 963.61716795 310.734375 957.51171875 C311.96149132 956.15131221 313.18251549 954.78476793 314.36743164 953.38745117 C319.66671643 947.17334591 325.4155822 941.4328364 331.19702148 935.67260742 C332.933936 933.941053 334.66543889 932.20421641 336.39648438 930.46679688 C342.09506006 924.76454462 347.83196926 919.19919245 354 914 C354.96421875 913.154375 355.9284375 912.30875 356.921875 911.4375 C376.83605623 894.27389629 398.37807065 880.37089637 421.07250977 867.21948242 C435.32559553 858.93999021 449.22372312 850.45165344 462 840 C462.75539063 839.39800781 463.51078125 838.79601563 464.2890625 838.17578125 C480.92845549 824.39528011 490.09681813 804.06324507 493 783 C494.97720081 758.45957719 490.20137353 734.15223666 474 715 C471.73705242 712.49567135 469.45327056 710.01556758 467.14868164 707.54980469 C447.7838294 686.69586556 443.09967256 666.64697787 444 639 C442.71351563 638.78730469 441.42703125 638.57460938 440.1015625 638.35546875 C432.79369349 636.88901104 425.79757287 634.47719758 418.74365234 632.10668945 C416.40390236 631.32219072 414.05975622 630.5521117 411.71484375 629.78320312 C402.69308701 626.79064587 393.9586165 623.41449306 385.29956055 619.49243164 C358.00160477 607.14523196 324.48028892 617.65307439 297.8515625 627.35546875 C251.19746594 644.99726472 207.24506343 670.5979059 171 705 C170.35933594 705.5878125 169.71867188 706.175625 169.05859375 706.78125 C145.95757506 728.64949971 139.89195929 757.39934367 133.33398438 787.23999023 C130.95513824 798.0250127 128.32900767 808.66127678 125.09375 819.2265625 C116.86677771 847.60961691 124.49210685 882.75817931 138.125 908.25 C139.74441629 911.16629324 141.37641353 914.04832316 143.20507812 916.83911133 C146.61166464 922.05299403 149.0013869 927.38867275 151.25 933.1875 C151.600625 934.06341797 151.95125 934.93933594 152.3125 935.84179688 C155.57525456 944.11789931 158.06501875 953.36833979 155.31640625 962.1953125 C153.10555629 966.43353939 150.19845076 968.85961334 146 971 C140.00311461 972.69723172 135.47376635 971.65842278 130 969 C118.34099185 961.78739742 110.14473123 950.43556144 103 939 C105.56139013 959.37335596 129.63805281 977.80870325 143.48950195 991.61987305 C145.69794663 993.8229211 147.90094551 996.03131469 150.10351562 998.24023438 C151.53092924 999.66698765 152.95865277 1001.09343095 154.38671875 1002.51953125 C155.03275558 1003.16759232 155.67879242 1003.81565338 156.34440613 1004.48335266 C160.17378371 1008.29340383 164.12037611 1011.90884915 168.20732117 1015.44084167 C178.2078524 1024.13866933 189.25892119 1033.85903005 195 1046 C195.42410156 1046.82113281 195.84820313 1047.64226562 196.28515625 1048.48828125 C203.17135861 1064.61833491 199.69735762 1085.15522843 193.4921875 1100.8671875 C191.80283329 1104.98070453 189.93914451 1108.99895604 188 1113 C187.6793457 1113.66193359 187.35869141 1114.32386719 187.02832031 1115.00585938 C183.65017267 1121.86886812 180.1346571 1128.51243949 175.6640625 1134.734375 C164.14587153 1150.98384315 159.6320413 1167.91440153 155 1187 C154.8154425 1187.76028503 154.63088501 1188.52057007 154.44073486 1189.30389404 C154.07039127 1190.83267143 153.70067653 1192.36160129 153.331604 1193.89068604 C152.97017285 1195.38659037 152.60736129 1196.88216193 152.24310303 1198.37738037 C151.39260951 1201.87028036 150.5601224 1205.36459104 149.77392578 1208.87255859 C147.98616169 1216.47326173 146.55198062 1221.54677332 140.1875 1226.375 C135.44734851 1227.729329 131.37058042 1227.42171705 126.75 1226 C122.92262265 1223.21645283 121.3137716 1220.51475285 120 1216 C119.93096582 1208.99286417 121.76545263 1202.11098238 123.51171875 1195.375 C123.7624263 1194.38862549 124.01313385 1193.40225098 124.2714386 1192.38598633 C124.80166734 1190.30768243 125.33551229 1188.23029808 125.87280273 1186.15380859 C126.67750907 1183.0386763 127.46752461 1179.92009147 128.25585938 1176.80078125 C133.18230129 1157.49029202 138.49371126 1140.15498875 149.29638672 1123.28076172 C149.8173291 1122.46623535 150.33827148 1121.65170898 150.875 1120.8125 C151.65834717 1119.58877686 151.65834717 1119.58877686 152.45751953 1118.34033203 C162.65464297 1102.23542707 173.93069494 1082.71558412 171 1063 C168.1176496 1054.768283 162.89627377 1049.24103339 156.6875 1043.3125 C155.87087891 1042.51005859 155.05425781 1041.70761719 154.21289062 1040.88085938 C149.89871101 1036.66980756 145.47167249 1032.6385462 140.90942383 1028.69995117 C137.62793023 1025.77845266 134.57463205 1022.63604442 131.5 1019.5 C125.80058446 1013.71916939 125.80058446 1013.71916939 119.75 1008.3125 C115.42438151 1004.64877571 111.70509089 1000.44290114 107.92578125 996.234375 C105.97737564 994.06496208 103.9973815 991.93397146 101.98046875 989.828125 C89.21205031 976.44515088 74.91687723 959.94766446 74.796875 940.59375 C74.79117493 939.87320435 74.78547485 939.15265869 74.77960205 938.41027832 C74.7701697 936.88388526 74.76362509 935.35747201 74.75976562 933.83105469 C74.75014841 931.53542601 74.71914726 929.2407279 74.6875 926.9453125 C74.53685353 906.14721379 74.53685353 906.14721379 80.25 898.4375 C84.53354618 894.64072043 88.53922058 892.85478494 94.25 892.75 C98 893 98 893 101 894 C100.73445312 892.83984375 100.46890625 891.6796875 100.1953125 890.484375 C93.90597398 862.77560133 91.5493323 835.93001868 98 808 C97.63648438 808.64066406 97.27296875 809.28132813 96.8984375 809.94140625 C87.60044181 825.93872705 87.60044181 825.93872705 78 829 C72.78896801 829.98340487 68.46927518 828.96213552 63.87890625 826.375 C56.83369985 821.21925644 53.87735407 812.93116827 51 805 C50.5771875 803.85015625 50.154375 802.7003125 49.71875 801.515625 C38.06890357 767.27644219 29.98874041 710.46246324 45.95703125 677.07421875 C52.18302957 664.51690072 59.34029608 653.03108971 68 642 C68.80695312 640.97132813 69.61390625 639.94265625 70.4453125 638.8828125 C73.10672529 635.87956687 75.94544573 633.41744342 79.125 631 C79.72626709 630.53706543 80.32753418 630.07413086 80.94702148 629.59716797 C82.95836746 628.05631376 84.97907211 626.5282592 87 625 C88.07290283 624.17870605 88.07290283 624.17870605 89.16748047 623.34082031 C108.58786669 608.4986724 129.38233425 596.30261731 150.9296875 584.84375 C169.57745878 574.89953845 186.74620686 564.60687514 201.62109375 549.3828125 C204.34537747 546.65405541 207.208917 544.14988465 210.13671875 541.64453125 C212.00451793 539.99601248 213.75455624 538.27696419 215.5 536.5 C219.16296626 532.78786641 223.04234601 529.39319118 227 526 C228.0433138 525.09284461 229.08625379 524.18525919 230.12890625 523.27734375 C237.02452838 517.29387212 244.03662145 511.50610695 251.25244141 505.91308594 C254.99213258 503.00980767 258.71633794 500.08712585 262.4375 497.16015625 C263.07365234 496.66004028 263.70980469 496.15992432 264.36523438 495.64465332 C265.91029777 494.42994887 267.45516949 493.21500062 269 492 C219.27993348 508.12916703 170.17875795 526.1284256 121.33789062 544.73132324 C117.98374429 546.00617853 114.62702514 547.27402878 111.26953125 548.54003906 C105.90351646 550.5645971 100.54453966 552.60676936 95.19058228 554.66299438 C93.2225827 555.41629595 91.25256742 556.16435719 89.28036499 556.90658569 C78.67338091 560.90550962 69.88284042 564.87145404 61 572 C58.56921322 573.60310702 56.0754811 575.01873561 53.5 576.375 C52.81784424 576.73658203 52.13568848 577.09816406 51.43286133 577.47070312 C37.70895873 584.44176279 21.1893833 592.01736698 5.625 592.3125 C4.33851563 592.34988281 3.05203125 592.38726563 1.7265625 592.42578125 C-3.1778837 591.86542 -6.2939366 590.0893434 -9.42578125 586.25390625 C-11.22661025 582.81884477 -12.34148029 579.80115831 -13 576 C-13.98238408 578.41540306 -14.96100218 580.83221822 -15.9375 583.25 C-16.21529297 583.93191406 -16.49308594 584.61382813 -16.77929688 585.31640625 C-22.41820489 599.31176831 -19.67740813 615.58169021 -14.02490234 629.38037109 C-11.78212953 633.89003255 -9.00362045 637.9683438 -6 642 C-5.60699707 642.54043945 -5.21399414 643.08087891 -4.80908203 643.63769531 C-2.93040417 646.21669951 -1.01440798 648.76293508 0.9296875 651.29296875 C12.19681314 666.02526699 16.14087688 679.74249967 13.69824219 698.29150391 C11.51092123 710.5008798 6.34382524 721.80334509 1.27832031 733.04272461 C-27.60431298 797.45944314 18.01181758 896.64023455 36.36328125 960.13671875 C91.13472088 1149.70638751 91.13472088 1149.70638751 62 1222 C59.92046414 1225.15344542 57.73314982 1226.45640515 54.08203125 1227.6015625 C49.03451761 1228.59739691 45.4947429 1227.59312091 41 1225 C37.11678106 1221.52554095 36.5237421 1218.52855452 36.04931641 1213.58154297 C35.96139003 1208.97890208 36.93018232 1204.61131971 37.875 1200.125 C38.25239758 1198.27445051 38.62480157 1196.42287557 38.9921875 1194.5703125 C39.16089355 1193.76352051 39.32959961 1192.95672852 39.50341797 1192.12548828 C40.78728206 1184.04484516 41.16182349 1175.94060643 41.203125 1167.76953125 C41.21013931 1166.82878754 41.21715363 1165.88804382 41.22438049 1164.91879272 C41.24182686 1161.88331257 41.24823785 1158.84802854 41.25 1155.8125 C41.25067474 1154.76744293 41.25134949 1153.72238586 41.25204468 1152.6456604 C41.2335815 1134.56813528 40.32815624 1116.93780224 38 1099 C37.83176311 1097.66084095 37.66379932 1096.32164757 37.49609375 1094.98242188 C35.38913699 1078.36938852 32.55392719 1061.91515899 29.25 1045.5 C29.10567535 1044.76973602 28.96135071 1044.03947205 28.81265259 1043.28707886 C23.37335971 1015.9957767 15.29626772 989.204619 7.57318115 962.49084473 C-25.80116828 847.00128024 -25.80116828 847.00128024 -33 801 C-33.12842285 800.1941748 -33.2568457 799.38834961 -33.38916016 798.55810547 C-37.93006198 768.89299716 -34.40682033 743.20373262 -22.51586914 716.0078125 C-14.08262804 697.91855093 -14.08262804 697.91855093 -15.18359375 678.6875 C-17.02719443 674.5966024 -19.65346419 671.30184281 -22.4375 667.8125 C-40.64984692 644.17971205 -58.92359847 613.09820969 -55.59375 582.18359375 C-51.78321515 561.75210752 -36.46301824 544.7241395 -19.78173828 533.17919922 C-14.06937953 529.39861649 -8.08232878 526.14010514 -2 523 C-1.35111816 522.66258789 -0.70223633 522.32517578 -0.03369141 521.97753906 C12.81593963 515.38716037 26.37166927 510.70542968 40 506 C37.11546823 500.40229479 33.76675546 496.35742577 29.25 492 C28.62383789 491.38479492 27.99767578 490.76958984 27.35253906 490.13574219 C23.65064143 486.52212205 19.85912543 483.05201509 15.92578125 479.69140625 C6.1399081 471.09651157 -4.8019041 460.78286307 -6.3125 447.1875 C-6.80754478 435.05890297 -2.02204136 426.81021551 5.80566406 417.95800781 C14.98459968 408.12848508 24.62099356 399.95725413 35.78466797 392.50976562 C39.75107225 389.80663095 43.58690744 386.92701779 47.4375 384.0625 C55.10030313 378.38836746 62.80690821 372.77925893 70.546875 367.2109375 C73.50416091 365.0828818 76.45130484 362.94185932 79.390625 360.7890625 C149.07572544 309.8543545 149.07572544 309.8543545 182.83007812 314.37939453 C189.97314872 315.55640565 196.98245722 317.23580718 204 319 C204.98613281 319.24153809 205.97226562 319.48307617 206.98828125 319.73193359 C227.6942602 324.87821533 247.92350981 331.71238993 268.20532227 338.29272461 C280.28198598 342.20938706 292.35984505 346.08567384 304.53457642 349.68673706 C347.96464024 362.54198023 390.4694272 377.47763351 429.55078125 400.671875 C431.82866686 402.15889653 431.82866686 402.15889653 434 402 C435.79539484 399.43173543 435.79539484 399.43173543 437.5625 396.25 C438.18253906 395.18265625 438.80257812 394.1153125 439.44140625 393.015625 C441.90268085 388.25345961 442.53787749 384.37877493 442 379 C439.67075359 372.85601839 435.60535239 369.61137881 430.0859375 366.32421875 C421.21617673 362.5180809 411.98785029 361.33465509 402.46618652 360.29431152 C369.31806324 356.61978662 342.59966696 344.67684837 313.33251953 328.88061523 C294.09152331 318.52302223 275.40243726 312.30445495 253.45019531 311.70996094 C234.69266345 311.1809803 215.39349025 310.22207963 201.19140625 296.453125 C191.88856528 286.03924954 189.82241586 274.51808757 188.6875 261 C185.25377932 226.37841246 165.87938098 201.27718709 139.6875 179.375 C137.80517121 177.89927697 135.90711589 176.44354741 134 175 C133.31131836 174.4726123 132.62263672 173.94522461 131.91308594 173.40185547 C119.51701997 163.91623806 106.84604285 154.86341998 94 146 C92.57155038 145.01050935 91.14316218 144.02093001 89.71484375 143.03125 C85.82077239 140.33811902 81.91373627 137.66445363 78 135 C77.40477539 134.59362305 76.80955078 134.18724609 76.19628906 133.76855469 C37.44592166 104.36241282 37.44592166 104.36241282 -6.04296875 89.1328125 C-9.47497438 90.13929236 -10.83347364 91.32799302 -13.3125 93.875 C-42.54444728 121.24751868 -79.76075836 128.49553547 -118.11401367 131.09912109 C-166.07739534 133.88653708 -166.07739534 133.88653708 -206 158 C-207.99085635 160.54868083 -209.57142169 163.10202685 -211 166 C-211.30550781 166.58910156 -211.61101562 167.17820312 -211.92578125 167.78515625 C-217.82789209 180.9600103 -214.84645034 196.74998383 -209.99829102 209.7980957 C-208.76360618 212.91562456 -207.40169297 215.95298647 -206 219 C-205.52046875 220.04285156 -205.0409375 221.08570313 -204.546875 222.16015625 C-197.69254296 235.85151141 -187.7103469 247.86734997 -177.9375 259.5625 C-139.56361165 305.48446992 -130.53841515 348.94049591 -135.72851562 408.0703125 C-135.96412306 410.67194037 -136.20045376 413.27350283 -136.4375 415.875 C-136.90082118 421.08018933 -137.35719529 426.28595111 -137.80859375 431.4921875 C-137.91688004 432.73744705 -138.02516632 433.9827066 -138.13673401 435.26570129 C-144.30670641 508.00213471 -132.42858351 573.14079681 -92.30004883 634.95068359 C-89.38377946 639.5477099 -89.23229157 643.64220326 -90 649 C-92.53760017 655.31212102 -99.0686499 657.79009274 -104.84228516 660.5234375 C-111.68714866 663.76614378 -118.27639542 667.40978655 -124.875 671.125 C-125.92018799 671.71095947 -126.96537598 672.29691895 -128.04223633 672.90063477 C-134.42583213 676.49663415 -140.7395448 680.19374043 -147 684 C-140.91901718 688.53320329 -134.73699625 692.29222848 -128.0625 695.875 C-120.61295889 699.9172857 -114.24993716 704.22369894 -108 710 C-107.24847656 710.67160156 -106.49695313 711.34320312 -105.72265625 712.03515625 C-88.43140674 728.29318523 -74.43574043 752.45243617 -72.76171875 776.41015625 C-72.50221163 789.18063802 -74.86428346 799.94417518 -83 810 C-83.47824219 810.61359375 -83.95648437 811.2271875 -84.44921875 811.859375 C-91.6074643 820.00931704 -103.66160075 825.22774904 -114.34350586 826.21704102 C-126.49669639 826.8022881 -137.45302444 825.78569908 -149 822 C-150.86591797 821.39865234 -150.86591797 821.39865234 -152.76953125 820.78515625 C-166.46821673 816.11292602 -179.48066045 809.25645183 -192.06640625 802.171875 C-192.87811279 801.72231445 -193.68981934 801.27275391 -194.52612305 800.80957031 C-196.01416527 799.97994153 -197.49245206 799.13235347 -198.95629883 798.26074219 C-210.73240995 791.71160767 -225.87518814 791.43010204 -239.04800415 789.9230957 C-279.1105266 785.28883686 -279.1105266 785.28883686 -293.171875 777.91796875 C-294.95694472 776.85041981 -294.95694472 776.85041981 -297 777 C-298.89090635 779.37749137 -300.64576816 781.75754176 -302.375 784.25 C-302.90665771 785.0121582 -303.43831543 785.77431641 -303.98608398 786.55957031 C-310.10227381 795.44438722 -315.66691168 804.62777642 -321 814 C-321.70189453 815.22879883 -321.70189453 815.22879883 -322.41796875 816.48242188 C-328.33245529 826.96116903 -333.30823556 837.69254854 -337.75 848.875 C-338.1735376 849.93589844 -338.5970752 850.99679687 -339.03344727 852.08984375 C-346.40212153 871.20425599 -351.37611626 891.03224121 -356.25204468 910.89532471 C-379.99607658 1007.14955405 -379.99607658 1007.14955405 -410 1026 C-421.46792334 1032.58200979 -434.6578454 1037.42983745 -448 1037 C-447.96648437 1038.29035156 -447.93296875 1039.58070312 -447.8984375 1040.91015625 C-447.90672818 1048.7932158 -448.79314395 1056.60773792 -449.625 1064.4375 C-449.71269653 1065.26713257 -449.80039307 1066.09676514 -449.89074707 1066.95153809 C-453.5933197 1101.49734817 -460.43567633 1135.46091887 -470.11264038 1168.82870483 C-470.67180197 1170.75832735 -471.21949306 1172.69126219 -471.7668457 1174.62426758 C-473.953942 1181.90566713 -475.6542723 1185.85309373 -481.8125 1190.3125 C-485.23578926 1191.38839091 -488.48394417 1191.55552327 -492 1191 C-495.95516311 1188.91047987 -498.62759391 1186.77718749 -501 1183 C-502.61681113 1174.39794573 -499.58348445 1166.1586382 -497 1158.0625 C-485.69895368 1121.161573 -479.49414115 1083.31433693 -476.30957031 1044.90551758 C-476.02330522 1042.21873456 -475.57823049 1039.63764404 -475 1037 C-476.16789062 1036.88785156 -476.16789062 1036.88785156 -477.359375 1036.7734375 C-509.37025598 1033.0117902 -539.30151999 1017.27127795 -560.51171875 992.97265625 C-563.45323779 989.07379244 -564.46125446 986.07702457 -564.3125 981.09375 C-563.7433565 977.28048857 -562.31654966 975.10905349 -560 972 C-555.66375637 969.01280995 -552.2075322 968.44205012 -547 969 C-542.5477966 970.85948416 -539.95161651 972.82930997 -536.9375 976.5625 C-519.81564174 996.12628166 -493.58975204 1007.28795889 -468.0078125 1009.8203125 C-450.75122645 1010.82630182 -433.70905375 1008.41317196 -419.36328125 998.10546875 C-398.18491695 979.23747146 -392.19762779 937.10876325 -385.60974121 910.41366577 C-383.81997482 903.1713078 -381.9708036 895.94398366 -380.11328125 888.71875 C-379.93289684 888.0170336 -379.75251244 887.31531719 -379.56666183 886.59233665 C-368.09048503 842.06032803 -350.07481864 799.74498321 -322 763 C-322.87382324 762.72236816 -323.74764648 762.44473633 -324.64794922 762.15869141 C-338.67829277 757.30887272 -353.22851344 750.09194881 -365 741 C-365.93457031 740.28328125 -366.86914062 739.5665625 -367.83203125 738.828125 C-391.41419777 720.11724048 -406.52123187 694.05754163 -410 664 C-410.31006947 658.99641793 -410.381837 654.01245446 -410.375 649 C-410.37445618 648.32290985 -410.37391235 647.6458197 -410.37335205 646.94821167 C-410.26524806 617.54089869 -400.90844512 589.25763183 -380 568 C-362.51353597 550.87885207 -340.91434321 544.58478031 -316.875 544.6875 C-316.18891663 544.68965515 -315.50283325 544.6918103 -314.79595947 544.69403076 C-304.21495971 544.74732856 -294.26197575 545.31216578 -284 548 C-283.22672363 548.19335938 -282.45344727 548.38671875 -281.65673828 548.5859375 C-231.24955314 561.3627245 -188.46879826 586.89265074 -161.1484375 632.0390625 C-158.9882087 635.72761644 -156.94870795 639.47853696 -154.9375 643.25 C-154.54296631 643.98959961 -154.14843262 644.72919922 -153.74194336 645.49121094 C-151 650.74286495 -151 650.74286495 -151 653 C-150.2886792 652.61142822 -149.5773584 652.22285645 -148.84448242 651.82250977 C-145.62685632 650.06665254 -142.4072087 648.31453522 -139.1875 646.5625 C-138.06794922 645.95083984 -136.94839844 645.33917969 -135.79492188 644.70898438 C-134.72177734 644.12568359 -133.64863281 643.54238281 -132.54296875 642.94140625 C-131.55321045 642.40201416 -130.56345215 641.86262207 -129.54370117 641.30688477 C-127 640 -127 640 -124 639 C-124.36134033 638.33863037 -124.72268066 637.67726074 -125.0949707 636.99584961 C-126.15750635 635.04966155 -127.21902719 633.10291926 -128.27978516 631.15576172 C-129.36278378 629.16898338 -130.44807077 627.18344905 -131.53662109 625.19970703 C-167.25095275 559.80254025 -171.21918218 492.2817789 -165.21862793 419.65826416 C-164.63253392 412.53203516 -164.07180978 405.40377862 -163.51309204 398.27536011 C-163.31939408 395.8367932 -163.11778528 393.39899013 -162.91479492 390.96118164 C-159.05349391 343.54370018 -172.44937835 311.60888523 -201.9375 275.390625 C-225.50696327 246.36369946 -245.44921042 214.94156787 -243 176 C-240.46328776 156.585163 -231.55950794 141.83847915 -217 129 C-185.35130646 104.83961341 -141.78866789 103.93092235 -103.79101562 101.73388672 C-92.64382097 101.04972199 -82.30625193 99.59683575 -71.875 95.5 C-70.97974609 95.15179199 -70.08449219 94.80358398 -69.16210938 94.44482422 C-46.63186409 85.40486184 -23.5208676 71.22363601 -12.8671875 48.59375 C-10.24003629 40.73596441 -11.57675738 32.45682438 -14.91015625 25.06640625 C-16.02167707 22.86408754 -16.02167707 22.86408754 -17.75 20.4375 C-19.6788291 16.67628326 -19.66385229 13.13631041 -19 9 C-14.59287214 0.50053913 -9.21714361 -1.50778309 0 0 Z M87.21337891 389.39550781 C84.99304297 391.00504319 82.76873958 392.60892787 80.54296875 394.2109375 C71.09788554 401.0105324 61.69286594 407.86187813 52.34375 414.79296875 C49.77699917 416.69527306 47.20041734 418.57860485 44.59375 420.42578125 C38.92444163 424.50619135 33.82689977 428.90224152 28.875 433.8125 C28.3176416 434.36429932 27.7602832 434.91609863 27.18603516 435.48461914 C24.58735769 438.13061147 22.36611381 440.51725305 21 444 C27.10400866 452.36774698 34.08043253 459.69137035 41.9375 466.4375 C50.403067 473.73776628 58.18368083 481.3904292 64 491 C64.433125 491.680625 64.86625 492.36125 65.3125 493.0625 C69.36379085 500.48986656 69.48131501 510.58963556 67.26953125 518.66796875 C64.33918276 525.04297178 59.51702815 528.04164363 53.22802734 530.43334961 C52.12515381 530.83759155 52.12515381 530.83759155 51 531.25 C50.21963379 531.54592041 49.43926758 531.84184082 48.63525391 532.14672852 C45.21901723 533.43971436 41.79377348 534.70759586 38.36621094 535.97021484 C12.2802485 544.46868061 12.2802485 544.46868061 -8.1875 561.25 C-9.30046797 564.0520524 -9.30046797 564.0520524 -8 567 C-7.175 566.175 -6.35 565.35 -5.5 564.5 C10.28173507 551.15583985 35.34056428 543.51681666 55.44213867 540.47998047 C65.48270557 538.85583773 74.41408702 535.86895447 83.80889893 532.02346802 C88.26950086 530.19998125 92.75156277 528.43027936 97.23046875 526.65234375 C98.17873535 526.27456284 99.12700195 525.89678192 100.10400391 525.5075531 C111.38215614 521.0270823 122.74867802 516.78615308 134.125 512.5625 C135.19720795 512.16419983 136.26941589 511.76589966 137.37411499 511.35552979 C173.92727543 497.78828707 210.61427953 484.64342612 247.47689819 471.94116211 C257.99248073 468.31678956 268.4965445 464.6593412 279 461 C277.02146453 458.80546922 277.02146453 458.80546922 273.9375 457.5 C271 456 271 456 270 454 C269.31142989 446.99953725 269.31142989 446.99953725 271.9375 443.1875 C278.28985663 438.65010241 285.89976011 437.46606217 293.5 436.375 C294.29019531 436.25382812 295.08039063 436.13265625 295.89453125 436.0078125 C298.26066332 435.65153729 300.62871638 435.32007491 303 435 C304.08244995 434.84990479 304.08244995 434.84990479 305.18676758 434.69677734 C311.35747564 433.91739234 317.47349822 433.84834953 323.6875 433.875 C325.2796936 433.8757251 325.2796936 433.8757251 326.90405273 433.87646484 C332.49810801 433.90123809 337.99536363 434.08994342 343.5625 434.625 C357.20613767 435.73547731 369.82506252 431.90797474 382.68432617 427.83203125 C385.3497332 426.98821266 388.02085637 426.16478651 390.69335938 425.34375 C392.39619529 424.81366133 394.09868347 424.28245402 395.80078125 423.75 C396.59648026 423.50411133 397.39217926 423.25822266 398.21199036 423.00488281 C402.49353108 421.68491721 402.49353108 421.68491721 406 419 C365.45568216 396.86412604 321.40628473 382.97482294 277.24194336 369.87695312 C264.62078382 366.1296767 252.08092984 362.16583951 239.55484009 358.1126709 C170.6086163 335.82142918 145.07183902 347.38395765 87.21337891 389.39550781 Z M277 521 C276.09773682 521.69174316 276.09773682 521.69174316 275.17724609 522.39746094 C263.42271721 531.4305295 252.187023 541.02884273 241.21875 551 C239.21482517 552.80635478 237.17795013 554.56244415 235.125 556.3125 C231.58553728 559.38624394 228.29485815 562.66986171 225 566 C220.49622465 570.54640885 215.92731893 574.90865334 211 579 C209.95392578 579.8971875 209.95392578 579.8971875 208.88671875 580.8125 C194.94616226 592.43353533 179.01121389 600.83228636 163.07861328 609.34716797 C126.09895993 629.20063769 82.34744663 653.26183799 67.68920898 695.46704102 C65.24754365 704.44057196 65.89825971 714.23648101 66.25 723.4375 C66.29664795 724.68450684 66.3432959 725.93151367 66.39135742 727.21630859 C67.257205 747.3924533 69.18224687 767.3621535 74 787 C74.33 787 74.66 787 75 787 C74.9278125 786.31679688 74.855625 785.63359375 74.78125 784.9296875 C71.34454234 747.60322371 79.30251084 710.44003409 103.5390625 680.8515625 C104.35117187 679.91054688 105.16328125 678.96953125 106 678 C106.81210937 677.03835938 107.62421875 676.07671875 108.4609375 675.0859375 C114.10128214 668.62712013 120.22077471 663.22890178 127 658 C127.96292969 657.24460937 128.92585937 656.48921875 129.91796875 655.7109375 C133.25768471 653.11196969 136.6235226 650.55086756 140 648 C141.0523584 647.20070068 141.0523584 647.20070068 142.12597656 646.38525391 C161.43895974 631.7563586 181.77153277 619.63682441 203 608 C203.99257813 607.45150391 204.98515625 606.90300781 206.0078125 606.33789062 C334.46655433 535.4144296 334.46655433 535.4144296 373.55859375 543.53125 C395.13127892 547.67320555 420.98594643 534.88860461 441 528 C438.98585693 525.98585693 437.768354 525.35574209 435.18359375 524.30078125 C418.48068406 517.30553043 418.48068406 517.30553043 412 511 C411.30777344 510.33484375 410.61554688 509.6696875 409.90234375 508.984375 C398.03574635 496.65198592 394.85499852 481.36763397 393 465 C351.34497218 462.44969217 307.94603785 497.17292768 277 521 Z M28.6875 561.375 C27.50808838 561.83293945 26.32867676 562.29087891 25.11352539 562.76269531 C11.85359706 567.51336537 11.85359706 567.51336537 1 576 C1 576.99 1 577.98 1 579 C5.74126274 580.52200068 9.35520806 579.27821441 13.875 577.6875 C14.64803467 577.42187256 15.42106934 577.15624512 16.2175293 576.88256836 C41.31262905 569.31408263 41.31262905 569.31408263 61.32421875 554.8046875 C61.65873047 553.91136719 61.65873047 553.91136719 62 553 C52.44518518 549.81506173 37.47334235 557.94677274 28.6875 561.375 Z M417 564 C416.3702124 564.14622803 415.7404248 564.29245605 415.09155273 564.44311523 C412.20755926 565.11093443 409.32254749 565.77424969 406.4375 566.4375 C405.44685547 566.66759766 404.45621094 566.89769531 403.43554688 567.13476562 C395.50679129 568.95232089 387.97272301 570.17343968 379.8125 570.125 C379.06419922 570.1259668 378.31589844 570.12693359 377.54492188 570.12792969 C373.29535183 570.10786734 369.21685028 569.8215786 365 569.25 C340.36208572 567.094597 311.66824186 584.03460303 290 594 C289.36451233 594.29152954 288.72902466 594.58305908 288.07427979 594.88342285 C260.44454789 607.56484957 233.28570431 621.01285752 206.9765625 636.27832031 C204.89770639 637.48075578 202.81395834 638.6747558 200.7265625 639.86230469 C185.72003844 648.40005536 171.65504173 657.5196623 158.15039062 668.30078125 C155.25610509 670.58781887 152.2904856 672.76069834 149.3125 674.9375 C142.04649706 680.3662422 135.24846607 686.42266729 129 693 C128.12988281 693.87785156 128.12988281 693.87785156 127.2421875 694.7734375 C110.16543845 712.78773356 99.12163101 741.14545697 99.76171875 766.0078125 C99.93774384 768.21822596 100.20269949 770.42196766 100.515625 772.6171875 C101.22736072 778.06627241 101.10712667 783.5143529 101.0625 789 C101.05798828 790.06089844 101.05347656 791.12179687 101.04882812 792.21484375 C101.03713843 794.80995598 101.02075276 797.40494709 101 800 C102.8669336 797.1995996 103.43558004 795.76665482 104.12573242 792.58642578 C104.32321579 791.69343781 104.52069916 790.80044983 104.72416687 789.88040161 C105.0366613 788.4275325 105.0366613 788.4275325 105.35546875 786.9453125 C105.81810977 784.86322577 106.28100956 782.78119653 106.74414062 780.69921875 C107.46092648 777.44277601 108.17432337 774.18566343 108.88208008 770.92724609 C116.23049391 737.22383835 126.82650931 710.88567954 151 686 C151.85722656 685.1028125 152.71445312 684.205625 153.59765625 683.28125 C159.36802459 677.35542007 165.49279899 672.0971724 172 667 C172.58571777 666.53255371 173.17143555 666.06510742 173.77490234 665.58349609 C192.2902023 650.8218783 212.28364254 638.41357246 233 627 C233.70189453 626.60651367 234.40378906 626.21302734 235.12695312 625.80761719 C256.3521165 613.91864352 278.94949538 604.68487728 302 597 C302.7852002 596.73606445 303.57040039 596.47212891 304.37939453 596.20019531 C332.48047926 586.90218067 368.1981303 580.74562026 396 594 C397.99816964 594.94139488 399.99820219 595.87884495 402 596.8125 C402.9075 597.25207031 403.815 597.69164062 404.75 598.14453125 C405.4925 598.42683594 406.235 598.70914063 407 599 C407.66 598.67 408.32 598.34 409 598 C408.2884375 597.1028125 408.2884375 597.1028125 407.5625 596.1875 C404.72135249 592.20989349 404.60185381 588.77775426 405 584 C408.02866399 577.15258577 413.19647856 571.67595589 418 566 C417.67 565.34 417.34 564.68 417 564 Z M-10 567 C-9 569 -9 569 -9 569 Z M-363 590 C-379.44634837 610.67462491 -385.28035828 635.19652859 -382.78173828 661.27832031 C-380.39417838 678.82625621 -372.5577763 694.75195602 -361 708 C-360.49210937 708.60328125 -359.98421875 709.2065625 -359.4609375 709.828125 C-345.79782464 724.82251552 -324.24286313 732.51563629 -306.15258789 740.41943359 C-298.42955363 743.82444988 -290.91793959 747.46630809 -283.61401367 751.70263672 C-272.46000768 757.94247203 -260.04759923 759.68444977 -247.55737305 761.20947266 C-244.30651299 761.60800191 -241.05951185 762.03457773 -237.81204224 762.4597168 C-235.38586129 762.77727202 -232.95929801 763.09178542 -230.53271484 763.40625 C-224.34620469 764.21288206 -218.16922288 765.06996155 -212 766 C-210.59077271 766.19432617 -210.59077271 766.19432617 -209.15307617 766.39257812 C-197.00657859 768.2708462 -186.30316453 773.62735215 -175.5625 779.375 C-173.36739426 780.5290392 -171.17208342 781.68268837 -168.9765625 782.8359375 C-166.23376995 784.28539459 -163.4921507 785.73667688 -160.75683594 787.20019531 C-147.28062352 794.40075416 -129.80987504 802.17076115 -114.23828125 798.31640625 C-107.34930848 795.83472847 -103.9812613 792.87246527 -100.625 786.3125 C-98.05947069 772.71519465 -104.61278188 759.22997287 -111.8359375 748.09765625 C-122.95666107 732.17936421 -136.27603769 721.05485476 -154 713 C-154.99 713 -155.98 713 -157 713 C-156.03900391 714.4540625 -156.03900391 714.4540625 -155.05859375 715.9375 C-138.1288797 741.98144794 -138.1288797 741.98144794 -140 756 C-144.91818661 757.19431077 -147.85664314 756.72059988 -152.5625 754.9375 C-153.79355469 754.47601562 -155.02460938 754.01453125 -156.29296875 753.5390625 C-159.75287479 752.14936197 -163.04743621 750.49492951 -166.375 748.8125 C-172.03239595 746.1010895 -177.02793439 745.24092224 -183.18334961 744.69116211 C-187.42560611 744.28887474 -190.98930088 743.46532356 -194.9375 741.875 C-201.83992962 739.09542879 -207.54671901 739.79651649 -214.80078125 740.765625 C-231.2749287 742.52130679 -248.93518453 738.84514903 -263 730 C-262.01902344 730.26554688 -261.03804688 730.53109375 -260.02734375 730.8046875 C-245.39580955 734.67134497 -231.16410941 737.27336056 -216.0625 735 C-205.3557653 733.43120572 -198.77305435 733.8135547 -188.58203125 737.77734375 C-185.10903381 738.96278344 -182.01040644 739.52389088 -178.375 739.9375 C-167.61018043 741.35803914 -158.83631368 747.55630151 -149.91015625 753.36328125 C-147.13799576 754.92238896 -145.14852535 755.7097881 -142 756 C-141.34 755.67 -140.68 755.34 -140 755 C-140.48085524 749.27412379 -142.05250028 745.30941985 -144.9375 740.375 C-145.33646484 739.68132324 -145.73542969 738.98764648 -146.14648438 738.27294922 C-155.87642377 721.75248059 -170.96027724 700.55448918 -190.1640625 695.1015625 C-192.26734219 694.59456668 -194.37797996 694.11671682 -196.49609375 693.67578125 C-199 693 -199 693 -201 691 C-201.5 688.1875 -201.5 688.1875 -201 685 C-198.1875 682.4375 -198.1875 682.4375 -196.53515625 681.1953125 C-193.57558425 678.89091292 -192.20653033 676.62609719 -191.73193359 672.8894043 C-191.49257812 665.8942055 -193.26670293 661.1267581 -196.5 655 C-197.34659457 653.33477645 -198.19048904 651.6681765 -199.03125 650 C-199.40830078 649.278125 -199.78535156 648.55625 -200.17382812 647.8125 C-201 646 -201 646 -201 644 C-200.484375 644.78375 -199.96875 645.5675 -199.4375 646.375 C-198.10366669 648.39956841 -196.72965093 650.36312796 -195.28125 652.30859375 C-190.42921194 658.89790815 -186.56775992 665.00742612 -186.9375 673.4375 C-187.78293442 679.00163816 -190.87852161 683.42755918 -194 688 C-192.41009198 689.58990802 -190.49355041 689.54302003 -188.3125 689.9375 C-184.41115596 690.68194585 -180.73580357 691.62365132 -177 693 C-177.40049561 692.20928101 -177.40049561 692.20928101 -177.80908203 691.40258789 C-180.65369721 685.46175334 -181.91818682 679.9214849 -182.875 673.4375 C-185.74152177 656.31696294 -192.44684363 642.02747061 -201 627 C-201.57492187 625.98550781 -202.14984375 624.97101562 -202.7421875 623.92578125 C-213.2194278 607.32378604 -236.5999632 595.98858612 -253.9465332 587.95874023 C-255.46841513 587.24819092 -256.97831433 586.51185359 -258.48120117 585.76196289 C-265.30775507 582.455073 -271.86648985 580.6576524 -279.3125 579.3125 C-280.9507373 578.99853271 -280.9507373 578.99853271 -282.62207031 578.67822266 C-289.49916104 577.38225768 -296.36570795 576.27920298 -303.328125 575.5546875 C-306 575 -306 575 -308.359375 573.46875 C-311.8853119 571.507578 -315.07124295 571.54788779 -319 571.625 C-319.7518457 571.63587646 -320.50369141 571.64675293 -321.27832031 571.65795898 C-337.29321438 572.10848414 -352.11017281 577.94698685 -363 590 Z M424.20703125 599.15625 C421.19562781 600.3075122 418.18947434 600.62476773 415 601 C418.23641039 603.15760692 421.37338469 604.1916795 425.046875 605.3125 C425.73630188 605.52688721 426.42572876 605.74127441 427.13604736 605.9621582 C429.3393197 606.64598603 431.54462759 607.32297956 433.75 608 C435.21888254 608.45530178 436.68763406 608.91102649 438.15625 609.3671875 C451.76442599 614.71505922 451.76442599 614.71505922 465.375 612.80078125 C470.39789027 609.91378749 470.39789027 609.91378749 472.875 604.9375 C471.11162863 599.01761042 466.07165931 596.08709697 461 593 C448.52686472 588.84228824 435.71004387 594.39416366 424.20703125 599.15625 Z M100 800 C101 803 101 803 101 803 Z M99 803 C100 806 100 806 100 806 Z" transform="translate(597,216)"/><path fill="#264472" d="M0 0 C4.01730815 2.06773213 6.54319258 4.03162589 8.109375 8.26953125 C8.67586322 14.99071478 7.75483773 20.97549038 5.9140625 27.4140625 C5.68594879 28.25389679 5.45783508 29.09373108 5.22280884 29.95901489 C4.73691498 31.74664597 4.24594886 33.53290513 3.75024414 35.31784058 C2.45035475 40.00942813 1.19660399 44.7132231 -0.0546875 49.41796875 C-0.30313416 50.35090256 -0.55158081 51.28383636 -0.80755615 52.24504089 C-4.03870301 64.47963403 -6.595977 76.82579495 -8.890625 89.26953125 C-9.05498047 90.13900391 -9.21933594 91.00847656 -9.38867188 91.90429688 C-12.93703382 110.9558024 -14.79416924 130.89586181 -13.890625 150.26953125 C-13.84953613 151.16446289 -13.80844727 152.05939453 -13.76611328 152.98144531 C-11.37329753 199.69104349 1.92919247 244.49139338 14.20898438 289.328125 C22.49823349 319.59866804 30.4724606 349.82858159 35.234375 380.89453125 C35.37609131 381.74660156 35.51780762 382.59867188 35.66381836 383.4765625 C36.46022698 389.2841281 35.65592596 392.96760055 33.109375 398.26953125 C29.64224034 401.65210165 26.82649103 402.54254221 22.109375 402.76953125 C17.41330716 402.55767857 14.63031803 401.53284431 11.109375 398.26953125 C8.80765973 394.25709122 7.63088516 390.77330615 6.96875 386.2109375 C6.78948975 385.03772949 6.61022949 383.86452148 6.42553711 382.65576172 C6.23870361 381.39393066 6.05187012 380.13209961 5.859375 378.83203125 C1.42819042 350.60288278 -5.9336624 323.24070924 -13.54934692 295.73760986 C-38.42030031 205.9109754 -49.06318092 128.85602135 -26.265625 36.83203125 C-25.98213196 35.68071716 -25.69863892 34.52940308 -25.40655518 33.34320068 C-24.58585921 30.02564105 -23.75238641 26.71158177 -22.9140625 23.3984375 C-22.66936218 22.40901657 -22.42466187 21.41959564 -22.17254639 20.40019226 C-18.00773538 4.17127721 -18.00773538 4.17127721 -12.578125 0.70703125 C-8.04737581 -1.05919301 -4.65364712 -1.79800002 0 0 Z" transform="translate(358.890625,1048.73046875)"/><path fill="#264472" d="M0 0 C0.845625 -0.00515625 1.69125 -0.0103125 2.5625 -0.015625 C5.13478811 0.26468845 6.7803108 0.9551813 9 2.25 C6.51656752 3.01413307 4.68967882 3.23679484 2.0625 3.125 C-1.68511215 3.27796376 -3.12867073 3.83203851 -6 6.25 C-13.47490166 17.26836715 -13.57323426 32.54759658 -11.51513672 45.24023438 C-8.52237579 60.32088786 -4.98560002 76.72711883 8 86.25 C10.75233901 88.00958898 13.5809413 89.60432387 16.4375 91.1875 C28.81035986 98.25083617 28.81035986 98.25083617 33 103.25 C33 103.91 33 104.57 33 105.25 C25.74618135 102.50531186 18.89974312 98.77218699 12 95.25 C10.92878906 94.70601562 9.85757812 94.16203125 8.75390625 93.6015625 C6.11990073 92.22062757 3.55068725 90.77869472 1 89.25 C0.03707031 88.68539062 0.03707031 88.68539062 -0.9453125 88.109375 C-12.81096393 79.70232152 -16.57095929 60.62958757 -19 47.25 C-21.08525187 33.70958158 -20.51836035 18.16204637 -12.76953125 6.37890625 C-9.09471878 1.66383918 -5.91159548 -0.03604631 0 0 Z" transform="translate(257,824.75)"/><path fill="#264472" d="M0 0 C19.52610028 0.50538142 39.40290006 10.84606303 52.75 24.6875 C61.74641202 35.61474573 65.79685823 51.29064664 65.29296875 65.3515625 C63.45283933 81.98633241 63.45283933 81.98633241 59 86 C59.02094727 85.32646484 59.04189453 84.65292969 59.06347656 83.95898438 C59.62149991 63.23442106 58.6784839 42.44817296 43.9375 26.1875 C32.76643971 16.39095495 19.57115678 10.05166765 6.14379883 3.98632812 C4.07244323 3.03332999 2.03335761 2.03124192 0 1 C0 0.67 0 0.34 0 0 Z" transform="translate(296,817)"/><path fill="#264472" d="M0 0 C0.33 4.95 0.66 9.9 1 15 C-2.8127519 13.7290827 -5.90625009 12.66918099 -9.375 10.875 C-10.06335938 10.52179687 -10.75171875 10.16859375 -11.4609375 9.8046875 C-11.96882812 9.53914062 -12.47671875 9.27359375 -13 9 C-13 8.34 -13 7.68 -13 7 C-10.6640625 5.2734375 -10.6640625 5.2734375 -7.625 3.375 C-6.62726563 2.74335937 -5.62953125 2.11171875 -4.6015625 1.4609375 C-2 0 -2 0 0 0 Z" transform="translate(1032,671)"/><path fill="#264472" d="M0 0 C5.28 0 10.56 0 16 0 C15.67 1.32 15.34 2.64 15 4 C9.39436958 4.82622671 4.57710648 5.06795656 -1 4 C-0.67 2.68 -0.34 1.36 0 0 Z" transform="translate(1057,674)"/><path fill="#264472" d="M0 0 C6.0546875 -0.1953125 6.0546875 -0.1953125 8 0 C10 2 10 2 10 5 C6.37 5 2.74 5 -1 5 C-0.67 3.35 -0.34 1.7 0 0 Z" transform="translate(1040,675)"/><path fill="#264472" d="M0 0 C1.67542976 0.28604898 3.34385343 0.61781233 5 1 C5 1.99 5 2.98 5 4 C4.01 4.495 4.01 4.495 3 5 C2.34786708 7.02463255 2.34786708 7.02463255 2 9 C0.68 9 -0.64 9 -2 9 C-1.125 1.125 -1.125 1.125 0 0 Z" transform="translate(1079,661)"/><path fill="#264472" d="M0 0 C2.97 0.33 5.94 0.66 9 1 C8.67 2.65 8.34 4.3 8 6 C7.01 6 6.02 6 5 6 C5 5.34 5 4.68 5 4 C3.35 4 1.7 4 0 4 C0 2.68 0 1.36 0 0 Z" transform="translate(1087,669)"/><path fill="#264472" d="M0 0 C1.65 0 3.3 0 5 0 C6.4606285 2.64738916 7 3.89448334 7 7 C6.01 7 5.02 7 4 7 C4 6.01 4 5.02 4 4 C2.68 4 1.36 4 0 4 C0 2.68 0 1.36 0 0 Z" transform="translate(1108,658)"/><path fill="#264472" d="M0 0 C1.32 0 2.64 0 4 0 C3.67 1.65 3.34 3.3 3 5 C2.01 5 1.02 5 0 5 C-0.5625 3.0625 -0.5625 3.0625 -1 1 C-0.67 0.67 -0.34 0.34 0 0 Z" transform="translate(1081,655)"/><path fill="#264472" d="M0 0 C1.32 0 2.64 0 4 0 C3.67 1.65 3.34 3.3 3 5 C2.01 5 1.02 5 0 5 C-0.5625 3.0625 -0.5625 3.0625 -1 1 C-0.67 0.67 -0.34 0.34 0 0 Z" transform="translate(1111,652)"/><path fill="#264472" d="M0 0 C1.32 0 2.64 0 4 0 C3.67 1.65 3.34 3.3 3 5 C2.01 5 1.02 5 0 5 C-0.5625 3.0625 -0.5625 3.0625 -1 1 C-0.67 0.67 -0.34 0.34 0 0 Z" transform="translate(1141,649)"/><path fill="#264472" d="M0 0 C1.65 0.33 3.3 0.66 5 1 C4.34 2.32 3.68 3.64 3 5 C1.68 4.67 0.36 4.34 -1 4 C-0.67 2.68 -0.34 1.36 0 0 Z" transform="translate(1142,643)"/><path fill="#264472" d="M0 0 C1.32 0 2.64 0 4 0 C3.67 1.65 3.34 3.3 3 5 C2.01 5 1.02 5 0 5 C0 3.35 0 1.7 0 0 Z" transform="translate(1098,670)"/><path fill="#264472" d="M0 0 C1.32 0 2.64 0 4 0 C4 1.32 4 2.64 4 4 C2.35 4 0.7 4 -1 4 C-0.67 2.68 -0.34 1.36 0 0 Z" transform="translate(1128,667)"/><path fill="#264472" d="M0 0 C1.65 0 3.3 0 5 0 C4.67 1.32 4.34 2.64 4 4 C2.68 4 1.36 4 0 4 C0 2.68 0 1.36 0 0 Z" transform="translate(1116,665)"/><path fill="#264472" d="M0 0 C1.32 0 2.64 0 4 0 C3.67 1.32 3.34 2.64 3 4 C1.68 3.67 0.36 3.34 -1 3 C-0.67 2.01 -0.34 1.02 0 0 Z" transform="translate(1034,676)"/><path fill="#264472" d="M0 0 C1.98 0.495 1.98 0.495 4 1 C4 1.99 4 2.98 4 4 C2.35 3.67 0.7 3.34 -1 3 C-0.67 2.01 -0.34 1.02 0 0 Z" transform="translate(1122,667)"/><path fill="#264472" d="M0 0 C1.65 0 3.3 0 5 0 C4.34 1.32 3.68 2.64 3 4 C2.01 4 1.02 4 0 4 C0 2.68 0 1.36 0 0 Z" transform="translate(1112,647)"/><path fill="#264472" d="M0 0 C1.32 0 2.64 0 4 0 C4 1.32 4 2.64 4 4 C2.68 4 1.36 4 0 4 C0 2.68 0 1.36 0 0 Z" transform="translate(1107,663)"/><path fill="#264472" d="M0 0 C1.32 0 2.64 0 4 0 C4 1.32 4 2.64 4 4 C2.68 4 1.36 4 0 4 C0 2.68 0 1.36 0 0 Z" transform="translate(1137,660)"/><path fill="#264472" d="M0 0 C1.32 0 2.64 0 4 0 C4 1.32 4 2.64 4 4 C2.68 4 1.36 4 0 4 C0 2.68 0 1.36 0 0 Z" transform="translate(1139,655)"/><path fill="#264472" d="M0 0 C1.65 0 3.3 0 5 0 C5 0.99 5 1.98 5 3 C3.35 3 1.7 3 0 3 C0 2.01 0 1.02 0 0 Z" transform="translate(1074,657)"/><path fill="#264472" d="M0 0 C0.99 0.33 1.98 0.66 3 1 C2.67 1.99 2.34 2.98 2 4 C1.01 3.67 0.02 3.34 -1 3 C-0.67 2.01 -0.34 1.02 0 0 Z" transform="translate(1052,675)"/><path fill="#264472" d="M0 0 C1.32 0 2.64 0 4 0 C4 0.99 4 1.98 4 3 C2.68 3 1.36 3 0 3 C0 2.01 0 1.02 0 0 Z" transform="translate(1103,668)"/><path fill="#264472" d="M0 0 C1.32 0 2.64 0 4 0 C4 0.99 4 1.98 4 3 C2.68 3 1.36 3 0 3 C0 2.01 0 1.02 0 0 Z" transform="translate(1082,666)"/><path fill="#264472" d="M0 0 C1.32 0 2.64 0 4 0 C4 0.99 4 1.98 4 3 C2.68 3 1.36 3 0 3 C0 2.01 0 1.02 0 0 Z" transform="translate(1133,665)"/><path fill="#264472" d="M0 0 C0.99 0 1.98 0 3 0 C3 0.99 3 1.98 3 3 C2.01 3 1.02 3 0 3 C0 2.01 0 1.02 0 0 Z" transform="translate(1074,671)"/><path fill="#264472" d="M0 0 C0.99 0 1.98 0 3 0 C3 0.99 3 1.98 3 3 C2.01 3 1.02 3 0 3 C0 2.01 0 1.02 0 0 Z" transform="translate(1105,653)"/></svg>