<svg id="Layer_1" data-name="Layer 1" xmlns="http://www.w3.org/2000/svg" viewBox="0 0 1418.09 784.17"><defs><style>.cls-1,.cls-5{fill:#fff;}.cls-2{fill:none;stroke:#fff;stroke-miterlimit:10;stroke-width:4.74px;}.cls-3{fill:#4670b1;}.cls-4{fill:#20ad53;}.cls-5{font-size:89px;font-family:Poppins-SemiBold, Poppins;font-weight:600;}</style></defs><path class="cls-1" d="M121.51,44.18H1296.58a61.53,61.53,0,0,1,61.53,61.53V423.05a0,0,0,0,1,0,0H60a0,0,0,0,1,0,0V105.72a61.53,61.53,0,0,1,61.53-61.53Z"/><rect class="cls-2" x="59.98" y="44.18" width="1298.13" height="695.8" rx="60.82"/><rect class="cls-3" x="525.86" y="169.2" width="12.7" height="86.8"/><path class="cls-3" d="M663.31,202.54V256H650.44V205.84c0-15.52-9.24-24.75-24.59-24.75-17.16.16-27.72,11.55-29.2,28.38V256H583.77V169.2h12.88v19.14c6.1-13.2,17.81-19.47,33.66-19.63,20.79,0,33,12.71,33,33.83"/><path class="cls-3" d="M721.23,160.46v11.38h24.91v10.07H721.23V256h-12.7V181.91H697.3V171.84h11.23v-9.72c0-18.82,13.36-29.22,27.88-29.05a31.48,31.48,0,0,1,18.64,6.1l-5.27,9.9a23.56,23.56,0,0,0-13.2-4.45c-8.42-.17-15.35,5.61-15.35,15.84"/><path class="cls-3" d="M846.47,217.39h-71c2.14,17.16,14.51,28.38,31.51,28.38,10.73,0,20.13-4,26.9-11.06l7.09,7.43c-8.25,9.08-20.46,14.36-35,14.36-25.57,0-43.23-18-43.23-43.89s17.82-43.74,43.07-43.9c28,0,41.91,19.3,40.59,48.68m-11.55-10.23c-.83-16.84-12-27.73-29-27.73-16.67,0-28.56,10.89-30.36,27.73Z"/><polygon class="cls-3" points="882.27 169.2 905.38 202.38 928.81 169.2 943 169.2 913.95 211.28 945.14 256 930.13 256 905.38 220.36 879.8 256 865.28 256 896.96 211.28 867.43 169.2 882.27 169.2"/><path class="cls-3" d="M1058.18,202.54V256H1045.3V205.84c0-15.52-9.24-24.75-24.58-24.75-17.17.16-27.72,11.55-29.22,28.38V256H978.64V169.2H991.5v19.14c6.12-13.2,17.84-19.47,33.67-19.63,20.79,0,33,12.71,33,33.83"/><rect class="cls-3" x="525.88" y="140.47" width="12.66" height="12.67"/><path class="cls-3" d="M361.32,158.16a1.52,1.52,0,0,0-.59,2.19c.44.65-1.05.6,17.23.6H394.3l.35-.19a1.48,1.48,0,0,0-.19-2.64c-.51-.21-32.68-.17-33.14,0m0,17.11a1.43,1.43,0,0,0,0,2.64c.28.15.72.15,16.61.15s16.33,0,16.65-.15a1.44,1.44,0,0,0-.05-2.64C394,175,361.82,175,361.34,175.27ZM359,190.92a1.5,1.5,0,0,0,.2,2.78c.2.06,5.44.08,16.58.08l16.29,0,.32-.23a1.5,1.5,0,0,0-.24-2.62C391.61,190.67,359.44,190.71,359,190.92Zm-2.34,15.23a1.44,1.44,0,0,0-.11,2.59l.43.21h16.27c15.66,0,16.29,0,16.61-.17a1.44,1.44,0,0,0-.07-2.66C389.27,205.9,357.08,205.94,356.63,206.15ZM351,220.39a1.55,1.55,0,0,0,0,2.64c.49.22,32.58.24,33.22,0a1.47,1.47,0,0,0,0-2.67C383.63,220.15,351.45,220.16,351,220.39Zm-8.44,14.26a1.47,1.47,0,0,0-.15,2.57l.34.21h16.44c16,0,16.43,0,16.69-.14a1.51,1.51,0,0,0-.16-2.68C375.18,234.4,343,234.42,342.52,234.65Zm-8,14.26a1.54,1.54,0,0,0,0,2.66l.44.21,16.25,0c15.9,0,16.3,0,16.59-.19a1.52,1.52,0,0,0,0-2.67C367.27,248.66,335,248.66,334.47,248.91Zm-7.88,13.25a1.53,1.53,0,0,0,0,2.73c.33.13.82.15,16.7.13h16.35l.29-.25a1.54,1.54,0,0,0-.19-2.6C359.26,261.92,327.11,261.92,326.59,262.16Zm-7,13.32a1.49,1.49,0,0,0-.15,2.63l.37.21,16.33,0h16.32l.36-.19a1.47,1.47,0,0,0,.14-2.46l-.31-.27H336.19C321.43,275.36,319.77,275.36,319.55,275.48Z"/><path class="cls-4" d="M361.32,150.54a1.52,1.52,0,0,0-.24,2.58l.3.25,16.44,0c16.29,0,16.43,0,16.76-.13a1.54,1.54,0,0,0-.12-2.76c-.51-.22-32.68-.2-33.14,0m.5,16.63a1.51,1.51,0,0,0-.26,2.58l.31.25h16.42c16,0,16.45,0,16.75-.11a1.55,1.55,0,0,0-.08-2.78C394.45,166.91,362.26,166.94,361.82,167.17Zm2.32,16.13a1.52,1.52,0,0,0,0,2.71c.42.21,32.65.26,33.17.06a1.55,1.55,0,0,0,0-2.82C396.78,183.06,364.63,183.09,364.14,183.3Zm2.74,15.78a1.4,1.4,0,0,0,0,2.5l.43.23h32.56l.37-.18a1.5,1.5,0,0,0,0-2.59l-.37-.17H367.3Zm3.84,13.7a1.5,1.5,0,0,0,.06,2.74c.46.2,32.63.2,33.06,0a1.49,1.49,0,0,0,0-2.77C403.36,212.53,371.18,212.56,370.72,212.78Zm8.45,14.74a1.52,1.52,0,0,0-.49,2.28c.42.54-.76.51,17.27.5l16.42,0,.22-.18a1.56,1.56,0,0,0-.21-2.6C411.83,227.27,379.59,227.29,379.17,227.52ZM389,241.78a1.58,1.58,0,0,0-.5,2.27c.44.55-1.07.5,17.17.5h16.47l.27-.16a1.55,1.55,0,0,0-.18-2.61C421.82,241.53,389.4,241.53,389,241.78Zm6.64,13.72a1.52,1.52,0,0,0,0,2.74c.31.17.89.17,16.6.17h16.27l.35-.18a1.55,1.55,0,0,0,0-2.66l-.36-.2H412.22C397.61,255.37,395.88,255.39,395.66,255.5Zm7.54,13.76a1.53,1.53,0,0,0,0,2.74c.5.27,32.71.27,33.24,0a1.6,1.6,0,0,0,0-2.71C435.92,269.07,403.63,269,403.2,269.26Z"/><path class="cls-3" d="M309.77,177.28l11.94-.18c.3,0,.47-.11.47-.48v-7c0-.38-.08-.48-.47-.48H301.8c-.56,0-.76.29-.76.88v85.1c0,.66.2.83.76.83h19.91c.39,0,.47-.09.55-.47v-7c0-.39-.08-.58-.46-.58l-12-.39Zm139.88,70.43-11.84.26c-.3,0-.49.11-.49.57v6.92c0,.38.11.47.38.47h20c.59,0,.76-.17.76-.75V170.07c0-.76-.28-.95-.76-.95H437.81c-.38,0-.49.19-.57.59v7c0,.29.08.47.37.47l12,.39Z"/><path class="cls-3" d="M773.72,296.13v24.72a8.5,8.5,0,0,0,2.12,6.21,9.43,9.43,0,0,0,12,0,8.5,8.5,0,0,0,2.12-6.21V296.13H798v24.66a15.88,15.88,0,0,1-2.21,8.61,14,14,0,0,1-5.89,5.3,18.75,18.75,0,0,1-8.21,1.77,18.24,18.24,0,0,1-8.1-1.77,13.55,13.55,0,0,1-5.75-5.3,16.4,16.4,0,0,1-2.12-8.61V296.13Z"/><path class="cls-3" d="M810.86,335.18a12.28,12.28,0,0,1-4.89-3.8,9.74,9.74,0,0,1-2-5.33h8.07a4.42,4.42,0,0,0,1.81,3,6.27,6.27,0,0,0,3.92,1.2,6.08,6.08,0,0,0,3.57-.92,2.76,2.76,0,0,0,1.29-2.34,2.47,2.47,0,0,0-1.57-2.32,29.15,29.15,0,0,0-5-1.69,42.19,42.19,0,0,1-5.81-1.77,10.08,10.08,0,0,1-3.89-2.81,7.5,7.5,0,0,1-1.63-5.09,8.2,8.2,0,0,1,1.52-4.81,10.19,10.19,0,0,1,4.34-3.43,16.3,16.3,0,0,1,6.67-1.26c3.78,0,6.79.95,9,2.83a10.51,10.51,0,0,1,3.72,7.64h-7.67a4.1,4.1,0,0,0-1.57-3A5.8,5.8,0,0,0,817,310.2a5.91,5.91,0,0,0-3.34.8,2.56,2.56,0,0,0-1.18,2.24,2.65,2.65,0,0,0,1.6,2.43,25.67,25.67,0,0,0,5,1.69,42.19,42.19,0,0,1,5.67,1.77,10.08,10.08,0,0,1,3.86,2.83,7.79,7.79,0,0,1,1.69,5.07A8.41,8.41,0,0,1,828.8,332a10,10,0,0,1-4.35,3.4,18.23,18.23,0,0,1-13.59-.17Z"/><path class="cls-3" d="M837.44,299.25a4.71,4.71,0,0,1,0-6.7,5.29,5.29,0,0,1,7,0,4.71,4.71,0,0,1,0,6.7,5.29,5.29,0,0,1-7,0Zm7.47,5.11v31.71h-8V304.36Z"/><path class="cls-3" d="M879.53,307.48q3.48,3.58,3.49,10v18.6h-8V318.56a8.21,8.21,0,0,0-1.89-5.81,6.71,6.71,0,0,0-5.15-2,6.88,6.88,0,0,0-5.24,2,8.13,8.13,0,0,0-1.91,5.81v17.51h-8V304.36h8v3.95a11.1,11.1,0,0,1,4.09-3.23,12.68,12.68,0,0,1,5.46-1.17A12.24,12.24,0,0,1,879.53,307.48Z"/><path class="cls-3" d="M909.28,305.25a11.49,11.49,0,0,1,4.24,3.64v-4.53h8.07V336.3a17,17,0,0,1-1.78,7.87,13.25,13.25,0,0,1-5.32,5.49,17,17,0,0,1-8.58,2q-6.75,0-11.08-3.15a11.65,11.65,0,0,1-4.89-8.58h8a5.88,5.88,0,0,0,2.71,3.46,9.48,9.48,0,0,0,5.07,1.29,7.85,7.85,0,0,0,5.66-2.09q2.17-2.08,2.18-6.32v-4.92a12.16,12.16,0,0,1-4.27,3.71,12.61,12.61,0,0,1-6.2,1.49,13.63,13.63,0,0,1-7.33-2.06,14.27,14.27,0,0,1-5.23-5.81,18.57,18.57,0,0,1-1.92-8.61,18.31,18.31,0,0,1,1.92-8.52,13.7,13.7,0,0,1,12.56-7.73A13.34,13.34,0,0,1,909.28,305.25Zm3.09,10a8,8,0,0,0-3.09-3.2,8.18,8.18,0,0,0-4.17-1.12A8,8,0,0,0,901,312a8.22,8.22,0,0,0-3.07,3.17,10,10,0,0,0-1.17,5,10.3,10.3,0,0,0,1.17,5A8.54,8.54,0,0,0,901,328.4a7.91,7.91,0,0,0,4.1,1.14,8.27,8.27,0,0,0,4.17-1.11,8,8,0,0,0,3.09-3.21,11.47,11.47,0,0,0,0-10Z"/><path class="cls-3" d="M977.21,336.07h-8l-18.14-27.41v27.41h-8v-40h8l18.14,27.47V296.07h8Z"/><path class="cls-3" d="M1012.91,308.14a9.4,9.4,0,0,0-3.77-3.83,11.51,11.51,0,0,0-5.61-1.32,12.25,12.25,0,0,0-6.3,1.61,11,11,0,0,0-4.29,4.57A16.2,16.2,0,0,0,993,323a11.19,11.19,0,0,0,4.38,4.58,12.89,12.89,0,0,0,6.52,1.6,11.34,11.34,0,0,0,7.5-2.43,11.62,11.62,0,0,0,3.83-6.78h-13.73v-6.13h21.63v7a18.76,18.76,0,0,1-3.44,7.72,19.24,19.24,0,0,1-6.78,5.69,19.79,19.79,0,0,1-9.3,2.15,21.11,21.11,0,0,1-10.44-2.6,18.93,18.93,0,0,1-7.32-7.24,22.23,22.23,0,0,1,0-21.09,18.87,18.87,0,0,1,7.32-7.27,22.32,22.32,0,0,1,22.12.69,16.85,16.85,0,0,1,6.87,9.24Z"/><path class="cls-3" d="M1035.31,335a12.44,12.44,0,0,1-5.29-4.12,10.85,10.85,0,0,1-2-6.35h8.58a5.56,5.56,0,0,0,1.75,3.89,6.2,6.2,0,0,0,4.32,1.43,6.59,6.59,0,0,0,4.4-1.35,4.37,4.37,0,0,0,1.61-3.52,4.07,4.07,0,0,0-1.09-2.91,7.59,7.59,0,0,0-2.72-1.81,47.08,47.08,0,0,0-4.49-1.46,46.4,46.4,0,0,1-6.32-2.26,10.91,10.91,0,0,1-4.18-3.37,9.59,9.59,0,0,1-1.75-6,10.76,10.76,0,0,1,1.78-6.18,11.25,11.25,0,0,1,5-4,18,18,0,0,1,7.32-1.41q6.18,0,10,3a11.14,11.14,0,0,1,4.27,8.38h-8.82a4.53,4.53,0,0,0-1.74-3.4,6.57,6.57,0,0,0-4.32-1.35,5.55,5.55,0,0,0-3.75,1.2,4.35,4.35,0,0,0-1.4,3.49,3.62,3.62,0,0,0,1.06,2.67,7.93,7.93,0,0,0,2.63,1.71c1,.44,2.52.94,4.43,1.52a45.6,45.6,0,0,1,6.36,2.29,11.47,11.47,0,0,1,4.23,3.43,9.56,9.56,0,0,1,1.77,6,11.25,11.25,0,0,1-1.66,5.95,11.67,11.67,0,0,1-4.86,4.38,16.68,16.68,0,0,1-7.61,1.63A19.07,19.07,0,0,1,1035.31,335Z"/><rect class="cls-3" x="301.04" y="314.86" width="410.32" height="3.45"/><path class="cls-3" d="M1105.33,132.48a22,22,0,0,1,8.63,8.63,25.62,25.62,0,0,1,3.08,12.63A25.05,25.05,0,0,1,1114,166.2a22.43,22.43,0,0,1-8.63,8.63,26.51,26.51,0,0,1-25,0,22.73,22.73,0,0,1-8.69-8.63,24.57,24.57,0,0,1-3.14-12.46,25.13,25.13,0,0,1,3.14-12.63,22.25,22.25,0,0,1,8.69-8.63,27,27,0,0,1,25,0Zm.68,34.58q5-5.09,5-13.32t-5-13.43q-5-5.09-13.2-5.08t-13.14,5.08q-4.92,5.08-4.92,13.43t4.92,13.37q4.9,5,13.14,5T1106,167.06Zm-3.65-13.55a7.33,7.33,0,0,1-3.38,2.75l6,9.37H1096l-4.91-8.57h-.69v8.57h-7.66V141.17h12a9,9,0,0,1,6.4,2.23,7.51,7.51,0,0,1,2.4,5.77A7.72,7.72,0,0,1,1102.36,153.51Zm-12.06-2.17H1094a2.13,2.13,0,0,0,1.38-.46,1.64,1.64,0,0,0,.57-1.37q0-1.71-2-1.71h-3.65Z"/><text class="cls-5" transform="translate(173.85 546.75)">Precision Diagnostics in<tspan x="99.41" y="123">Infectious Diseases</tspan></text></svg>