<?xml version="1.0" encoding="UTF-8"?>
<svg id="Layer_1" data-name="Layer 1" xmlns="http://www.w3.org/2000/svg" viewBox="0 0 1411.24 414.41">
  <defs>
    <style>
      .cls-1 {
        fill: #4a73b2;
      }

      .cls-2 {
        fill: #4972b2;
      }

      .cls-3 {
        fill: #4f77b4;
      }

      .cls-4 {
        fill: #4670b0;
      }

      .cls-5 {
        fill: #fcfcfd;
      }

      .cls-6 {
        fill: #2ab05b;
      }

      .cls-7 {
        fill: #597fb9;
      }

      .cls-8 {
        fill: #2ab05a;
      }

      .cls-9 {
        fill: #34b462;
      }

      .cls-10 {
        fill: #537ab6;
      }

      .cls-11 {
        fill: #4871b1;
      }

      .cls-12 {
        fill: #547ab6;
      }

      .cls-13 {
        fill: #4b74b2;
      }

      .cls-14 {
        fill: #4770b1;
      }

      .cls-15 {
        fill: #fefefe;
      }

      .cls-16 {
        fill: #3bb668;
      }

      .cls-17 {
        fill: #557cb7;
      }

      .cls-18 {
        fill: #4e76b4;
      }

      .cls-19 {
        fill: #5d82ba;
      }

      .cls-20 {
        fill: #37b564;
      }

      .cls-21 {
        fill: #32b361;
      }

      .cls-22 {
        fill: #4b73b2;
      }

      .cls-23 {
        fill: #5078b5;
      }

      .cls-24 {
        fill: #fcfdfd;
      }
    </style>
  </defs>
  <path class="cls-15" d="M1195.46,43.34v346.01H120.68V43.34h1074.79ZM690.69,136.95v-18.03c0-1.86,2.54-6.6,3.82-8.21,7.79-9.78,20.65-7.37,30.19-1.67.58.17.81-.17,1.14-.54.36-.4,4.96-8.94,5.11-9.48.25-.88.57-1.69,0-2.56-16.98-11.66-42.82-8.49-52.39,10.97-1.01,2.05-3.69,9.59-3.69,11.5v18.03h-13.93v11.7l.95.95h12.98v89.82h15.83v-89.82h29.45l.95-.95v-11.7h-30.4ZM468.38,99h-15.83v15.18h15.83v-15.18ZM1132.76,105.96h-17.1l.59,3.52,5.74.28v19.29c1.03,1.43,2.89.9,4.43.95v-20.24h6.34s0-3.8,0-3.8ZM1135.93,105.96v23.09c1.03,1.43,2.89.9,4.43.95v-14.55l6.4,13.53,1.53,1.06,2.48-1.35,6.06-13.24v13.6c1.03,1.43,2.89.9,4.43.95v-24.04l-5,.07-7.04,17c-2.95-1.67-7-16.14-8.33-16.97-.85-.53-3.72.14-4.97-.1ZM252.73,114.81h40.53c1.3,0,2.39-3.97-3.14-4.46-8.78-.78-25.41-.72-34.22.04-.87.07-3.78.49-4.18,1.02l-.45,1.72c.08.42,1.16,1.59,1.45,1.68ZM293.26,119.88h-40.53l-.92,3.77c1.4-.05,2.72.54,4.1.65,8.96.7,26.06.91,34.86.04,3.87-.38,4.56-3.84,2.5-4.46ZM253.36,135.06h40.53c1.07,0,2.44-3.98-2.5-4.46-7.33-.72-29.84-.99-36.73.08-3.51.54-3.63,3.74-1.31,4.39ZM190.34,143.91h14.25c1.46-1.04,1.25-9.34.67-10.16l-.76-.5-25.56.54v104.69l.95.95h24.7l.95-.95v-9.17l-15.2-.63v-84.76ZM539.32,154.67v-20.56l-.95-.95h-14.57l-.95.95v105.32h16.47v-60.41c0-4.91,5.53-15.78,8.89-19.59,13.31-15.08,44.34-15.72,53.09,4.5.69,1.58,2.63,7.41,2.63,8.76v66.74h16.47v-69.9c0-38.52-52.79-47.84-75.35-22.75l-5.72,7.89ZM842.69,192.62v-14.87c0-1.8-1.41-7.33-1.95-9.44-12.78-50.74-86.94-45.26-98.33,3.54-11.21,48.04,31.74,82.47,76.43,63.06,4.19-1.82,14.45-7.98,16.91-11.59.45-.67.79-.67.32-1.59-.25-.48-6.94-7.16-7.62-7.63-.56-.38-.86-.91-1.6-.32-23.81,23.22-66.08,14.45-70.31-21.15h86.13ZM1019.39,155.3v-21.51h-15.83v105.64h15.83v-59.78c0-2.13,3.18-11.13,4.32-13.39,13.56-26.97,60.91-23.49,60.91,10.23v62.94h15.83v-69.9c0-37.65-49.51-47.02-73.49-24.7l-7.57,10.46ZM370.85,133.79h-25.97v9.17l.95.95h14.25v84.45l-.95.95h-14.25v10.12h25.97v-105.64ZM468.38,133.79h-15.83v105.64h15.83v-105.64ZM942.13,133.79c-7.81,11.64-15.71,23.74-24.18,34.99-.68.9-2.93,4.5-3.99,4.23l-27.88-39.22h-17.42l34.81,50.92-37.98,54.72h17.42l31.97-43.01,29.14,43.01h18.37l-37.3-54.18,34.76-51.46h-17.73ZM251.78,144.55h41.48c1.26,0,1.26-3.8,0-3.8h-40.53c-.17,0-1.37,1.24-1.45,1.68l.5,2.12ZM255.9,154.67h40.53c1.84,0,1.84-4.43,0-4.43h-39.9c-.17,0-1.48.65-1.61,1.06l.98,3.37ZM290.1,159.73h-40.53c-1.07,0-2.44,3.98,2.5,4.46,11.53,1.13,24.99-.87,36.74-.1l2.64-1.81-.34-1.63c-.36-.21-.73-.86-1-.94ZM259.7,173.64h40.53c1.18,0,2.1-3.77-1.94-4.39-7.05-1.08-28.56-.76-36.09-.07-4.15.38-5.67,3.57-2.5,4.46ZM286.93,178.07h-39.9c-1.84,0-1.84,4.43,0,4.43h39.9c.23,0,1.02-.64,1.48-.74v-2.95c-.49-.12-1.14-.68-1.48-.74ZM304.66,186.29h-40.53c-.83,0-2.08,2.44-.99,3.38.49.62,2.14.88,2.96.98,8.19.99,27.05.85,35.43.11,1.89-.17,4.37-.42,4.13-2.87l-1-1.59ZM240.06,199.58h40.53l.65-.61c.73-1.4.45-3.04-1.29-3.18-9.89-.41-19.87-1.1-29.8-.66-1.53.07-10.02.65-10.45.95-1.09.75-.75,3.18.35,3.51ZM274.26,204.01c-1.54.63-1.1,4.43,0,4.43h40.53c1.3,0,1.3-4.43,0-4.43h-40.53ZM228.98,216.66h41.48c1.26,0,1.26-3.8,0-3.8h-40.53c-.17,0-1.37,1.24-1.45,1.68l.5,2.12ZM286.3,225.51h40.53l.65-.61c.73-1.4.45-3.04-1.29-3.18-8.49.1-16.86-.87-25.36-.66-1.8.04-3.3.59-5.01.69-2.51.15-7.47-.56-9.43.07-1.64.53-1.3,3.34-.1,3.7ZM220.43,229.94c-2.27.77-1.47,4.43,0,4.43h39.9c1.84,0,1.84-4.43,0-4.43h-39.9ZM294.53,238.16c-2.27.77-1.47,4.43,0,4.43h39.9c1.44,0,2.3-4.43.63-4.43h-40.53ZM210.3,246.39c-1.52.62-1.04,3.8,0,3.8h40.53c1.26,0,1.26-3.8,0-3.8h-40.53ZM303.4,259.04h40.53l.95-3.79c-2.04.05-3.94-.56-5.99-.67-8.23-.44-25.23-1.02-32.9.09-.81.12-2.86.58-3.26,1.17l-.23,2.18.89,1.02ZM202.06,262.2c-2.27.77-1.47,4.43,0,4.43h39.9c1.84,0,1.84-4.43,0-4.43h-39.9ZM834.27,281.94c-7.09,1.61-5.19,13.54,3.38,11.63,7.39-1.65,5.3-13.6-3.38-11.63ZM1056.13,302.69c-3.53-17.19-28.73-20.1-40.21-8.85-20.54,20.13,4.47,55.07,30.5,39.95,3.11-1.81,10.98-9.67,10.98-13.07v-11.07h-26.6v7.59h16.47c-1.4,12.71-19.74,14.32-25.88,4.02-8.2-13.76,6.22-31.91,20.14-22.65,1.24.82,3.24,4.08,3.51,4.08h11.08ZM1097.93,301.42c-.17-21.02-38.79-18.97-34.06,3.97,2.16,10.46,19.91,9.33,23.59,14.39,4.33,5.94-4.53,11.63-10.41,7.87-2.17-1.39-2.05-3.53-3.51-5.35h-10.45c.42,19.4,35.12,19.93,35.93.78.54-12.67-11.89-13.02-20.28-16.74-14-6.21,5.53-18.27,8.41-4.92h10.77ZM773.66,287.5v33.84c0,.75-2.62,4.11-3.48,4.75-5.68,4.24-14.66,1.5-15.52-6.01-1.08-9.42,1.13-21.04.03-30.4-.11-.92-.08-1.63-.98-2.18h-9.18v35.74c0,.94,3.29,6.83,4.17,7.86,5.4,6.37,17.74,7.46,24.97,4.16,3.83-1.75,10.14-8.32,10.14-12.65v-35.11h-10.13ZM969.68,287.5h-9.82v49.34h10.13v-32.89l21.53,32.89h9.82c.9-.56.87-1.26.98-2.18,1.63-13.84-1.31-30.79,0-44.98l-.98-2.18h-9.82v32.26l-21.85-32.26ZM823.06,310.28c-.59-17.87-33.39-17.92-31.05.97,1.03,8.32,12.33,8.36,18.19,10.92,9.12,3.99-2.19,10.37-7.38,5.47-.74-.7-1.72-3.45-2.25-3.45h-9.82c1.54,17.41,34.69,18.19,32.32-.97-1.13-9.14-14-8.31-19.47-11.54-8.34-4.92,9.48-11.05,9.33-1.41h10.13ZM887.02,336.84v-28.15c0-1.03-2.34-5.24-3.18-6.31-5.58-7.03-17.42-6.79-23.41-.33v-4.43h-10.14v39.22h10.13v-24.35c0-3.95,5.51-6.87,9.16-6.67,4.34.24,7.94,4.26,7.94,8.57v22.46h9.5ZM905.07,341.27h-9.82c2.54,18.31,32.84,19.56,38.04,2.25,2.02-6.72,2.16-36.07,1.26-43.71-.11-.92-.08-1.63-.98-2.18h-9.18v5.06c-6.89-7.32-18.87-7.73-25.66,0-11.94,13.6-1.55,40.2,18.05,33.84,2.79-.91,4.87-3.26,7.6-4.1.7,8.87-3.38,16.97-13.44,13.73-3.49-1.13-5.49-4.76-5.88-4.88ZM830.66,336.84h9.82c.9-.56.87-1.26.98-2.18.84-7.13.84-27.72,0-34.86-.11-.92-.08-1.63-.98-2.18h-9.82v39.22ZM678.65,309.01H178.94v7.59h499.71v-7.59Z"/>
  <path class="cls-11" d="M842.69,192.62h-86.13c4.23,35.6,46.49,44.37,70.31,21.15.74-.6,1.04-.07,1.6.32.68.47,7.37,7.15,7.62,7.63.48.92.14.93-.32,1.59-2.46,3.61-12.72,9.78-16.91,11.59-44.7,19.42-87.64-15.02-76.43-63.06,11.39-48.8,85.55-54.28,98.33-3.54.53,2.11,1.95,7.64,1.95,9.44v14.87ZM828.76,179.97c-2.02-45.64-68.96-44.23-72.2,0h72.2Z"/>
  <path class="cls-13" d="M539.32,154.67l5.72-7.89c22.56-25.09,75.35-15.76,75.35,22.75v69.9h-16.47v-66.74c0-1.36-1.94-7.18-2.63-8.76-8.75-20.22-39.78-19.58-53.09-4.5-3.36,3.81-8.89,14.68-8.89,19.59v60.41h-16.47v-105.32l.95-.95h14.57l.95.95v20.56Z"/>
  <path class="cls-11" d="M1019.39,155.3l7.57-10.46c23.99-22.32,73.49-12.95,73.49,24.7v69.9h-15.83v-62.94c0-33.72-47.36-37.2-60.91-10.23-1.14,2.27-4.32,11.26-4.32,13.39v59.78h-15.83v-105.64h15.83v21.51Z"/>
  <rect class="cls-4" x="178.94" y="309.01" width="499.71" height="7.59"/>
  <path class="cls-11" d="M942.13,133.79h17.73l-34.76,51.46,37.3,54.18h-18.37l-29.14-43.01-31.97,43.01h-17.42l37.98-54.72-34.81-50.92h17.42l27.88,39.22c1.07.27,3.32-3.33,3.99-4.23,8.48-11.25,16.38-23.35,24.18-34.99Z"/>
  <path class="cls-2" d="M690.69,136.95h30.4v11.7l-.95.95h-29.45v89.82h-15.83v-89.82h-12.98l-.95-.95v-11.7h13.93v-18.03c0-1.91,2.68-9.45,3.69-11.5,9.57-19.46,35.41-22.62,52.39-10.97.58.87.26,1.67,0,2.56-.15.54-4.75,9.08-5.11,9.48-.34.37-.57.71-1.14.54-9.54-5.7-22.4-8.11-30.19,1.67-1.28,1.61-3.82,6.35-3.82,8.21v18.03Z"/>
  <rect class="cls-11" x="452.55" y="133.79" width="15.83" height="105.64"/>
  <path class="cls-3" d="M190.34,143.91v84.76l15.2.63v9.17l-.95.95h-24.7l-.95-.95v-104.69l25.56-.54.76.5c.57.82.78,9.12-.67,10.16h-14.25Z"/>
  <path class="cls-1" d="M905.07,341.27c.39.12,2.38,3.75,5.88,4.88,10.06,3.24,14.13-4.86,13.44-13.73-2.73.84-4.81,3.2-7.6,4.1-19.6,6.36-29.99-20.25-18.05-33.84,6.79-7.73,18.77-7.31,25.65,0v-5.06h9.19c.9.56.87,1.26.98,2.18.9,7.64.75,37-1.26,43.71-5.2,17.31-35.5,16.06-38.04-2.25h9.82ZM912.84,305.97c-12.92,1.78-10.97,22.92,1.67,22.59,13.6-.35,12.23-24.51-1.67-22.59Z"/>
  <polygon class="cls-14" points="370.85 133.79 370.85 239.43 344.88 239.43 344.88 229.31 359.13 229.31 360.08 228.36 360.08 143.91 345.83 143.91 344.88 142.96 344.88 133.79 370.85 133.79"/>
  <path class="cls-22" d="M969.68,287.5l21.85,32.26v-32.26h9.82l.98,2.18c-1.31,14.18,1.63,31.14,0,44.98-.11.92-.08,1.63-.98,2.18h-9.82l-21.53-32.89v32.89h-10.13v-49.34h9.82Z"/>
  <path class="cls-2" d="M1056.13,302.69h-11.08c-.27,0-2.28-3.26-3.51-4.08-13.92-9.26-28.34,8.89-20.14,22.65,6.13,10.3,24.47,8.69,25.88-4.02h-16.47v-7.59h26.6v11.07c0,3.4-7.87,11.27-10.98,13.07-26.03,15.12-51.04-19.82-30.5-39.95,11.48-11.25,36.68-8.34,40.21,8.85Z"/>
  <path class="cls-1" d="M773.66,287.5h10.13v35.11c0,4.33-6.31,10.9-10.14,12.65-7.22,3.3-19.56,2.21-24.97-4.16-.87-1.03-4.17-6.92-4.17-7.86v-35.74h9.18c.9.56.87,1.26.98,2.18,1.1,9.36-1.11,20.97-.03,30.4.86,7.51,9.84,10.25,15.52,6.01.86-.64,3.48-4,3.48-4.75v-33.84Z"/>
  <path class="cls-1" d="M1097.93,301.42h-10.77c-2.88-13.35-22.41-1.29-8.41,4.92,8.39,3.72,20.82,4.06,20.28,16.74-.82,19.15-35.51,18.61-35.93-.78h10.45c1.46,1.82,1.34,3.97,3.51,5.35,5.88,3.76,14.74-1.93,10.41-7.87-3.68-5.06-21.44-3.93-23.59-14.39-4.73-22.93,33.89-24.99,34.06-3.97Z"/>
  <path class="cls-1" d="M887.02,336.84h-9.5v-22.46c0-4.31-3.6-8.33-7.94-8.57-3.66-.2-9.16,2.72-9.16,6.67v24.35h-10.13v-39.22h10.13v4.43c6-6.45,17.84-6.7,23.42.33.85,1.07,3.18,5.28,3.18,6.31v28.15Z"/>
  <path class="cls-1" d="M823.06,310.28h-10.13c.15-9.64-17.67-3.51-9.33,1.41,5.47,3.23,18.34,2.4,19.47,11.54,2.38,19.16-30.78,18.37-32.32.97h9.82c.53,0,1.5,2.75,2.25,3.45,5.19,4.9,16.5-1.48,7.38-5.47-5.86-2.57-17.16-2.61-18.19-10.92-2.34-18.89,30.46-18.83,31.05-.97Z"/>
  <path class="cls-18" d="M830.66,336.84v-39.22h9.82c.9.56.87,1.26.98,2.18.84,7.13.84,27.72,0,34.86-.11.92-.08,1.63-.98,2.18h-9.82Z"/>
  <path class="cls-10" d="M1135.93,105.96c1.24.24,4.12-.42,4.97.1,1.33.83,5.38,15.3,8.33,16.97l7.04-17,5-.07v24.04c-1.54-.05-3.41.48-4.43-.95v-13.6l-6.06,13.24-2.48,1.35-1.53-1.06-6.4-13.53v14.55c-1.54-.05-3.41.48-4.43-.95v-23.09Z"/>
  <rect class="cls-2" x="452.55" y="99" width="15.83" height="15.18"/>
  <path class="cls-9" d="M255.9,154.67l-.98-3.37c.14-.41,1.45-1.06,1.61-1.06h39.9c1.84,0,1.84,4.43,0,4.43h-40.53Z"/>
  <path class="cls-19" d="M286.93,178.07c.34.06.99.62,1.48.74v2.95c-.45.1-1.25.74-1.48.74h-39.9c-1.84,0-1.84-4.43,0-4.43h39.9Z"/>
  <path class="cls-20" d="M294.53,238.16h40.53c1.67,0,.81,4.43-.63,4.43h-39.9c-1.47,0-2.27-3.66,0-4.43Z"/>
  <path class="cls-16" d="M274.26,204.01h40.53c1.3,0,1.3,4.43,0,4.43h-40.53c-1.1,0-1.54-3.8,0-4.43Z"/>
  <path class="cls-21" d="M253.36,135.06c-2.32-.65-2.2-3.84,1.31-4.39,6.89-1.07,29.4-.8,36.73-.08,4.94.49,3.57,4.46,2.5,4.46h-40.53Z"/>
  <path class="cls-17" d="M202.06,262.2h39.9c1.84,0,1.84,4.43,0,4.43h-39.9c-1.47,0-2.27-3.66,0-4.43Z"/>
  <path class="cls-7" d="M220.43,229.94h39.9c1.84,0,1.84,4.43,0,4.43h-39.9c-1.47,0-2.27-3.66,0-4.43Z"/>
  <path class="cls-8" d="M259.7,173.64c-3.17-.88-1.64-4.08,2.5-4.46,7.53-.68,29.04-1.01,36.09.07,4.04.62,3.13,4.39,1.94,4.39h-40.53Z"/>
  <path class="cls-3" d="M290.1,159.73c.27.07.64.73,1,.94l.34,1.63-2.64,1.81c-11.74-.77-25.21,1.23-36.74.1-4.94-.49-3.57-4.46-2.5-4.46h40.53Z"/>
  <path class="cls-8" d="M304.66,186.29l1,1.59c.24,2.45-2.24,2.7-4.13,2.87-8.38.74-27.24.88-35.43-.11-.82-.1-2.47-.35-2.96-.98-1.09-.94.17-3.38.99-3.38h40.53Z"/>
  <path class="cls-8" d="M252.73,114.81c-.29-.08-1.37-1.26-1.45-1.68l.45-1.72c.4-.53,3.31-.94,4.18-1.02,8.81-.76,25.44-.82,34.22-.04,5.53.49,4.43,4.46,3.14,4.46h-40.53Z"/>
  <path class="cls-23" d="M293.26,119.88c2.06.63,1.37,4.08-2.5,4.46-8.8.87-25.9.65-34.86-.04-1.37-.11-2.7-.7-4.1-.65l.92-3.77h40.53Z"/>
  <path class="cls-6" d="M303.4,259.04l-.89-1.02.23-2.18c.4-.59,2.45-1.05,3.26-1.17,7.67-1.11,24.67-.53,32.9-.09,2.05.11,3.94.72,5.99.67l-.95,3.79h-40.53Z"/>
  <path class="cls-3" d="M240.06,199.58c-1.1-.33-1.43-2.76-.35-3.51.43-.3,8.92-.88,10.45-.95,9.92-.44,19.9.26,29.8.66,1.74.15,2.01,1.78,1.29,3.18l-.65.61h-40.53Z"/>
  <path class="cls-6" d="M286.3,225.51c-1.21-.36-1.54-3.17.1-3.7,1.96-.63,6.92.08,9.43-.07,1.71-.1,3.21-.64,5.01-.69,8.5-.21,16.88.77,25.36.66,1.74.15,2.02,1.78,1.29,3.18l-.65.61h-40.53Z"/>
  <path class="cls-18" d="M228.98,216.66l-.5-2.12c.08-.44,1.28-1.68,1.45-1.68h40.53c1.26,0,1.26,3.8,0,3.8h-41.48Z"/>
  <path class="cls-18" d="M251.78,144.55l-.5-2.12c.08-.44,1.28-1.68,1.45-1.68h40.53c1.26,0,1.26,3.8,0,3.8h-41.48Z"/>
  <path class="cls-2" d="M210.3,246.39h40.53c1.26,0,1.26,3.8,0,3.8h-40.53c-1.04,0-1.52-3.18,0-3.8Z"/>
  <path class="cls-12" d="M1132.76,105.96v3.8s-6.33,0-6.33,0v20.24c-1.54-.05-3.41.48-4.43-.95v-19.29l-5.74-.28-.59-3.52h17.1Z"/>
  <path class="cls-13" d="M834.27,281.94c8.68-1.97,10.77,9.98,3.38,11.63-8.57,1.92-10.47-10.02-3.38-11.63Z"/>
  <path class="cls-24" d="M828.76,179.97h-72.2c3.24-44.23,70.18-45.64,72.2,0Z"/>
  <path class="cls-5" d="M912.84,305.97c13.9-1.91,15.27,22.24,1.67,22.59-12.64.33-14.59-20.81-1.67-22.59Z"/>
</svg>