<?xml version="1.0" encoding="UTF-8"?>
<svg version="1.1" xmlns="http://www.w3.org/2000/svg" width="1668" height="1667">
<path d="M0 0 C5.5597889 4.90015293 9.31171016 10.69008558 10.28038692 18.16308665 C10.38959017 20.5162929 10.40967813 22.85313406 10.39440918 25.20883179 C10.40050028 26.10290949 10.40659139 26.9969872 10.41286707 27.91815817 C10.4294383 30.89657919 10.42472965 33.87456994 10.41992188 36.85302734 C10.42726559 38.9955947 10.4358527 41.13815811 10.44558716 43.28071594 C10.46777949 49.08861479 10.47073498 54.89637166 10.46883965 60.70430708 C10.46871984 65.55762476 10.47728794 70.41091246 10.48561716 75.26422179 C10.50484291 86.71653283 10.50773799 98.16877099 10.50097656 109.62109375 C10.49433567 121.42500066 10.51720426 133.2285951 10.55429029 145.03243864 C10.58500365 155.17706424 10.59634555 165.3215894 10.59245348 175.46626055 C10.59038776 181.52070762 10.59583838 187.57491149 10.62034607 193.62931442 C10.64263749 199.32416267 10.64071495 205.01850337 10.62041855 210.71335411 C10.61701284 212.79903878 10.62207856 214.88475778 10.63640213 216.97039604 C10.7176333 229.67882292 10.40395735 238.85996396 1.8125 248.875 C-5.38305462 255.47357297 -14.51058177 256.61534054 -23.875 257.4375 C-66.3777025 261.89872752 -106.90847055 282.48714655 -134.08227539 315.90454102 C-153.65026363 340.51363661 -167.03612814 369.65775742 -171 401 C-171.11085938 401.8146875 -171.22171875 402.629375 -171.3359375 403.46875 C-176.32357767 447.14430175 -162.9321645 490.73498539 -136.0625 525.1875 C-134.72355316 526.8043919 -133.36851385 528.40805531 -132 530 C-131.19175781 530.94230469 -130.38351562 531.88460937 -129.55078125 532.85546875 C-102.96347009 563.16826451 -62.85852507 583.98762921 -22.43457031 586.87109375 C11.55390575 588.67072425 42.06486985 583.20943392 72.1796875 567.20703125 C86.4913451 559.61639012 100.05501099 552.55110336 116 549 C116.96292969 548.75378906 117.92585938 548.50757813 118.91796875 548.25390625 C152.19585971 540.77282999 185.33816093 550.12261206 214.11108398 566.70727539 C248.10609897 586.13600012 289.78477537 592.14317706 328 584 C328.78632812 583.83371094 329.57265625 583.66742187 330.3828125 583.49609375 C361.20580075 576.71905236 388.54429065 560.95037693 411 539 C411.69996094 538.36191406 412.39992188 537.72382812 413.12109375 537.06640625 C424.85621942 526.1119958 433.75722542 512.20989647 441 498 C441.52352051 496.99549805 441.52352051 496.99549805 442.05761719 495.97070312 C461.79016855 457.81504161 464.46852412 412.09699605 451.78515625 371.296875 C437.94601741 329.10114577 408.43996615 294.41811185 369 274 C349.02554735 264.18066239 327.98042494 259.12951031 305.984375 256.51953125 C295.75412162 255.2461912 289.6008923 253.32332203 282.640625 245.5859375 C275.88904106 234.94415519 276.42953868 224.50507423 276.48242188 212.30297852 C276.47699608 210.20114661 276.46987085 208.09931851 276.46118164 205.99749756 C276.44299886 200.30942055 276.44999538 194.62163486 276.46269798 188.93355298 C276.4728531 182.96895412 276.46342521 177.00437954 276.45715332 171.03977966 C276.44988368 161.02378887 276.45944616 151.0079162 276.47851562 140.99194336 C276.50027701 129.42889132 276.49323543 117.86612151 276.47121 106.30307633 C276.4530295 96.35881155 276.45051084 86.41463149 276.46096468 76.47035545 C276.46718578 70.53835709 276.46807343 64.60649116 276.45481873 58.67450142 C276.44322254 53.09538764 276.45135492 47.51663591 276.47439575 41.93756104 C276.47966297 39.89584388 276.47820332 37.85409601 276.46934509 35.81239128 C276.37921265 12.91876536 276.37921265 12.91876536 283.25 3.625 C289.82463868 -2.65079147 296.57384952 -5.92655828 305.734375 -6.03125 C314.09768343 -5.56918876 320.94148704 -2.89476937 327 3 C332.31916985 10.06645529 334.31430278 17.00536812 334.24050903 25.86509705 C334.24307231 27.00725429 334.24307231 27.00725429 334.24568737 28.17248541 C334.24896467 30.70745453 334.23800782 33.24215514 334.22705078 35.77709961 C334.22648629 37.60076898 334.22680398 39.4244388 334.22793579 41.24810791 C334.22850881 46.18765851 334.21676269 51.12711167 334.20278788 56.06663966 C334.19027207 61.23294373 334.18910934 66.39925012 334.18673706 71.56556702 C334.1805248 81.34370397 334.16411739 91.12179613 334.14403808 100.89991337 C334.12167121 112.03407766 334.11068366 123.1682441 334.10064721 134.30242527 C334.07975096 157.20164167 334.04457988 180.10081832 334 203 C334.6889567 203.06595336 335.3779134 203.13190672 336.08774757 203.19985867 C337.44153039 203.33180425 337.44153039 203.33180425 338.82266235 203.46641541 C339.71786905 203.55299376 340.61307575 203.63957212 341.53540993 203.72877407 C345.94285092 204.213809 350.1130395 205.37617312 354.375 206.5625 C355.32616699 206.82643555 356.27733398 207.09037109 357.25732422 207.36230469 C381.3222895 214.26308207 403.6947009 225.42691356 424 240 C424.60424805 240.433125 425.20849609 240.86625 425.83105469 241.3125 C434.47651863 247.58229821 442.30726119 254.61269773 450 262 C450.51449707 262.48726563 451.02899414 262.97453125 451.55908203 263.4765625 C459.5449944 271.05950436 466.42171757 279.17851105 473 288 C473.42522949 288.55913086 473.85045898 289.11826172 474.28857422 289.69433594 C480.55114642 297.94330647 485.76298044 306.56247898 490.67578125 315.67578125 C491.05613525 316.38017334 491.43648926 317.08456543 491.82836914 317.81030273 C492.64573058 319.33789488 493.45131876 320.87181963 494.24780273 322.41040039 C496.51824437 326.69813794 498.4113114 329.94462562 502.4375 332.8125 C503.32050781 333.47894531 504.20351562 334.14539063 505.11328125 334.83203125 C506.06589844 335.54746094 507.01851562 336.26289063 508 337 C517.39535497 344.48358261 525.9529491 352.76448455 534.4375 361.25 C534.95773743 361.76933105 535.47797485 362.28866211 536.01397705 362.82373047 C541.89183474 368.70274764 547.618734 374.65724756 553 381 C553.845625 381.96421875 554.69125 382.9284375 555.5625 383.921875 C573.88658706 405.18251447 590.17749667 428.57311912 604 453 C604.65548828 454.15290527 604.65548828 454.15290527 605.32421875 455.32910156 C649.67786893 533.79860733 669.65341167 620.3921439 672 731 C671.97317139 732.47412354 671.97317139 732.47412354 671.94580078 733.97802734 C670.14602611 818.12077763 650.71130912 899.51844025 558.48632812 1053.24267578 C557.37457733 1054.55712752 556.29493735 1055.8988575 555.23242188 1057.25341797 C548.79392329 1065.40509321 541.61329448 1072.69156963 534.25341797 1080.00732422 C532.1288432 1082.1211762 530.01517939 1084.24551542 527.90234375 1086.37109375 C511.81031628 1102.48102585 511.81031628 1102.48102585 502.75561523 1108.48925781 C496.70930189 1112.54047939 494.24627513 1117.37037759 491.1875 1123.875 C486.19796091 1133.91651657 480.75582632 1143.06087407 474 1152 C473.53609863 1152.62326172 473.07219727 1153.24652344 472.59423828 1153.88867188 C459.56034431 1171.23169457 443.7945761 1187.51994619 426 1200 C425.41089844 1200.41749512 424.82179688 1200.83499023 424.21484375 1201.26513672 C405.07679039 1214.71967582 384.50694031 1225.13385481 362.25 1232.375 C361.26974854 1232.69670166 360.28949707 1233.01840332 359.27954102 1233.34985352 C353.44024921 1235.1771379 347.61622184 1236.51901899 341.60449219 1237.60791016 C340.86991791 1237.74320633 340.13534363 1237.8785025 339.37850952 1238.01789856 C337.58611439 1238.34767375 335.79311785 1238.67417741 334 1239 C334.00553076 1240.41633382 334.00553076 1240.41633382 334.01117325 1241.86128044 C334.10004396 1264.85578004 334.16573741 1287.85025732 334.20724869 1310.8448925 C334.22785776 1321.96501654 334.25594679 1333.085027 334.30175781 1344.20507812 C334.34167616 1353.89939232 334.36744484 1363.59362424 334.37635398 1373.28801835 C334.38156024 1378.4192671 334.39376247 1383.55028051 334.42292023 1388.6814537 C334.45016824 1393.51594175 334.45842605 1398.35009859 334.45243073 1403.18465614 C334.45352677 1404.95428711 334.46142455 1406.72392971 334.4768219 1408.49349403 C334.57891718 1420.83749169 333.74595251 1430.92769571 324.93359375 1440.30859375 C318.50671386 1445.93049071 311.27136503 1447.37725638 302.9453125 1447.27734375 C295.15091113 1446.54338818 288.1225464 1442.91764902 283 1437 C277.91132366 1429.51898491 276.85078676 1423.3275901 276.85282898 1414.34848022 C276.84731395 1413.04289357 276.84731395 1413.04289357 276.8416875 1411.71093142 C276.83067565 1408.79474906 276.82681106 1405.87860236 276.82299805 1402.96240234 C276.8167315 1400.87116381 276.81008453 1398.77992639 276.80308533 1396.68869019 C276.78206494 1389.82111381 276.77168469 1382.95353727 276.76171875 1376.0859375 C276.75767041 1373.7196209 276.75355347 1371.35330443 276.74936867 1368.98698807 C276.7303213 1357.86883585 276.71608941 1346.75069025 276.7077567 1335.63252485 C276.6979862 1322.8084921 276.67166951 1309.98463205 276.63125581 1297.16066015 C276.60107309 1287.24199668 276.58628576 1277.32338266 276.58297569 1267.40467417 C276.58062765 1261.48374873 276.571699 1255.56300788 276.54651451 1249.64213181 C276.52319128 1244.06887358 276.5190178 1238.49592093 276.52927589 1232.9226265 C276.52977033 1230.88250969 276.52347729 1228.84237761 276.50971985 1226.80230713 C276.34993402 1201.69340635 276.34993402 1201.69340635 285.20532227 1192.48095703 C292.81821529 1186.19884452 301.40721216 1185.00925892 310.9375 1184 C322.64646012 1182.56540727 333.76663238 1180.60531278 345 1177 C345.6614502 1176.79181641 346.32290039 1176.58363281 347.00439453 1176.36914062 C388.35476837 1163.03361942 422.29215564 1132.39574179 442.00488281 1094.00927734 C461.80957085 1054.02091067 464.47287185 1008.73112578 450.83691406 966.44677734 C448.66323901 960.09188489 445.96239297 954.02170857 443 948 C442.54004639 947.05350586 442.54004639 947.05350586 442.07080078 946.08789062 C435.2770541 932.26795181 426.66953388 920.11633179 416 909 C415.15824219 908.09507812 414.31648437 907.19015625 413.44921875 906.2578125 C394.98841285 886.96880836 368.42765065 873.61567026 341.51708984 872.36669922 C324.63629527 872.04335699 308.63758574 875.68819681 292.21789551 879.23478699 C277.07661368 882.49931722 262.43835186 884.41697039 246.9375 884.375 C245.79089401 884.37418427 245.79089401 884.37418427 244.62112427 884.37335205 C231.68530477 884.33127449 219.59623207 883.04284751 207 880 C204.79337859 879.48781444 202.58632303 878.97749677 200.37890625 878.46875 C196.96252649 877.67860156 193.54686624 876.88602915 190.13354492 876.08276367 C182.44062395 874.28332789 174.87285994 872.77421483 167 872 C165.91847656 871.89042969 164.83695313 871.78085937 163.72265625 871.66796875 C136.67762702 869.34451263 110.46451441 872.457297 84 878 C81.17114363 878.58087978 78.34146061 879.15726993 75.51074219 879.72900391 C73.8658065 880.06204876 72.22181319 880.39980525 70.57910156 880.74365234 C40.56912285 886.90139111 9.22792198 882.15675278 -20.37084961 876.06982422 C-50.0416769 870.01628781 -80.10375065 873.65438125 -105.828125 890.421875 C-113.06340922 895.3602436 -119.67716585 900.93930657 -126 907 C-126.80824219 907.74507812 -127.61648438 908.49015625 -128.44921875 909.2578125 C-156.3445822 935.79563079 -170.97982189 975.86986695 -172.18359375 1013.8671875 C-173.0219169 1057.14981189 -158.35390282 1099.97830032 -128.28735352 1131.60424805 C-126.86403219 1133.07512998 -125.43221698 1134.53777847 -124 1136 C-123.24203125 1136.80824219 -122.4840625 1137.61648438 -121.703125 1138.44921875 C-94.63813779 1166.74892253 -55.76935796 1181.39774089 -17.40966797 1184.69799805 C-9.01234792 1185.5571507 -1.72555925 1188.19492377 3.875 1194.8125 C4.40867187 1195.41707031 4.94234375 1196.02164062 5.4921875 1196.64453125 C9.54723894 1202.97923596 10.4415462 1208.83847051 10.38768005 1216.17086792 C10.39575836 1217.50585915 10.39575836 1217.50585915 10.40399987 1218.86781991 C10.4182397 1221.83243318 10.41118551 1224.79659745 10.40405273 1227.76123047 C10.4097584 1229.89394488 10.41672342 1232.02665624 10.42485046 1234.15936279 C10.44277588 1239.94041199 10.44161451 1245.72130935 10.43590808 1251.50237799 C10.43281514 1256.33332602 10.43890992 1261.16424494 10.44494683 1265.99518883 C10.45898863 1277.39476647 10.45743379 1288.79426915 10.44604492 1300.19384766 C10.43456581 1311.94318385 10.44863683 1323.69229172 10.4754414 1335.44159782 C10.49761361 1345.53951271 10.50423227 1355.63735601 10.49836498 1365.73529351 C10.49499766 1371.76175474 10.49739566 1377.78806965 10.51461601 1383.81451035 C10.53010701 1389.48304236 10.52610537 1395.15123677 10.50731087 1400.81975555 C10.5036309 1402.89576021 10.50671611 1404.97178999 10.51719666 1407.04777145 C10.62444179 1430.05383838 10.62444179 1430.05383838 2.75 1438.875 C-3.91835038 1444.95538831 -11.29225122 1447.37742861 -20.203125 1447.28515625 C-27.94299932 1446.49603499 -35.31042419 1443.42532699 -40.33203125 1437.40234375 C-44.93350116 1431.36871606 -46.30262173 1425.75054944 -46.24050903 1418.17922974 C-46.24221788 1417.4104789 -46.24392673 1416.64172806 -46.24568737 1415.84968174 C-46.2489712 1413.28396914 -46.23799692 1410.71852038 -46.22705078 1408.15283203 C-46.22648643 1406.30960598 -46.2268037 1404.46637948 -46.22793579 1402.62315369 C-46.22850936 1397.62569501 -46.21675428 1392.62833244 -46.20278788 1387.63089609 C-46.1902813 1382.40586237 -46.18911007 1377.18082641 -46.18673706 1371.95578003 C-46.18052209 1362.06427894 -46.16411101 1352.17282209 -46.14403808 1342.28134048 C-46.12167965 1331.01902761 -46.11068579 1319.75671263 -46.10064721 1308.4943831 C-46.07974482 1285.32956421 -46.04456847 1262.16478459 -46 1239 C-46.57182007 1238.88838122 -47.14364014 1238.77676245 -47.73278809 1238.66176128 C-50.35365009 1238.14856734 -52.97369713 1237.631322 -55.59375 1237.11401367 C-56.94291504 1236.85076923 -56.94291504 1236.85076923 -58.31933594 1236.58220673 C-65.04140872 1235.2506764 -71.52427926 1233.56951583 -78 1231.3125 C-78.99781494 1230.9707373 -79.99562988 1230.62897461 -81.02368164 1230.27685547 C-122.24361412 1215.8264717 -158.85427395 1189.03351488 -185 1154 C-185.41459473 1153.45682129 -185.82918945 1152.91364258 -186.25634766 1152.35400391 C-193.14641642 1143.31744524 -198.79496215 1133.69639927 -204.3359375 1123.78515625 C-204.79403809 1122.96692383 -205.25213867 1122.14869141 -205.72412109 1121.30566406 C-206.52277268 1119.86240621 -207.30905892 1118.41215732 -208.07666016 1116.95214844 C-210.12222646 1113.13659485 -212.13939197 1110.67959872 -215.625 1108.125 C-220.08401823 1104.73483467 -224.25177034 1101.15192645 -228.3828125 1097.37109375 C-229.82482909 1096.06466977 -231.27337892 1094.76493916 -232.7487793 1093.49633789 C-238.26489489 1088.75320745 -243.43188088 1083.71768713 -248.5625 1078.5625 C-249.37396484 1077.75490234 -250.18542969 1076.94730469 -251.02148438 1076.11523438 C-255.88934621 1071.23951481 -260.52748616 1066.23914923 -265 1061 C-265.845625 1060.03578125 -266.69125 1059.0715625 -267.5625 1058.078125 C-329.726427 985.95203021 -367.14531179 894.5339363 -379.8125 798.125 C-379.91186859 797.37533966 -380.01123718 796.62567932 -380.11361694 795.853302 C-383.22283521 772.04655698 -384.34300919 748.13789346 -384.26074219 724.14282227 C-384.24999055 720.43424185 -384.26074445 716.72614444 -384.2734375 713.01757812 C-384.28710012 690.75264308 -382.96874203 668.59373542 -380.1875 646.5 C-380.10351959 645.82408813 -380.01953918 645.14817627 -379.93301392 644.45178223 C-368.36164027 551.86473101 -332.77828225 460.54110307 -272 389 C-271.10402424 387.92980673 -270.20819976 386.85948679 -269.3125 385.7890625 C-256.86201669 371.00279956 -243.7140484 356.5642686 -229 344 C-227.86432893 343.02373336 -226.72893568 342.0471435 -225.59375 341.0703125 C-223.18628972 339.0009751 -220.77828384 336.93228778 -218.3671875 334.8671875 C-217.80306152 334.37822998 -217.23893555 333.88927246 -216.65771484 333.38549805 C-215.12935853 332.10811629 -213.52005625 330.92928312 -211.90625 329.76171875 C-207.82716111 326.36629865 -205.90330758 321.62742699 -203.625 316.9375 C-190.21687514 290.40706042 -170.35502183 266.37980008 -147 248 C-146.06027344 247.23171875 -145.12054688 246.4634375 -144.15234375 245.671875 C-124.41523889 229.88219111 -102.20489384 218.20649742 -78.3125 210.125 C-77.25724121 209.76760742 -76.20198242 209.41021484 -75.11474609 209.04199219 C-68.66481315 206.95028219 -62.18658534 205.31302129 -55.56713867 203.87451172 C-54.73987022 203.69278915 -53.91260178 203.51106659 -53.06026459 203.32383728 C-51.04062733 202.88049894 -49.02037605 202.43995929 -47 202 C-46.99945523 201.04546999 -46.99891047 200.09093998 -46.99834919 199.10748482 C-46.98394234 175.86249306 -46.94087831 152.61768832 -46.86790943 129.37280464 C-46.83328271 118.13165246 -46.80790694 106.89062261 -46.80444336 95.64941406 C-46.80140026 85.8495245 -46.78086308 76.04985295 -46.73947543 66.25004756 C-46.71817534 61.06292255 -46.70552953 55.87610724 -46.71384621 50.68893814 C-46.72140516 45.80176059 -46.70548848 40.91520959 -46.67193985 36.02814674 C-46.66372882 34.2392022 -46.6639303 32.4501951 -46.67340279 30.66125679 C-46.72348662 20.15877453 -46.57575415 10.98394783 -39.02332783 2.87861824 C-27.94596638 -7.71902348 -12.61660844 -8.68332165 0 0 Z M-230 427 C-231.03308148 428.24199777 -232.02162594 429.5210566 -232.9921875 430.8125 C-233.60932617 431.63250488 -234.22646484 432.45250977 -234.86230469 433.29736328 C-235.52649414 434.1892334 -236.19068359 435.08110352 -236.875 436 C-237.8944873 437.36680908 -237.8944873 437.36680908 -238.93457031 438.76123047 C-295.0521957 514.37332063 -326.87559032 608.26164377 -327.203125 702.64453125 C-327.21014565 704.0146742 -327.21723248 705.38481681 -327.22438049 706.75495911 C-327.2437773 711.10747753 -327.24881409 715.45994271 -327.25 719.8125 C-327.25044186 720.5534063 -327.25088371 721.29431259 -327.25133896 722.05767059 C-327.25815718 743.8465642 -327.05591992 765.37803664 -324 787 C-323.82067565 788.32608907 -323.64198576 789.65226406 -323.46386719 790.97851562 C-313.28963735 865.87479319 -285.96425695 960.14043004 -229 1014 C-228.96559814 1013.37359619 -228.93119629 1012.74719238 -228.89575195 1012.10180664 C-226.49405457 971.04953744 -215.83615153 928.87716219 -190.5546875 895.63671875 C-188.80427909 893.20849219 -188.80427909 893.20849219 -189.07421875 890.90234375 C-190.1587016 888.67389164 -191.43415932 886.84879789 -192.9375 884.875 C-225.87144175 838.60584257 -232.21557544 776.86652839 -232.25 721.6875 C-232.25100708 720.56427338 -232.25201416 719.44104675 -232.25305176 718.28378296 C-232.21963522 662.93273378 -225.45610428 601.11299192 -192 555 C-190.9840506 553.34300736 -189.97934924 551.67888441 -189 550 C-189.33620361 549.48429443 -189.67240723 548.96858887 -190.01879883 548.43725586 C-214.21881931 511.04245253 -226.93209801 471.45989285 -229 427 C-229.33 427 -229.66 427 -230 427 Z M517 428 C516.93530518 428.72251953 516.87061035 429.44503906 516.80395508 430.18945312 C513.07925316 470.67840173 503.55260259 508.95285874 480.70776367 543.15234375 C480.22283447 543.88066406 479.73790527 544.60898437 479.23828125 545.359375 C478.80555908 545.99327148 478.37283691 546.62716797 477.92700195 547.28027344 C476.76275263 549.11451897 476.76275263 549.11451897 477 552 C478.04414463 553.50189285 479.16336921 554.95182799 480.3125 556.375 C525.69590625 617.55439748 525.68915219 714.62541467 515.484375 786.63867188 C510.03268269 822.48354878 499.69082171 862.50133506 476 891 C476.40089844 891.6084375 476.80179688 892.216875 477.21484375 892.84375 C501.28743041 929.96247773 512.89284971 969.05400334 517 1013 C578.52472987 954.30269337 605.63685607 851.98946376 614 760 C614.06195053 759.02453217 614.06195053 759.02453217 614.12515259 758.02935791 C614.88682676 745.76556525 615.20326846 733.53640584 615.1875 721.25 C615.18659363 719.92405319 615.18659363 719.92405319 615.18566895 718.57131958 C615.06085594 650.60530983 603.0093949 581.50028036 574.20019531 519.58251953 C572.99528678 516.98985833 571.82085703 514.38483207 570.6484375 511.77734375 C564.35212348 497.97269463 556.83649684 484.97919789 549 472 C548.54625 471.23816406 548.0925 470.47632813 547.625 469.69140625 C540.81225274 458.25876476 533.05741456 447.58433653 525 437 C524.35724121 436.1529248 523.71448242 435.30584961 523.05224609 434.43310547 C522.10406006 433.19584717 522.10406006 433.19584717 521.13671875 431.93359375 C520.2717981 430.80328735 520.2717981 430.80328735 519.3894043 429.65014648 C518.93090088 429.10559814 518.47239746 428.5610498 518 428 C517.67 428 517.34 428 517 428 Z M-150 593 C-171.07260719 632.68218236 -176.44817209 676.18360332 -176.3125 720.5625 C-176.31067719 721.79912384 -176.30885437 723.03574768 -176.30697632 724.30984497 C-176.26294266 742.04020378 -176.02268128 759.48699617 -173 777 C-172.72663818 778.60560791 -172.72663818 778.60560791 -172.44775391 780.24365234 C-171.16665189 787.54390034 -169.67758435 794.78091827 -168 802 C-167.80680176 802.83208984 -167.61360352 803.66417969 -167.41455078 804.52148438 C-163.58786812 820.51378778 -157.39471102 835.84982422 -149 850 C-146.30708002 848.6952676 -143.76244122 847.27924752 -141.234375 845.6796875 C-119.72396634 832.19999271 -97.39793573 821.72955124 -72 818 C-70.8759375 817.81953125 -69.751875 817.6390625 -68.59375 817.453125 C-47.74129612 814.95092993 -26.45168856 816.84323139 -6 821 C23.66792122 826.85208358 49.74863706 827.75137231 79.19287109 821.1105957 C99.35717388 816.57112231 119.23787482 814.48390565 139.90942383 814.60888672 C143.06570482 814.62501638 146.22070945 814.60888815 149.37695312 814.58984375 C168.29091302 814.56894759 186.72054359 816.60490593 205.125 821 C206.73761719 821.37125 206.73761719 821.37125 208.3828125 821.75 C211.59089247 822.49032615 214.79567043 823.24362154 218 824 C220.33934725 824.55029205 222.67918585 825.09849983 225.01953125 825.64453125 C226.05698486 825.88792236 227.09443848 826.13131348 228.16333008 826.38208008 C249.51477867 831.03312719 271.63293187 825.92152651 292.5625 821.4375 C295.48677849 820.81593646 298.41154697 820.19695094 301.33738708 819.58277893 C303.13708195 819.20454248 304.93588039 818.82200268 306.73353577 818.43418884 C345.62489294 810.21934215 388.754936 819.09688717 422.16162109 840.37695312 C424.91665215 842.18585589 427.65361391 844.01547516 430.35644531 845.90161133 C433.38947551 848.23663463 433.38947551 848.23663463 437 849 C471.88104451 788.38852266 471.5165379 701.26586499 454.40625 635.02734375 C450.47294866 620.59493733 445.07878446 607.16470044 438 594 C433.88367092 594.56575139 431.53138895 596.78953411 428.375 599.375 C397.59903016 623.79839713 357.89746737 638.80278269 319 643 C318.04480469 643.11085938 317.08960938 643.22171875 316.10546875 643.3359375 C268.90830187 647.91338226 221.52358261 637.06085822 180.4375 613.6875 C161.99639097 603.20892122 143.55030327 600.5106376 123 606 C115.29546189 608.62139138 108.27822832 612.33342453 101.25 616.375 C51.32957956 645.07202087 -9.79222971 651.27866537 -65.15234375 636.6484375 C-92.76115428 628.99709748 -118.69278977 616.60244691 -141.3515625 599.0078125 C-144.16584524 596.87427072 -147.0451275 594.9323653 -150 593 Z " fill="#264472" transform="translate(575,69)"/>
<path d="M0 0 C16.14565164 10.69437676 29.95160019 24.1644183 43.61889648 37.77929688 C44.46315186 38.61887939 45.30740723 39.45846191 46.17724609 40.32348633 C51.07241648 45.23126189 55.74970812 50.25301412 60.24389648 55.52929688 C61.12117916 56.53869096 61.99876019 57.54782586 62.87670898 58.55664062 C123.60233101 129.4666538 173.78335728 223.30245437 166.78125 319.22680664 C162.95232707 363.75622418 142.89240999 407.04807836 109.43139648 437.09179688 C108.04475266 438.24873405 106.64763843 439.39316604 105.24389648 440.52929688 C104.26291992 441.34785156 103.28194336 442.16640625 102.27124023 443.00976562 C83.24987309 458.62895978 61.53660691 469.80870662 38.24389648 477.52929688 C37.52540527 477.76777344 36.80691406 478.00625 36.06665039 478.25195312 C-13.200791 494.17035099 -73.38151998 490.8472676 -119.75610352 467.34179688 C-122.1066136 466.09940153 -124.43035876 464.81829725 -126.75610352 463.52929688 C-127.68293945 463.06394531 -128.60977539 462.59859375 -129.56469727 462.11914062 C-142.51819971 455.51728128 -154.22550852 446.47916053 -164.75610352 436.52929688 C-166.10618809 435.37865661 -167.46021941 434.23262728 -168.81860352 433.09179688 C-183.76030874 419.96934119 -194.76786861 403.0882694 -203.75610352 385.52929688 C-204.08980957 384.88637695 -204.42351562 384.24345703 -204.76733398 383.58105469 C-232.23860223 330.10140191 -225.30390597 265.39916258 -207.65649414 210.08251953 C-201.25664906 190.8574982 -193.03863784 172.4856829 -183.76538086 154.49023438 C-183.08695486 153.17211207 -182.412864 151.85175034 -181.74291992 150.52929688 C-169.74577832 126.86494928 -154.99726152 104.49205247 -138.75610352 83.52929688 C-138.34183105 82.99030762 -137.92755859 82.45131836 -137.50073242 81.89599609 C-127.80901366 69.29783817 -117.51366874 57.23021782 -106.75610352 45.52929688 C-106.20019531 44.9229541 -105.64428711 44.31661133 -105.0715332 43.69189453 C-97.6165125 35.57930881 -90.14580891 27.69154915 -81.75610352 20.52929688 C-80.63153548 19.54330924 -79.50790255 18.55625445 -78.38500977 17.56835938 C-71.77999276 11.78863347 -65.14180713 6.30178642 -57.75610352 1.52929688 C-56.95946289 0.99691406 -56.16282227 0.46453125 -55.34204102 -0.08398438 C-37.15576815 -11.71742559 -18.16007939 -11.52497408 0 0 Z M-32.94360352 61.20507812 C-33.55461914 61.7804834 -34.16563477 62.35588867 -34.79516602 62.94873047 C-35.44227539 63.57344238 -36.08938477 64.1981543 -36.75610352 64.84179688 C-37.42383789 65.47682129 -38.09157227 66.1118457 -38.77954102 66.76611328 C-40.78143031 68.67739983 -42.7710949 70.60049641 -44.75610352 72.52929688 C-45.30524414 73.06184082 -45.85438477 73.59438477 -46.42016602 74.14306641 C-52.14202111 79.71637334 -57.60468903 85.42751662 -62.75610352 91.52929688 C-63.58754883 92.49480469 -64.41899414 93.4603125 -65.27563477 94.45507812 C-71.70585773 101.94424881 -77.83861221 109.62848172 -83.75610352 117.52929688 C-84.2967041 118.24923828 -84.83730469 118.96917969 -85.39428711 119.7109375 C-103.1383147 143.39606787 -118.57363159 167.99951325 -131.75610352 194.52929688 C-132.1645752 195.3480127 -132.57304688 196.16672852 -132.99389648 197.01025391 C-143.89921047 219.17296121 -151.46118544 243.23304521 -155.75610352 267.52929688 C-155.87920898 268.2242627 -156.00231445 268.91922852 -156.12915039 269.63525391 C-157.59654571 278.21170197 -158.33773937 286.84326043 -158.75610352 295.52929688 C-158.81024414 296.52960938 -158.86438477 297.52992188 -158.92016602 298.56054688 C-159.838798 330.9632023 -147.21111426 361.22617178 -125.37963867 384.84667969 C-110.15806826 400.62217792 -87.45930202 414.31022369 -65.75610352 418.52929688 C-65.09610352 418.19929688 -64.43610352 417.86929687 -63.75610352 417.52929688 C-64.17762695 416.98660156 -64.59915039 416.44390625 -65.03344727 415.88476562 C-65.58129883 415.16933594 -66.12915039 414.45390625 -66.69360352 413.71679688 C-67.23887695 413.00910156 -67.78415039 412.30140625 -68.34594727 411.57226562 C-72.28664605 405.86316461 -71.45506958 398.14617558 -70.75610352 391.52929688 C-68.42448611 385.18794297 -64.86901897 380.5857546 -58.75610352 377.52929688 C-52.99741203 375.08482847 -47.22697644 375.06065834 -41.06860352 374.71679688 C-11.49715958 372.67901765 14.97156903 361.1868505 34.70483398 338.72851562 C47.91384987 322.07072938 54.51249626 302.38693753 55.68139648 281.27929688 C56.16875319 273.65804626 57.48213073 266.99558747 63.24389648 261.52929688 C70.2976987 256.68399061 76.79612192 255.45730341 85.24389648 256.52929688 C90.37750263 257.71723879 94.33423228 259.98616369 98.24389648 263.52929688 C97.80720354 255.59307109 96.04148775 248.36834358 93.74389648 240.77929688 C93.38714844 239.59480957 93.03040039 238.41032227 92.6628418 237.18994141 C89.20680871 225.98716052 85.0527886 215.2157238 80.24389648 204.52929688 C79.80062012 203.54251953 79.35734375 202.55574219 78.90063477 201.5390625 C69.71042799 181.3097316 59.04810634 161.71569859 46.24389648 143.52929688 C45.34641113 142.23266402 44.44930579 140.93576808 43.55249023 139.63867188 C33.71408849 125.48526748 23.33459829 111.72799166 12.24389648 98.52929688 C11.81850586 98.01898926 11.39311523 97.50868164 10.95483398 96.98291016 C4.83982481 89.66018667 -1.48909221 82.55938387 -8.00610352 75.59179688 C-8.65522705 74.89425293 -9.30435059 74.19670898 -9.97314453 73.47802734 C-15.13880286 68.0035703 -20.47573873 62.71620673 -26.75610352 58.52929688 C-30.24468155 58.52929688 -30.52795729 58.90598253 -32.94360352 61.20507812 Z M102.24389648 301.52929688 C103.24389648 303.52929688 103.24389648 303.52929688 103.24389648 303.52929688 Z M101.24389648 306.52929688 C101.04795898 307.52445313 100.85202148 308.51960938 100.65014648 309.54492188 C94.97158035 336.69597795 82.23784196 359.37029527 63.24389648 379.52929688 C62.69475586 380.13128906 62.14561523 380.73328125 61.57983398 381.35351562 C51.78292356 391.70542344 39.79643252 399.02744167 27.24389648 405.52929688 C26.63320312 405.85027344 26.02250977 406.17125 25.39331055 406.50195312 C9.98740524 414.50197782 -6.68279554 418.81092102 -23.75610352 421.52929688 C-23.75610352 421.85929687 -23.75610352 422.18929687 -23.75610352 422.52929688 C4.90118479 424.70579978 37.18159402 412.29804734 59.12670898 394.31445312 C81.5833345 374.55407618 99.64797218 348.20446907 102.24389648 317.52929688 C102.37045782 313.85449818 102.3740916 310.20369249 102.24389648 306.52929688 C101.91389648 306.52929688 101.58389648 306.52929688 101.24389648 306.52929688 Z " fill="#264472" transform="translate(1310.756103515625,1116.470703125)"/>
</svg>
