<?xml version="1.0" encoding="UTF-8"?>
<svg version="1.1" xmlns="http://www.w3.org/2000/svg" width="1668" height="1667">
<path d="M0 0 C0.82735839 -0.00277531 1.65471678 -0.00555063 2.50714664 -0.00841005 C3.86631059 -0.00535554 3.86631059 -0.00535554 5.2529324 -0.00223933 C6.22307258 -0.00401434 7.19321276 -0.00578935 8.19275112 -0.00761814 C11.47545135 -0.01238594 14.75810816 -0.00997843 18.0408105 -0.00765924 C20.41549451 -0.00961098 22.7901782 -0.01199937 25.16486138 -0.01478721 C30.3607021 -0.01986492 35.5565345 -0.02180335 40.75237724 -0.02103646 C48.53089328 -0.01990266 56.30939876 -0.02447698 64.08791244 -0.0301673 C77.34327146 -0.03968733 90.59862837 -0.04438784 103.85399047 -0.04647664 C117.29298807 -0.0486037 130.73198241 -0.05286008 144.17097846 -0.05971937 C145.44274772 -0.06036529 145.44274772 -0.06036529 146.74020929 -0.06102426 C150.19319685 -0.06278257 153.64618442 -0.06455221 157.09917197 -0.06633728 C198.98274011 -0.0879474 240.86630889 -0.09881762 282.74988133 -0.10781351 C296.3303142 -0.1107467 309.91074692 -0.11411649 323.49117962 -0.11778073 C324.44899875 -0.11803902 325.40681788 -0.11829731 326.39366184 -0.11856343 C330.26852659 -0.11960963 334.14339134 -0.12065805 338.01825609 -0.12170925 C404.29974417 -0.13967473 470.58123251 -0.15505442 536.86272269 -0.16246828 C542.07009354 -0.16305225 547.27746439 -0.16364952 552.48483524 -0.1642459 C553.51782271 -0.16436402 554.55081017 -0.16448214 555.61510028 -0.16460384 C566.08088867 -0.16580124 576.54667705 -0.16700999 587.01246543 -0.16823637 C589.11090287 -0.1684816 591.2093403 -0.16872546 593.30777774 -0.16896794 C660.70627061 -0.17675818 728.10474608 -0.19914221 795.50323135 -0.23164436 C843.92434227 -0.25498702 892.34544974 -0.27654035 940.76656619 -0.28365068 C941.7621814 -0.2837977 942.75779661 -0.28394472 943.78358198 -0.2840962 C965.63897927 -0.28728089 987.49437653 -0.28933187 1009.34977402 -0.29032374 C1018.14336561 -0.29073849 1026.93695719 -0.29129339 1035.73054877 -0.29188566 C1036.69296346 -0.29194632 1037.65537815 -0.29200699 1038.64695692 -0.2920695 C1069.65980805 -0.29408623 1100.67263864 -0.3083301 1131.6854826 -0.32883066 C1162.92064356 -0.34940496 1194.15578076 -0.35730918 1225.39094781 -0.34775289 C1229.70647075 -0.34643442 1234.02199371 -0.34525638 1238.3375167 -0.34416227 C1239.60646945 -0.34383249 1239.60646945 -0.34383249 1240.90105761 -0.34349606 C1254.30056234 -0.34038078 1267.70002169 -0.35071196 1281.0995159 -0.36663782 C1294.2729807 -0.3820165 1307.44638265 -0.38314701 1320.61984962 -0.36908958 C1328.34441785 -0.36127519 1336.06879417 -0.36440438 1343.79334325 -0.38372674 C1349.52717789 -0.39684736 1355.26083305 -0.38911064 1360.99465375 -0.37323939 C1363.30058635 -0.37008681 1365.60654032 -0.37365349 1367.91244846 -0.38473114 C1386.97341356 -0.47034318 1402.91019166 1.66042476 1417.59555236 15.18906184 C1428.91339593 27.26828761 1433.32233221 41.19039973 1433.23323241 57.48529597 C1433.23861795 58.68200313 1433.24400349 59.87871029 1433.24955222 61.1116813 C1433.26130861 64.40250042 1433.25979616 67.69299059 1433.25238541 70.98381205 C1433.24762921 74.54493286 1433.26018514 78.1060009 1433.27040282 81.66710444 C1433.2875485 88.63167898 1433.28843964 95.59616313 1433.28318992 102.56075329 C1433.27913901 108.22495772 1433.28060268 113.88913555 1433.28593818 119.55333873 C1433.2866866 120.36127578 1433.28743502 121.16921284 1433.28820612 122.00163284 C1433.28973769 123.64326246 1433.29127604 125.28489208 1433.29282109 126.92652169 C1433.30653087 142.30153514 1433.3011192 157.67649762 1433.28963588 173.05150989 C1433.27970551 187.09707417 1433.29264347 201.14250667 1433.31657007 215.18805063 C1433.34099111 229.63342386 1433.35056154 244.07873579 1433.34391734 258.52412923 C1433.34043174 266.624753 1433.34261351 274.72527549 1433.36016837 282.82588359 C1433.37492802 289.72179366 1433.3754769 296.61753111 1433.35809746 303.51343793 C1433.34961579 307.02704531 1433.34736768 310.54034482 1433.36274901 314.05393573 C1433.37599335 317.87419812 1433.36437922 321.69363295 1433.3467578 325.51386042 C1433.35636281 326.60853802 1433.36596782 327.70321561 1433.37586388 328.83106526 C1433.25602101 341.52732864 1429.29937562 351.9369397 1421.84555236 362.12656184 C1421.37246642 362.78398371 1420.89938048 363.44140559 1420.41195861 364.11874934 C1411.88982553 374.98265836 1398.29228143 381.30403291 1384.84555236 383.12656184 C1379.48698836 383.38948375 1374.13793627 383.36062798 1368.77523986 383.32187434 C1367.24253708 383.31813642 1365.70983188 383.31529314 1364.17712585 383.3132989 C1360.17572415 383.30572367 1356.17447152 383.28612897 1352.17312804 383.26389094 C1348.07697748 383.24329959 1343.98080244 383.23426898 1339.88461486 383.22421809 C1331.87152278 383.20287624 1323.85856495 383.16782573 1315.84555236 383.12656184 C1315.86578994 384.23194393 1315.86578994 384.23194393 1315.88643637 385.35965697 C1315.98065916 394.78617047 1315.39049745 404.10598714 1314.6826295 413.49630042 C1314.55522594 415.23357362 1314.42824042 416.97087753 1314.30163181 418.70820885 C1313.95327277 423.47173346 1313.59899102 428.23480158 1313.24371591 432.99781467 C1312.85794834 438.18381727 1312.4777252 443.37022688 1312.09678385 448.55658581 C1311.4286034 457.64305126 1310.75686009 466.72924786 1310.08277122 475.81527682 C1309.08036152 489.32680604 1308.0834046 502.83873376 1307.08748779 516.35074292 C1305.25679622 541.18567972 1303.42005879 566.0201661 1301.58101608 590.8544855 C1301.32055942 594.37168501 1301.06010901 597.88888499 1300.79966513 601.40608545 C1300.74793178 602.10472074 1300.69619844 602.80335602 1300.64289742 603.52316207 C1299.4957302 619.01560718 1298.35034884 634.50818415 1297.20530612 650.0007864 C1296.94373866 653.5398174 1296.68215782 657.07884741 1296.42057825 660.61787751 C1296.36863438 661.32065142 1296.31669051 662.02342533 1296.26317258 662.74749542 C1296.15809055 664.16920123 1296.0530084 665.59090703 1295.94792613 667.01261283 C1295.84266241 668.4367759 1295.73739914 669.86093901 1295.63213631 671.28510214 C1292.6457478 711.68962306 1289.65735103 752.09399503 1286.66463176 792.49804755 C1286.6092294 793.24602997 1286.55382704 793.99401239 1286.49674582 794.76466094 C1285.87897053 803.10518557 1285.26117082 811.44570839 1284.64336449 819.78623072 C1284.47427587 822.06896916 1284.3051873 824.35170759 1284.13609876 826.63444603 C1284.02327984 828.15752631 1283.91046041 829.68060656 1283.79764048 831.20368678 C1280.23032929 879.36279921 1276.66992586 927.52241763 1273.11532775 975.68247004 C1272.21971668 987.81677084 1271.32408084 999.95106981 1270.42830363 1012.08535834 C1270.37314442 1012.83255198 1270.3179852 1013.57974562 1270.2611545 1014.34958149 C1268.56058831 1037.38525121 1266.8579843 1060.42076961 1265.15328113 1083.45613356 C1265.09974671 1084.17953817 1265.04621229 1084.90294277 1264.99105562 1085.64826873 C1263.81572644 1101.53008445 1262.6398998 1117.4118633 1261.46361631 1133.29360837 C1261.04270783 1138.97661503 1260.62183461 1144.6596243 1260.20097788 1150.34263479 C1260.09628246 1151.75637622 1259.9915851 1153.1701175 1259.88688577 1154.58385864 C1258.21999235 1177.09193074 1256.55790382 1199.60035439 1254.89820586 1222.10895811 C1253.17962989 1245.41551638 1251.45494504 1268.72161384 1249.72332215 1292.02720712 C1248.72556064 1305.45824042 1247.73237894 1318.88959384 1246.74580094 1332.32145336 C1246.08605072 1341.29739527 1245.42025646 1350.27287573 1244.74958152 1359.24800792 C1244.36781842 1364.35912635 1243.98863661 1369.47039905 1243.61681378 1374.58225105 C1243.27784242 1379.24171011 1242.93110696 1383.90052682 1242.57842726 1388.55896774 C1242.45361399 1390.22504827 1242.33151547 1391.89133525 1242.21262737 1393.55784906 C1241.606742 1402.02894986 1240.76160868 1410.3953144 1239.38208697 1418.77883961 C1239.20326263 1419.86770501 1239.20326263 1419.86770501 1239.02082569 1420.97856769 C1235.96211283 1438.58455677 1228.02692162 1455.96147376 1215.84555236 1469.12656184 C1215.38696837 1469.63139094 1214.92838439 1470.13622004 1214.45590392 1470.656347 C1198.62160138 1487.93059744 1177.5766409 1499.80792848 1153.82262561 1501.49360539 C1149.71322297 1501.6338813 1145.62209933 1501.65805691 1141.51133147 1501.6299264 C1139.9361906 1501.63411163 1138.3610536 1501.64004596 1136.785925 1501.64754387 C1132.49151837 1501.66299049 1128.1974758 1501.65386963 1123.90307569 1501.64043206 C1119.21817583 1501.63022505 1114.53332896 1501.6433486 1109.84843675 1501.65340539 C1101.64870681 1501.6678138 1093.44908232 1501.66743756 1085.2493476 1501.65721675 C1073.05587408 1501.64205927 1060.86248917 1501.64983606 1048.6690162 1501.66204998 C1026.88892737 1501.6830951 1005.10888552 1501.68129448 983.32879223 1501.66973433 C964.26854241 1501.65966758 945.20830979 1501.65704741 926.14805785 1501.6618249 C924.88318624 1501.66213044 923.61831463 1501.66243598 922.31511358 1501.66275078 C917.18044023 1501.66399616 912.04576688 1501.66526976 906.91109354 1501.66658984 C871.08291556 1501.67569113 835.25474468 1501.67730471 799.4265689 1501.66233607 C798.41425353 1501.66191458 798.41425353 1501.66191458 797.38148735 1501.66148457 C786.42275863 1501.65690508 775.46403005 1501.65202709 764.50530148 1501.64712387 C721.04497147 1501.62769936 677.58469075 1501.62860095 634.12436095 1501.64804621 C623.17108596 1501.6529312 612.21781095 1501.6577755 601.26453582 1501.66233607 C600.59005148 1501.66261786 599.91556714 1501.66289966 599.22064389 1501.66318999 C562.78670036 1501.67830727 526.35276035 1501.67496397 489.91881505 1501.66559716 C484.79355899 1501.66431431 479.66830293 1501.66306295 474.54304687 1501.6618249 C473.28110087 1501.66150859 472.01915488 1501.66119228 470.7189681 1501.66086639 C451.67184591 1501.65631868 432.62474283 1501.66163353 413.57762328 1501.67174311 C391.91772599 1501.68318223 370.25788298 1501.68031635 348.59799245 1501.65862014 C336.47938099 1501.64688126 324.36088709 1501.64609922 312.24227869 1501.66120484 C304.1432477 1501.67018582 296.0443108 1501.66457146 287.94529373 1501.64718576 C283.33367957 1501.63768855 278.72229867 1501.63437955 274.110692 1501.64880969 C269.90643161 1501.66183066 265.70260913 1501.65609997 261.49838002 1501.63608705 C259.99561335 1501.63209413 258.49280951 1501.63462738 256.99007272 1501.6449108 C234.58395081 1501.78722592 214.53851917 1494.82125333 196.84555236 1481.12656184 C196.04762267 1480.51296809 195.24969298 1479.89937434 194.42758361 1479.26718684 C172.48055677 1461.08805665 162.40222934 1433.65195826 159.52725457 1406.07323148 C158.79660302 1398.13067758 158.21950594 1390.17620305 157.64618541 1382.22103653 C157.38200822 1378.58161436 157.10806062 1374.94292445 156.83542237 1371.30412813 C156.35954987 1364.93519657 155.88976754 1358.56583915 155.4240779 1352.19615527 C154.73054116 1342.71039883 154.02739692 1333.22537117 153.32236746 1323.74046287 C152.13120393 1307.71183364 150.94776758 1291.68264262 149.76869575 1275.65311976 C148.58884254 1259.61337731 147.40542514 1243.57390397 146.21749869 1227.53475733 C146.14297199 1226.52848651 146.06844528 1225.52221568 145.99166019 1224.4854518 C145.61260885 1219.36768612 145.23349619 1214.24992499 144.85436007 1209.1321656 C142.16030734 1172.76506352 139.47393482 1136.39739775 136.79208556 1100.02939387 C134.23683274 1065.37840608 131.6784883 1030.72764923 129.11532775 996.07724543 C129.03764113 995.02701132 128.95995451 993.9767772 128.87991375 992.89471781 C128.01949918 981.26296341 127.15898624 969.6312163 126.2984306 957.99947234 C124.74340382 936.98078708 123.18884938 915.96206688 121.63446227 894.9433343 C121.51971504 893.39171608 121.51971504 893.39171608 121.40264969 891.80875204 C119.02818291 859.70083876 116.65570883 827.59277867 114.28491393 795.48459407 C114.21012852 794.47176248 114.13534311 793.4589309 114.05829148 792.41540745 C113.15994691 780.24890222 112.26166629 768.08239227 111.36340098 755.9158812 C105.09435737 671.00519406 98.81288863 586.09543296 92.5210264 501.18643374 C92.13879478 496.02819624 91.75657839 490.86995762 91.37437168 485.71171828 C88.86533537 451.84995721 86.35586025 417.98822867 83.84555236 384.12656184 C82.81397506 384.12291621 81.78239776 384.11927058 80.71956054 384.11551448 C70.93781314 384.0783704 61.15637493 384.02038862 51.37486354 383.9426591 C46.34758426 383.90336145 41.3204755 383.87108689 36.29306212 383.85556575 C31.42987528 383.84028148 26.56715783 383.80563099 21.70418159 383.75825282 C19.86054841 383.74355926 18.01684818 383.73552784 16.17315665 383.73467799 C-2.75127505 383.71720215 -19.08357735 380.93430233 -33.46694764 367.43906184 C-49.45815522 350.39546339 -49.76191685 331.40692977 -49.66268727 309.31230708 C-49.65146586 305.82760422 -49.66355643 302.34296524 -49.67252931 298.85826655 C-49.68638776 292.05194932 -49.67896113 285.24581893 -49.66385372 278.43951077 C-49.64690543 270.49854718 -49.65021487 262.55762898 -49.6539478 254.61665288 C-49.65981264 240.44088188 -49.64570803 226.26519998 -49.62100038 212.08945246 C-49.59707459 198.36057736 -49.59000143 184.63182124 -49.60049256 170.90292903 C-49.61192215 155.91930597 -49.61380736 140.93573779 -49.59939447 125.95211538 C-49.59786877 124.3521183 -49.59634841 122.75212121 -49.59483346 121.15212413 C-49.59407565 120.36507855 -49.59331783 119.57803298 -49.59253705 118.76713754 C-49.58781069 113.24268451 -49.58963385 107.71825614 -49.59389886 102.19380351 C-49.59884404 95.4553737 -49.59275885 88.71705597 -49.57300456 81.97865171 C-49.56318682 78.54608157 -49.55796715 75.11368147 -49.56589707 71.68110247 C-49.57188819 67.94874313 -49.55927095 64.21687848 -49.54212769 60.48456355 C-49.54813774 59.41596012 -49.55414779 58.3473567 -49.56033995 57.24637135 C-49.43304125 41.91660911 -44.99357962 27.36326654 -34.28726014 16.03281184 C-26.53840248 9.1070929 -18.21911809 3.94937425 -8.15444764 1.12656184 C-7.53187385 0.95063702 -6.90930005 0.7747122 -6.26786038 0.59345633 C-4.10622337 0.11590815 -2.21108277 0.00094461 0 0 Z " fill="#264472" transform="translate(142.15444764122367,82.8734381608665)"/>
<path d="M0 0 C372.24 0 744.48 0 1128 0 C1128 9.84729009 1127.91693661 19.31579992 1127.08203125 29.06640625 C1126.98472214 30.27018417 1126.88741302 31.4739621 1126.78715515 32.71421814 C1126.52269638 35.98091733 1126.25304606 39.24714103 1125.98171997 42.51327515 C1125.44961543 48.95697001 1124.93940561 55.40246764 1124.42578125 61.84765625 C1124.36652088 62.58889866 1124.30726051 63.33014107 1124.24620438 64.09384537 C1122.93792507 80.47811731 1121.78567833 96.87221456 1120.6540184 113.26948166 C1118.95786004 137.83350964 1117.14012703 162.38309073 1115.1875 186.92822266 C1113.50526587 208.11123028 1111.96882705 229.30126842 1110.5 250.5 C1108.84954321 274.3200887 1107.08102293 298.12604771 1105.1875 321.92822266 C1103.50526587 343.11123028 1101.96882705 364.30126842 1100.5 385.5 C1098.84954321 409.3200887 1097.08102293 433.12604771 1095.1875 456.92822266 C1093.446251 478.85435658 1091.86476095 500.78848652 1090.34553528 522.73096466 C1088.5758394 548.28617616 1086.65531178 573.82659671 1084.61132812 599.36132812 C1084.41252174 601.85284555 1084.21394546 604.34438135 1084.015625 606.8359375 C1083.92240967 608.00545959 1083.82919434 609.17498169 1083.7331543 610.37994385 C1083.12498472 618.11710396 1082.61857941 625.85242661 1082.23730469 633.60400391 C1081.99403914 637.08530402 1081.49353072 640.54528495 1081 644 C740.11 644 399.22 644 48 644 C46.79988838 632.59893963 45.64570719 621.28671216 44.88671875 609.86328125 C44.79165622 608.47533159 44.69621027 607.08740816 44.60041809 605.69950867 C44.39813828 602.76259181 44.19759638 599.82556449 43.99853516 596.88842773 C43.4608055 588.96269081 42.90899848 581.03792825 42.35546875 573.11328125 C42.27106096 571.90354834 42.27106096 571.90354834 42.18494797 570.66937637 C41.0503171 554.438503 39.79270578 538.21905333 38.5 522 C36.64996779 498.75640034 34.95547865 475.50608194 33.34375 452.24493408 C31.8356257 430.48729557 30.22957504 408.74129878 28.5 387 C26.65090673 363.7563198 24.95547943 340.50609319 23.34375 317.24493408 C21.8356257 295.48729557 20.22957504 273.74129878 18.5 252 C16.65090673 228.7563198 14.95547943 205.50609319 13.34375 182.24493408 C11.83562566 160.48729486 10.22954118 138.74130219 8.5 117 C5.87478592 83.99782811 3.55398212 50.97607223 1.27642822 17.94833374 C0.85753328 11.96509144 0.42733183 5.98264565 0 0 Z " fill="#FEDE24" transform="translate(278,685)"/>
<path d="M0 0 C383.13 0 766.26 0 1161 0 C1159.85518254 22.89634912 1159.85518254 22.89634912 1158.984375 33.45703125 C1158.78549652 35.94180782 1158.58668786 38.42658998 1158.38793945 40.91137695 C1158.28405914 42.19678375 1158.18017883 43.48219055 1158.07315063 44.80654907 C1157.50660512 51.81818691 1156.95297744 58.83084664 1156.40234375 65.84375 C1156.34494207 66.57452066 1156.2875404 67.30529133 1156.22839928 68.05820656 C1154.53861026 89.62069788 1153.04787862 111.19746047 1151.5512104 132.77404881 C1151.12774667 138.87835495 1150.70186333 144.98248837 1150.27398682 151.08648682 C1150.08914511 153.72668848 1149.90507987 156.36693255 1149.72210693 159.00726318 C1149.45803338 162.80070816 1149.18873686 166.5937465 1148.91796875 170.38671875 C1148.80078239 172.08946709 1148.80078239 172.08946709 1148.68122864 173.82661438 C1148.56867989 175.38136726 1148.56867989 175.38136726 1148.45385742 176.9675293 C1148.39002365 177.87174118 1148.32618988 178.77595306 1148.26042175 179.70756531 C1148 182 1148 182 1147 185 C773.11 185 399.22 185 14 185 C12.84795333 182.69590667 12.7679762 181.12387136 12.59863281 178.55615234 C12.53456238 177.61912979 12.47049194 176.68210724 12.40447998 175.71669006 C12.33803284 174.68354172 12.27158569 173.65039337 12.203125 172.5859375 C12.12942688 171.49844711 12.05572876 170.41095673 11.97979736 169.29051208 C11.81860203 166.91096051 11.65915906 164.53128975 11.5012207 162.15151978 C11.06897127 155.65365355 10.62128904 149.15685462 10.171875 142.66015625 C10.12501556 141.98132322 10.07815613 141.3024902 10.02987671 140.60308647 C8.99690183 125.66739145 7.84005184 110.74218748 6.65864182 95.81760406 C6.18349478 89.81213029 5.71101391 83.80644548 5.23828125 77.80078125 C5.08378258 75.83845551 5.08378258 75.83845551 4.92616272 73.83648682 C3.91074549 60.91241405 2.92091693 47.98648385 1.95410156 35.0586853 C1.77826931 32.71161865 1.60137251 30.36463148 1.42333984 28.01773071 C1.17900034 24.7932843 0.93853953 21.56857228 0.69921875 18.34375 C0.62761032 17.40722092 0.55600189 16.47069183 0.48222351 15.50578308 C0.41807755 14.62924576 0.35393158 13.75270844 0.2878418 12.84960938 C0.23186325 12.10110718 0.1758847 11.35260498 0.11820984 10.5814209 C-0.04314789 7.05775307 0 3.52736039 0 0 Z " fill="#E0EEFA" transform="translate(262,465)"/>
<path d="M0 0 C338.91 0 677.82 0 1027 0 C1027 13.49868801 1027 13.49868801 1026.60449219 18.38037109 C1026.5171431 19.48842606 1026.42979401 20.59648102 1026.33979797 21.7381134 C1026.24313339 22.90477036 1026.14646881 24.07142731 1026.046875 25.2734375 C1025.89337448 27.20297844 1025.73987567 29.13251952 1025.58644581 31.06206608 C1025.36774335 33.79725774 1025.1446482 36.53208467 1024.92161179 39.26692581 C1024.45520892 44.99620507 1023.99646049 50.7261057 1023.53829765 56.45604897 C1023.42137676 57.91807943 1023.30425582 59.3800939 1023.18693733 60.84209251 C1022.36308017 71.12382889 1021.61006917 81.40765481 1020.91796875 91.69921875 C1020.74981686 94.1512142 1020.58152579 96.6032001 1020.41308594 99.05517578 C1020.17564044 102.5169595 1019.94274133 105.97867661 1019.72619629 109.4418335 C1018.19853251 133.83413628 1013.75231032 154.94542971 995 172 C984.89621704 179.96277815 972.50575086 185.12173957 959.58992904 185.1276505 C958.28452471 185.13066647 956.97912038 185.13368244 955.63415834 185.1367898 C954.18429219 185.13509083 952.73442614 185.1333001 951.2845602 185.13142776 C949.73895136 185.13307743 948.19334293 185.13516372 946.64773521 185.13764787 C942.37951859 185.14322392 938.11132201 185.14254039 933.84310291 185.14087028 C929.20741765 185.14014043 924.57173809 185.14515917 919.93605524 185.1494453 C910.73230014 185.15703391 901.52855083 185.15921879 892.32479293 185.15977435 C881.30439349 185.16068714 870.28399944 185.16735216 859.26360232 185.17412117 C832.625421 185.19019224 805.98724023 185.19608567 779.34905493 185.20086992 C766.75103516 185.20320472 754.15301584 185.20680723 741.55499643 185.2105653 C699.1187469 185.22320046 656.68249735 185.23401398 614.246246 185.23740576 C612.2178302 185.237568 610.18941441 185.23773356 608.16099861 185.23790014 C604.09295829 185.23823394 600.02491797 185.23856442 595.95687765 185.2388947 C591.19416044 185.2392816 586.43144322 185.23967121 581.66872601 185.24006577 C580.30559607 185.24017818 578.94246613 185.2402896 577.57933619 185.24040002 C533.80137662 185.24394937 490.02343347 185.25902717 446.24548016 185.28233776 C399.29716463 185.30732636 352.34885813 185.32172259 305.40053469 185.32293582 C300.32320662 185.32310728 295.24587856 185.32332271 290.16855049 185.32357025 C288.91834088 185.32362602 287.66813128 185.32368179 286.38003653 185.32373925 C266.24527757 185.32489073 246.11053557 185.335921 225.97578234 185.35045731 C205.74411202 185.3648112 185.51246349 185.36806555 165.28078949 185.36001733 C153.25673861 185.35555587 141.23275797 185.35944232 129.2087163 185.37525584 C121.17868354 185.38499059 113.1487001 185.38384196 105.11866781 185.37381961 C100.5421701 185.36841675 95.96580747 185.36775234 91.38932084 185.38032833 C87.22267275 185.39168261 83.0562694 185.38912607 78.8896297 185.37566125 C77.39481433 185.37323359 75.89998 185.37578885 74.40518552 185.38405773 C56.4245617 185.47695221 41.60148161 181.0677216 28.25366211 168.53222656 C15.61221024 155.91401654 10.39203741 140.6862887 8.52734375 123.19921875 C8.40085953 122.03430908 8.27437531 120.86939941 8.14405823 119.66918945 C6.58340283 104.74490718 5.59650638 89.77691708 4.59277344 74.8069458 C4.28313569 70.20656139 3.96570567 65.60670949 3.64946938 61.0067749 C3.39214264 57.26227029 3.13578588 53.51770729 2.88217163 49.77294922 C2.41457812 42.88687154 1.93113295 36.00280831 1.40283203 29.12109375 C1.30913834 27.89749146 1.21544464 26.67388916 1.11891174 25.41320801 C0.94507857 23.16578571 0.76807196 20.91860527 0.58702087 18.67175293 C0.50940018 17.66954712 0.43177948 16.66734131 0.35180664 15.63476562 C0.28353165 14.78192993 0.21525665 13.92909424 0.14491272 13.05041504 C-0.06152446 8.70490924 0 4.35040652 0 0 Z " fill="#E0EEFA" transform="translate(329,1364)"/>
<path d="M0 0 C2.72043684 2.4644139 4.47134 5.18268416 6.37109375 8.3125 C7.02142578 9.37791016 7.67175781 10.44332031 8.34179688 11.54101562 C8.85407837 12.38660034 8.85407837 12.38660034 9.37670898 13.24926758 C11.17881236 16.22346397 12.99461417 19.18928776 14.80859375 22.15625 C15.17044769 22.74893677 15.53230164 23.34162354 15.90512085 23.95227051 C18.88810729 28.83298209 21.92920354 33.67423375 25 38.5 C32.0977241 49.68315471 39.02598535 60.97012889 45.9395752 72.26776123 C47.00286534 74.00468062 48.06725894 75.74091987 49.13183594 77.47705078 C58.74793946 93.16659111 68.14753543 108.96177744 77.26074219 124.95068359 C78.90978902 127.84183953 80.5674323 130.72790393 82.2265625 133.61328125 C151.54040483 254.61734728 151.54040483 254.61734728 135.35058594 314.39794922 C128.84546174 337.1658839 116.87630218 356.61275918 101 374 C99.96746094 375.14082031 99.96746094 375.14082031 98.9140625 376.3046875 C76.18105548 400.18873285 40.96077761 415.40252636 8.1171875 416.30078125 C5.70319913 416.32009844 3.28904027 416.32357284 0.875 416.3125 C-1.03478638 416.30512817 -1.03478638 416.30512817 -2.9831543 416.29760742 C-34.3524159 415.90959562 -65.20981629 404.66622019 -89 384 C-89.80695312 383.31421875 -90.61390625 382.6284375 -91.4453125 381.921875 C-117.61864378 359.1125142 -135.1910343 326.71189497 -139 292 C-139.78914243 276.8553274 -139.38463926 262.55414058 -135 248 C-134.80164551 247.31164063 -134.60329102 246.62328125 -134.39892578 245.9140625 C-121.73288281 202.54520893 -97.84799813 160.79003053 -74.83496094 122.09912109 C-72.84502021 118.73824995 -70.87707723 115.36491153 -68.9140625 111.98828125 C-60.10441934 96.84762612 -51.08911571 81.85523371 -41.84619141 66.97363281 C-40.10548223 64.16989865 -38.36996026 61.36304262 -36.63671875 58.5546875 C-24.5410397 38.96353315 -12.31807723 19.45201022 0 0 Z " fill="#FEF3B2" transform="translate(842,807)"/>
<path d="M0 0 C7.71928477 5.11257372 12.01772207 14.78751122 16.59945679 22.55145264 C18.58138283 25.90802084 20.57983092 29.25472103 22.578125 32.6015625 C22.97984421 33.27482574 23.38156342 33.94808899 23.79545593 34.64175415 C29.22072134 43.71656083 34.85536124 52.65988067 40.49023438 61.60546875 C51.54570958 79.16625573 62.47598889 96.80335045 73.3125 114.5 C74.01868884 115.65171025 74.72490654 116.80340281 75.43115234 117.95507812 C85.66340791 134.64989539 95.65318715 151.46504571 105.3125 168.5 C106.22032227 170.09714844 106.22032227 170.09714844 107.14648438 171.7265625 C127.00993974 206.76730204 145.35017014 242.26663497 158.3125 280.5 C158.95638672 282.33691406 158.95638672 282.33691406 159.61328125 284.2109375 C160.63820128 287.2896548 161.51323529 290.35498632 162.3125 293.5 C162.58102783 294.55525879 162.58102783 294.55525879 162.85498047 295.63183594 C172.73268592 335.92620568 163.45910569 380.00591758 142.30322266 415.28759766 C134.56841824 427.74224114 125.47299932 438.95907637 115.3125 449.5 C114.66152344 450.20253906 114.01054688 450.90507813 113.33984375 451.62890625 C91.90784393 474.15298249 61.83544115 488.69101806 32.0625 496.3125 C31.30807617 496.50739014 30.55365234 496.70228027 29.77636719 496.90307617 C17.3633091 499.90320706 4.86481057 500.86806555 -7.875 500.8125 C-8.88089172 500.80976578 -8.88089172 500.80976578 -9.90710449 500.80697632 C-55.72492602 500.59866414 -97.69178488 482.01628767 -130.6875 450.5 C-131.55375 449.68660156 -132.42 448.87320312 -133.3125 448.03515625 C-163.40631005 419.0228425 -182.35138646 374.3404697 -183.11962891 332.67407227 C-183.18135341 293.32469992 -168.04941578 255.53177843 -149.99169922 221.01416016 C-148.67559915 218.47705823 -147.38108264 215.92950768 -146.09040833 213.37939453 C-138.43563401 198.26154022 -130.50261365 183.41180283 -121.83984375 168.83984375 C-119.0800223 164.19679191 -116.45583104 159.49411032 -113.875 154.75 C-107.26175708 142.68263629 -99.97367461 131.00242566 -92.77783203 119.27709961 C-91.71689043 117.54790258 -90.65708081 115.81801743 -89.59765625 114.08789062 C-81.83355851 101.41348538 -74.00574905 88.78017818 -66.1184082 76.18212891 C-57.87919218 63.02153112 -49.71986275 49.81206805 -41.58911133 36.58422852 C-39.53993045 33.25242373 -37.486835 29.92305358 -35.43359375 26.59375 C-33.15542784 22.89725505 -30.89471339 19.19175072 -28.66015625 15.46875 C-28.21373779 14.73309814 -27.76731934 13.99744629 -27.30737305 13.23950195 C-26.51499323 11.93337284 -25.73039837 10.62246546 -24.95629883 9.30541992 C-19.15085856 -0.19524403 -10.63011747 -4.32411558 0 0 Z M-8.6875 49.5 C-10.44032478 52.14483169 -12.1370882 54.8063836 -13.8125 57.5 C-14.34456055 58.34941162 -14.87662109 59.19882324 -15.42480469 60.07397461 C-16.58001087 61.9192715 -17.73358632 63.76559001 -18.88574219 65.61279297 C-20.67198701 68.47514138 -22.46412148 71.33371923 -24.2578125 74.19140625 C-33.48718779 88.90798377 -42.61826066 103.68425663 -51.6875 118.5 C-52.37602051 119.62422363 -53.06454102 120.74844727 -53.77392578 121.90673828 C-118.79521409 218.71346161 -118.79521409 218.71346161 -148 328.1875 C-147.99436035 329.33234863 -147.9887207 330.47719727 -147.98291016 331.65673828 C-147.8554676 340.58907345 -147.01087044 348.84737603 -144.6875 357.5 C-144.48882324 358.26973145 -144.29014648 359.03946289 -144.08544922 359.83251953 C-134.38536899 396.79454808 -111.51112805 427.74777423 -78.48364258 447.30761719 C-45.75564317 466.03319449 -7.89456996 470.65866653 28.63867188 461.23974609 C35.08215692 459.45707994 41.22843353 457.26836923 47.3125 454.5 C48.31482666 454.04536377 48.31482666 454.04536377 49.33740234 453.58154297 C84.23678013 437.47098768 110.18289229 409.31192488 123.625 373.37109375 C126.06598805 366.5220161 127.83098022 359.61129496 129.3125 352.5 C129.53679687 351.571875 129.76109375 350.64375 129.9921875 349.6875 C133.23082245 334.42598737 132.75990784 316.41189687 128.3125 301.5 C128.0326123 300.55882324 127.75272461 299.61764648 127.46435547 298.64794922 C122.30818917 281.69734505 115.827384 265.5296941 108.3125 249.5 C107.76400391 248.32614746 107.21550781 247.15229492 106.65039062 245.94287109 C99.54670059 230.78782706 92.06389443 215.87950851 83.87060547 201.27929688 C82.20687702 198.31159323 80.55789006 195.33598637 78.91015625 192.359375 C71.27389408 178.5998951 63.38826855 165.00545589 55.3125 151.5 C54.33969057 149.8659766 53.36703115 148.23186389 52.39453125 146.59765625 C39.95426488 125.7362865 27.11185741 105.11945722 14.21533203 84.53808594 C10.8685924 79.19463867 7.5284809 73.84704902 4.1875 68.5 C1.53813036 64.26077444 1.53813036 64.26077444 -1.11425781 60.0234375 C-2.14718337 58.36665311 -3.17283162 56.70530495 -4.19042969 55.0390625 C-5.33121712 53.17721902 -6.50542015 51.33590423 -7.6875 49.5 C-8.0175 49.5 -8.3475 49.5 -8.6875 49.5 Z " fill="#010100" transform="translate(850.6875,757.5)"/>
<path d="M0 0 C1.22395115 -0.00843994 2.44790231 -0.01687988 3.70894289 -0.02557558 C5.05881399 -0.01978094 6.40868389 -0.01369994 7.75855255 -0.00736332 C9.19901428 -0.01153738 10.63947272 -0.0170153 12.07992506 -0.02368313 C16.03400012 -0.03814685 19.98786691 -0.03389018 23.94195342 -0.02651632 C28.2078712 -0.02178929 32.47374363 -0.03429031 36.73964691 -0.04453373 C45.09489256 -0.06173562 53.45006305 -0.06255894 61.80532181 -0.05732083 C68.59527673 -0.05328084 75.38520942 -0.05472064 82.17516327 -0.06006908 C83.14121906 -0.06081751 84.10727486 -0.06156593 85.10260507 -0.06233703 C87.06507449 -0.06386849 89.0275439 -0.06540684 90.9900133 -0.066952 C109.39592159 -0.08068182 127.80178739 -0.07523574 146.20769471 -0.06376678 C163.0518368 -0.05383167 179.89586908 -0.06677903 196.73999423 -0.09070098 C214.03167435 -0.11507375 231.32330329 -0.12470447 248.61500025 -0.11804825 C258.32458089 -0.11455226 268.03407704 -0.11681323 277.74364471 -0.13429928 C286.00825831 -0.14899839 294.27272791 -0.14968665 302.53733861 -0.13222837 C306.75481879 -0.12369746 310.97204148 -0.12161962 315.18950844 -0.13687992 C319.04973432 -0.15067486 322.90948087 -0.14603144 326.76967865 -0.12664068 C328.16663442 -0.12286435 329.56362811 -0.12584955 330.96055025 -0.13625234 C343.90804768 -0.22582087 343.90804768 -0.22582087 348.82801056 4.38031673 C353.14355779 9.16240961 354.14094559 12.7535188 354.03894806 19.03656673 C353.57270563 24.21703817 351.66326854 27.91982702 347.76551056 31.25531673 C343.75883078 34.15376594 342.0351618 34.50597654 337.14541912 34.5117445 C335.32051363 34.51750622 335.32051363 34.51750622 333.45874137 34.52338433 C332.09641336 34.522604 330.7340854 34.52172519 329.37175751 34.52075863 C327.93403872 34.52334081 326.49632065 34.52635356 325.05860358 34.52976203 C321.0936225 34.53785258 317.1286595 34.53962274 313.16367114 34.5403595 C308.89294549 34.54220649 304.6222293 34.54975203 300.35150909 34.55649471 C291.00654981 34.57009315 281.6615948 34.5761051 272.31662726 34.58050537 C266.48489335 34.58326525 260.65316109 34.58750213 254.8214283 34.59200954 C238.68460666 34.60420419 222.54778635 34.61450311 206.4109602 34.61788464 C204.86090779 34.61821399 204.86090779 34.61821399 203.27954118 34.61854999 C202.24365783 34.61876827 201.20777448 34.61898654 200.14050072 34.61921144 C198.04130153 34.61965491 195.94210233 34.62010147 193.84290314 34.62055111 C192.28098014 34.62088325 192.28098014 34.62088325 190.68750314 34.62122211 C173.81012086 34.6251712 156.93278173 34.64262773 140.05541613 34.66591063 C122.74014693 34.68960541 105.4248994 34.70208563 88.10961372 34.70325255 C78.38268772 34.70417037 68.65581794 34.70994945 58.92890739 34.72807217 C50.64699556 34.7434479 42.3651573 34.7486086 34.08323392 34.74033406 C29.85581389 34.73641856 25.62854214 34.73740081 21.40114021 34.75139141 C17.53287065 34.76407666 13.66486161 34.7629805 9.79659269 34.7508007 C8.3954936 34.74883432 6.99437639 34.7519653 5.59330281 34.76064506 C3.69160699 34.77168243 1.78982573 34.76248845 -0.11187458 34.75225353 C-1.169071 34.75285062 -2.22626741 34.75344771 -3.31550008 34.75406289 C-7.89054024 34.15545969 -11.07119548 31.93455336 -13.92198944 28.38031673 C-17.88268102 23.09939463 -17.94032804 17.78022805 -17.17198944 11.38031673 C-15.49910731 6.96015835 -13.56306154 4.18846442 -9.45275831 1.80057091 C-5.98605224 0.29982399 -3.75030268 0.00365956 0 0 Z " fill="#264471" transform="translate(347.17198944091797,767.619683265686)"/>
<path d="M0 0 C1.21598696 -0.00445784 2.43197392 -0.00891569 3.68480897 -0.01350862 C5.04644792 -0.01341931 6.40808687 -0.01322944 7.7697258 -0.01294994 C9.2067321 -0.01624762 10.64373747 -0.01997299 12.08074164 -0.02409142 C16.04378992 -0.03413048 20.00682305 -0.03783127 23.96988225 -0.04048073 C28.23858363 -0.04437815 32.50727295 -0.05395686 36.77596664 -0.0626936 C47.09189658 -0.08247393 57.40782753 -0.09252619 67.72377169 -0.10142139 C72.57846365 -0.10580171 77.43315452 -0.11116918 82.28784561 -0.11641026 C98.42037479 -0.13342408 114.55290329 -0.14791907 130.68544006 -0.155159 C134.8737526 -0.15706898 139.06206514 -0.1589893 143.25037766 -0.16094494 C144.29139734 -0.16142868 145.33241703 -0.16191242 146.40498278 -0.16241082 C163.27523695 -0.17071413 180.14542028 -0.19605543 197.01564351 -0.22852562 C214.32526718 -0.26157064 231.63485483 -0.27960544 248.94451022 -0.28280324 C258.66757647 -0.28497071 268.39053942 -0.2937539 278.11357498 -0.31926441 C286.39291011 -0.34093652 294.67211686 -0.34903908 302.95147714 -0.33929763 C307.17704073 -0.33474277 311.40233925 -0.33670769 315.62786674 -0.35605907 C319.49563659 -0.37361935 323.3629466 -0.3727516 327.23072085 -0.35716178 C328.63049493 -0.35477479 330.03030027 -0.35916561 331.43002644 -0.37099043 C344.41272642 -0.47388067 344.41272642 -0.47388067 349.32020187 4.13422108 C353.97138246 9.41393958 354.62146885 12.45717098 354.53113937 19.37640858 C354.13510727 24.55416164 352.11750395 27.61227423 348.32020187 30.94672108 C344.20142072 33.949999 341.50072134 34.26000219 336.53297329 34.26844215 C335.31847868 34.2729 334.10398406 34.27735784 332.85268658 34.28195077 C331.49792015 34.28186147 330.14315371 34.28167161 328.7883873 34.2813921 C327.35464275 34.28469077 325.92089912 34.28841634 324.48715669 34.29253358 C320.53776932 34.30256113 316.58839716 34.30627157 312.63899887 34.30892289 C308.38326678 34.31282363 304.12754675 34.32240203 299.87182236 34.33113575 C289.59042238 34.35090526 279.30902141 34.36096637 269.02760717 34.36986354 C264.18835843 34.37424509 259.34911078 34.37961219 254.5098629 34.38485241 C238.42790549 34.40186413 222.34594876 34.41635944 206.26398373 34.42360115 C202.08993339 34.4255111 197.91588305 34.42743143 193.74183273 34.42938709 C192.18563737 34.4301127 192.18563737 34.4301127 190.59800372 34.43085297 C173.7827785 34.43915754 156.96762432 34.46450191 140.15243014 34.49696777 C122.8970154 34.53001262 105.64163679 34.54804752 88.38619024 34.55124539 C78.69443787 34.55341273 69.00278915 34.56219418 59.31106758 34.58770657 C51.05920493 34.60937832 42.80747108 34.61748135 34.5555832 34.60773978 C30.34418919 34.603185 26.13306114 34.60514944 21.92170334 34.62450123 C18.06692584 34.64206181 14.21260973 34.64119353 10.35782782 34.62560394 C8.96279421 34.62321701 7.56772924 34.62760743 6.1727437 34.63943259 C-6.75734755 34.74225706 -6.75734755 34.74225706 -11.67979813 30.13422108 C-16.4363003 24.86350245 -17.03401323 20.7742271 -16.96104813 13.86078358 C-16.43199594 8.73191658 -13.78317365 6.10624237 -10.05479813 2.82172108 C-6.39324606 0.22009198 -4.47145142 0.0075722 0 0 Z " fill="#264471" transform="translate(1000.6797981262207,767.8657789230347)"/>
<path d="M0 0 C1.01819106 -0.00507454 2.03638213 -0.01014909 3.08542746 -0.0153774 C4.20738888 -0.01587516 5.3293503 -0.01637292 6.48531055 -0.01688576 C7.67462659 -0.02126801 8.86394263 -0.02565027 10.08929855 -0.03016531 C13.396347 -0.04123503 16.70334812 -0.04777933 20.01040828 -0.05234647 C23.57496878 -0.05830242 27.13951183 -0.06991226 30.70406055 -0.08063698 C39.31544799 -0.10516089 47.92684119 -0.11978797 56.5382528 -0.13269705 C58.97036501 -0.13640894 61.40247665 -0.14038217 63.83458829 -0.14444971 C78.93673462 -0.16968583 94.03888185 -0.19173957 109.14104462 -0.20417786 C112.63924825 -0.20710757 116.13745185 -0.21006923 119.6356554 -0.21308327 C120.50511993 -0.21382932 121.37458445 -0.21457537 122.27039639 -0.21534403 C136.35542404 -0.22799785 150.44032545 -0.26122131 164.52529409 -0.3028851 C178.98506722 -0.34530706 193.44477573 -0.36887317 207.90461093 -0.37409842 C216.02368568 -0.37751221 224.14256315 -0.38926352 232.26157665 -0.42220116 C239.1761257 -0.45020645 246.09043704 -0.46119896 253.0050384 -0.4500057 C256.53222947 -0.4448202 260.05892275 -0.44769769 263.58604145 -0.47247124 C267.41277378 -0.49912449 271.23882831 -0.48689943 275.06563282 -0.47098732 C276.17644063 -0.48486941 277.28724844 -0.49875149 278.4317171 -0.51305425 C285.19856954 -0.44368197 289.92720364 0.58819921 295.09293079 5.13701439 C298.89280418 9.58367199 299.75021724 13.84031184 299.46793079 19.64482689 C298.74390393 24.45658875 297.16377231 28.25120102 293.52067858 31.56878704 C287.50942401 35.696861 282.23844685 35.84153095 275.09254932 35.76520348 C273.8982556 35.77229786 272.70396187 35.77939225 271.47347742 35.78670162 C268.1752895 35.80121387 264.87854702 35.79342844 261.58046615 35.77597868 C258.01734666 35.76257308 254.45433399 35.77805308 250.89122486 35.78980064 C243.91815453 35.80815737 236.94536485 35.79967846 229.97230332 35.78171242 C224.3046276 35.7676746 218.63702795 35.76379615 212.96933651 35.76715469 C212.16203601 35.76763214 211.3547355 35.76810958 210.52297135 35.76860149 C208.88285972 35.76962784 207.24274811 35.7706832 205.60263652 35.77176725 C191.10772736 35.78033019 176.61295351 35.76367195 162.11807728 35.73393822 C148.05779812 35.70509644 133.99771385 35.69802032 119.93741322 35.7134304 C104.61951561 35.73019587 89.3017105 35.73422367 73.98381048 35.71672004 C72.3501101 35.71487569 70.71640971 35.71304096 69.08270931 35.71121597 C68.278934 35.71030388 67.47515869 35.70939179 66.64702655 35.70845206 C60.98657801 35.70284923 55.32617466 35.70615144 49.66572857 35.71276093 C42.76699419 35.72049667 35.86845158 35.71373278 28.96975582 35.68858588 C25.45084928 35.67609691 21.93224121 35.66993679 18.4133234 35.68112755 C14.59747448 35.6930334 10.7821396 35.67389832 6.96632862 35.65167809 C5.30086354 35.66403924 5.30086354 35.66403924 3.6017527 35.67665011 C-2.7948124 35.60778406 -6.70426396 34.94643714 -11.90706921 31.13701439 C-16.74880327 25.91303817 -17.20885884 21.75534736 -17.11800671 14.85967064 C-16.71821082 9.69934228 -14.69049969 6.64678046 -10.90706921 3.32451439 C-7.08768597 0.53954745 -4.59684494 0.01215313 0 0 Z " fill="#264471" transform="translate(346.9070692062378,869.8629856109619)"/>
<path d="M0 0 C1.18950461 -0.00709439 2.37900922 -0.01418877 3.60455942 -0.02149814 C6.8892266 -0.03600913 10.17294965 -0.02822468 13.45757413 -0.01077521 C17.00639783 0.00263092 20.55511431 -0.01284986 24.10392761 -0.02459717 C31.04925986 -0.04295407 37.99431033 -0.03447462 44.93963373 -0.01650894 C50.58537111 -0.00247011 56.23103212 0.0014071 61.87678528 -0.00195122 C63.08313991 -0.00266738 63.08313991 -0.00266738 64.31386533 -0.00339801 C65.94777423 -0.00442437 67.58168311 -0.00547973 69.21559197 -0.00656378 C83.65611337 -0.01512689 98.09649895 0.0015315 112.5369873 0.03126526 C126.54192816 0.06010172 140.54667334 0.06718571 154.55163574 0.05177307 C169.8105794 0.03500335 185.0694302 0.03098456 200.32837629 0.04848343 C201.95619677 0.05032777 203.58401727 0.0521625 205.21183777 0.0539875 C206.4131435 0.05535564 206.4131435 0.05535564 207.63871804 0.05675141 C213.27615452 0.06235202 218.9135456 0.05905407 224.55097961 0.05244255 C231.42333524 0.04470254 238.29549843 0.05148588 245.16781533 0.07661759 C248.67266921 0.0890973 252.17722373 0.09527801 255.68208885 0.08407593 C259.4845819 0.07539124 263.28620291 0.09132302 267.08862305 0.11352539 C268.19212931 0.10528462 269.29563558 0.09704386 270.43258142 0.08855337 C276.80241724 0.15723153 281.75639361 0.89377148 287.04431152 4.62818909 C291.64934999 9.46938337 292.40676969 13.51331747 292.32165527 19.99147034 C291.88663398 24.1272362 290.54593475 27.31564213 288.04431152 30.62818909 C283.48251617 34.2590058 279.92678104 35.74988561 274.15285969 35.76520348 C273.13815202 35.77027802 272.12344435 35.77535256 271.07798797 35.78058088 C269.9599175 35.78107864 268.84184703 35.78157639 267.68989563 35.78208923 C266.50466314 35.78647149 265.31943066 35.79085374 264.09828204 35.79536879 C260.80263512 35.80643838 257.50703569 35.81298276 254.21137702 35.81754994 C250.65908655 35.82350595 247.10681358 35.83511579 243.55453491 35.84584045 C234.97281036 35.87036422 226.39108002 35.88499143 217.80933121 35.89790052 C215.38558804 35.90161243 212.96184546 35.90558566 210.53810287 35.90965319 C195.48785742 35.93488933 180.43761106 35.95694302 165.38734913 35.96938133 C161.90117705 35.97231104 158.41500501 35.9752727 154.92883301 35.97828674 C154.0623591 35.97903279 153.19588519 35.97977884 152.30315449 35.9805475 C138.26662558 35.99320128 124.23022333 36.02642469 110.19375364 36.06808858 C95.78370105 36.11051083 81.3737133 36.13407668 66.96359843 36.1393019 C58.87246906 36.14271565 50.78153765 36.15446657 42.69046974 36.18740463 C35.79970905 36.21541034 28.90918689 36.22640226 22.01837371 36.21520917 C18.50333358 36.21002378 14.98879296 36.21290049 11.47382545 36.23767471 C7.66022962 36.26432902 3.84731389 36.25210257 0.03364563 36.2361908 C-1.62672967 36.25701393 -1.62672967 36.25701393 -3.3206479 36.27825773 C-10.01868845 36.20935815 -14.8944015 35.23839966 -19.95568848 30.62818909 C-23.58670056 25.77401203 -24.62651014 21.04618043 -24.33068848 15.01881409 C-23.60809939 10.41230869 -21.88749938 7.32570307 -18.38186502 4.24524456 C-12.38652043 0.07341258 -7.15474294 -0.07673866 0 0 Z " fill="#264471" transform="translate(1062.9556884765625,869.3718109130859)"/>
</svg>
