<?xml version="1.0" encoding="UTF-8"?>
<svg version="1.1" xmlns="http://www.w3.org/2000/svg" width="1668" height="1667">
<path d="M0 0 C7.4344477 7.63794536 11.81123968 18.31432953 16.65405273 27.70361328 C21.35297254 36.75308883 26.49643115 45.52027442 31.67578125 54.30078125 C34.35931592 58.85057547 36.98412478 63.42943035 39.5793457 68.0300293 C46.4300079 80.16512206 53.71904508 92.01246988 61.06738281 103.85107422 C63.12970138 107.18157785 65.18024513 110.51901952 67.2265625 113.859375 C75.17267793 126.82857739 83.23034504 139.71759136 91.43164062 152.52685547 C93.72275503 156.10950379 96.0036128 159.69862846 98.28442383 163.2878418 C110.84587356 183.0520633 123.46964534 202.77252475 136.29052734 222.36962891 C138.75081585 226.13246129 141.20565788 229.89883134 143.66040039 233.6652832 C156.8030287 253.82976583 169.98418883 273.96883582 183.19287109 294.09008789 C197.16132654 315.36897458 211.10416304 336.66456864 225.03027344 357.97119141 C227.19392877 361.28075305 229.35853956 364.58968865 231.5234375 367.8984375 C240.08484892 380.98424168 248.63015571 394.08022306 257.140625 407.19921875 C257.59034668 407.89176758 258.04006836 408.58431641 258.50341797 409.29785156 C266.40896701 421.47327385 274.23209616 433.70111138 282.05126953 445.93212891 C284.10971778 449.15088965 286.16977869 452.36861162 288.23046875 455.5859375 C292.20322601 461.78863612 296.17327047 467.99306303 300.140625 474.19921875 C300.74116699 475.13862305 301.34170898 476.07802734 301.96044922 477.04589844 C314.96255017 497.39732487 327.74807417 517.88313061 340.43212891 538.43408203 C342.23139813 541.34613165 344.03558667 544.25510101 345.83984375 547.1640625 C355.34249694 562.5138588 364.60145383 577.99801371 373.78562927 593.53977966 C376.43528591 598.01928141 379.10735243 602.48493818 381.7890625 606.9453125 C391.73208136 623.48872352 401.3337352 640.21856206 410.72265625 657.08203125 C412.88581905 660.96463114 415.06781839 664.83500806 417.27734375 668.69140625 C426.56046594 684.90691981 435.30991882 701.39025907 443.96374512 717.94763184 C444.74779721 719.44766719 445.53238317 720.94742362 446.31750488 722.44689941 C456.20044981 741.32310873 465.7698067 760.27121568 474.54882812 779.69189453 C475.92408171 782.72209285 477.31447155 785.74435338 478.71354675 788.76356506 C502.37151906 839.84485324 524.2730605 894.84330854 530.140625 951.19921875 C530.25148438 952.16085937 530.36234375 953.1225 530.4765625 954.11328125 C538.23006771 1033.53432106 517.9110996 1120.51722427 409.88305664 1322.50048828 C408.30732735 1324.40436505 406.72545922 1326.30291711 405.140625 1328.19921875 C404.64788086 1328.79105957 404.15513672 1329.38290039 403.64746094 1329.99267578 C397.63460786 1337.20446023 391.46954908 1344.26237058 385.140625 1351.19921875 C384.35816406 1352.07449219 383.57570313 1352.94976563 382.76953125 1353.8515625 C377.00467133 1360.24818789 371.03186174 1366.41246045 364.953125 1372.51171875 C364.20490479 1373.26453125 363.45668457 1374.01734375 362.68579102 1374.79296875 C358.56421203 1378.903181 354.35282457 1382.84359093 349.94262695 1386.64233398 C347.52204728 1388.73365448 345.17768778 1390.90370508 342.828125 1393.07421875 C337.42405862 1397.99103324 331.86543913 1402.66207002 326.140625 1407.19921875 C325.49738281 1407.7096875 324.85414063 1408.22015625 324.19140625 1408.74609375 C294.95027685 1431.87955656 264.11485617 1451.78750971 231.140625 1469.19921875 C230.27808105 1469.65651367 229.41553711 1470.11380859 228.52685547 1470.58496094 C203.44046523 1483.78632333 176.99045989 1494.19255343 150.140625 1503.19921875 C149.1079248 1503.54791016 148.07522461 1503.89660156 147.01123047 1504.25585938 C106.67953437 1517.71047718 64.44517002 1525.51820038 22.140625 1529.19921875 C21.15626465 1529.28913086 20.1719043 1529.37904297 19.15771484 1529.47167969 C9.33137742 1530.30882451 -0.50379395 1530.58647844 -10.359375 1530.82421875 C-11.26187988 1530.84601196 -12.16438477 1530.86780518 -13.09423828 1530.89025879 C-97.09350089 1532.82693726 -181.4652504 1516.54336225 -361.859375 1419.19921875 C-362.69178711 1418.55388184 -362.69178711 1418.55388184 -363.54101562 1417.89550781 C-374.4217589 1409.44403743 -385.14976936 1400.88208127 -395.29296875 1391.546875 C-397.53496456 1389.49597777 -399.80728529 1387.49444342 -402.109375 1385.51171875 C-405.2574329 1382.77956281 -408.18867315 1379.89349178 -411.10546875 1376.91796875 C-412.81264861 1375.24500853 -414.58530333 1373.72774549 -416.421875 1372.19921875 C-422.45416141 1366.99535079 -427.70679757 1360.98705078 -433.08544922 1355.12597656 C-434.75201679 1353.31582638 -436.42979696 1351.5170658 -438.11328125 1349.72265625 C-443.43959917 1344.03335215 -448.58586481 1338.26693325 -453.46484375 1332.18359375 C-455.24178185 1329.96894333 -457.03433302 1327.77429494 -458.84765625 1325.58984375 C-482.60737611 1296.86966006 -502.62861534 1265.20461754 -519.859375 1232.19921875 C-520.40094238 1231.16667969 -520.94250977 1230.13414063 -521.50048828 1229.0703125 C-565.67997927 1144.35905801 -595.98513198 1030.31739901 -577.859375 927.19921875 C-577.61799805 925.99668457 -577.37662109 924.79415039 -577.12792969 923.55517578 C-573.24161074 904.74197015 -567.93679189 886.41209916 -561.859375 868.19921875 C-561.45235352 866.97686523 -561.04533203 865.75451172 -560.62597656 864.49511719 C-545.72242123 820.20068701 -525.82427185 777.90000626 -504.984375 736.13671875 C-504.46820618 735.10061462 -503.95203735 734.0645105 -503.42022705 732.99700928 C-496.60874763 719.3487976 -489.50857825 705.89102088 -482.14251709 692.53451538 C-480.42133092 689.40198603 -478.73109327 686.25412783 -477.046875 683.1015625 C-470.36891029 670.60279559 -463.5455928 658.2102013 -456.44726562 645.9453125 C-454.7512018 643.01214432 -453.06261222 640.07475715 -451.375 637.13671875 C-436.52045039 611.29634279 -421.42629699 585.61705509 -405.859375 560.19921875 C-405.17987793 559.0891748 -404.50038086 557.97913086 -403.80029297 556.83544922 C-394.8540669 542.23220835 -385.81642137 527.68751591 -376.72265625 513.17578125 C-374.83783746 510.16481286 -372.9573289 507.15119428 -371.078125 504.13671875 C-362.74701234 490.77576401 -354.34028202 477.46556915 -345.859375 464.19921875 C-345.22918457 463.2134082 -344.59899414 462.22759766 -343.94970703 461.21191406 C-340.61063858 455.99009977 -337.26918019 450.76982379 -333.92578125 445.55078125 C-331.2419108 441.36072914 -328.56238919 437.16794914 -325.88671875 432.97265625 C-316.99041243 419.0312727 -307.98255569 405.16665828 -298.91455078 391.33642578 C-295.6804792 386.3996451 -292.45712818 381.45589272 -289.234375 376.51171875 C-288.62037842 375.57005859 -288.00638184 374.62839844 -287.3737793 373.65820312 C-284.33435113 368.99659697 -281.29583054 364.33440025 -278.2578125 359.671875 C-259.84248719 331.41455936 -241.32123003 303.22646374 -222.8102417 275.0317688 C-211.4749021 257.76623197 -200.15213878 240.49264721 -188.859375 223.19921875 C-188.19679688 222.18472656 -187.53421875 221.17023438 -186.8515625 220.125 C-174.82951699 201.71476952 -162.88137351 183.26078373 -151.0390625 164.734375 C-148.29876103 160.44762368 -145.55395683 156.1638176 -142.8046875 151.8828125 C-116.03581031 110.18263338 -89.40535036 67.96800763 -66.1171875 24.19921875 C-65.80276703 23.60955826 -65.48834656 23.01989777 -65.16439819 22.41236877 C-63.63752119 19.54702061 -62.11932035 16.67767218 -60.61474609 13.80053711 C-56.69993859 6.41094968 -53.33449918 0.20069563 -45.859375 -4.05078125 C-45.034375 -4.5303125 -44.209375 -5.00984375 -43.359375 -5.50390625 C-28.98517377 -12.96052314 -12.29053541 -10.24927516 0 0 Z M-26.859375 103.19921875 C-27.34664062 104.08738281 -27.83390625 104.97554688 -28.3359375 105.890625 C-39.71470212 126.45929569 -52.34929681 146.30711448 -64.859375 166.19921875 C-65.38772949 167.03936523 -65.91608398 167.87951172 -66.46044922 168.74511719 C-74.54671903 181.59275307 -82.69637872 194.40023658 -90.859375 207.19921875 C-91.4992334 208.20291504 -92.1390918 209.20661133 -92.79833984 210.24072266 C-101.79115441 224.34122514 -110.86208288 238.38775331 -120.01806641 252.3828125 C-122.44207261 256.09049422 -124.86002346 259.80210585 -127.27807617 263.51367188 C-135.96816649 276.85060292 -144.69302275 290.16468291 -153.41992188 303.47753906 C-157.00624277 308.94862868 -160.59102556 314.42072597 -164.17590332 319.89276123 C-166.1536622 322.911623 -168.13152388 325.93041742 -170.109375 328.94921875 C-170.90104216 330.15755176 -171.69270882 331.3658851 -172.484375 332.57421875 C-174.06770833 334.99088542 -175.65104167 337.40755208 -177.234375 339.82421875 C-177.62622986 340.42231354 -178.01808472 341.02040833 -178.42181396 341.6366272 C-179.21368212 342.84526699 -180.00555224 344.0539055 -180.79742432 345.26254272 C-182.77352432 348.27867665 -184.74959046 351.29483275 -186.72558594 354.31103516 C-190.32461682 359.8046005 -193.92392196 365.29798532 -197.52444458 370.79057312 C-214.8180822 397.17199384 -232.06691803 423.58259515 -249.19140625 450.07421875 C-250.95687378 452.8051864 -252.72521189 455.53425909 -254.49609375 458.26171875 C-260.14758298 466.97075803 -265.74414991 475.71336007 -271.3112793 484.4765625 C-275.85271989 491.62374769 -280.41544672 498.75708072 -284.984375 505.88671875 C-291.65198971 516.29762536 -298.2848085 526.72929876 -304.859375 537.19921875 C-305.70701416 538.54886719 -305.70701416 538.54886719 -306.57177734 539.92578125 C-345.31571059 601.66373947 -383.04110243 664.15024374 -417.859375 728.19921875 C-418.18748169 728.80215759 -418.51558838 729.40509644 -418.8536377 730.02630615 C-453.96719758 794.60731774 -488.6630704 862.24982427 -504.734375 934.44921875 C-504.92563965 935.30443115 -505.1169043 936.15964355 -505.31396484 937.04077148 C-508.18481549 950.65319275 -509.24141774 964.13289306 -509.171875 978.01171875 C-509.16914078 979.16166321 -509.16914078 979.16166321 -509.16635132 980.33483887 C-508.90085108 1047.75287356 -493.21373207 1115.13297297 -464.859375 1176.19921875 C-464.41625977 1177.16762695 -463.97314453 1178.13603516 -463.51660156 1179.13378906 C-447.50415069 1214.07110882 -426.92700502 1246.28592264 -402.859375 1276.19921875 C-402.08980469 1277.1634375 -401.32023437 1278.12765625 -400.52734375 1279.12109375 C-396.00745915 1284.72543402 -391.29954198 1290.10994709 -386.4140625 1295.3984375 C-385.0750615 1296.86642483 -383.74021147 1298.33913513 -382.4519043 1299.85180664 C-377.16492473 1306.05204347 -371.43071802 1311.77940916 -365.66235352 1317.52661133 C-363.925439 1319.25816575 -362.19393611 1320.99500234 -360.46289062 1322.73242188 C-354.7647427 1328.43429725 -349.03130206 1334.00523474 -342.859375 1339.19921875 C-341.84943615 1340.07587423 -340.84027699 1340.95342904 -339.83203125 1341.83203125 C-278.00548322 1394.77879319 -203.7675233 1430.80779637 -68.859375 1456.19921875 C-67.84294922 1456.30524414 -66.82652344 1456.41126953 -65.77929688 1456.52050781 C-32.7255032 1459.4005854 2.28035777 1458.95715137 35.140625 1454.19921875 C36.18721283 1454.05002991 36.18721283 1454.05002991 37.25494385 1453.89782715 C120.19857317 1442.02160467 199.65238432 1410.71181771 266.140625 1359.19921875 C266.67961426 1358.78494629 267.21860352 1358.37067383 267.77392578 1357.94384766 C276.81778805 1350.9864361 285.58299867 1343.74649959 294.140625 1336.19921875 C295.09453125 1335.35875 296.0484375 1334.51828125 297.03125 1333.65234375 C304.93950275 1326.50531319 312.46967284 1318.97420274 320.015625 1311.44921875 C320.56191559 1310.90560699 321.10820618 1310.36199524 321.67105103 1309.8019104 C327.71279977 1303.78262633 333.63534119 1297.72063443 339.140625 1291.19921875 C340.01743538 1290.18941438 340.8949944 1289.18025936 341.7734375 1288.171875 C368.68047806 1256.75221164 390.47573293 1222.03375936 409.140625 1185.19921875 C409.56698242 1184.36793457 409.99333984 1183.53665039 410.43261719 1182.68017578 C444.70139756 1115.48782093 468.28032159 1024.61292388 456.140625 949.19921875 C455.99383301 948.27689453 455.84704102 947.35457031 455.69580078 946.40429688 C447.42281825 896.65069561 426.67764882 849.45302418 405.140625 804.19921875 C404.59325684 803.04276855 404.04588867 801.88631836 403.48193359 800.69482422 C391.01807661 774.39597688 377.81348837 748.45016575 363.69335938 723 C361.97656829 719.90329759 360.26955168 716.8012999 358.5625 713.69921875 C351.43043021 700.76806393 344.14068222 687.94343571 336.66015625 675.2109375 C333.63453415 670.05801713 330.65692164 664.87881436 327.6875 659.69335938 C320.09251875 646.44203179 312.2305168 633.37231597 304.26927185 620.33981323 C300.6449438 614.3999844 297.08173061 608.42409597 293.515625 602.44921875 C288.0615842 593.32826391 282.49072143 584.2877104 276.83544922 575.2902832 C272.90138717 569.02922396 269.01409673 562.74194276 265.15673828 556.43334961 C258.74665733 545.95195907 252.19134496 535.59015727 245.43798828 525.32666016 C241.68920421 519.61645337 238.04641094 513.85905735 234.515625 508.01171875 C230.25581812 500.95940669 225.82899965 494.03301772 221.31884766 487.13842773 C216.96390384 480.47900869 212.66940196 473.78278947 208.390625 467.07421875 C200.71404876 455.05079977 192.91232771 443.11156437 185.09228516 431.18115234 C182.26454407 426.86065828 179.45160679 422.53062799 176.640625 418.19921875 C163.22427503 397.53791423 149.70099669 376.94636117 136.18066406 356.35302734 C133.07825069 351.62762331 129.97639562 346.90185332 126.875 342.17578125 C126.22638504 341.18739006 126.22638504 341.18739006 125.56466675 340.17903137 C123.8215048 337.52268302 122.0783705 334.86631654 120.33526611 332.20993042 C115.90743172 325.46218738 111.47934033 318.71461427 107.04922485 311.96836853 C96.98761253 296.64636494 86.93970754 281.31581384 76.93652344 265.95556641 C75.0502877 263.06056892 73.16210645 260.16684812 71.2734375 257.2734375 C54.26218257 231.21169167 37.44575519 205.02818911 20.76367188 178.75439453 C19.70857426 177.09334585 18.65263108 175.43283386 17.59570312 173.77294922 C8.08798186 158.84063406 -1.12622997 143.7349112 -10.24967957 128.56517029 C-11.79958336 125.98950259 -13.35272492 123.41579465 -14.90615845 120.84225464 C-15.6618663 119.58814634 -16.41593739 118.33305018 -17.16830444 117.07693481 C-18.22159837 115.31844837 -19.28017159 113.56324178 -20.33984375 111.80859375 C-20.94723389 110.79764648 -21.55462402 109.78669922 -22.18041992 108.74511719 C-23.6036629 106.58697007 -24.9465223 104.9168824 -26.859375 103.19921875 Z " fill="#264472" transform="translate(859.859375,72.80078125)"/>
<path d="M0 0 C1.64863546 -0.0057115 3.29726697 -0.01267876 4.94589233 -0.02079773 C9.39843369 -0.03865765 13.8507772 -0.03757439 18.30334353 -0.03185534 C22.0308151 -0.02875324 25.75824923 -0.03486723 29.48571545 -0.04089409 C38.28396602 -0.05491403 47.08211944 -0.05339901 55.88037109 -0.04199219 C64.93498611 -0.03051189 73.98930489 -0.04459093 83.04388088 -0.07138866 C90.83954012 -0.09359045 98.63510667 -0.10017301 106.43079525 -0.09431225 C111.07731766 -0.09095237 115.7236502 -0.09329313 120.3701458 -0.11056328 C124.74109512 -0.12610211 129.11160763 -0.12200053 133.48254013 -0.10325813 C135.07919676 -0.09959144 136.67588626 -0.10262421 138.27251244 -0.11314392 C152.14707951 -0.19752456 162.96486103 2.14121776 173.20922852 12.02905273 C180.28311025 19.64979315 182.65730932 28.27127904 182.63916016 38.48925781 C182.63930618 39.18249146 182.63945221 39.8757251 182.63960266 40.58996582 C182.63890928 42.86787103 182.63114391 45.14569317 182.62329102 47.42358398 C182.62142479 49.0082749 182.62000185 50.59296639 182.6190033 52.17765808 C182.6151942 56.33854784 182.60537769 60.49940242 182.59429932 64.66027832 C182.58405059 68.91015141 182.57949827 73.16003021 182.57446289 77.40991211 C182.56375393 85.74130842 182.54669687 94.07267619 182.52563477 102.40405273 C183.40322952 102.39517029 184.28082428 102.38628784 185.18501282 102.37713623 C193.4961535 102.29665393 201.8071614 102.23591844 210.11860371 102.19680405 C214.39060032 102.17601816 218.66227223 102.14786746 222.93408203 102.10229492 C227.06438022 102.05851284 231.19436808 102.03484813 235.3248806 102.02454376 C236.89280259 102.01720995 238.46070953 102.00289026 240.0284977 101.98113251 C254.0829265 101.79402045 264.75268439 104.11961932 275.20922852 113.99389648 C282.30032986 121.5094029 284.63673083 131.09188473 284.67280579 141.18188477 C284.67832082 142.18521363 284.67832082 142.18521363 284.68394727 143.20881176 C284.69493254 145.44317082 284.69881919 147.67748328 284.70263672 149.91186523 C284.70890545 151.51710659 284.71555261 153.1223465 284.72254944 154.72758484 C284.74354992 159.99473061 284.75395057 165.26187652 284.76391602 170.52905273 C284.76796558 172.34679174 284.77208256 174.16453059 284.7762661 175.98226929 C284.79531182 184.52685357 284.80954211 193.07142927 284.81787807 201.61603069 C284.82763752 211.45562046 284.85392582 221.29498449 284.89437896 231.13449478 C284.92462281 238.7542705 284.9393549 246.37398184 284.94265908 253.99381638 C284.94500083 258.53766663 284.95384608 263.08127557 284.97912025 267.62506104 C285.00255014 271.9064512 285.0065749 276.18744374 284.99635887 280.46888161 C284.99586695 282.03084454 285.00208481 283.59282806 285.01591492 285.15472984 C285.13563406 299.49009847 283.11390065 311.54740354 272.90063477 322.07983398 C265.62406353 328.86793169 257.24838307 331.53468691 247.4621582 331.51757812 C246.40789642 331.51779716 246.40789642 331.51779716 245.33233643 331.51802063 C243.01652913 331.51732572 240.70080295 331.50955312 238.38500977 331.50170898 C236.77646936 331.49984331 235.16792838 331.49842011 233.55938721 331.49742126 C229.33107935 331.49360789 225.10280598 331.48378768 220.87451172 331.47271729 C216.55770331 331.46247779 212.24088932 331.45791821 207.92407227 331.45288086 C199.45791063 331.44216435 190.99177699 331.4251021 182.52563477 331.40405273 C182.53562752 332.70498367 182.53562752 332.70498367 182.54582214 334.03219604 C182.60615233 342.24065947 182.65171995 350.44904749 182.68107128 358.65768242 C182.69666882 362.87694704 182.71779779 367.09602711 182.75195312 371.31518555 C182.78475914 375.39359453 182.80253214 379.47182698 182.81026649 383.55035782 C182.81577215 385.09954733 182.82652249 386.64872813 182.84282494 388.19784164 C182.98154539 401.93688938 181.40179632 412.9961672 171.67407227 423.38061523 C164.14391945 430.43075831 155.92558634 433.5156421 145.70947266 433.55122375 C144.68186577 433.55673879 144.68186577 433.55673879 143.63349915 433.56236523 C141.33842214 433.57337604 139.04339045 433.57724154 136.74829102 433.58105469 C135.10216631 433.5873215 133.45604302 433.5939685 131.80992126 433.60096741 C126.40266908 433.62199128 120.99541669 433.63237098 115.58813477 433.64233398 C113.72363266 433.64638273 111.85913071 433.65049968 109.99462891 433.65468407 C101.2305955 433.67373522 92.4665705 433.68796416 83.70252037 433.69629604 C73.60369086 433.70605644 63.50508124 433.73234497 53.40632915 433.77279693 C45.59041254 433.80302401 37.77455869 433.81777131 29.95858479 433.82107705 C25.29570568 433.82342079 20.63306148 433.83229232 15.97024536 433.85753822 C11.57724895 433.88093838 7.18464011 433.88500456 2.79159737 433.87477684 C1.1872891 433.87428419 -0.41703901 433.88052383 -2.02128792 433.89433289 C-14.46301638 433.99535591 -25.65228386 432.74233912 -35.50561523 424.38842773 C-44.54939147 415.27287549 -46.85838973 405.63928815 -46.81425476 393.21520996 C-46.79893946 391.6219044 -46.78329156 390.028602 -46.76733398 388.43530273 C-46.76173119 386.78764229 -46.75746432 385.13997682 -46.75447083 383.49230957 C-46.7430758 379.17844583 -46.71365536 374.86489033 -46.68035889 370.55114746 C-46.64954211 366.14017912 -46.6359408 361.72916045 -46.62084961 357.31811523 C-46.5887799 348.67995374 -46.53764913 340.0420417 -46.47436523 331.40405273 C-47.8128804 331.41404549 -47.8128804 331.41404549 -49.17843628 331.42424011 C-57.62235898 331.48456008 -66.06620844 331.53013281 -74.51029778 331.55948925 C-78.85062795 331.57508948 -83.19077884 331.59622353 -87.53100586 331.63037109 C-91.72612373 331.66316729 -95.92107005 331.6809481 -100.1163063 331.68868446 C-101.7101524 331.69419185 -103.30399001 331.70494566 -104.8977623 331.7212429 C-118.26192892 331.85236049 -129.12699573 330.65765667 -139.47436523 321.40405273 C-149.02393334 310.54411156 -149.92136113 299.7261729 -149.87841797 285.85961914 C-149.88412781 284.19142705 -149.89109445 282.52323886 -149.8992157 280.85505676 C-149.91709536 276.34460763 -149.91598841 271.83435359 -149.91027331 267.32387972 C-149.90717362 263.54923725 -149.91328265 259.77463182 -149.91931206 255.99999464 C-149.93333893 247.0900527 -149.93181161 238.18020669 -149.92041016 229.27026367 C-149.90893343 220.09922326 -149.92300131 210.92847545 -149.94980663 201.75747359 C-149.97200785 193.86417104 -149.97859098 185.97096003 -149.97273022 178.07762849 C-149.96936968 173.37184729 -149.97171528 168.66625356 -149.98898125 163.96049881 C-150.00451875 159.53293113 -150.00041991 155.1057947 -149.9816761 150.67824364 C-149.97800883 149.06062461 -149.98104391 147.44297313 -149.99156189 145.82538414 C-150.06676521 133.29548335 -148.6845259 121.75256346 -139.47436523 112.40405273 C-128.16519056 102.6797278 -116.83182565 101.96482989 -102.52905273 102.11108398 C-100.90667109 102.11668997 -99.28428432 102.12095532 -97.66189575 102.12394714 C-93.42368161 102.1353171 -89.18578348 102.1647151 -84.94769287 102.19805908 C-80.61027296 102.22893076 -76.27280121 102.24248876 -71.93530273 102.25756836 C-63.44817971 102.28959365 -54.96131195 102.34069301 -46.47436523 102.40405273 C-46.48324768 101.49918121 -46.49213013 100.59430969 -46.50128174 99.66201782 C-46.58170161 91.10038938 -46.64246827 82.53888929 -46.68161392 73.97696877 C-46.70241629 69.57603357 -46.730598 65.1754126 -46.77612305 60.7746582 C-46.81984517 56.5211723 -46.84355751 52.2679871 -46.85387421 48.01429367 C-46.86121859 46.39809822 -46.87555961 44.7819177 -46.89728546 43.16585159 C-47.07058663 29.73064242 -45.14487604 19.38035044 -35.47436523 9.40405273 C-24.92958579 0.42727023 -13.29967381 -0.04179166 0 0 Z M26.52563477 73.40405273 C26.31581406 96.31969863 26.31581406 96.31969863 26.13769531 119.2355957 C26.08776855 123.69726563 26.08776855 123.69726563 26.06062317 125.79495239 C26.04461743 127.24029727 26.03423263 128.68571183 26.02851868 130.13113403 C25.96789909 143.68772884 24.46533675 154.85506906 14.89672852 165.15795898 C7.59797665 171.91480816 -0.87135422 174.4916026 -10.62963867 174.609375 C-11.35371037 174.61940772 -12.07778206 174.62944044 -12.82379532 174.63977718 C-15.16041141 174.67108188 -17.49704453 174.69590008 -19.83374023 174.72045898 C-21.27922102 174.73886984 -22.72469644 174.75770692 -24.17016602 174.77697754 C-29.52150227 174.84533402 -34.87294129 174.90544517 -40.22436523 174.96655273 C-52.18686523 175.11092773 -64.14936523 175.25530273 -76.47436523 175.40405273 C-76.47436523 202.79405273 -76.47436523 230.18405273 -76.47436523 258.40405273 C-52.94555466 258.57435454 -52.94555466 258.57435454 -29.41650391 258.7019043 C-24.83239746 258.74731445 -24.83239746 258.74731445 -22.67622375 258.77362061 C-21.19259298 258.78809147 -19.70887518 258.79500065 -18.22517395 258.79559326 C-5.4690328 258.80939014 5.89492607 260.21686352 15.52563477 269.40405273 C22.79366187 277.51451025 25.59605863 285.63957203 25.73095703 296.48925781 C25.74098975 297.19362567 25.75102247 297.89799353 25.76135921 298.62370586 C25.79259253 300.89029911 25.81745234 303.15690995 25.84204102 305.42358398 C25.86045848 306.82833405 25.8792959 308.23307867 25.89855957 309.63781738 C25.96683629 314.8306648 26.02699838 320.02361635 26.08813477 325.21655273 C26.23250977 336.82842773 26.37688477 348.44030273 26.52563477 360.40405273 C53.91563477 360.40405273 81.30563477 360.40405273 109.52563477 360.40405273 C109.6564341 336.59115804 109.6564341 336.59115804 109.73339844 312.77807617 C109.77429199 308.13500977 109.77429199 308.13500977 109.79975891 305.95001221 C109.81269572 304.44892344 109.81613767 302.94773189 109.81159973 301.44659424 C109.78562404 289.48966591 111.09070653 278.03697322 119.72875977 268.93139648 C127.55092652 262.28255474 135.75509125 259.19196133 146.02148438 259.08520508 C146.74591767 259.07505182 147.47035097 259.06489857 148.21673679 259.05443764 C150.53714632 259.02406041 152.85743487 259.00672064 155.17797852 258.98999023 C156.62041246 258.97303416 158.06283653 258.95521517 159.50524902 258.93652344 C164.82443106 258.87359791 170.14379947 258.82731364 175.46313477 258.77905273 C187.36375977 258.65530273 199.26438477 258.53155273 211.52563477 258.40405273 C211.52563477 231.01405273 211.52563477 203.62405273 211.52563477 175.40405273 C187.99682419 175.23375093 187.99682419 175.23375093 164.46777344 175.10620117 C159.88366699 175.06079102 159.88366699 175.06079102 157.72749329 175.03448486 C156.24386251 175.020014 154.76014471 175.01310482 153.27644348 175.01251221 C140.90033036 174.99912636 130.3760665 173.66482918 120.53344727 165.46264648 C113.5657242 158.31869696 110.30791375 149.80663314 110.20678711 139.92993164 C110.19663385 139.19570669 110.1864806 138.46148174 110.17601967 137.70500755 C110.14557635 135.34688127 110.12828326 132.98887449 110.11157227 130.63061523 C110.09462197 129.16730735 110.0768036 127.70400925 110.05810547 126.24072266 C109.99510989 120.83694494 109.94887393 115.43298233 109.90063477 110.02905273 C109.77688477 97.94280273 109.65313477 85.85655273 109.52563477 73.40405273 C82.13563477 73.40405273 54.74563477 73.40405273 26.52563477 73.40405273 Z " fill="#264472" transform="translate(766.474365234375,697.595947265625)"/>
<path d="M0 0 C7.99039344 6.39563716 12.56768282 14.37626626 13.87890625 24.50390625 C16.8921115 83.43659491 0.99236513 144.61262919 -24.12109375 197.50390625 C-24.49282715 198.29651855 -24.86456055 199.08913086 -25.24755859 199.90576172 C-35.16158887 220.92350591 -47.22472907 240.88237884 -61.12109375 259.50390625 C-61.55228516 260.08527344 -61.98347656 260.66664063 -62.42773438 261.265625 C-74.89116954 277.99840893 -88.85865493 293.42914025 -103.60058594 308.16870117 C-105.12596088 309.69628041 -106.64310047 311.23174207 -108.16015625 312.76757812 C-114.48907895 319.13238529 -121.09081069 324.90915893 -128.12109375 330.50390625 C-129.33446266 331.52791701 -130.5434516 332.55716232 -131.74609375 333.59375 C-148.87825948 348.15268512 -168.40520355 360.73199328 -188.12109375 371.50390625 C-189.02972168 372.00196777 -189.93834961 372.5000293 -190.87451172 373.01318359 C-245.15765815 402.53279969 -305.10640781 418.31682481 -366.81933594 420.42480469 C-368.85002793 420.49459088 -370.8801675 420.58007233 -372.91015625 420.66796875 C-385.35188429 420.99460123 -395.56548374 418.40030196 -404.8671875 409.91015625 C-412.37255568 401.9743056 -414.51595586 391.43479909 -414.3984375 380.83203125 C-413.53973002 370.52754148 -409.89471096 361.75047126 -402.23828125 354.79296875 C-393.10163402 347.44782098 -383.60202053 346.49295484 -372.22900391 346.21411133 C-287.0823715 344.09304247 -209.43866031 308.92178204 -149.12109375 249.50390625 C-147.24077513 247.51258492 -145.44793849 245.49703741 -143.69921875 243.390625 C-141.87322293 241.20756564 -139.93573983 239.14908378 -137.99609375 237.06640625 C-91.26362314 185.09735999 -64.03950434 114.97109754 -60.63671875 45.5 C-60.57794807 44.33108215 -60.57794807 44.33108215 -60.51799011 43.1385498 C-60.32745232 39.27853634 -60.15979814 35.41968306 -60.03051758 31.55712891 C-59.57617649 20.0893767 -57.62845487 11.11066361 -49.5390625 2.55078125 C-35.7222381 -9.14552891 -14.96495932 -10.12780075 0 0 Z " fill="#264472" transform="translate(1212.12109375,1017.49609375)"/>
</svg>
