<?xml version="1.0" encoding="UTF-8"?>
<svg version="1.1" xmlns="http://www.w3.org/2000/svg" width="1668" height="1667">
<path d="M0 0 C79.55807101 -2.11609532 160.08903284 23.2780442 223.75488281 71.07080078 C224.62258301 71.7154126 224.62258301 71.7154126 225.5078125 72.37304688 C242.24451621 84.83705864 257.677638 98.80588275 272.41967773 113.55029297 C273.94725698 115.07566791 275.48271863 116.5928075 277.01855469 118.10986328 C283.3822852 124.43758903 289.17620457 131.02869058 294.75488281 138.07080078 C295.76666884 139.29144102 296.78179692 140.50932686 297.80175781 141.72314453 C310.35141435 156.87577684 320.71375131 173.62120491 329.75488281 191.07080078 C330.41568848 192.34334717 330.41568848 192.34334717 331.08984375 193.64160156 C351.80399519 234.0334618 362.87178262 278.98270431 366.75488281 324.07080078 C366.84987061 325.17133789 366.9448584 326.271875 367.04272461 327.40576172 C367.88271417 338.37565204 367.95506627 349.32377244 367.94238281 360.32080078 C367.94177856 361.29090088 367.94117432 362.26100098 367.94055176 363.26049805 C367.78258675 456.95301415 332.47605878 547.86170944 283.75488281 627.07080078 C283.23732422 627.91868164 282.71976563 628.7665625 282.18652344 629.64013672 C267.55384997 653.53646088 251.15530242 677.67094672 230.75488281 697.07080078 C229.97113281 697.85455078 229.18738281 698.63830078 228.37988281 699.44580078 C227.51363281 700.31205078 226.64738281 701.17830078 225.75488281 702.07080078 C224.89056641 703.00472656 224.89056641 703.00472656 224.00878906 703.95751953 C200.8243242 728.36913943 169.91084945 741.9989698 136.49707031 742.99267578 C134.6446875 743.03134766 134.6446875 743.03134766 132.75488281 743.07080078 C137.20515122 753.16675544 141.66285564 762.509133 148.75488281 771.07080078 C149.45355469 771.92029297 150.15222656 772.76978516 150.87207031 773.64501953 C158.61443832 782.64104499 167.35345539 789.41058989 177.57592773 795.35327148 C191.9227184 803.77837025 205.24618601 813.85376378 217.95361328 824.56201172 C219.61319959 825.95212332 221.29088909 827.31533647 222.97753906 828.67236328 C231.32260806 835.48692902 238.93735346 843.04153917 246.56738281 850.63330078 C247.10354218 851.16419312 247.63970154 851.69508545 248.19210815 852.24206543 C255.18820044 859.18497536 261.60520757 866.35357671 267.75488281 874.07080078 C268.70125233 875.18446926 269.65434499 876.29251166 270.61816406 877.39111328 C286.63991377 895.73818871 299.60751915 916.72558244 311.53076172 937.90136719 C312.59750014 939.79188127 313.68023533 941.67201562 314.76660156 943.55126953 C326.65367774 964.80845188 335.36593444 988.12365098 343.10699463 1011.14538574 C343.77602928 1013.13364453 344.44968012 1015.12030386 345.12353516 1017.10693359 C377.2572613 1112.14395423 399.31432744 1211.31226344 409.62127686 1333.03536987 C409.75260593 1335.03611337 409.89645717 1337.03602226 410.04052734 1339.03588867 C411.18416595 1356.20162957 411.00076969 1373.43767287 411.00488281 1390.63330078 C411.00532467 1391.47935757 411.00576653 1392.32541435 411.00622177 1393.19710922 C411.01344274 1419.58921843 410.68302751 1445.81284277 407.75488281 1472.07080078 C407.66059998 1472.92293152 407.56631714 1473.77506226 407.46917725 1474.65301514 C401.6322383 1526.91597679 401.6322383 1526.91597679 392.00878906 1535.65673828 C385.98979946 1539.98640648 378.62279622 1541.31109587 371.30175781 1540.94970703 C364.30445423 1539.76310135 358.20483083 1536.28090038 353.89160156 1530.62939453 C348.17521227 1521.4749859 348.09122495 1513.31070176 349.74316406 1502.82861328 C349.95619999 1501.43545603 350.16874336 1500.04222339 350.38085938 1498.64892578 C350.4930481 1497.92382812 350.60523682 1497.19873047 350.7208252 1496.45166016 C352.73237091 1483.35783672 354.37075109 1470.26978993 355.50488281 1457.07080078 C355.59281601 1456.06463715 355.59281601 1456.06463715 355.68252563 1455.03814697 C356.08440336 1450.38536128 356.43485335 1445.72982311 356.75488281 1441.07080078 C356.80327301 1440.38533173 356.85166321 1439.69986267 356.90151978 1438.99362183 C357.94657323 1423.71866843 357.9552483 1408.43811223 357.94238281 1393.13330078 C357.94211594 1392.47184933 357.94184906 1391.81039787 357.9415741 1391.12890244 C357.9305787 1369.38070957 357.55138381 1347.74979537 355.75488281 1326.07080078 C355.66367157 1324.93544891 355.66367157 1324.93544891 355.57061768 1323.77716064 C348.05499909 1230.30813453 327.48370877 1138.73918017 237.75488281 922.07080078 C237.27712402 921.43899902 236.79936523 920.80719727 236.30712891 920.15625 C230.6421957 912.67009647 224.66551926 905.59624162 218.24707031 898.74658203 C216.1529074 896.49814692 214.1274762 894.2168949 212.12988281 891.88330078 C205.8834232 884.69763602 198.99636816 878.23483329 191.75488281 872.07080078 C190.84480469 871.27158203 189.93472656 870.47236328 188.99707031 869.64892578 C175.18688779 857.60500695 160.15445211 847.46809196 144.609375 837.80249023 C137.94808162 833.62554921 131.77236901 829.13086658 125.75488281 824.07080078 C124.93093018 823.38256226 124.93093018 823.38256226 124.09033203 822.68041992 C117.13837633 816.77089436 111.26376603 810.32640307 105.75488281 803.07080078 C104.95308594 802.03439453 104.15128906 800.99798828 103.32519531 799.93017578 C88.32883328 780.09637224 77.58490967 755.67982392 73.75488281 731.07080078 C72.95050781 730.98701172 72.14613281 730.90322266 71.31738281 730.81689453 C49.96303325 726.34465685 27.64784866 708.58193854 15.86523438 690.81787109 C-0.37840669 665.25949478 -5.76533683 633.99172697 0.21264648 604.16088867 C0.6806762 602.11575287 1.20325662 600.09498446 1.75488281 598.07080078 C2.07755127 596.88043213 2.07755127 596.88043213 2.40673828 595.66601562 C7.70326844 576.8710644 16.15958956 559.07707425 28.75488281 544.07080078 C29.68998707 542.92253298 30.62487127 541.77408595 31.55957031 540.62548828 C38.49977056 532.21381512 46.0375878 524.89029308 54.27099609 517.75732422 C73.83554136 500.76490978 90.7247043 477.00429875 93.07128906 450.49658203 C93.29566136 443.68579721 93.38915377 437.43152503 88.75488281 432.07080078 C80.95385004 425.14374263 71.24794212 422.59262464 61.30053711 420.37036133 C50.79848326 418.01853918 41.34520369 414.9653567 31.75488281 410.07080078 C30.70042969 409.53712891 29.64597656 409.00345703 28.55957031 408.45361328 C9.44408478 398.02244754 -3.96705407 381.46028373 -15.04199219 363.09033203 C-19.62752001 355.52421113 -25.14029022 349.41324077 -31.24511719 343.07080078 C-31.81746094 342.42369141 -32.38980469 341.77658203 -32.97949219 341.10986328 C-36.62640216 337.10578171 -40.84917573 334.09885405 -45.30761719 331.07080078 C-45.87834961 330.67940918 -46.44908203 330.28801758 -47.03710938 329.88476562 C-59.35425021 321.77437138 -72.38092299 317.11974031 -86.36102295 312.76135254 C-133.08570669 298.156631 -180.48430642 279.68664237 -219.24511719 249.07080078 C-220.07914063 248.42884766 -220.91316406 247.78689453 -221.77246094 247.12548828 C-230.44490695 240.35741825 -238.51171898 232.88871701 -246.24511719 225.07080078 C-260.31920512 258.72721318 -266.08562137 296.46690931 -270.39990234 332.5144043 C-274.11121421 363.35713822 -285.63710409 389.18000885 -304.47363281 413.73876953 C-307.32096114 417.48707165 -310.06335676 421.30924258 -312.80761719 425.13330078 C-313.87258429 426.61126414 -314.93768851 428.0891287 -316.00292969 429.56689453 C-317.08369196 431.06817278 -318.16442038 432.56947541 -319.24511719 434.07080078 C-321.55645214 437.27997542 -323.8692477 440.48809257 -326.18261719 443.69580078 C-326.96197632 444.77873413 -326.96197632 444.77873413 -327.75708008 445.88354492 C-331.1979446 450.65485489 -334.69971741 455.37666943 -338.24511719 460.07080078 C-336.95789196 462.91523322 -335.63572629 464.91000701 -333.37524414 467.05664062 C-332.50842766 467.88933975 -332.50842766 467.88933975 -331.62409973 468.73886108 C-331.0001683 469.33051056 -330.37623688 469.92216003 -329.73339844 470.53173828 C-328.40385743 471.82131466 -327.07510761 473.11170715 -325.74707031 474.40283203 C-323.6662291 476.41620361 -321.58085244 478.42374819 -319.48071289 480.41699219 C-308.37311871 490.98722861 -298.38103218 501.66029305 -297.95117188 517.85546875 C-297.83161595 532.12981667 -302.08020348 541.1395415 -309.88085938 552.91503906 C-313.72655274 558.85439338 -315.96023008 564.02717978 -317.40136719 570.99267578 C-318.45577561 574.83931391 -320.16346362 577.67531669 -322.24511719 581.07080078 C-321.58842041 581.18560791 -320.93172363 581.30041504 -320.25512695 581.41870117 C-271.80593999 590.00904207 -225.79391374 607.32480044 -186.24511719 637.07080078 C-185.71402344 637.46444824 -185.18292969 637.8580957 -184.63574219 638.26367188 C-164.21964599 653.40850052 -144.75824755 670.88004714 -129.24511719 691.07080078 C-128.33752497 692.17035757 -127.42575765 693.26647613 -126.51074219 694.35986328 C-91.57161912 736.40612368 -64.97045378 794.66660421 -61.88183594 849.68798828 C-61.75890169 858.65396618 -61.75890169 858.65396618 -58.37011719 866.62158203 C-56.07964156 868.36652208 -53.78005228 869.71324876 -51.24511719 871.07080078 C-30.12154657 887.82553057 -22.3353802 920.95658591 -18.24511719 946.07080078 C-18.12652344 946.77978516 -18.00792969 947.48876953 -17.88574219 948.21923828 C-11.02691939 991.49514405 -15.2406673 1046.59575009 -41.24511719 1083.07080078 C-48.6296773 1093.11587904 -48.6296773 1093.11587904 -52.20475769 1095.22918701 C-55.5088741 1097.21582929 -57.84341778 1098.71396207 -58.96878052 1102.51515198 C-59.21765275 1105.53520572 -59.22231507 1108.46734438 -59.13964844 1111.49658203 C-59.14340988 1112.59874557 -59.14717133 1113.70090912 -59.15104675 1114.83647156 C-59.1573443 1118.35334949 -59.11036027 1121.86685438 -59.05761719 1125.38330078 C-59.03133232 1128.8883519 -59.01658466 1132.39284467 -59.01774597 1135.897995 C-59.01573202 1138.07517877 -58.99673335 1140.25243605 -58.95796204 1142.42927551 C-58.89966226 1152.11156766 -60.69328307 1159.28385972 -67.40917969 1166.41064453 C-72.4691373 1170.98613812 -78.27565231 1172.47741459 -84.96777344 1172.34033203 C-92.64405046 1171.43181897 -97.9620015 1168.09450066 -102.87011719 1162.26611328 C-106.82443173 1155.95269063 -106.42810893 1149.79343282 -106.27246094 1142.60986328 C-106.25865647 1140.34164912 -106.2476762 1138.07341633 -106.23925781 1135.80517578 C-106.21887176 1132.24670378 -106.18252301 1128.69184146 -106.09790039 1125.13427734 C-105.1890988 1111.82182166 -105.1890988 1111.82182166 -109.60253906 1099.84741211 C-112.41113322 1097.83419491 -115.11584836 1096.50718203 -118.24511719 1095.07080078 C-140.7298128 1074.76176384 -148.59336852 1040.91835167 -152.24511719 1012.07080078 C-152.34083008 1011.36342773 -152.43654297 1010.65605469 -152.53515625 1009.92724609 C-153.56459585 1001.30430582 -153.48887593 992.61744463 -153.49511719 983.94580078 C-153.4961293 982.68124557 -153.4961293 982.68124557 -153.49716187 981.3911438 C-153.44509107 940.31409726 -145.26059645 898.33740022 -115.67480469 868.13720703 C-113.24872601 866.07387002 -111.25311574 865.05027362 -108.24511719 864.07080078 C-113.54366915 814.11507642 -130.96708654 765.13338565 -163.24511719 726.07080078 C-163.8899707 725.28382813 -163.8899707 725.28382813 -164.54785156 724.48095703 C-197.36621755 684.52399757 -238.71977553 655.06725271 -287.93261719 638.63330078 C-288.57818573 638.4175238 -289.22375427 638.20174683 -289.8888855 637.97943115 C-296.95213114 635.63428544 -303.94240752 633.51868363 -311.24511719 632.07080078 C-310.75011719 632.93705078 -310.25511719 633.80330078 -309.74511719 634.69580078 C-306.23725378 643.21003236 -307.40737434 651.70712447 -310.75537109 659.97363281 C-311.71166379 662.18107906 -312.70568063 664.36712186 -313.71386719 666.55126953 C-315.44459188 669.88958622 -315.44459188 669.88958622 -315.24511719 673.07080078 C-314.11589844 673.28845093 -314.11589844 673.28845093 -312.96386719 673.51049805 C-261.7377244 683.48452024 -208.68463465 701.59533351 -177.7890625 746.87841797 C-169.04460685 760.25365331 -160.89404499 774.78073032 -162.24511719 791.07080078 C-163.91497409 797.30761571 -167.91850415 801.58843258 -173.24511719 805.07080078 C-179.25137303 808.26049577 -185.11153205 809.10582446 -191.72558594 807.44970703 C-199.04738942 804.95741386 -203.65748245 801.14968656 -207.18896484 794.21826172 C-208.56447327 791.33044641 -209.88574055 788.42015094 -211.19482422 785.50170898 C-214.13080268 779.04721666 -217.73699788 773.55701303 -222.24511719 768.07080078 C-223.14810547 766.92417969 -223.14810547 766.92417969 -224.06933594 765.75439453 C-244.36517644 741.2887587 -278.97388774 728.7245558 -309.24511719 723.07080078 C-309.43074219 723.99892578 -309.61636719 724.92705078 -309.80761719 725.88330078 C-311.1156803 730.52692482 -313.79251897 734.16277112 -316.42871094 738.15283203 C-321.32784946 746.02306101 -325.47371015 754.59817095 -324.24511719 764.07080078 C-320.42036355 773.15459066 -313.12552047 778.04728348 -304.33639526 781.91992188 C-299.12467079 783.86024029 -293.82036894 784.71200257 -288.34277344 785.57080078 C-287.14381943 785.77382813 -285.94486542 785.97685547 -284.70957947 786.18603516 C-280.91116598 786.82872641 -277.11000591 787.45209391 -273.30761719 788.07080078 C-268.29554989 788.88748287 -263.28726292 789.72360795 -258.28027344 790.57080078 C-257.15178482 790.74804688 -256.0232962 790.92529297 -254.86061096 791.10791016 C-234.59249113 794.54010703 -220.41364726 805.49282957 -208.64160156 821.97875977 C-177.89145477 866.52750353 -171.73977108 926.79369421 -180.93261719 979.00830078 C-187.25629 1012.50651207 -199.87257348 1046.47395079 -220.24511719 1074.07080078 C-221.29210305 1075.50301141 -222.33896678 1076.93531133 -223.38574219 1078.36767578 C-225.77804186 1081.6294147 -228.18016042 1084.8836618 -230.58886719 1088.13330078 C-240.25465544 1101.17801925 -249.65745825 1114.28637395 -258.24511719 1128.07080078 C-258.87434082 1129.07900879 -259.50356445 1130.0872168 -260.15185547 1131.12597656 C-270.49905694 1147.77296319 -280.23244721 1164.65510264 -289.24511719 1182.07080078 C-289.80183105 1183.14571777 -290.35854492 1184.22063477 -290.93212891 1185.328125 C-333.96320112 1268.88251485 -369.52727456 1371.56695915 -345.9050293 1499.06420898 C-345.37429889 1500.67799857 -344.75822902 1502.26359255 -344.11621094 1503.83642578 C-341.43163151 1510.7224322 -341.81249799 1517.91336709 -344.24121094 1524.78564453 C-347.21551087 1531.55593815 -351.36721342 1536.14258433 -358.24511719 1539.07080078 C-366.61392875 1541.46514741 -373.70346773 1541.73079252 -381.58886719 1537.94580078 C-391.61703201 1532.06261075 -395.1585248 1521.73666104 -398.30761719 1511.07080078 C-398.64486816 1509.95012207 -398.98211914 1508.82944336 -399.32958984 1507.67480469 C-407.29613796 1480.34623002 -410.47638635 1452.15760028 -410.43261719 1423.75830078 C-410.43201294 1423.02302155 -410.43140869 1422.28774231 -410.43078613 1421.53018188 C-410.24607957 1337.87500346 -383.60916159 1256.70828346 -323.73339844 1133.68017578 C-322.41688318 1131.3719548 -321.12077545 1129.05461118 -319.83886719 1126.72705078 C-306.65020225 1102.7909769 -291.25930674 1079.87015063 -274.73242188 1058.11376953 C-268.82450367 1050.32588995 -263.33897016 1042.41401588 -258.24511719 1034.07080078 C-257.56835938 1032.97638672 -256.89160156 1031.88197266 -256.19433594 1030.75439453 C-239.25960388 1002.37638722 -231.02338826 969.72018142 -230.99511719 936.82080078 C-230.99444244 936.11315582 -230.9937677 935.40551086 -230.99307251 934.67642212 C-231.01127979 922.60499651 -231.7589509 910.90700778 -234.24511719 899.07080078 C-234.41140625 898.27464355 -234.57769531 897.47848633 -234.74902344 896.65820312 C-238.43218711 879.75998463 -244.40541631 862.75706176 -255.24511719 849.07080078 C-255.7244873 848.40886719 -256.20385742 847.74693359 -256.69775391 847.06494141 C-260.65560248 843.9666371 -264.97981698 843.62546793 -269.86230469 842.81689453 C-270.91104767 842.62990494 -271.95979065 842.44291534 -273.04031372 842.2502594 C-276.3978203 841.65466013 -279.75860839 841.08083635 -283.12011719 840.50830078 C-285.34434015 840.11983901 -287.56830227 839.72988052 -289.79199219 839.33837891 C-290.87349548 839.14801056 -291.95499878 838.95764221 -293.0692749 838.76150513 C-294.13534973 838.57353363 -295.20142456 838.38556213 -296.29980469 838.19189453 C-297.35669495 838.00561493 -298.41358521 837.81933533 -299.50250244 837.62741089 C-302.41733229 837.11196578 -305.3314813 836.5929495 -308.24511719 836.07080078 C-309.00610718 835.93482483 -309.76709717 835.79884888 -310.55114746 835.65875244 C-318.24092588 834.25530956 -324.90654112 832.38418897 -331.74511719 828.57080078 C-332.54481934 828.13574219 -333.34452148 827.70068359 -334.16845703 827.25244141 C-353.85792858 816.22161659 -368.79244771 800.55230166 -375.55371094 778.69189453 C-381.13398904 757.53728092 -376.0838618 736.0733922 -366.24511719 717.07080078 C-364.63941962 714.41071811 -363.00829976 711.81774758 -361.21386719 709.28173828 C-359.81552442 706.09035922 -360.32118033 704.42803686 -361.24511719 701.07080078 C-362.46401987 697.99472841 -363.8398527 695.00308647 -365.24511719 692.00830078 C-370.17128351 681.45838165 -372.43123675 671.16932189 -368.87011719 659.63330078 C-366.58550521 653.54100216 -363.93540192 647.58434629 -361.30761719 641.63330078 C-360.88883301 640.67302979 -360.47004883 639.71275879 -360.03857422 638.72338867 C-359.62333496 637.80807373 -359.2080957 636.89275879 -358.78027344 635.94970703 C-358.41297119 635.13058838 -358.04566895 634.31146973 -357.66723633 633.4675293 C-356.24511719 631.07080078 -356.24511719 631.07080078 -351.24511719 626.07080078 C-384.90511719 625.57580078 -384.90511719 625.57580078 -419.24511719 625.07080078 C-419.19871094 633.05138672 -419.15230469 641.03197266 -419.10449219 649.25439453 C-419.08404821 654.31755862 -419.06479196 659.38067165 -419.04980469 664.44384766 C-419.02591592 672.47610167 -418.99829177 680.50817429 -418.94335938 688.5402832 C-418.89982099 695.0177161 -418.87596283 701.49495287 -418.86560822 707.97252083 C-418.85823129 710.44080758 -418.84382591 712.9090839 -418.82219696 715.37728691 C-418.79305783 718.84103261 -418.78916573 722.30397324 -418.79101562 725.76782227 C-418.77663452 726.7827475 -418.76225342 727.79767273 -418.74743652 728.84335327 C-418.79243566 736.65676105 -420.50243598 742.71863486 -425.49511719 748.82080078 C-431.872643 754.03877644 -437.08714583 757.21706806 -445.44824219 757.16845703 C-446.42792969 757.16523437 -447.40761719 757.16201172 -448.41699219 757.15869141 C-449.43277344 757.1503125 -450.44855469 757.14193359 -451.49511719 757.13330078 C-453.04199219 757.1265332 -453.04199219 757.1265332 -454.62011719 757.11962891 C-457.16184292 757.10786166 -459.70345038 757.09142089 -462.24511719 757.07080078 C-462.24143002 757.86979703 -462.23774284 758.66879328 -462.23394394 759.49200153 C-462.14547012 778.96517538 -462.07934793 798.43830892 -462.0378685 817.91164112 C-462.01727436 827.32894437 -461.98921416 836.74611315 -461.94335938 846.16333008 C-461.90339499 854.37477213 -461.87766151 862.58611677 -461.86876321 870.79765338 C-461.86356467 875.14256175 -461.8514124 879.4871915 -461.82219696 883.83201027 C-461.79487578 887.92863963 -461.78670559 892.02487784 -461.79268646 896.12158966 C-461.79159364 897.61828175 -461.78373959 899.11498807 -461.76829529 900.61160088 C-461.66627473 911.01554272 -462.2204838 920.8849711 -469.43261719 929.00830078 C-476.30507328 935.05257506 -483.00106854 936.79146854 -492.10058594 936.44189453 C-500.53984568 935.44595705 -505.16085519 931.72423643 -510.61621094 925.38720703 C-514.88693546 919.31397048 -515.37125083 912.71972043 -515.3653717 905.46487427 C-515.3674337 903.49621147 -515.3674337 903.49621147 -515.36953735 901.48777771 C-515.36599886 900.04556251 -515.36236406 898.60334755 -515.35864258 897.16113281 C-515.35836032 895.63317364 -515.3585192 894.10521434 -515.35908508 892.57725525 C-515.35937155 888.43930083 -515.35349915 884.3013755 -515.34651113 880.16342783 C-515.34025252 875.83526158 -515.3396718 871.50709464 -515.33848572 867.17892456 C-515.3353798 858.98740472 -515.32717636 850.79589826 -515.31713623 842.6043843 C-515.30595215 833.27673402 -515.30045886 823.94908309 -515.29544079 814.62142777 C-515.28499314 795.43787787 -515.267408 776.2543404 -515.24511719 757.07080078 C-515.85919434 757.09174805 -516.47327148 757.11269531 -517.10595703 757.13427734 C-519.94383736 757.21848112 -522.78145371 757.26978501 -525.62011719 757.32080078 C-526.585625 757.35431641 -527.55113281 757.38783203 -528.54589844 757.42236328 C-537.24134948 757.53908074 -544.50979862 755.7439956 -551.12011719 749.88330078 C-556.82618233 744.22024618 -558.69667562 736.83042193 -558.74279785 729.03373718 C-558.72841675 728.04686417 -558.71403564 727.05999115 -558.69921875 726.04321289 C-558.69980286 724.97875946 -558.70038696 723.91430603 -558.70098877 722.81759644 C-558.69821999 719.32743805 -558.66718405 715.83815224 -558.63574219 712.34814453 C-558.62827554 709.91720547 -558.62258461 707.48626036 -558.61859131 705.05531311 C-558.60336855 698.67822453 -558.5641152 692.30150429 -558.51977539 685.92456055 C-558.47875044 679.40890484 -558.46056485 672.89318923 -558.44042969 666.37744141 C-558.39761811 653.60840467 -558.33018347 640.83962238 -558.24511719 628.07080078 C-559.49046738 628.07746262 -560.73581757 628.08412445 -562.01890564 628.09098816 C-573.77427438 628.15189131 -585.52961097 628.19681766 -597.28510189 628.2262373 C-603.32823721 628.24187084 -609.37124481 628.2630671 -615.41430664 628.29711914 C-621.24983025 628.3297947 -627.08523125 628.34767118 -632.92083931 628.35543251 C-635.14349865 628.36096128 -637.36615153 628.37175758 -639.58875847 628.38799095 C-642.70995281 628.40987388 -645.83064517 628.41276313 -648.9519043 628.41137695 C-650.32000496 628.42755569 -650.32000496 628.42755569 -651.71574402 628.44406128 C-660.75492459 628.40082601 -667.87851813 626.2827724 -674.51855469 620.03955078 C-679.73287269 614.0938126 -681.58362687 607.2735407 -681.45605469 599.50439453 C-680.88960076 592.96919457 -678.59803261 587.44705672 -674.11621094 582.64111328 C-665.8713317 575.72161129 -656.88510342 574.91582114 -646.56787109 574.95727539 C-645.13278198 574.95705635 -645.13278198 574.95705635 -643.66870117 574.95683289 C-640.51967061 574.95752721 -637.37069986 574.96529709 -634.22167969 574.97314453 C-632.03307121 574.97501042 -629.84446232 574.97643352 -627.65585327 574.97743225 C-621.90524129 574.98124399 -616.15465471 574.9910628 -610.40405273 575.00213623 C-604.5320673 575.01237924 -598.66007774 575.01693606 -592.78808594 575.02197266 C-581.27375188 575.03268628 -569.75943665 575.04974656 -558.24511719 575.07080078 C-558.26541992 573.76159668 -558.28572266 572.45239258 -558.30664062 571.10351562 C-558.3230601 569.37126089 -558.33898458 567.63900142 -558.35449219 565.90673828 C-558.37648682 564.61497681 -558.37648682 564.61497681 -558.39892578 563.29711914 C-558.44057378 557.09454258 -557.81332246 552.29921268 -554.24511719 547.07080078 C-553.66761719 546.16330078 -553.09011719 545.25580078 -552.49511719 544.32080078 C-547.23697311 539.0626567 -541.54330251 535.9614515 -534.05950928 535.93035889 C-532.81910133 535.92179367 -532.81910133 535.92179367 -531.55363464 535.91305542 C-530.65486099 535.91193756 -529.75608734 535.9108197 -528.83007812 535.90966797 C-527.87674088 535.90470306 -526.92340363 535.89973816 -525.94117737 535.8946228 C-522.78727496 535.88001825 -519.63342286 535.87320166 -516.47949219 535.86767578 C-514.28476968 535.86192251 -512.09004719 535.8561648 -509.89532471 535.85040283 C-505.2920305 535.83989741 -500.68875373 535.83405187 -496.08544922 535.83056641 C-490.19650172 535.82508558 -484.30778589 535.80106423 -478.41891098 535.77259445 C-473.88406712 535.75393906 -469.34927871 535.7487609 -464.81439972 535.74723053 C-462.64395126 535.74420956 -460.47350365 535.73619985 -458.30309296 535.72304535 C-455.26112933 535.705926 -452.21972709 535.70787972 -449.17773438 535.71435547 C-447.84171928 535.70053329 -447.84171928 535.70053329 -446.47871399 535.68643188 C-438.32383352 535.74061323 -431.87445541 537.80140817 -425.78417969 543.39111328 C-416.57458528 553.44219347 -419.24511719 564.29928493 -419.24511719 578.07080078 C-392.02011719 577.57580078 -392.02011719 577.57580078 -364.24511719 577.07080078 C-365.56511719 574.43080078 -366.88511719 571.79080078 -368.24511719 569.07080078 C-368.62581313 566.14839956 -368.82274639 563.71616911 -368.74511719 560.82080078 C-368.73158203 560.07918701 -368.71804688 559.33757324 -368.70410156 558.57348633 C-368.28661266 547.35589943 -363.73476358 538.60480882 -358.04980469 529.19970703 C-356.50502727 526.52142411 -355.29639308 523.9699379 -354.24511719 521.07080078 C-363.15535335 511.90496716 -363.15535335 511.90496716 -372.55761719 503.25830078 C-384.63028217 492.91768838 -394.0564049 481.5382991 -395.40527344 465.12158203 C-395.96799199 451.49400668 -390.24680273 440.38133673 -382.37011719 429.75830078 C-381.80421875 428.98486328 -381.23832031 428.21142578 -380.65527344 427.41455078 C-378.85823726 424.96189261 -377.05253468 422.51581611 -375.24511719 420.07080078 C-374.07562448 418.48372467 -372.90635148 416.89648664 -371.73730469 415.30908203 C-369.98663015 412.93313161 -368.23538163 410.55761463 -366.48242188 408.18334961 C-360.87675763 400.58709938 -355.33277226 392.94812488 -349.83300781 385.27490234 C-348.23735765 383.06003001 -346.62524718 380.8578923 -345.01074219 378.65673828 C-331.6284051 360.27712121 -325.51270409 342.86748309 -322.67675781 320.42089844 C-307.77790154 204.78622319 -307.77790154 204.78622319 -280.80761719 176.13330078 C-276.64592889 171.31705568 -276.55145383 166.74918916 -276.46289062 160.671875 C-276.02189951 132.05155174 -255.61007172 113.86870631 -236.55810547 95.27392578 C-233.21586987 92.09044109 -229.76889714 89.0510286 -226.24511719 86.07080078 C-225.64054687 85.5594458 -225.03597656 85.04809082 -224.41308594 84.52124023 C-160.55289966 31.05550094 -83.07843999 2.61991601 0 0 Z M-41.24511719 56.07080078 C-42.9742334 56.37679199 -42.9742334 56.37679199 -44.73828125 56.68896484 C-103.8297292 67.48859899 -160.0645886 93.43396888 -202.67382812 136.51098633 C-204.45376851 138.27792839 -206.31536935 139.90710915 -208.24511719 141.50830078 C-212.33390741 145.03448615 -215.79108887 148.93298005 -219.24511719 153.07080078 C-220.02886719 153.93705078 -220.81261719 154.80330078 -221.62011719 155.69580078 C-223.6182435 158.61613924 -223.97055254 160.54865115 -224.24511719 164.07080078 C-214.04039326 196.1491286 -173.85160157 218.58046537 -146.13232422 233.09155273 C-140.00890842 236.24353821 -133.74542757 239.07190167 -127.43261719 241.82080078 C-126.7595755 242.11528107 -126.08653381 242.40976135 -125.39309692 242.71316528 C-105.35158332 251.44310135 -84.71741792 258.67276135 -63.74511719 264.82080078 C-23.29000338 276.71077038 11.10209704 303.13792629 32.44238281 339.50830078 C41.2654321 354.43778296 53.38018268 364.14387769 70.28759766 368.76269531 C72.83376301 369.35255778 75.38550881 369.9043564 77.94238281 370.44580078 C96.23014372 374.58807321 112.29946205 381.66091444 125.75488281 395.07080078 C126.46515625 395.75787109 127.17542969 396.44494141 127.90722656 397.15283203 C142.05963266 411.79418882 145.4008 430.79162763 145.2980957 450.37304688 C145.01402327 461.43047427 143.13777871 471.56484355 139.75488281 482.07080078 C139.52494629 482.79154785 139.29500977 483.51229492 139.05810547 484.25488281 C128.99704001 514.89378209 108.85280573 540.85929142 84.56738281 561.75830078 C66.65796429 577.18852294 53.93460523 597.28287741 50.75488281 621.07080078 C49.88070557 637.62973509 51.76750645 651.68535043 62.37988281 665.12939453 C79.63844653 683.757027 108.62668098 688.52817804 132.75488281 690.07080078 C133.94855469 690.15458984 135.14222656 690.23837891 136.37207031 690.32470703 C157.02442994 691.09236069 173.68564329 678.93353681 188.1796875 665.50537109 C198.36523474 655.84997595 207.50753994 645.42067081 215.75488281 634.07080078 C216.44831787 633.12213135 216.44831787 633.12213135 217.15576172 632.15429688 C235.49907267 606.95138383 250.71608672 579.86512041 264.75488281 552.07080078 C265.20541016 551.18054199 265.6559375 550.2902832 266.12011719 549.37304688 C279.40816863 522.89878671 290.34910617 495.14156957 299.75488281 467.07080078 C300.09100586 466.07048828 300.42712891 465.07017578 300.7734375 464.03955078 C326.46590706 386.52405586 321.47036527 292.35209739 285.21679688 218.95507812 C274.59688183 198.00256037 261.51269615 179.44853091 245.75488281 162.07080078 C245.24038574 161.49990723 244.72588867 160.92901367 244.19580078 160.34082031 C234.88754228 150.03408787 225.29136516 140.13465477 214.75488281 131.07080078 C213.80887207 130.25675781 213.80887207 130.25675781 212.84375 129.42626953 C167.85708581 91.03267937 114.0102787 65.9893036 55.75488281 56.07080078 C54.79179199 55.90418945 53.82870117 55.73757812 52.83642578 55.56591797 C22.54646583 50.58208194 -11.02402764 50.72083826 -41.24511719 56.07080078 Z M-506.24511719 588.07080078 C-506.24511719 626.68080078 -506.24511719 665.29080078 -506.24511719 705.07080078 C-494.69511719 705.07080078 -483.14511719 705.07080078 -471.24511719 705.07080078 C-471.24511719 666.46080078 -471.24511719 627.85080078 -471.24511719 588.07080078 C-482.79511719 588.07080078 -494.34511719 588.07080078 -506.24511719 588.07080078 Z M-87.60449219 906.25830078 C-103.75402983 927.30713636 -106.87220813 956.84778051 -106.62011719 982.50830078 C-106.61546448 983.35864899 -106.61081177 984.20899719 -106.60601807 985.08511353 C-106.44176588 1010.73582997 -103.88347594 1041.54490114 -85.24511719 1061.07080078 C-81.00029949 1058.09353281 -78.58894233 1054.86384337 -76.24511719 1050.32080078 C-75.7313855 1049.33551392 -75.7313855 1049.33551392 -75.20727539 1048.33032227 C-65.06564456 1028.16890351 -63.01137179 1005.49156837 -62.99511719 983.25830078 C-62.99444244 982.43099457 -62.9937677 981.60368835 -62.99307251 980.75131226 C-63.00921108 968.29852325 -63.432933 956.25231911 -66.24511719 944.07080078 C-66.49455078 942.93553955 -66.49455078 942.93553955 -66.74902344 941.77734375 C-69.6145645 929.08671144 -74.11224794 914.71819787 -83.24511719 905.07080078 C-86.16939564 904.74185501 -86.16939564 904.74185501 -87.60449219 906.25830078 Z " fill="#264472" transform="translate(969.2451171875,62.92919921875)"/>
<path d="M0 0 C6.49335645 5.10116382 9.42949778 11.48786776 11.44921875 19.3125 C11.69325439 20.21500488 11.93729004 21.11750977 12.1887207 22.04736328 C17.09796318 40.71936369 20.32765217 59.69179739 22.38671875 78.875 C22.49113281 79.78507813 22.59554687 80.69515625 22.703125 81.6328125 C32.92148608 173.46871584 11.92620436 264.33457611 -25.28125 347.8671875 C-44.94078725 392.16331235 -57.21857827 439.28122384 -58.61328125 487.875 C-58.65453125 489.14988281 -58.69578125 490.42476562 -58.73828125 491.73828125 C-59.44928317 536.66471495 -51.23977811 582.66670805 -32.1796875 623.48828125 C-29.04115793 630.2740796 -28.3584931 637.02707299 -30.86328125 644.1875 C-33.41572849 650.08780828 -36.99290934 653.74056182 -42.61328125 656.875 C-49.60242096 659.3211989 -56.00137684 659.53112671 -63.0390625 657.00390625 C-72.7805817 652.27231121 -76.60188473 642.43578884 -80.48828125 632.875 C-80.91463867 631.8339209 -81.34099609 630.7928418 -81.78027344 629.72021484 C-91.32938146 605.95425807 -97.69990769 581.37486939 -101.86328125 556.125 C-102.08999512 554.76375 -102.08999512 554.76375 -102.32128906 553.375 C-105.14578586 535.11459636 -105.99336983 516.82816445 -105.92578125 498.375 C-105.92395844 497.33217865 -105.92213562 496.2893573 -105.92025757 495.2149353 C-105.869648 477.92607943 -105.11895568 461.00403484 -102.61328125 443.875 C-102.4416748 442.68535645 -102.27006836 441.49571289 -102.09326172 440.27001953 C-95.76700635 397.75012083 -82.45389763 357.78240932 -64.83203125 318.70703125 C-25.99116159 232.2578471 -8.50131317 127.15631267 -34.42578125 34.3125 C-36.98684661 25.11034062 -38.51451028 16.8430304 -34.01171875 7.94921875 C-30.86462559 3.28132358 -26.78512786 -0.01494507 -21.80078125 -2.5625 C-13.7089365 -3.9904726 -7.43372847 -3.63482818 0 0 Z " fill="#264472" transform="translate(992.61328125,889.125)"/>
<path d="M0 0 C6.06418431 6.40108344 7.99093386 12.69633014 8.25 21.375 C7.92758598 25.50736795 7.27236374 29.5618256 6.58984375 33.6484375 C6.20725025 36.08015555 5.82468303 38.51187773 5.44213867 40.94360352 C5.23736908 42.21487091 5.03259949 43.48613831 4.82162476 44.79592896 C3.73210082 51.56222012 2.70168878 58.33768909 1.671875 65.11328125 C1.56715567 65.80080664 1.46243633 66.48833202 1.35454369 67.19669151 C-4.54772738 106.03912214 -8.23986063 145.17504125 -10.75 184.375 C-10.80441254 185.22178314 -10.85882507 186.06856628 -10.91488647 186.94100952 C-11.83779609 201.88673895 -11.93760135 216.82985238 -11.93530273 231.80053711 C-11.93518195 235.77530533 -11.95568563 239.74988634 -11.97460938 243.72460938 C-12.02592622 266.87476459 -11.1024257 290.03543133 -8 313 C-7.83153564 314.26448975 -7.66307129 315.52897949 -7.48950195 316.83178711 C-5.03756105 334.37763593 -1.53178066 351.57524328 4.125 368.375 C7.34334606 377.99738206 9.40174602 386.02189894 5.3125 395.75 C1.94251048 401.74645699 -3.30502231 405.2266741 -9.75 407.375 C-17.25764886 408.06263751 -24.4725484 407.96236848 -30.75 403.375 C-36.71367981 398.03126645 -38.88534676 391.60922669 -41.25 384.125 C-41.82463989 382.34403931 -41.82463989 382.34403931 -42.41088867 380.52709961 C-55.44404083 339.0425626 -59.00150504 294.67543341 -59.75 251.375 C-59.77191406 250.27704102 -59.79382813 249.17908203 -59.81640625 248.04785156 C-61.01622594 179.39816817 -53.49538838 110.69422161 -43.5625 42.875 C-43.39423706 41.7163443 -43.22597412 40.5576886 -43.0526123 39.36392212 C-42.57062076 36.06424949 -42.07833443 32.76629719 -41.58203125 29.46875 C-41.44156876 28.5063591 -41.30110626 27.5439682 -41.15638733 26.55241394 C-37.99337062 5.93573504 -37.99337062 5.93573504 -29.75 -0.625 C-19.72169508 -6.39045869 -9.8811359 -5.83885303 0 0 Z " fill="#264472" transform="translate(809.75,1146.625)"/>
</svg>
